<svg width="25" height="41" viewBox="0 0 25 41" fill="none" xmlns="http://www.w3.org/2000/svg">
<mask id="path-1-outside-1_6816_97149" maskUnits="userSpaceOnUse" x="-0.558594" y="-0.84375" width="26" height="41" fill="black">
<rect fill="white" x="-0.558594" y="-0.84375" width="26" height="41"/>
<path d="M1.00055 39.1562V33.5162H9.52055V8.43625H2.50055V4.11625C4.38055 3.75625 6.02055 3.33625 7.42055 2.85625C8.82055 2.33625 10.1205 1.71625 11.3205 0.996248H16.4805V33.5162H23.9805V39.1562H1.00055Z"/>
</mask>
<path d="M1.00055 39.1562H0.000546932V40.1562H1.00055V39.1562ZM1.00055 33.5163V32.5163H0.000546932V33.5163H1.00055ZM9.52055 33.5163V34.5163H10.5205V33.5163H9.52055ZM9.52055 8.43625H10.5205V7.43625H9.52055V8.43625ZM2.50055 8.43625H1.50055V9.43625H2.50055V8.43625ZM2.50055 4.11625L2.31248 3.13409L1.50055 3.28957V4.11625H2.50055ZM7.42055 2.85625L7.74487 3.8022L7.75686 3.79809L7.76873 3.79367L7.42055 2.85625ZM11.3205 0.996248V-0.00375175H11.0436L10.8061 0.138755L11.3205 0.996248ZM16.4805 0.996248H17.4805V-0.00375175H16.4805V0.996248ZM16.4805 33.5163H15.4805V34.5163H16.4805V33.5163ZM23.9805 33.5163H24.9805V32.5163H23.9805V33.5163ZM23.9805 39.1562V40.1562H24.9805V39.1562H23.9805ZM1.00055 39.1562H2.00055V33.5163H1.00055H0.000546932V39.1562H1.00055ZM1.00055 33.5163V34.5163H9.52055V33.5163V32.5163H1.00055V33.5163ZM9.52055 33.5163H10.5205V8.43625H9.52055H8.52055V33.5163H9.52055ZM9.52055 8.43625V7.43625H2.50055V8.43625V9.43625H9.52055V8.43625ZM2.50055 8.43625H3.50055V4.11625H2.50055H1.50055V8.43625H2.50055ZM2.50055 4.11625L2.68862 5.0984C4.60221 4.73197 6.28966 4.30112 7.74487 3.8022L7.42055 2.85625L7.09622 1.9103C5.75143 2.37137 4.15889 2.78052 2.31248 3.13409L2.50055 4.11625ZM7.42055 2.85625L7.76873 3.79367C9.22267 3.25364 10.5788 2.60749 11.835 1.85374L11.3205 0.996248L10.8061 0.138755C9.66231 0.825002 8.41842 1.41886 7.07236 1.91882L7.42055 2.85625ZM11.3205 0.996248V1.99625H16.4805V0.996248V-0.00375175H11.3205V0.996248ZM16.4805 0.996248H15.4805V33.5163H16.4805H17.4805V0.996248H16.4805ZM16.4805 33.5163V34.5163H23.9805V33.5163V32.5163H16.4805V33.5163ZM23.9805 33.5163H22.9805V39.1562H23.9805H24.9805V33.5163H23.9805ZM23.9805 39.1562V38.1562H1.00055V39.1562V40.1562H23.9805V39.1562Z" fill="#000080" fill-opacity="0.36" mask="url(#path-1-outside-1_6816_97149)"/>
</svg>
