<svg width="29" height="41" viewBox="0 0 29 41" fill="none" xmlns="http://www.w3.org/2000/svg">
<mask id="path-1-outside-1_6816_97170" maskUnits="userSpaceOnUse" x="-0.835938" y="-0.117188" width="30" height="41" fill="black">
<rect fill="white" x="-0.835938" y="-0.117188" width="30" height="41"/>
<path d="M1.5632 39.8828V35.6228C5.0832 32.3428 8.1232 29.3628 10.6832 26.6828C13.2832 23.9628 15.2832 21.5028 16.6832 19.3028C18.1232 17.0628 18.8432 14.9828 18.8432 13.0628C18.8432 11.0228 18.3032 9.42281 17.2232 8.26281C16.1832 7.06281 14.6232 6.46281 12.5432 6.46281C11.0632 6.46281 9.7032 6.88281 8.4632 7.72281C7.2632 8.56281 6.1432 9.56281 5.1032 10.7228L1.3832 7.06281C3.1032 5.14281 4.9032 3.66281 6.7832 2.62281C8.6632 1.54281 10.8832 1.00281 13.4432 1.00281C15.8832 1.00281 18.0032 1.48281 19.8032 2.44281C21.6032 3.40281 23.0032 4.76281 24.0032 6.52281C25.0032 8.24281 25.5032 10.2828 25.5032 12.6428C25.5032 15.0028 24.8432 17.3428 23.5232 19.6628C22.2432 21.9828 20.5032 24.3628 18.3032 26.8028C16.1032 29.2028 13.6632 31.7428 10.9832 34.4228C11.9832 34.3028 13.0632 34.2028 14.2232 34.1228C15.4232 34.0428 16.4832 34.0028 17.4032 34.0028H27.3632V39.8828H1.5632Z"/>
</mask>
<path d="M1.5632 39.8828H0.563203V40.8828H1.5632V39.8828ZM1.5632 35.6228L0.881478 34.8912L0.563203 35.1878V35.6228H1.5632ZM10.6832 26.6828L9.96033 25.9918L9.96009 25.9921L10.6832 26.6828ZM16.6832 19.3028L15.842 18.762L15.8395 18.7659L16.6832 19.3028ZM17.2232 8.26281L16.4675 8.91774L16.4792 8.9312L16.4913 8.94423L17.2232 8.26281ZM8.4632 7.72281L7.90236 6.89489L7.89602 6.89919L7.88974 6.90358L8.4632 7.72281ZM5.1032 10.7228L4.40187 11.4356L5.14854 12.1703L5.84777 11.3904L5.1032 10.7228ZM1.3832 7.06281L0.638368 6.39556L0.00161254 7.10636L0.681868 7.77564L1.3832 7.06281ZM6.7832 2.62281L7.26727 3.49784L7.27433 3.49394L7.28133 3.48992L6.7832 2.62281ZM19.8032 2.44281L19.3326 3.32516V3.32516L19.8032 2.44281ZM24.0032 6.52281L23.1337 7.01684L23.1387 7.02543L24.0032 6.52281ZM23.5232 19.6628L22.654 19.1682L22.6476 19.1797L23.5232 19.6628ZM18.3032 26.8028L19.0404 27.4786L19.0459 27.4725L18.3032 26.8028ZM10.9832 34.4228L10.2761 33.7157L8.23163 35.7602L11.1023 35.4157L10.9832 34.4228ZM14.2232 34.1228L14.1567 33.125L14.1544 33.1252L14.2232 34.1228ZM27.3632 34.0028H28.3632V33.0028H27.3632V34.0028ZM27.3632 39.8828V40.8828H28.3632V39.8828H27.3632ZM1.5632 39.8828H2.5632V35.6228H1.5632H0.563203V39.8828H1.5632ZM1.5632 35.6228L2.24493 36.3544C5.77519 33.0649 8.82967 30.071 11.4063 27.3735L10.6832 26.6828L9.96009 25.9921C7.41674 28.6547 4.39121 31.6208 0.881478 34.8912L1.5632 35.6228ZM10.6832 26.6828L11.4061 27.3738C14.0333 24.6253 16.0801 22.1132 17.5269 19.8397L16.6832 19.3028L15.8395 18.7659C14.4863 20.8924 12.5331 23.3003 9.96033 25.9918L10.6832 26.6828ZM16.6832 19.3028L17.5244 19.8436C19.0294 17.5024 19.8432 15.2353 19.8432 13.0628H18.8432H17.8432C17.8432 14.7303 17.217 16.6233 15.842 18.7621L16.6832 19.3028ZM18.8432 13.0628H19.8432C19.8432 10.8451 19.2526 8.97495 17.9551 7.58139L17.2232 8.26281L16.4913 8.94423C17.3539 9.87067 17.8432 11.2006 17.8432 13.0628H18.8432ZM17.2232 8.26281L17.9789 7.60788C16.6942 6.12553 14.8176 5.46281 12.5432 5.46281V6.46281V7.46281C14.4288 7.46281 15.6722 8.00009 16.4675 8.91774L17.2232 8.26281ZM12.5432 6.46281V5.46281C10.8607 5.46281 9.30578 5.94418 7.90236 6.89489L8.4632 7.72281L9.02405 8.55073C10.1006 7.82144 11.2657 7.46281 12.5432 7.46281V6.46281ZM8.4632 7.72281L7.88974 6.90358C6.62325 7.79012 5.44646 8.84193 4.35863 10.0553L5.1032 10.7228L5.84777 11.3904C6.83995 10.2837 7.90315 9.3355 9.03667 8.54204L8.4632 7.72281ZM5.1032 10.7228L5.80454 10.01L2.08454 6.34998L1.3832 7.06281L0.681868 7.77564L4.40187 11.4356L5.1032 10.7228ZM1.3832 7.06281L2.12804 7.73006C3.78784 5.87726 5.50255 4.47407 7.26727 3.49784L6.7832 2.62281L6.29914 1.74778C4.30386 2.85155 2.41857 4.40836 0.638368 6.39556L1.3832 7.06281ZM6.7832 2.62281L7.28133 3.48992C8.9844 2.51156 11.0262 2.00281 13.4432 2.00281V1.00281V0.00281239C10.7402 0.00281239 8.34201 0.574066 6.28508 1.7557L6.7832 2.62281ZM13.4432 1.00281V2.00281C15.7511 2.00281 17.7033 2.4562 19.3326 3.32516L19.8032 2.44281L20.2738 1.56046C18.3031 0.509428 16.0153 0.00281239 13.4432 0.00281239V1.00281ZM19.8032 2.44281L19.3326 3.32516C20.967 4.19681 22.228 5.42276 23.1337 7.01682L24.0032 6.52281L24.8727 6.0288C23.7784 4.10286 22.2394 2.60881 20.2738 1.56046L19.8032 2.44281ZM24.0032 6.52281L23.1387 7.02543C24.0347 8.56656 24.5032 10.4263 24.5032 12.6428H25.5032H26.5032C26.5032 10.1393 25.9717 7.91907 24.8677 6.02019L24.0032 6.52281ZM25.5032 12.6428H24.5032C24.5032 14.8077 23.8997 16.9789 22.654 19.1683L23.5232 19.6628L24.3924 20.1573C25.7867 17.7067 26.5032 15.198 26.5032 12.6428H25.5032ZM23.5232 19.6628L22.6476 19.1797C21.4122 21.4189 19.7209 23.7371 17.5605 26.1332L18.3032 26.8028L19.0459 27.4725C21.2855 24.9885 23.0742 22.5467 24.3988 20.1459L23.5232 19.6628ZM18.3032 26.8028L17.566 26.1271C15.3773 28.5149 12.9475 31.0443 10.2761 33.7157L10.9832 34.4228L11.6903 35.1299C14.3789 32.4413 16.8291 29.8908 19.0404 27.4785L18.3032 26.8028ZM10.9832 34.4228L11.1023 35.4157C12.0833 35.298 13.1463 35.1995 14.292 35.1204L14.2232 34.1228L14.1544 33.1252C12.9801 33.2062 11.8831 33.3076 10.8641 33.4299L10.9832 34.4228ZM14.2232 34.1228L14.2897 35.1206C15.4739 35.0417 16.5109 35.0028 17.4032 35.0028V34.0028V33.0028C16.4555 33.0028 15.3725 33.044 14.1567 33.125L14.2232 34.1228ZM17.4032 34.0028V35.0028H27.3632V34.0028V33.0028H17.4032V34.0028ZM27.3632 34.0028H26.3632V39.8828H27.3632H28.3632V34.0028H27.3632ZM27.3632 39.8828V38.8828H1.5632V39.8828V40.8828H27.3632V39.8828Z" fill="#000080" fill-opacity="0.36" mask="url(#path-1-outside-1_6816_97170)"/>
</svg>
