<svg width="29" height="42" viewBox="0 0 29 42" fill="none" xmlns="http://www.w3.org/2000/svg">
<mask id="path-1-outside-1_6816_97192" maskUnits="userSpaceOnUse" x="-0.273438" y="-0.117188" width="29" height="42" fill="black">
<rect fill="white" x="-0.273438" y="-0.117188" width="29" height="42"/>
<path d="M14.2457 40.6028C12.2057 40.6028 10.3657 40.3628 8.7257 39.8828C7.1257 39.4028 5.7057 38.7628 4.4657 37.9628C3.2257 37.1228 2.1657 36.2028 1.2857 35.2028L4.5857 30.7628C5.7457 31.9228 7.0657 32.9228 8.5457 33.7628C10.0257 34.5628 11.7257 34.9628 13.6457 34.9628C15.7257 34.9628 17.4057 34.4628 18.6857 33.4628C20.0057 32.4228 20.6657 31.0028 20.6657 29.2028C20.6657 27.8828 20.3257 26.7428 19.6457 25.7828C19.0057 24.8228 17.8657 24.0828 16.2257 23.5628C14.6257 23.0028 12.3657 22.7228 9.4457 22.7228V17.6828C11.9657 17.6828 13.9457 17.4228 15.3857 16.9028C16.8257 16.3428 17.8457 15.6228 18.4457 14.7428C19.0857 13.8228 19.4057 12.7628 19.4057 11.5628C19.4057 9.96281 18.9057 8.72281 17.9057 7.84281C16.9057 6.92281 15.5257 6.46281 13.7657 6.46281C12.2857 6.46281 10.9257 6.80281 9.6857 7.48281C8.4457 8.12281 7.2457 8.98281 6.0857 10.0628L2.5457 5.80281C4.1857 4.36281 5.9457 3.20281 7.8257 2.32281C9.7057 1.44281 11.7657 1.00281 14.0057 1.00281C16.4457 1.00281 18.5857 1.40281 20.4257 2.20281C22.2657 2.96281 23.7057 4.10281 24.7457 5.62281C25.8257 7.10281 26.3657 8.92281 26.3657 11.0828C26.3657 13.2028 25.7657 14.9828 24.5657 16.4228C23.4057 17.8628 21.7857 19.0028 19.7057 19.8428V20.0828C21.1857 20.4828 22.5257 21.1028 23.7257 21.9428C24.9257 22.7828 25.8657 23.8428 26.5457 25.1228C27.2657 26.4028 27.6257 27.8828 27.6257 29.5628C27.6257 31.8828 27.0057 33.8828 25.7657 35.5628C24.5657 37.2028 22.9457 38.4628 20.9057 39.3428C18.9057 40.1828 16.6857 40.6028 14.2457 40.6028Z"/>
</mask>
<path d="M8.7257 39.8828L8.43835 40.8407L8.4448 40.8425L8.7257 39.8828ZM4.4657 37.9628L3.90486 38.7907L3.91415 38.797L3.92358 38.8031L4.4657 37.9628ZM1.2857 35.2028L0.483108 34.6063L0.000318497 35.2559L0.53499 35.8634L1.2857 35.2028ZM4.5857 30.7628L5.29281 30.0557L4.47393 29.2368L3.78311 30.1663L4.5857 30.7628ZM8.5457 33.7628L8.0521 34.6325L8.06109 34.6376L8.07019 34.6425L8.5457 33.7628ZM18.6857 33.4628L19.3014 34.2508L19.3046 34.2483L18.6857 33.4628ZM19.6457 25.7828L18.8137 26.3375L18.8215 26.3493L18.8297 26.3608L19.6457 25.7828ZM16.2257 23.5628L15.8954 24.5067L15.9093 24.5116L15.9235 24.516L16.2257 23.5628ZM9.4457 22.7228H8.4457V23.7228H9.4457V22.7228ZM9.4457 17.6828V16.6828H8.4457V17.6828H9.4457ZM15.3857 16.9028L15.7253 17.8434L15.7368 17.8392L15.7481 17.8348L15.3857 16.9028ZM18.4457 14.7428L17.6248 14.1717L17.6195 14.1795L18.4457 14.7428ZM17.9057 7.84281L17.2286 8.57874L17.2368 8.58622L17.2451 8.59352L17.9057 7.84281ZM9.6857 7.48281L10.1443 8.37143L10.1555 8.36567L10.1665 8.35962L9.6857 7.48281ZM6.0857 10.0628L5.31659 10.7019L5.99278 11.5156L6.76712 10.7947L6.0857 10.0628ZM2.5457 5.80281L1.8859 5.05137L1.15463 5.69346L1.77659 6.44193L2.5457 5.80281ZM7.8257 2.32281L7.40176 1.41712L7.40176 1.41712L7.8257 2.32281ZM20.4257 2.20281L20.027 3.11988L20.0354 3.12356L20.0439 3.12707L20.4257 2.20281ZM24.7457 5.62281L23.9204 6.18749L23.929 6.20002L23.9379 6.21228L24.7457 5.62281ZM24.5657 16.4228L23.7975 15.7826L23.7922 15.789L23.787 15.7955L24.5657 16.4228ZM19.7057 19.8428L19.3312 18.9156L18.7057 19.1682V19.8428H19.7057ZM19.7057 20.0828H18.7057V20.8484L19.4448 21.0482L19.7057 20.0828ZM26.5457 25.1228L25.6626 25.592L25.6682 25.6026L25.6741 25.6131L26.5457 25.1228ZM25.7657 35.5628L24.9611 34.969L24.9587 34.9723L25.7657 35.5628ZM20.9057 39.3428L21.293 40.2648L21.3018 40.261L20.9057 39.3428ZM14.2457 40.6028V39.6028C12.283 39.6028 10.5397 39.3718 9.0066 38.9231L8.7257 39.8828L8.4448 40.8425C10.1917 41.3538 12.1284 41.6028 14.2457 41.6028V40.6028ZM8.7257 39.8828L9.01305 38.925C7.49141 38.4685 6.15923 37.8654 5.00783 37.1225L4.4657 37.9628L3.92358 38.8031C5.25218 39.6603 6.75999 40.3371 8.43836 40.8406L8.7257 39.8828ZM4.4657 37.9628L5.02655 37.1349C3.84812 36.3366 2.85403 35.4713 2.03642 34.5422L1.2857 35.2028L0.53499 35.8634C1.47738 36.9343 2.60329 37.909 3.90486 38.7907L4.4657 37.9628ZM1.2857 35.2028L2.0883 35.7993L5.3883 31.3593L4.5857 30.7628L3.78311 30.1663L0.483108 34.6063L1.2857 35.2028ZM4.5857 30.7628L3.8786 31.4699C5.10448 32.6958 6.49688 33.7498 8.0521 34.6325L8.5457 33.7628L9.03931 32.8931C7.63453 32.0958 6.38693 31.1498 5.29281 30.0557L4.5857 30.7628ZM8.5457 33.7628L8.07019 34.6425C9.71577 35.532 11.5834 35.9628 13.6457 35.9628V34.9628V33.9628C11.868 33.9628 10.3356 33.5936 9.02122 32.8831L8.5457 33.7628ZM13.6457 34.9628V35.9628C15.8855 35.9628 17.8014 35.4227 19.3013 34.2508L18.6857 33.4628L18.0701 32.6748C17.01 33.5029 15.5659 33.9628 13.6457 33.9628V34.9628ZM18.6857 33.4628L19.3046 34.2483C20.8843 33.0037 21.6657 31.2841 21.6657 29.2028H20.6657H19.6657C19.6657 30.7215 19.1271 31.842 18.0668 32.6773L18.6857 33.4628ZM20.6657 29.2028H21.6657C21.6657 27.7021 21.2758 26.3541 20.4617 25.2048L19.6457 25.7828L18.8297 26.3608C19.3756 27.1316 19.6657 28.0635 19.6657 29.2028H20.6657ZM19.6457 25.7828L20.4778 25.2281C19.6628 24.0056 18.2825 23.1659 16.5279 22.6096L16.2257 23.5628L15.9235 24.516C17.4489 24.9997 18.3486 25.64 18.8137 26.3375L19.6457 25.7828ZM16.2257 23.5628L16.5561 22.619C14.8 22.0043 12.4092 21.7228 9.4457 21.7228V22.7228V23.7228C12.3222 23.7228 14.4514 24.0013 15.8954 24.5067L16.2257 23.5628ZM9.4457 22.7228H10.4457V17.6828H9.4457H8.4457V22.7228H9.4457ZM9.4457 17.6828V18.6828C12.0167 18.6828 14.1287 18.4199 15.7253 17.8434L15.3857 16.9028L15.0461 15.9623C13.7627 16.4257 11.9147 16.6828 9.4457 16.6828V17.6828ZM15.3857 16.9028L15.7481 17.8348C17.2955 17.2331 18.5175 16.4127 19.2719 15.3061L18.4457 14.7428L17.6195 14.1795C17.1739 14.8329 16.3559 15.4526 15.0233 15.9708L15.3857 16.9028ZM18.4457 14.7428L19.2666 15.3139C20.0316 14.2142 20.4057 12.9518 20.4057 11.5628H19.4057H18.4057C18.4057 12.5739 18.1398 13.4314 17.6248 14.1717L18.4457 14.7428ZM19.4057 11.5628H20.4057C20.4057 9.73859 19.8253 8.20002 18.5663 7.0921L17.9057 7.84281L17.2451 8.59352C17.9861 9.2456 18.4057 10.187 18.4057 11.5628H19.4057ZM17.9057 7.84281L18.5828 7.10688C17.3488 5.97163 15.7002 5.46281 13.7657 5.46281V6.46281V7.46281C15.3512 7.46281 16.4626 7.87399 17.2286 8.57874L17.9057 7.84281ZM13.7657 6.46281V5.46281C12.1257 5.46281 10.5992 5.84137 9.20487 6.606L9.6857 7.48281L10.1665 8.35962C11.2522 7.76425 12.4457 7.46281 13.7657 7.46281V6.46281ZM9.6857 7.48281L9.22706 6.59419C7.89588 7.28125 6.62216 8.19703 5.40428 9.33092L6.0857 10.0628L6.76712 10.7947C7.86924 9.76859 8.99553 8.96437 10.1443 8.37143L9.6857 7.48281ZM6.0857 10.0628L6.85481 9.42369L3.31481 5.16369L2.5457 5.80281L1.77659 6.44193L5.31659 10.7019L6.0857 10.0628ZM2.5457 5.80281L3.2055 6.55425C4.77821 5.17334 6.45945 4.06646 8.24964 3.2285L7.8257 2.32281L7.40176 1.41712C5.43196 2.33916 3.59319 3.55229 1.8859 5.05137L2.5457 5.80281ZM7.8257 2.32281L8.24964 3.2285C9.98667 2.41542 11.9004 2.00281 14.0057 2.00281V1.00281V0.00281239C11.631 0.00281239 9.42474 0.470199 7.40176 1.41712L7.8257 2.32281ZM14.0057 1.00281V2.00281C16.3375 2.00281 18.3369 2.38506 20.027 3.11988L20.4257 2.20281L20.8244 1.28574C18.8345 0.420566 16.5539 0.00281239 14.0057 0.00281239V1.00281ZM20.4257 2.20281L20.0439 3.12707C21.7195 3.81914 22.9991 4.84096 23.9204 6.18749L24.7457 5.62281L25.571 5.05813C24.4123 3.36467 22.8119 2.10648 20.8075 1.27855L20.4257 2.20281ZM24.7457 5.62281L23.9379 6.21228C24.8718 7.49204 25.3657 9.09562 25.3657 11.0828H26.3657H27.3657C27.3657 8.75 26.7796 6.71358 25.5535 5.03334L24.7457 5.62281ZM26.3657 11.0828H25.3657C25.3657 13.0014 24.8281 14.5458 23.7975 15.7826L24.5657 16.4228L25.3339 17.063C26.7033 15.4198 27.3657 13.4042 27.3657 11.0828H26.3657ZM24.5657 16.4228L23.787 15.7955C22.7545 17.0771 21.2866 18.1259 19.3312 18.9156L19.7057 19.8428L20.0802 20.7701C22.2848 19.8797 24.0569 18.6485 25.3445 17.0501L24.5657 16.4228ZM19.7057 19.8428H18.7057V20.0828H19.7057H20.7057V19.8428H19.7057ZM19.7057 20.0828L19.4448 21.0482C20.8182 21.4194 22.0515 21.9916 23.1522 22.762L23.7257 21.9428L24.2992 21.1236C22.9999 20.2141 21.5532 19.5463 19.9666 19.1174L19.7057 20.0828ZM23.7257 21.9428L23.1522 22.762C24.2242 23.5124 25.0575 24.453 25.6626 25.592L26.5457 25.1228L27.4288 24.6537C26.6739 23.2326 25.6272 22.0532 24.2992 21.1236L23.7257 21.9428ZM26.5457 25.1228L25.6741 25.6131C26.2985 26.723 26.6257 28.0295 26.6257 29.5628H27.6257H28.6257C28.6257 27.7361 28.233 26.0826 27.4173 24.6325L26.5457 25.1228ZM27.6257 29.5628H26.6257C26.6257 31.694 26.0601 33.48 24.9611 34.969L25.7657 35.5628L26.5703 36.1567C27.9513 34.2856 28.6257 32.0716 28.6257 29.5628H27.6257ZM25.7657 35.5628L24.9587 34.9723C23.8737 36.4551 22.4016 37.6084 20.5096 38.4246L20.9057 39.3428L21.3018 40.261C23.4898 39.3172 25.2577 37.9505 26.5727 36.1533L25.7657 35.5628ZM20.9057 39.3428L20.5185 38.4208C18.6555 39.2033 16.5693 39.6028 14.2457 39.6028V40.6028V41.6028C16.8021 41.6028 19.1559 41.1623 21.2929 40.2648L20.9057 39.3428Z" fill="#000080" fill-opacity="0.36" mask="url(#path-1-outside-1_6816_97192)"/>
</svg>
