<svg width="31" height="41" viewBox="0 0 31 41" fill="none" xmlns="http://www.w3.org/2000/svg">
<mask id="path-1-outside-1_6816_97213" maskUnits="userSpaceOnUse" x="-0.199219" y="-0.84375" width="31" height="41" fill="black">
<rect fill="white" x="-0.199219" y="-0.84375" width="31" height="41"/>
<path d="M17.8599 39.1562V15.3362C17.8599 14.2562 17.8999 12.9362 17.9799 11.3762C18.0599 9.81625 18.1199 8.49625 18.1599 7.41625H17.9199C17.4399 8.37625 16.9399 9.35625 16.4199 10.3562C15.8999 11.3162 15.3599 12.3162 14.7999 13.3562L7.83992 23.9762H29.1399V29.3162H0.999922V24.6362L16.1199 0.996248H24.3399V39.1562H17.8599Z"/>
</mask>
<path d="M17.8599 39.1562H16.8599V40.1562H17.8599V39.1562ZM17.9799 11.3762L18.9786 11.4275V11.4275L17.9799 11.3762ZM18.1599 7.41625L19.1592 7.45326L19.1976 6.41625H18.1599V7.41625ZM17.9199 7.41625V6.41625H17.3019L17.0255 6.96903L17.9199 7.41625ZM16.4199 10.3562L17.2992 10.8325L17.3032 10.8251L17.3071 10.8176L16.4199 10.3562ZM14.7999 13.3562L15.6363 13.9044L15.6599 13.8683L15.6804 13.8303L14.7999 13.3562ZM7.83992 23.9762L7.00354 23.4281L5.98893 24.9762H7.83992V23.9762ZM29.1399 23.9762H30.1399V22.9762H29.1399V23.9762ZM29.1399 29.3162V30.3162H30.1399V29.3162H29.1399ZM0.999922 29.3162H-7.80523e-05V30.3162H0.999922V29.3162ZM0.999922 24.6362L0.157495 24.0974L-7.80523e-05 24.3438V24.6362H0.999922ZM16.1199 0.996248V-0.00375175H15.5725L15.2775 0.457437L16.1199 0.996248ZM24.3399 0.996248H25.3399V-0.00375175H24.3399V0.996248ZM24.3399 39.1562V40.1562H25.3399V39.1562H24.3399ZM17.8599 39.1562H18.8599V15.3362H17.8599H16.8599V39.1562H17.8599ZM17.8599 15.3362H18.8599C18.8599 14.279 18.8991 12.9772 18.9786 11.4275L17.9799 11.3762L16.9812 11.325C16.9007 12.8953 16.8599 14.2335 16.8599 15.3362H17.8599ZM17.9799 11.3762L18.9786 11.4275C19.0588 9.86461 19.119 8.53956 19.1592 7.45326L18.1599 7.41625L17.1606 7.37923C17.1208 8.45293 17.0611 9.76789 16.9812 11.325L17.9799 11.3762ZM18.1599 7.41625V6.41625H17.9199V7.41625V8.41625H18.1599V7.41625ZM17.9199 7.41625L17.0255 6.96903C16.548 7.92408 16.0504 8.89936 15.5327 9.8949L16.4199 10.3562L17.3071 10.8176C17.8295 9.81314 18.3319 8.82842 18.8144 7.86346L17.9199 7.41625ZM16.4199 10.3562L15.5406 9.87997C15.0202 10.8407 14.4798 11.8415 13.9195 12.8822L14.7999 13.3562L15.6804 13.8303C16.24 12.791 16.7796 11.7917 17.2992 10.8325L16.4199 10.3562ZM14.7999 13.3562L13.9635 12.8081L7.00354 23.4281L7.83992 23.9762L8.67631 24.5244L15.6363 13.9044L14.7999 13.3562ZM7.83992 23.9762V24.9762H29.1399V23.9762V22.9762H7.83992V23.9762ZM29.1399 23.9762H28.1399V29.3162H29.1399H30.1399V23.9762H29.1399ZM29.1399 29.3162V28.3162H0.999922V29.3162V30.3162H29.1399V29.3162ZM0.999922 29.3162H1.99992V24.6362H0.999922H-7.80523e-05V29.3162H0.999922ZM0.999922 24.6362L1.84235 25.1751L16.9623 1.53506L16.1199 0.996248L15.2775 0.457437L0.157495 24.0974L0.999922 24.6362ZM16.1199 0.996248V1.99625H24.3399V0.996248V-0.00375175H16.1199V0.996248ZM24.3399 0.996248H23.3399V39.1562H24.3399H25.3399V0.996248H24.3399ZM24.3399 39.1562V38.1562H17.8599V39.1562V40.1562H24.3399V39.1562Z" fill="#000080" fill-opacity="0.36" mask="url(#path-1-outside-1_6816_97213)"/>
</svg>
