<svg width="13" height="15" viewBox="0 0 13 15" fill="none" xmlns="http://www.w3.org/2000/svg">
<path d="M10.3138 8.73039V8.73664C10.3138 8.73976 10.3124 8.74289 10.3124 8.74601C10.2706 9.93057 9.75406 11.0176 8.91806 11.7919C8.91775 11.7919 8.91903 11.786 8.91872 11.786C8.86606 11.8204 7.84853 12.9179 6.09531 12.9491H6.09503C6.04315 12.9491 5.99128 12.9585 5.93909 12.9585C5.8869 12.9585 5.8344 12.9607 5.78253 12.9588C4.69222 12.9207 3.70378 12.4852 2.95847 11.7902C2.934 11.7684 2.86815 11.7139 2.83675 11.6825C2.80703 11.6528 2.75128 11.5983 2.72003 11.5707V11.5704C1.12628 9.83889 1.20312 7.24157 2.73112 5.60085C2.76644 5.56273 2.80784 5.51164 2.84472 5.48039H2.84503C2.8819 5.44914 2.9194 5.41523 2.95784 5.37992C4.7314 3.72676 7.51212 3.84898 9.14065 5.6072C9.83565 6.35314 10.2728 7.3427 10.311 8.4327C10.311 8.43929 10.3157 8.47639 10.3157 8.48689C10.3166 8.52095 10.3152 8.5552 10.3152 8.58957C10.3152 8.63642 10.3138 8.68382 10.3138 8.73039Z" fill="#F9F0F1"/>
<path d="M5.9375 2.8125C5.85122 2.8125 5.78125 2.74256 5.78125 2.65625V0.15625C5.78125 0.0699375 5.85122 0 5.9375 0C6.02378 0 6.09375 0.0699375 6.09375 0.15625V2.65625C6.09375 2.74256 6.02378 2.8125 5.9375 2.8125Z" fill="#3C4D85"/>
<path d="M12.1877 3.28125C12.1877 3.80469 12.0264 4.29031 11.7514 4.69187C10.804 3.28669 9.36116 2.23688 7.66797 1.80844C8.12266 1.18594 8.85766 0.78125 9.68766 0.78125C11.0683 0.78125 12.1877 1.90062 12.1877 3.28125Z" fill="#FF4F75"/>
<path d="M2.5 0.78125C3.30188 0.78125 4.01531 1.15969 4.47281 1.74688C2.76459 2.10888 1.2935 3.09259 0.291563 4.45344C0.105625 4.10375 0 3.705 0 3.28125C0 1.90062 1.11906 0.78125 2.5 0.78125Z" fill="#FF4F75"/>
<path d="M5.9375 8.75H4.375C4.28872 8.75 4.21875 8.68006 4.21875 8.59375C4.21875 8.50744 4.28872 8.4375 4.375 8.4375H5.78125V6.40625C5.78125 6.31994 5.85122 6.25 5.9375 6.25C6.02378 6.25 6.09375 6.31994 6.09375 6.40625V8.59375C6.09375 8.68006 6.02378 8.75 5.9375 8.75Z" fill="#A05E4E"/>
<path d="M6.09375 4.22656V5.16125C6.09375 5.2475 6.02375 5.3175 5.9375 5.3175C5.85125 5.3175 5.78125 5.2475 5.78125 5.16125V4.22656H6.09375Z" fill="#C47D53"/>
<path d="M5.78125 12.9644V12.0312C5.78125 11.945 5.85125 11.875 5.9375 11.875C6.02375 11.875 6.09375 11.945 6.09375 12.0312V12.9594L5.78125 12.9644Z" fill="#C47D53"/>
<path d="M10.3097 8.75H9.375C9.28875 8.75 9.21875 8.68 9.21875 8.59375C9.21875 8.5075 9.28875 8.4375 9.375 8.4375H10.3097C10.3158 8.61247 10.3097 8.74025 10.3097 8.75Z" fill="#C47D53"/>
<path d="M2.65625 8.59375C2.65625 8.68 2.58625 8.75 2.5 8.75H1.56531C1.56156 8.64631 1.56156 8.54125 1.56531 8.4375H2.5C2.58625 8.4375 2.65625 8.5075 2.65625 8.59375Z" fill="#C47D53"/>
<path d="M9.13852 5.61937L8.47789 6.28C8.41664 6.34125 8.31789 6.34125 8.25664 6.28C8.1957 6.21906 8.1957 6.12031 8.25664 6.05906L8.91727 5.39844C8.95539 5.43344 8.9932 5.47 9.03008 5.50688C9.06695 5.54375 9.1032 5.58125 9.13852 5.61937Z" fill="#C47D53"/>
<path d="M2.73047 11.5854C2.73256 11.5823 2.72969 11.5859 3.39422 10.9207C3.45547 10.8598 3.55422 10.8598 3.61516 10.9207C3.67641 10.9816 3.67641 11.0807 3.61547 11.1416L2.95547 11.802L2.73047 11.5854Z" fill="#C47D53"/>
<path d="M9.14004 11.5832C9.0976 11.6295 9.00632 11.7215 8.91848 11.8029C8.91816 11.8029 8.91816 11.8001 8.91785 11.8001L8.91629 11.8016L8.2566 11.1416C8.19566 11.0807 8.19566 10.9816 8.25691 10.9207C8.31785 10.8598 8.4166 10.8598 8.47785 10.9207L9.14004 11.5832Z" fill="#C47D53"/>
<path d="M3.61625 6.28C3.555 6.34125 3.45625 6.34125 3.395 6.28L2.73438 5.61937C2.80031 5.54819 2.88156 5.4665 2.95563 5.39844L3.61625 6.05906C3.67719 6.12031 3.67719 6.21906 3.61625 6.28Z" fill="#C47D53"/>
<path d="M5.78125 2.65803C2.57406 2.74116 0 5.36678 0 8.59366C0 11.873 2.65812 14.5312 5.9375 14.5312C9.21656 14.5312 11.875 11.873 11.875 8.59366C11.875 5.2846 9.1595 2.57678 5.78125 2.65803ZM10.3111 8.74991C10.2693 9.93447 9.75278 11.0215 8.91678 11.7958C8.91647 11.7958 8.91775 11.7899 8.91744 11.7899C8.86478 11.8243 7.84725 12.9218 6.09403 12.953H6.09375C6.04187 12.953 5.99 12.9624 5.93781 12.9624C5.88562 12.9624 5.83313 12.9646 5.78125 12.9627C4.69094 12.9246 3.7025 12.4891 2.95719 11.7941C2.93272 11.7723 2.86687 11.7178 2.83547 11.6864C2.80575 11.6567 2.75 11.6022 2.71875 11.5746V11.5743C1.125 9.84278 1.20184 7.24547 2.72984 5.60475C2.76516 5.56663 2.80656 5.51553 2.84344 5.48428H2.84375C2.88063 5.45303 2.91812 5.41913 2.95656 5.38381C4.73012 3.73069 7.51078 3.85284 9.13937 5.61109C9.83437 6.35703 10.2716 7.34659 10.3097 8.43659C10.3097 8.44353 10.3144 8.47994 10.3144 8.49075C10.3153 8.52481 10.3139 8.55906 10.3139 8.59347C10.3139 8.64034 10.3125 8.68772 10.3125 8.73428V8.74053C10.3125 8.74366 10.3111 8.74678 10.3111 8.74991Z" fill="#6D78B1"/>
</svg>
