<svg width="19" height="22" viewBox="0 0 19 22" fill="none" xmlns="http://www.w3.org/2000/svg">
<path d="M15.4707 13.0995V13.1089C15.4707 13.1135 15.4686 13.1182 15.4686 13.1229C15.4059 14.8998 14.6311 16.5303 13.3771 17.6918C13.3766 17.6918 13.3785 17.6829 13.3781 17.6829C13.2991 17.7346 11.7728 19.3807 9.14297 19.4276H9.14254C9.06473 19.4276 8.98692 19.4417 8.90864 19.4417C8.83036 19.4417 8.75161 19.445 8.67379 19.4421C7.03832 19.385 5.55567 18.7318 4.4377 17.6892C4.401 17.6564 4.30223 17.5747 4.25512 17.5277C4.21054 17.4831 4.12692 17.4014 4.08004 17.36V17.3595C1.68942 14.7622 1.80468 10.8663 4.09668 8.40519C4.14965 8.348 4.21176 8.27136 4.26708 8.22449H4.26754C4.32286 8.17761 4.37911 8.12675 4.43676 8.07378C7.09711 5.59405 11.2682 5.77738 13.711 8.4147C14.7535 9.53361 15.4093 11.018 15.4664 12.653C15.4664 12.6628 15.4735 12.7185 15.4735 12.7342C15.4749 12.7853 15.4728 12.8367 15.4728 12.8883C15.4728 12.9585 15.4707 13.0296 15.4707 13.0995Z" fill="#F9F0F1"/>
<path d="M8.90625 4.21875C8.77683 4.21875 8.67188 4.11384 8.67188 3.98438V0.234375C8.67188 0.104906 8.77683 0 8.90625 0C9.03567 0 9.14062 0.104906 9.14062 0.234375V3.98438C9.14062 4.11384 9.03567 4.21875 8.90625 4.21875Z" fill="#3C4D85"/>
<path d="M18.2795 4.92187C18.2795 5.70703 18.0377 6.43547 17.6252 7.03781C16.204 4.93003 14.0398 3.35531 11.5 2.71266C12.182 1.77891 13.2845 1.17188 14.5295 1.17188C16.6005 1.17188 18.2795 2.85094 18.2795 4.92187Z" fill="#FF4F75"/>
<path d="M3.75 1.17188C4.95281 1.17188 6.02297 1.73953 6.70922 2.62031C4.14689 3.16331 1.94025 4.63889 0.437344 6.68016C0.158438 6.15562 0 5.5575 0 4.92187C0 2.85094 1.67859 1.17188 3.75 1.17188Z" fill="#FF4F75"/>
<path d="M8.90625 13.125H6.5625C6.43308 13.125 6.32812 13.0201 6.32812 12.8906C6.32812 12.7612 6.43308 12.6562 6.5625 12.6562H8.67188V9.60938C8.67188 9.47991 8.77683 9.375 8.90625 9.375C9.03567 9.375 9.14062 9.47991 9.14062 9.60938V12.8906C9.14062 13.0201 9.03567 13.125 8.90625 13.125Z" fill="#A05E4E"/>
<path d="M9.14062 6.33594V7.73797C9.14062 7.86734 9.03563 7.97234 8.90625 7.97234C8.77688 7.97234 8.67188 7.86734 8.67188 7.73797V6.33594H9.14062Z" fill="#C47D53"/>
<path d="M8.67188 19.4466V18.0469C8.67188 17.9175 8.77688 17.8125 8.90625 17.8125C9.03563 17.8125 9.14062 17.9175 9.14062 18.0469V19.4391L8.67188 19.4466Z" fill="#C47D53"/>
<path d="M15.4645 13.125H14.0625C13.9331 13.125 13.8281 13.02 13.8281 12.8906C13.8281 12.7613 13.9331 12.6562 14.0625 12.6562H15.4645C15.4738 12.9187 15.4645 13.1104 15.4645 13.125Z" fill="#C47D53"/>
<path d="M3.98438 12.8906C3.98438 13.02 3.87938 13.125 3.75 13.125H2.34797C2.34234 12.9695 2.34234 12.8119 2.34797 12.6562H3.75C3.87938 12.6562 3.98438 12.7613 3.98438 12.8906Z" fill="#C47D53"/>
<path d="M13.7078 8.42516L12.7168 9.41609C12.625 9.50797 12.4768 9.50797 12.385 9.41609C12.2936 9.32469 12.2936 9.17656 12.385 9.08469L13.3759 8.09375C13.4331 8.14625 13.4898 8.20109 13.5451 8.25641C13.6004 8.31172 13.6548 8.36797 13.7078 8.42516Z" fill="#C47D53"/>
<path d="M4.09766 17.3703C4.1008 17.3656 4.09648 17.371 5.09328 16.3732C5.18516 16.2818 5.33328 16.2818 5.42469 16.3732C5.51656 16.4646 5.51656 16.6132 5.42516 16.7046L4.43516 17.6951L4.09766 17.3703Z" fill="#C47D53"/>
<path d="M13.7101 17.367C13.6464 17.4364 13.5095 17.5745 13.3777 17.6965C13.3772 17.6965 13.3772 17.6923 13.3768 17.6923L13.3744 17.6946L12.3849 16.7046C12.2935 16.6132 12.2935 16.4646 12.3854 16.3732C12.4768 16.2818 12.6249 16.2818 12.7168 16.3732L13.7101 17.367Z" fill="#C47D53"/>
<path d="M5.42438 9.41609C5.3325 9.50797 5.18437 9.50797 5.0925 9.41609L4.10156 8.42516C4.20047 8.31837 4.32234 8.19584 4.43344 8.09375L5.42438 9.08469C5.51578 9.17656 5.51578 9.32469 5.42438 9.41609Z" fill="#C47D53"/>
<path d="M8.67188 3.98705C3.86109 4.11174 0 8.05017 0 12.8905C0 17.8095 3.98719 21.7967 8.90625 21.7967C13.8248 21.7967 17.8125 17.8095 17.8125 12.8905C17.8125 7.92689 13.7393 3.86517 8.67188 3.98705ZM15.4666 13.1249C15.404 14.9017 14.6292 16.5323 13.3752 17.6938C13.3747 17.6938 13.3766 17.6849 13.3762 17.6849C13.2972 17.7365 11.7709 19.3827 9.14105 19.4295H9.14062C9.06281 19.4295 8.985 19.4436 8.90672 19.4436C8.82844 19.4436 8.74969 19.4469 8.67188 19.4441C7.03641 19.3869 5.55375 18.7337 4.43578 17.6912C4.39908 17.6584 4.30031 17.5767 4.2532 17.5296C4.20862 17.485 4.125 17.4033 4.07812 17.3619V17.3614C1.6875 14.7642 1.80277 10.8682 4.09477 8.40713C4.14773 8.34994 4.20984 8.2733 4.26516 8.22642H4.26562C4.32094 8.17955 4.37719 8.12869 4.43484 8.07572C7.09519 5.59603 11.2662 5.77927 13.7091 8.41664C14.7516 9.53555 15.4073 11.0199 15.4645 12.6549C15.4645 12.6653 15.4716 12.7199 15.4716 12.7361C15.473 12.7872 15.4709 12.8386 15.4709 12.8902C15.4709 12.9605 15.4688 13.0316 15.4688 13.1014V13.1108C15.4688 13.1155 15.4666 13.1202 15.4666 13.1249Z" fill="#6D78B1"/>
</svg>
