<svg width="40" height="40" viewBox="0 0 40 40" fill="none" xmlns="http://www.w3.org/2000/svg">
<g clip-path="url(#clip0_5265_117891)">
<path d="M26.5156 26.4553L40.0006 34.9803V17.5703L26.5156 26.4553Z" fill="#80D261"/>
<path d="M0 17.5703V34.9803L13.485 26.4553L0 17.5703Z" fill="#80D261"/>
<path d="M24.2231 27.9634L20.6856 30.2934C20.4756 30.4309 20.2381 30.4984 19.9981 30.4984C19.7581 30.4984 19.5206 30.4309 19.3106 30.2934L15.7731 27.9609L0.078125 37.8884C0.270625 39.0759 1.25563 39.9984 2.49813 39.9984H37.4981C38.7406 39.9984 39.7256 39.0759 39.9181 37.8884L24.2231 27.9634Z" fill="#80D261"/>
<path d="M35 9.325V2.5C35 1.125 33.875 0 32.5 0H7.5C6.125 0 5 1.125 5 2.5V9.325L0 12.5V14.575L5 17.875L6.25 18.7L7.5 19.525V2.5H32.5V19.525L33.75 18.7L35 17.875L40 14.575V12.5L35 9.325Z" fill="#80D261"/>
<path d="M28.75 5H11.25C10.56 5 10 5.56 10 6.25C10 6.94 10.56 7.5 11.25 7.5H28.75C29.44 7.5 30 6.94 30 6.25C30 5.56 29.44 5 28.75 5Z" fill="#80D261"/>
<path d="M28.75 10H11.25C10.56 10 10 10.56 10 11.25C10 11.94 10.56 12.5 11.25 12.5H28.75C29.44 12.5 30 11.94 30 11.25C30 10.56 29.44 10 28.75 10Z" fill="#80D261"/>
</g>
<defs>
<clipPath id="clip0_5265_117891">
<rect width="40" height="40" fill="white"/>
</clipPath>
</defs>
</svg>
