<svg width="80" height="80" viewBox="0 0 80 80" fill="none" xmlns="http://www.w3.org/2000/svg">
<path d="M75.249 40C77.8729 40 80.0291 42.1346 79.7182 44.74C78.8493 52.0215 75.9902 58.9572 71.4127 64.7638C65.8503 71.8196 58.0743 76.7973 49.3378 78.8948C40.6013 80.9922 31.4131 80.0873 23.2536 76.3257C15.0942 72.5642 8.43874 66.1651 4.35975 58.1596C0.280749 50.1542 -0.98425 41.0085 0.768585 32.1964C2.52142 23.3843 7.19 15.4189 14.0221 9.58377C20.8541 3.74864 29.4518 0.383585 38.4296 0.0308395C45.8178 -0.25945 53.1094 1.50421 59.511 5.08115C61.8016 6.36103 62.2611 9.36017 60.7188 11.483C59.1765 13.6057 56.2173 14.0382 53.8809 12.844C49.2461 10.4749 44.0564 9.31912 38.8026 9.52554C31.9575 9.79449 25.4022 12.3602 20.1931 16.8092C14.984 21.2582 11.4245 27.3314 10.088 34.0502C8.75159 40.7689 9.71608 47.742 12.8261 53.8458C15.9361 59.9496 21.0106 64.8285 27.2317 67.6965C33.4529 70.5645 40.4585 71.2545 47.1196 69.6553C53.7808 68.0561 59.7095 64.2609 63.9506 58.8811C67.2057 54.752 69.321 49.8742 70.1287 44.732C70.5358 42.1398 72.6251 40 75.249 40Z" fill="#F69500"/>
</svg>
