<svg width="54" height="54" viewBox="0 0 54 54" fill="none" xmlns="http://www.w3.org/2000/svg">
<path d="M4.06641 20.7791V47.9141C4.06641 49.5088 4.61484 50.2766 5.88047 50.7744C7.14609 51.2722 48.8527 50.7744 48.8527 50.7744C48.8527 50.7744 50.768 51.3819 50.6667 45.2141C50.5655 39.0462 50.6667 20.4753 50.6667 20.4753L4.06641 20.0703V20.7791Z" fill="#E8F7FF"/>
<path d="M8.43922 8.85156C8.43922 8.85156 5.80672 8.85156 4.78578 9.79656C3.76484 10.7416 3.71422 11.7034 3.65516 14.2347C3.59609 16.7659 3.65516 20.4784 3.65516 20.4784H50.6267C50.6267 20.4784 50.7364 11.7625 50.6267 11.1972C50.4597 10.7121 50.1685 10.2792 49.7821 9.94168C49.3957 9.60415 48.9277 9.37376 48.4245 9.27344C47.3277 9.16375 46.003 8.94438 46.003 8.94438L8.43922 8.85156Z" fill="#E53E2D"/>
<path d="M13.1439 6.17938C13.1439 5.19148 12.3431 4.39062 11.3552 4.39062C10.3673 4.39062 9.56641 5.19148 9.56641 6.17938V11.63C9.56641 12.6179 10.3673 13.4187 11.3552 13.4187C12.3431 13.4187 13.1439 12.6179 13.1439 11.63V6.17938Z" fill="#DDCCBB"/>
<path d="M29.0658 6.17938C29.0658 5.19148 28.2649 4.39062 27.277 4.39062C26.2891 4.39062 25.4883 5.19148 25.4883 6.17938V11.63C25.4883 12.6179 26.2891 13.4187 27.277 13.4187C28.2649 13.4187 29.0658 12.6179 29.0658 11.63V6.17938Z" fill="#DDCCBB"/>
<path d="M45.3861 6.17938C45.3861 5.19148 44.5852 4.39062 43.5973 4.39062C42.6094 4.39062 41.8086 5.19148 41.8086 6.17938V11.63C41.8086 12.6179 42.6094 13.4187 43.5973 13.4187C44.5852 13.4187 45.3861 12.6179 45.3861 11.63V6.17938Z" fill="#DDCCBB"/>
<path d="M29.9795 29.1687L28.2414 25.9034L26.5539 25.625L24.7398 29.7594L21.0948 30.7466L19.5508 31.0756L19.8292 32.6703L22.5798 35.75L22.0314 40.3822L22.7233 41.3441L27.4061 39.1419L31.6248 41.3441L33.1098 40.3569L32.342 35.4547L35.8605 31.6578L35.0167 30.6116C35.0167 30.6116 29.8698 30.8562 29.9795 29.1687Z" fill="#FEED9E"/>
<path d="M7.3141 8.21107C6.7609 8.18093 6.20718 8.26005 5.68456 8.44391C5.16194 8.62777 4.68064 8.91277 4.26816 9.28263C3.88349 9.69782 3.58539 10.1855 3.39126 10.7171C3.19714 11.2488 3.11089 11.8138 3.13754 12.3792V47.5383C3.13754 50.1961 4.74066 51.757 7.41535 51.757C14.0472 51.757 20.6791 51.757 27.311 51.757H47.6791C48.1974 51.7763 48.7143 51.6908 49.1988 51.5057C49.6833 51.3206 50.1255 51.0396 50.4989 50.6796C50.8723 50.3196 51.1692 49.888 51.3719 49.4106C51.5746 48.9331 51.6788 48.4197 51.6785 47.9011C51.6785 36.8733 51.6785 25.1198 51.6785 12.0164C51.6661 11.0983 51.3329 10.2134 50.7365 9.51528C50.14 8.81715 49.3181 8.34977 48.4132 8.19419C48.1891 8.16495 47.9622 8.16495 47.7382 8.19419C47.3079 8.23638 46.8944 8.27857 46.6413 7.94107C46.4698 7.53649 46.4228 7.08999 46.5063 6.65857C46.5188 6.44782 46.5188 6.23651 46.5063 6.02576C46.4812 5.3403 46.2169 4.68526 45.7593 4.1743C45.3017 3.66334 44.6796 3.32872 44.0011 3.22849C43.3225 3.12826 42.6303 3.26875 42.0445 3.62559C41.4587 3.98242 41.0163 4.53308 40.7941 5.18201C40.6136 5.81787 40.5619 6.48341 40.6422 7.13951V7.25763C40.67 7.38756 40.6693 7.52197 40.6402 7.6516C40.6111 7.78124 40.5542 7.90302 40.4735 8.00857C40.3694 8.09582 40.2475 8.15917 40.1163 8.19416C39.9851 8.22915 39.8478 8.23492 39.7141 8.21107C37.9507 8.21107 36.145 8.21107 34.4069 8.21107H32.4241C30.4497 8.19419 30.3738 8.15201 30.3738 6.14388C30.3788 5.43763 30.1283 4.75338 29.6686 4.21724C29.2088 3.68111 28.5708 3.32923 27.872 3.22647C27.1733 3.12372 26.4609 3.277 25.8663 3.65808C25.2717 4.03916 24.8348 4.62234 24.6363 5.30013C24.4583 5.91329 24.401 6.55515 24.4675 7.19013V7.37576C24.4865 7.48926 24.4821 7.60544 24.4545 7.71717C24.427 7.8289 24.3768 7.93381 24.3072 8.02544C24.21 8.10068 24.0987 8.15583 23.9799 8.1877C23.8611 8.21956 23.7372 8.22751 23.6154 8.21107C22.2147 8.21107 20.7972 8.21107 19.3966 8.21107H16.3591C16.1474 8.21569 15.9361 8.2326 15.7263 8.26169C15.4921 8.31745 15.2491 8.32602 15.0115 8.28691C14.7739 8.2478 14.5465 8.16178 14.3425 8.03388C14.0219 7.74701 14.081 7.24076 14.14 6.75138C14.1605 6.51839 14.1605 6.28406 14.14 6.05107V5.94982C14.0727 5.28529 13.7883 4.66148 13.3307 4.17491C12.8731 3.68835 12.2679 3.36618 11.6088 3.25826C10.943 3.1762 10.2689 3.31937 9.69392 3.66496C9.11895 4.01055 8.67622 4.53867 8.43629 5.16513C8.23617 5.82911 8.18149 6.52843 8.27598 7.21545V7.28295C8.29986 7.40763 8.29717 7.53596 8.26809 7.65954C8.23901 7.78312 8.1842 7.89917 8.10723 8.00013C7.99809 8.08758 7.87202 8.15146 7.73697 8.18777C7.60192 8.22407 7.46081 8.23201 7.32254 8.21107H7.3141ZM49.3244 49.4704C49.0993 49.6817 48.8337 49.8452 48.5437 49.9511C48.2537 50.0569 47.9452 50.103 47.6369 50.0864H7.18754C6.8792 50.1035 6.57061 50.0577 6.28052 49.9518C5.99042 49.8459 5.72489 49.6821 5.50004 49.4704C5.27332 49.2091 5.10127 48.9049 4.99403 48.576C4.88679 48.247 4.84655 47.8999 4.87566 47.5551V47.3779L5.02754 47.4623C5.91816 47.8765 6.89976 48.0566 7.87941 47.9854H47.2488C48.1246 48.0221 48.9954 47.8364 49.78 47.4454L49.9235 47.3611V47.5383C49.956 47.8839 49.9198 48.2326 49.817 48.5642C49.7141 48.8958 49.5467 49.2038 49.3244 49.4704ZM42.355 6.29576C42.3354 6.12274 42.3535 5.94751 42.408 5.78213C42.4624 5.61674 42.5521 5.46511 42.6707 5.33765C42.7894 5.21019 42.9342 5.10992 43.0953 5.04373C43.2563 4.97754 43.4298 4.947 43.6038 4.95419C43.7791 4.94642 43.9539 4.97723 44.116 5.04446C44.2781 5.1117 44.4234 5.21371 44.5417 5.34328C44.66 5.47286 44.7484 5.62684 44.8007 5.79434C44.8529 5.96184 44.8678 6.13877 44.8441 6.31263V11.3751C44.8441 12.2189 44.4054 12.7504 43.646 12.7673H43.5954C43.441 12.7743 43.2868 12.7503 43.1419 12.6967C42.9969 12.6431 42.8642 12.5609 42.7516 12.4551C42.6158 12.31 42.5113 12.1384 42.4445 11.9512C42.3778 11.764 42.3502 11.565 42.3635 11.3667C42.3635 10.7339 42.3635 10.1095 42.3635 9.47669V8.01701C42.3466 7.45169 42.3466 6.86951 42.355 6.29576ZM26.155 6.27888C26.1382 6.10864 26.1578 5.93677 26.2125 5.77468C26.2672 5.61259 26.3557 5.46397 26.4722 5.3387C26.5887 5.21343 26.7305 5.11436 26.8882 5.04807C27.0459 4.98178 27.2159 4.94978 27.3869 4.95419H27.4291C27.607 4.94494 27.7847 4.97518 27.9496 5.04276C28.1144 5.11034 28.2622 5.21358 28.3824 5.34506C28.5026 5.47654 28.5921 5.633 28.6447 5.80321C28.6972 5.97342 28.7114 6.15316 28.6863 6.32951V11.392C28.6863 12.2358 28.2391 12.7504 27.4713 12.7589C27.1588 12.767 26.8558 12.6518 26.6275 12.4383C26.4938 12.2903 26.3913 12.1169 26.3261 11.9285C26.2609 11.74 26.2342 11.5403 26.2479 11.3414C26.2479 10.717 26.2479 10.0842 26.2479 9.45982V8.77638C26.2479 8.51482 26.2479 8.25326 26.2479 7.9917C26.155 7.41794 26.155 6.84419 26.155 6.27888ZM9.95504 8.81013V8.07607C9.95504 7.51357 9.95504 6.96513 9.95504 6.43076C9.95504 5.50263 10.3769 4.97951 11.17 4.96263C11.332 4.94901 11.495 4.96896 11.6489 5.02122C11.8028 5.07349 11.9443 5.15695 12.0644 5.26638C12.1992 5.41536 12.3023 5.59013 12.3676 5.78012C12.4328 5.9701 12.4589 6.17136 12.4441 6.3717C12.4441 8.0592 12.4441 9.67076 12.4441 11.3245C12.4589 11.5248 12.4328 11.7261 12.3676 11.9161C12.3023 12.1061 12.1992 12.2808 12.0644 12.4298C11.8349 12.6403 11.5319 12.7524 11.2207 12.742C10.4191 12.742 9.98035 12.202 9.99723 11.2739C9.99723 10.7114 9.99723 10.1489 9.99723 9.58638L9.95504 8.81013ZM8.26754 10.4133V10.5398C8.2802 10.7478 8.2802 10.9563 8.26754 11.1642C8.24381 11.6068 8.301 12.05 8.43629 12.472C8.65746 13.1139 9.09248 13.6604 9.6685 14.0198C10.2445 14.3792 10.9265 14.5298 11.6004 14.4464C12.2671 14.3393 12.8788 14.0118 13.3376 13.5162C13.7965 13.0207 14.076 12.3857 14.1316 11.7126C14.1479 11.5189 14.1479 11.3242 14.1316 11.1304C14.081 10.6917 14.0304 10.2361 14.351 10.0167C14.7569 9.82907 15.2121 9.77587 15.6504 9.86482H16.1482H18.6794C20.2994 9.86482 21.9785 9.86482 23.6238 9.86482C23.7562 9.84224 23.8918 9.84866 24.0215 9.88362C24.1511 9.91858 24.2717 9.98126 24.3747 10.0673C24.4449 10.1634 24.4939 10.2732 24.5186 10.3895C24.5433 10.5058 24.5432 10.6261 24.5182 10.7423C24.4398 11.3079 24.4859 11.8838 24.6532 12.4298C24.8615 13.0931 25.2991 13.6606 25.8876 14.0308C26.4761 14.4009 27.1772 14.5496 27.8653 14.4501C28.5533 14.3507 29.1836 14.0096 29.6432 13.4879C30.1028 12.9663 30.3618 12.2981 30.3738 11.6029C30.4329 9.91545 30.4919 9.91545 32.2047 9.91545H34.255C36.0438 9.91545 37.8916 9.91545 39.7057 9.91545C39.8453 9.89533 39.9875 9.90365 40.1238 9.9399C40.2601 9.97615 40.3876 10.0396 40.4988 10.1264C40.5786 10.2404 40.6334 10.37 40.6595 10.5067C40.6857 10.6434 40.6827 10.7841 40.6507 10.9195C40.5144 11.6084 40.6238 12.3232 40.9599 12.9397C41.2959 13.5563 41.8373 14.0357 42.49 14.2945C42.9132 14.4765 43.3746 14.5517 43.8337 14.5135C44.2927 14.4752 44.7353 14.3247 45.1225 14.0751C45.5283 13.8245 45.8675 13.4796 46.1114 13.0698C46.3552 12.6599 46.4965 12.1972 46.5232 11.7211V11.3498C46.5232 10.5989 46.6497 10.1939 46.9366 9.99138C47.2235 9.78888 47.6538 9.79732 48.3879 10.042C48.8312 10.1494 49.2258 10.4023 49.5087 10.7601C49.7916 11.1179 49.9465 11.5602 49.9488 12.0164C49.9488 13.3158 49.9488 14.6404 49.9488 15.9145C49.9488 16.9523 49.9488 18.0154 49.9488 19.0701C49.9614 19.1664 49.952 19.2642 49.9213 19.3563C49.8906 19.4484 49.8394 19.5323 49.7716 19.6017C49.6882 19.6575 49.5935 19.694 49.4942 19.7086C49.395 19.7232 49.2937 19.7155 49.1979 19.6861H48.9954H32.3819C32.3032 19.6903 32.2244 19.6903 32.1457 19.6861C31.9743 19.6734 31.8023 19.6734 31.631 19.6861C31.4072 19.6861 31.1926 19.775 31.0344 19.9332C30.8761 20.0914 30.7872 20.306 30.7872 20.5298C30.7872 20.7536 30.8761 20.9682 31.0344 21.1264C31.1926 21.2847 31.4072 21.3736 31.631 21.3736C31.8079 21.3862 31.9856 21.3862 32.1625 21.3736H36.1535C40.3722 21.3736 44.7513 21.3736 49.046 21.3736C49.1743 21.3389 49.3095 21.3393 49.4376 21.3748C49.5657 21.4102 49.6819 21.4794 49.7741 21.5751C49.8663 21.6708 49.9312 21.7894 49.9619 21.9187C49.9927 22.048 49.9881 22.1832 49.9488 22.3101C49.9488 27.3726 49.9488 32.4858 49.9488 37.4386V43.8342C49.9488 45.5217 49.105 46.3654 47.3754 46.3654H7.59254C5.57598 46.3654 4.82504 45.6061 4.82504 43.5558V38.3498C4.82504 33.1017 4.82504 27.6679 4.82504 22.3186C4.80276 22.171 4.80993 22.0204 4.84613 21.8756C4.88234 21.7308 4.94686 21.5946 5.03598 21.4748C5.15406 21.3826 5.29016 21.3162 5.43549 21.2799C5.58082 21.2436 5.73216 21.2381 5.87973 21.2639C9.83691 21.2639 13.87 21.2639 17.7597 21.2639H22.8222C23.2272 21.2639 23.666 21.2639 23.8769 20.9095C23.9769 20.7761 24.0352 20.616 24.0443 20.4495C24.0534 20.283 24.013 20.1175 23.9281 19.974C23.8433 19.8305 23.7178 19.7153 23.5675 19.643C23.4172 19.5707 23.2489 19.5446 23.0838 19.5679C21.9363 19.5679 20.7888 19.5679 19.6413 19.5679H15.0175C12.0222 19.5679 8.92566 19.5679 5.87129 19.5679C5.73241 19.5966 5.5892 19.5972 5.45009 19.5696C5.31098 19.5421 5.17879 19.487 5.06129 19.4076C4.97364 19.2873 4.91063 19.1508 4.87587 19.006C4.84112 18.8612 4.83532 18.7109 4.85879 18.5639C4.85879 17.2223 4.85879 15.8554 4.85879 14.5308V12.3539C4.83981 11.9761 4.90574 11.5988 5.05176 11.2498C5.19777 10.9008 5.42015 10.589 5.70254 10.3373C6.00582 10.105 6.35687 9.94283 6.7304 9.86258C7.10392 9.78234 7.4906 9.78598 7.86254 9.87326C7.92726 9.87398 7.99098 9.88929 8.04896 9.91805C8.10694 9.9468 8.15769 9.98827 8.19742 10.0394C8.23716 10.0904 8.26485 10.1498 8.27846 10.2131C8.29206 10.2764 8.29121 10.3419 8.27598 10.4048L8.26754 10.4133Z" fill="#010101"/>
<path d="M27.3951 19.6376C27.2864 19.6253 27.1763 19.6367 27.0724 19.671C26.9684 19.7053 26.8731 19.7616 26.793 19.8361C26.7129 19.9106 26.6498 20.0016 26.6081 20.1028C26.5664 20.2039 26.547 20.3129 26.5514 20.4223C26.5514 20.9032 26.7876 21.2154 27.3445 21.3251C27.9267 21.2576 28.1883 20.9707 28.1883 20.4813C28.1957 20.3678 28.18 20.254 28.1423 20.1467C28.1046 20.0394 28.0456 19.9409 27.9689 19.857C27.812 19.7143 27.6071 19.636 27.3951 19.6376Z" fill="#0E0F0F"/>
<path d="M36.3674 31.2883C36.2443 30.9177 36.0218 30.588 35.7243 30.3351C35.4267 30.0822 35.0655 29.9158 34.6799 29.8539C33.9939 29.6824 33.2934 29.5751 32.5874 29.5333C32.0673 29.5805 31.5472 29.442 31.1194 29.1424C30.6916 28.8428 30.3837 28.4014 30.2503 27.8964C30.076 27.4069 29.8556 26.9351 29.5921 26.4873L29.3559 26.0401C29.1958 25.6606 28.9268 25.337 28.5829 25.1102C28.239 24.8835 27.8356 24.7637 27.4237 24.7661C27.0115 24.7573 26.6063 24.8735 26.2614 25.0994C25.9166 25.3253 25.6481 25.6503 25.4915 26.0317C25.0865 26.8248 24.6056 27.7192 24.1584 28.7402C24.0933 28.9148 23.979 29.0667 23.8292 29.1776C23.6794 29.2884 23.5006 29.3534 23.3146 29.3645C22.2172 29.4731 21.1269 29.6449 20.0493 29.8792C19.6898 29.9508 19.3558 30.1166 19.0815 30.3598C18.8072 30.6029 18.6025 30.9146 18.4884 31.263C18.3879 31.6252 18.3842 32.0075 18.4774 32.3716C18.5707 32.7358 18.7577 33.0692 19.0199 33.3386C19.586 33.9759 20.1979 34.571 20.8509 35.1189C21.1945 35.3504 21.4472 35.6939 21.5657 36.091C21.6842 36.488 21.6612 36.9138 21.5006 37.2958C21.3461 37.8776 21.2333 38.4697 21.1631 39.0676C21.1631 39.2533 21.1631 39.4305 21.0871 39.6161C21.0132 39.9888 21.0442 40.3747 21.1768 40.7308C21.3094 41.0869 21.5383 41.3991 21.8381 41.6326C22.14 41.8891 22.5114 42.05 22.9049 42.0951C23.2985 42.1401 23.6966 42.0673 24.0487 41.8858L24.3103 41.7676C24.668 41.62 25.0055 41.4272 25.3143 41.1939C25.8805 40.6875 26.6135 40.4075 27.3731 40.4075C28.1327 40.4075 28.8656 40.6875 29.4318 41.1939C30.1816 41.8151 31.1334 42.1393 32.1065 42.1051C32.3254 42.0907 32.5387 42.0298 32.7322 41.9265C32.9257 41.8233 33.0949 41.6799 33.2287 41.5061C33.4598 41.2213 33.6263 40.8897 33.7167 40.5342C33.807 40.1788 33.819 39.8079 33.7518 39.4473C33.5915 38.5445 33.4228 37.6417 33.254 36.7473C33.1815 36.5154 33.1797 36.2672 33.2489 36.0343C33.318 35.8014 33.4549 35.5943 33.6421 35.4395C34.4859 34.7308 35.1862 33.9714 35.7431 33.3892C36.0244 33.126 36.2305 32.7927 36.3402 32.4234C36.45 32.0542 36.4594 31.6624 36.3674 31.2883ZM34.6799 31.8536C34.6673 31.9576 34.6321 32.0576 34.5767 32.1465C34.5213 32.2354 34.4471 32.3111 34.3593 32.3683L34.2749 32.4526L33.8868 32.8323C33.2371 33.482 32.5621 34.1401 31.8787 34.7814C31.6596 34.956 31.4999 35.194 31.4214 35.4628C31.3428 35.7317 31.3493 36.0182 31.4399 36.2833C31.634 37.0764 31.7606 37.8864 31.8871 38.6795C31.9293 39.0001 31.9799 39.3292 32.039 39.6498V39.7258C32.0749 39.8209 32.0837 39.9242 32.0643 40.024C32.045 40.1238 31.9982 40.2163 31.9293 40.2911C31.7015 40.4936 31.4653 40.3586 31.2965 40.2911L31.2121 40.2405L30.1659 39.6583C29.4993 39.3123 28.799 38.9495 28.1324 38.5783C27.9249 38.4404 27.6813 38.3669 27.4321 38.3669C27.183 38.3669 26.9394 38.4404 26.7318 38.5783C26.0231 38.9748 25.2806 39.3545 24.5718 39.7258L23.6268 40.1898C23.5929 40.2044 23.5616 40.2244 23.534 40.2489C23.4177 40.3252 23.2844 40.3716 23.1459 40.3839C23.056 40.3822 22.9696 40.3494 22.9012 40.2911C22.815 40.213 22.7568 40.1089 22.7354 39.9946C22.7141 39.8803 22.7308 39.7622 22.7831 39.6583V39.5401L22.9603 38.4686C23.0784 37.7092 23.2049 36.933 23.3821 36.182C23.4517 35.9419 23.4504 35.6868 23.3786 35.4473C23.3067 35.2079 23.1674 34.9942 22.9771 34.832C22.1334 33.9883 21.2474 33.1445 20.4459 32.3851L20.3531 32.3008C20.2096 32.1742 20.0071 31.997 20.1168 31.727C20.2265 31.457 20.5218 31.4317 20.7581 31.398L22.0237 31.2292L23.8799 30.993C24.2229 30.99 24.5567 30.8826 24.8371 30.6852C25.1175 30.4877 25.331 30.2095 25.4493 29.8876C25.7362 29.1958 26.0906 28.5208 26.4281 27.8626C26.5799 27.5758 26.7318 27.2889 26.8753 27.0189C26.8753 27.0189 26.8753 26.943 26.9343 26.9008C26.9934 26.8586 27.0946 26.4958 27.3646 26.4873C27.6346 26.4873 27.7274 26.7151 27.8034 26.8839L27.854 26.9936C28.0003 27.2973 28.1521 27.5926 28.3096 27.8795C28.6471 28.5292 28.9931 29.2042 29.2715 29.8876C29.3865 30.2113 29.5976 30.4922 29.8766 30.6928C30.1555 30.8933 30.489 31.0039 30.8324 31.0098C31.5496 31.0858 32.2668 31.187 32.9671 31.2883L33.9459 31.4233H33.9965C34.1292 31.4153 34.2613 31.4461 34.3767 31.5121C34.4921 31.578 34.5857 31.6762 34.6462 31.7945V31.8451L34.6799 31.8536Z" fill="#010101"/>
</svg>
