<svg width="90" height="90" viewBox="0 0 90 90" fill="none" xmlns="http://www.w3.org/2000/svg">
<path d="M30.0234 48.9063C30.0234 48.9063 30.1219 45.5172 34.425 43.4078C38.7281 41.2985 48.7406 37.2203 50.2875 30.5407C51.8344 23.861 51.4266 18.2782 55.1672 19.9235C58.9078 21.5688 64.7859 24.2407 62.5781 32.1297C61.394 36.5448 59.832 40.8498 57.9094 44.9969H76.9781C76.9781 44.9969 80.9297 46.7828 80.4656 50.0032C80.2945 50.9794 79.8994 51.9027 79.3114 52.7006C78.7234 53.4985 77.9584 54.1492 77.0766 54.6016C77.0766 54.6016 80.5359 56.5282 80.5078 59.186C80.2917 61.1197 79.5144 62.948 78.2719 64.4453C79.0524 65.1476 79.6602 66.0205 80.048 66.9962C80.4359 67.9719 80.5932 69.0239 80.5078 70.0703C80.0156 73.375 77.8078 75.386 76.7953 75.4844C76.1259 75.5334 75.4538 75.5334 74.7844 75.4844C74.7844 75.4844 77.3859 84.9203 72.4641 84.9203H44.5219C42.0218 84.941 39.5271 84.6864 37.0828 84.161C34.6479 83.6834 32.2847 82.8941 30.0516 81.8125L30.0234 48.9063Z" fill="#FFC88F"/>
<path d="M27.2086 40.1016H11.2758C10.1807 40.1016 9.29297 40.9893 9.29297 42.0844V82.9641C9.29297 84.0591 10.1807 84.9469 11.2758 84.9469H27.2086C28.3037 84.9469 29.1914 84.0591 29.1914 82.9641V42.0844C29.1914 40.9893 28.3037 40.1016 27.2086 40.1016Z" fill="#5AC5FE"/>
<path d="M18.1102 46.5453C18.1102 45.1007 16.9391 43.9297 15.4945 43.9297C14.05 43.9297 12.8789 45.1007 12.8789 46.5453V78.7203C12.8789 80.1649 14.05 81.3359 15.4945 81.3359C16.9391 81.3359 18.1102 80.1649 18.1102 78.7203V46.5453Z" fill="white"/>
<path d="M57.1499 5.41158C57.1994 4.74218 57.1994 4.07004 57.1499 3.40064C57.147 3.16225 57.0948 2.92703 56.9967 2.70976C56.8985 2.49248 56.7565 2.29785 56.5796 2.13806C56.4026 1.97828 56.1946 1.85681 55.9684 1.78126C55.7423 1.70572 55.503 1.67774 55.2656 1.69908C55.0256 1.67082 54.7824 1.69442 54.5523 1.76828C54.3223 1.84214 54.1108 1.96454 53.9322 2.12719C53.7535 2.28985 53.6119 2.48897 53.5168 2.7111C53.4217 2.93322 53.3755 3.17316 53.3812 3.4147C53.2688 5.35839 53.2688 7.30695 53.3812 9.25064C53.3875 9.47822 53.4411 9.70201 53.5384 9.90784C53.6357 10.1137 53.7746 10.2971 53.9465 10.4464C54.1183 10.5958 54.3193 10.7079 54.5366 10.7755C54.754 10.8432 54.9831 10.8651 55.2093 10.8397C55.4452 10.8672 55.6843 10.8451 55.9111 10.7746C56.1379 10.7042 56.3475 10.587 56.5263 10.4307C56.7051 10.2744 56.8492 10.0824 56.9494 9.86708C57.0495 9.65173 57.1035 9.41779 57.1077 9.18033C57.1573 8.54849 57.1573 7.91373 57.1077 7.28189C57.1077 6.98658 57.1077 6.6772 57.1077 6.38189V6.01627C57.1359 5.81939 57.1499 5.62252 57.1499 5.41158Z" fill="#080808"/>
<path d="M38.3475 10.8188C39.6553 12.3094 41.16 13.6313 42.3553 14.8406C42.634 15.08 42.9813 15.2252 43.3474 15.2555C43.7136 15.2858 44.08 15.1997 44.3943 15.0094C44.7386 14.8435 45.0248 14.5776 45.2155 14.2464C45.4062 13.9152 45.4925 13.5342 45.4631 13.1531C45.4631 13.1531 45.4631 13.1531 45.4631 13.0406C45.4557 12.8785 45.4125 12.72 45.3365 12.5766C44.0732 10.7392 42.4808 9.15154 40.6396 7.89375C40.3979 7.73237 40.1146 7.64446 39.824 7.64062C39.5438 7.6573 39.2712 7.73828 39.0273 7.87729C38.7835 8.01629 38.5749 8.20959 38.4178 8.44219C38.1192 8.76208 37.9473 9.1798 37.9344 9.61721C37.9214 10.0546 38.0683 10.4818 38.3475 10.8188Z" fill="#020202"/>
<path d="M71.4642 7.95517C71.1305 7.79244 70.7664 7.70143 70.3954 7.68798C70.0256 7.6783 69.6669 7.81471 69.397 8.06767C67.9348 9.34473 66.5628 10.7215 65.2908 12.188C65.1406 12.3601 65.027 12.561 64.9567 12.7784C64.8865 12.9957 64.8611 13.2251 64.8822 13.4526C64.9032 13.68 64.9702 13.9009 65.0791 14.1017C65.188 14.3025 65.3366 14.4791 65.5158 14.6208C65.653 14.8026 65.826 14.9545 66.0241 15.0671C66.2221 15.1797 66.4411 15.2507 66.6675 15.2758C66.894 15.3008 67.1232 15.2793 67.341 15.2126C67.5589 15.1459 67.7608 15.0355 67.9345 14.888C69.0253 13.9331 70.0628 12.9191 71.0423 11.8505L72.2095 10.6552C72.3496 10.4424 72.4231 10.1927 72.4204 9.93798V9.64267C72.4338 9.30029 72.3513 8.96098 72.1824 8.66288C72.0135 8.36478 71.7647 8.11969 71.4642 7.95517Z" fill="#020202"/>
<path d="M80.8867 53.6953C81.6613 52.7032 82.1141 51.498 82.1845 50.2413C82.2549 48.9846 81.9394 47.7364 81.2805 46.6641C80.6815 45.5577 79.7736 44.6495 78.6675 44.0502C77.5613 43.4509 76.3047 43.1865 75.0508 43.2891H74.9102C71.957 43.2891 69.0602 43.2891 65.9805 43.2891H60.032L61.1992 40.4766C62.5518 37.5658 63.5617 34.5078 64.2086 31.3641C64.4709 29.7258 64.3835 28.0505 63.9521 26.4485C63.5206 24.8464 62.755 23.3538 61.7055 22.0687C60.6863 20.7868 59.4079 19.7345 57.9538 18.9808C56.4998 18.2272 54.903 17.7891 53.268 17.6953C51.7773 17.6953 51.4398 17.8781 51.1023 19.3828C50.5117 22.0687 49.9633 24.7406 49.443 27.3141C49.1029 29.4995 48.2366 31.5694 46.9186 33.3456C45.6006 35.1217 43.8705 36.5507 41.8773 37.5094C38.868 38.9859 35.9008 40.6313 33.1023 42.1781C32.8585 42.3567 32.5773 42.4776 32.28 42.5317C31.9826 42.5858 31.6768 42.5717 31.3857 42.4905C31.0946 42.4092 30.8257 42.263 30.5994 42.0627C30.373 41.8624 30.195 41.6134 30.0789 41.3344C29.4868 40.3249 28.6269 39.499 27.5944 38.948C26.5619 38.397 25.3971 38.1425 24.2289 38.2125C21.318 38.2125 18.4492 38.2125 15.5805 38.2125H10.1242C8.18359 38.2125 7.84609 38.55 7.83203 40.4484C7.83203 42.7406 7.83203 45.0187 7.83203 47.3109V60.1219C7.83203 68.2969 7.83203 76.4719 7.83203 84.6469C7.83203 86.6859 8.15547 87.0234 10.1523 87.0234H14.8492C17.9852 87.0234 21.1352 87.0234 24.2711 87.0234C26.0341 87.0838 27.7489 86.4414 29.0383 85.2375C29.3074 84.9589 29.6312 84.7389 29.9893 84.5913C30.3475 84.4437 30.7322 84.3716 31.1195 84.3797C31.5445 84.3913 31.9658 84.4623 32.3711 84.5906C37.4162 86.1286 42.6508 86.9568 47.9242 87.0516C50.9336 87.0516 54.2664 87.0516 58.1195 87.0516H66.9227H70.1852C71.2055 87.0829 72.2199 86.8858 73.1542 86.4746C74.0885 86.0634 74.9191 85.4485 75.5852 84.675C76.1984 83.889 76.6299 82.977 76.8488 82.0044C77.0676 81.0318 77.0683 80.0229 76.8508 79.05C76.755 78.7907 76.7118 78.515 76.7238 78.2388C76.7357 77.9627 76.8026 77.6917 76.9204 77.4416C77.0382 77.1916 77.2046 76.9675 77.41 76.7825C77.6153 76.5975 77.8555 76.4553 78.1164 76.3641C79.0304 76.0076 79.85 75.4452 80.5115 74.7207C81.173 73.9962 81.6586 73.1289 81.9306 72.1863C82.2027 71.2437 82.2538 70.2511 82.0801 69.2855C81.9063 68.32 81.5124 67.4074 80.9289 66.6188C80.6369 66.2346 80.4789 65.7653 80.4789 65.2828C80.4789 64.8003 80.6369 64.331 80.9289 63.9469C81.7604 62.853 82.2105 61.5169 82.2105 60.143C82.2105 58.769 81.7604 57.4329 80.9289 56.3391C80.6116 55.974 80.4333 55.5086 80.4256 55.0249C80.4179 54.5412 80.5812 54.0703 80.8867 53.6953ZM28.2227 80.0625C28.2858 80.6183 28.2225 81.1811 28.0375 81.709C27.8526 82.2369 27.5507 82.7162 27.1545 83.111C26.7583 83.5059 26.278 83.8061 25.7495 83.9893C25.221 84.1724 24.6579 84.2338 24.1023 84.1687H19.9961C17.9289 84.1687 15.5664 84.1687 13.2461 84.1687H13.1055C12.7857 84.1927 12.4644 84.1528 12.1602 84.0514C11.856 83.95 11.575 83.7891 11.3336 83.5781C11.1095 83.3135 10.9406 83.0068 10.8367 82.6759C10.7329 82.3451 10.6962 81.9968 10.7289 81.6516C10.7289 76.6875 10.7289 71.5687 10.7289 67.4484V57.4641C10.7289 52.95 10.7289 48.2672 10.7289 43.6547C10.6943 43.304 10.7312 42.9498 10.8376 42.6138C10.944 42.2778 11.1175 41.9669 11.3477 41.7C11.58 41.4932 11.8517 41.3355 12.1465 41.2364C12.4414 41.1373 12.7532 41.0989 13.0633 41.1234H13.232C15.3414 41.1234 17.4508 41.1234 19.5461 41.1234H24.0883C24.6429 41.0541 25.2059 41.1114 25.7352 41.291C26.2645 41.4706 26.7461 41.7678 27.144 42.1603C27.5419 42.5528 27.8457 43.0303 28.0325 43.5571C28.2193 44.0838 28.2843 44.6461 28.2227 45.2016C28.2508 56.7891 28.2508 68.5031 28.2227 80.0625ZM75.3883 73.9594H70.8039C70.1992 73.9594 69.1727 74.1562 69.1023 75.2953C69.1023 75.6187 69.018 76.5891 70.607 76.8563C73.8273 77.4047 74.1789 79.5281 74.0945 80.7516C74.0671 81.2452 73.9391 81.728 73.7183 82.1703C73.4976 82.6126 73.1887 83.0052 72.8108 83.3239C72.4328 83.6426 71.9938 83.8806 71.5205 84.0235C71.0472 84.1664 70.5497 84.211 70.0586 84.1547H57.8664C53.8586 84.1547 50.582 84.1547 47.5867 84.0703C42.6885 83.9085 37.8307 83.1241 33.1305 81.7359C32.5031 81.6095 31.9479 81.2475 31.5791 80.7244C31.2103 80.2013 31.0559 79.5569 31.1477 78.9234C31.1477 75.3234 31.1477 71.7094 31.1477 68.0953V63.7359C31.1477 62.3297 31.1477 61.05 31.1477 59.7141V59.0672C31.1477 55.9031 31.1477 52.6406 31.1477 49.4484C31.0595 48.5629 31.2614 47.6726 31.723 46.9118C32.1846 46.1509 32.8809 45.5606 33.707 45.2297C35.718 44.2172 37.7289 43.1203 39.6695 42.0516H39.8242C41.2305 41.2641 42.6367 40.4766 44.1273 39.7172C46.1697 38.6313 47.9409 37.0989 49.3092 35.2339C50.6775 33.3689 51.6077 31.2194 52.0305 28.9453L52.1148 28.6078C52.5367 26.8219 53.0148 24.825 53.3383 22.9125C53.3587 22.5828 53.4558 22.2623 53.6218 21.9767C53.7878 21.6911 54.0181 21.4481 54.2945 21.2672C54.6027 21.1542 54.9315 21.1082 55.2589 21.1325C55.5863 21.1567 55.9048 21.2506 56.193 21.4078C57.9836 22.2855 59.4434 23.7174 60.3554 25.4908C61.2674 27.2642 61.5831 29.2845 61.2555 31.2516C60.6357 34.0787 59.692 36.825 58.443 39.4359C58.0773 40.3219 57.6977 41.2078 57.3461 42.0938C57.1976 42.5165 56.9122 42.8775 56.5351 43.1195C56.1581 43.3615 55.711 43.4707 55.2648 43.4297C54.4492 43.4297 53.6336 43.4297 52.9445 43.4297C52.399 43.4036 51.8647 43.5901 51.4539 43.95C51.338 44.0791 51.2495 44.2305 51.1939 44.3949C51.1383 44.5593 51.1167 44.7333 51.1305 44.9062C51.1305 45.7922 51.7914 46.3125 52.8742 46.3125H75.0648C75.6502 46.2823 76.2357 46.37 76.7865 46.5705C77.3373 46.771 77.8422 47.0802 78.2711 47.4797C78.5927 47.8207 78.842 48.2232 79.0039 48.663C79.1658 49.1029 79.237 49.571 79.2133 50.0391C79.2133 52.1766 77.568 53.5828 75.1211 53.6109H73.1945C72.3648 53.6109 71.5352 53.6109 70.7195 53.6109C70.2467 53.596 69.787 53.7677 69.4398 54.0891C69.3138 54.2239 69.2174 54.3837 69.1568 54.5581C69.0963 54.7325 69.0729 54.9176 69.0883 55.1016C69.0883 55.9594 69.707 56.5078 70.7055 56.5078C71.2961 56.5078 71.8867 56.5078 72.4633 56.5078H75.4586C75.9369 56.5078 76.4105 56.602 76.8524 56.7851C77.2943 56.9681 77.6958 57.2364 78.034 57.5746C78.3722 57.9128 78.6405 58.3143 78.8235 58.7562C79.0066 59.1981 79.1008 59.6717 79.1008 60.15C79.1008 60.6283 79.0066 61.1019 78.8235 61.5438C78.6405 61.9857 78.3722 62.3872 78.034 62.7254C77.6958 63.0636 77.2943 63.3319 76.8524 63.5149C76.4105 63.698 75.9369 63.7922 75.4586 63.7922C74.6148 63.7922 73.7711 63.7922 72.9133 63.7922C72.0555 63.7922 71.507 63.7922 70.8602 63.7922C70.2133 63.7922 69.1445 64.0594 69.1164 65.1984C69.1025 65.5529 69.2231 65.8995 69.4539 66.1688C69.8624 66.5202 70.3928 66.697 70.9305 66.6609H75.3602C75.8584 66.63 76.3578 66.7014 76.8274 66.8708C77.297 67.0402 77.727 67.304 78.0907 67.6459C78.4545 67.9878 78.7445 68.4005 78.9426 68.8588C79.1408 69.317 79.243 69.8109 79.243 70.3102C79.243 70.8094 79.1408 71.3033 78.9426 71.7616C78.7445 72.2198 78.4545 72.6325 78.0907 72.9744C77.727 73.3163 77.297 73.5801 76.8274 73.7495C76.3578 73.9189 75.8584 73.9903 75.3602 73.9594H75.3883Z" fill="#231F20"/>
<path d="M19.0267 73.4297C18.6445 73.431 18.2665 73.5103 17.916 73.6626C17.5654 73.8149 17.2495 74.0371 16.9877 74.3156C16.7124 74.5888 16.4966 74.916 16.3538 75.2765C16.211 75.6371 16.1443 76.0234 16.158 76.4109C16.1891 77.1469 16.4953 77.8444 17.0162 78.3652C17.5371 78.8861 18.2345 79.1924 18.9705 79.2234C19.3591 79.2537 19.7498 79.2003 20.1161 79.0669C20.4824 78.9335 20.8158 78.7231 21.0939 78.45C21.3726 78.1816 21.5956 77.8609 21.75 77.5061C21.9045 77.1514 21.9874 76.7697 21.9939 76.3828C21.9976 75.9987 21.9257 75.6176 21.7821 75.2613C21.6385 74.905 21.4261 74.5805 21.1571 74.3062C20.8881 74.032 20.5678 73.8135 20.2143 73.6631C19.8608 73.5127 19.4812 73.4334 19.0971 73.4297H19.0267Z" fill="#060606"/>
<path d="M54.1837 24.4219C54.2038 27.1865 53.6055 29.9207 52.4328 32.4243C51.26 34.928 49.5424 37.1378 47.4056 38.8922C47.2584 39.0183 47.1388 39.1734 47.0544 39.3479C46.97 39.5223 46.9226 39.7124 46.9151 39.906C46.9076 40.0997 46.9403 40.2928 47.011 40.4733C47.0817 40.6537 47.1889 40.8176 47.3259 40.9547C47.463 41.0917 47.6269 41.1989 47.8073 41.2696C47.9878 41.3403 48.1809 41.373 48.3746 41.3655C48.5683 41.358 48.7583 41.3106 48.9328 41.2262C49.1072 41.1418 49.2624 41.0222 49.3884 40.875C51.7944 38.8659 53.7247 36.348 55.0403 33.5029C56.3558 30.6578 57.0238 27.5563 56.9962 24.4219C56.9962 24.0489 56.8481 23.6912 56.5844 23.4275C56.3206 23.1638 55.9629 23.0156 55.59 23.0156C55.217 23.0156 54.8593 23.1638 54.5956 23.4275C54.3319 23.6912 54.1837 24.0489 54.1837 24.4219Z" fill="white"/>
<path d="M57.7266 50.1328H75.5156C75.8886 50.1328 76.2463 49.9847 76.51 49.7209C76.7737 49.4572 76.9219 49.0995 76.9219 48.7266C76.9219 48.3536 76.7737 47.9959 76.51 47.7322C76.2463 47.4685 75.8886 47.3203 75.5156 47.3203H57.7266C57.3536 47.3203 56.9959 47.4685 56.7322 47.7322C56.4685 47.9959 56.3203 48.3536 56.3203 48.7266C56.3203 49.0995 56.4685 49.4572 56.7322 49.7209C56.9959 49.9847 57.3536 50.1328 57.7266 50.1328Z" fill="white"/>
</svg>
