<svg width="114" height="128" viewBox="0 0 114 128" fill="none" xmlns="http://www.w3.org/2000/svg">
<path d="M52.4208 22.2113C50.3028 22.7595 46.1367 24.3202 46.1367 28.1009V36.1014H49.7922V30.3494C49.7922 29.8317 50.212 29.4119 50.7297 29.4119C51.2473 29.4119 51.6672 29.8317 51.6672 30.3494V36.1014H62.3366V30.3494C62.3366 29.8317 62.7564 29.4119 63.2741 29.4119C63.7917 29.4119 64.2116 29.8317 64.2116 30.3494V36.1014H67.8669V28.1009C67.8669 24.3044 63.6508 22.7463 61.5828 22.2109C60.873 23.6845 59.0803 24.7064 57.0019 24.7064C54.9234 24.7064 53.1309 23.6847 52.4208 22.2113Z" fill="#FFB229"/>
<path d="M52.8948 7.63266C54.148 8.23391 55.5236 8.53875 56.9841 8.53875H57.0109C58.4739 8.53875 59.8495 8.23391 61.1028 7.63266C61.2328 7.57032 61.3712 7.54032 61.508 7.54032C61.7977 7.54032 62.08 7.67454 62.2617 7.91985C62.5133 8.25954 62.7366 8.60813 62.9309 8.96485C63.1292 7.63032 63.142 6.13454 62.7172 4.68204C61.5294 5.29344 60.242 4.77219 59.2339 4.3636C58.5055 4.0686 57.755 3.7625 57.047 3.8C55.0086 3.905 54.412 4.36094 54.3812 4.58735C54.3434 4.86704 54.1817 5.11469 53.9409 5.26172C53.6998 5.40875 53.4056 5.43938 53.1397 5.34547C52.7736 5.21579 52.3626 5.23829 52.0123 5.40657C51.1633 5.81501 50.9948 7.26704 51.1486 8.81797C51.3231 8.51219 51.5191 8.21266 51.7362 7.91969C52.0037 7.55875 52.4898 7.43829 52.8948 7.63266Z" fill="#FFB229"/>
<path d="M79.5316 47.7341C80.7847 48.3353 82.1602 48.64 83.6203 48.64H83.6481C85.1106 48.64 86.4863 48.3353 87.7394 47.7341C87.8694 47.6717 88.0078 47.6417 88.1445 47.6417C88.4341 47.6417 88.7164 47.7758 88.8981 48.0211C89.1499 48.361 89.3733 48.7094 89.5677 49.0661C89.7658 47.7316 89.7786 46.2358 89.3539 44.7835C88.1661 45.3949 86.8788 44.8735 85.8705 44.4652C85.1422 44.1702 84.3891 43.8639 83.6838 43.9016C81.6453 44.0066 81.0486 44.4625 81.0178 44.6889C80.98 44.9686 80.8181 45.2163 80.5774 45.3632C80.3363 45.5103 80.0419 45.5411 79.7761 45.4467C79.4102 45.3174 78.9994 45.3392 78.6491 45.5078C77.7999 45.9163 77.6316 47.3683 77.7853 48.9194C77.9599 48.6138 78.1558 48.3141 78.373 48.0211C78.6403 47.66 79.1266 47.5397 79.5317 47.7341H79.5316Z" fill="#FFB229"/>
<path d="M88.2155 62.3069C87.5055 63.7805 85.7128 64.8022 83.6345 64.8022C81.5562 64.8022 79.7619 63.7794 79.0525 62.3047C76.7853 62.8803 72.7695 64.4317 72.7695 68.1967V76.1972H76.425V70.4452C76.425 69.9275 76.8448 69.5077 77.3625 69.5077C77.8802 69.5077 78.3 69.9275 78.3 70.4452V76.1972H88.9692V70.4452C88.9692 69.9275 89.3891 69.5077 89.9067 69.5077C90.4244 69.5077 90.8442 69.9275 90.8442 70.4452V76.1972H94.4997V68.1967C94.4997 64.4059 90.302 62.8469 88.2155 62.3069Z" fill="#FFB229"/>
<path d="M26.262 47.7341C27.5152 48.3353 28.8906 48.64 30.3508 48.64H30.3786C31.8411 48.64 33.2167 48.3353 34.4699 47.7341C34.5999 47.6717 34.7383 47.6417 34.875 47.6417C35.1645 47.6417 35.4469 47.7758 35.6286 48.0211C35.8803 48.361 36.1036 48.7094 36.2981 49.0661C36.4963 47.7316 36.5091 46.2358 36.0844 44.7835C34.8967 45.3949 33.6094 44.8735 32.6009 44.4652C31.8727 44.1702 31.1197 43.8639 30.4142 43.9016C28.3758 44.0066 27.7792 44.4625 27.7484 44.6888C27.7106 44.9685 27.5489 45.2161 27.308 45.3632C27.0672 45.5103 26.773 45.5411 26.5069 45.4467C26.14 45.3172 25.7297 45.3394 25.3795 45.5078C24.5303 45.9163 24.362 47.3683 24.5158 48.9194C24.6903 48.6138 24.8863 48.3141 25.1034 48.0211C25.3708 47.66 25.8567 47.5397 26.262 47.7341Z" fill="#FFB229"/>
<path d="M23.1553 70.4453C23.1553 69.9277 23.5752 69.5078 24.0928 69.5078C24.6105 69.5078 25.0303 69.9277 25.0303 70.4453V76.1973H35.6997V70.4453C35.6997 69.9277 36.1195 69.5078 36.6372 69.5078C37.1548 69.5078 37.5747 69.9277 37.5747 70.4453V76.1973H41.23V68.1969C41.23 64.4148 37.0598 62.8545 34.9459 62.3072C34.2359 63.7806 32.4434 64.8025 30.365 64.8025C28.2866 64.8025 26.492 63.7795 25.7828 62.3047C23.5952 62.8603 19.5 64.4075 19.5 68.197V76.1975H23.1555V70.4455L23.1553 70.4453Z" fill="#FFB229"/>
<path d="M87.9169 60.3158C87.8866 60.3096 87.8564 60.3051 87.8262 60.3019C87.8066 60.2966 87.787 60.2912 87.7667 60.2871C87.6425 60.2624 87.5169 60.2387 87.3905 60.2162V59.1452C88.903 57.911 90.118 55.831 90.5142 52.8044C91.5037 50.1627 92.2975 46.314 90.5847 42.7801C90.4402 42.4821 90.1492 42.2822 89.8192 42.2547C89.4869 42.228 89.1691 42.3758 88.977 42.6457C88.4483 43.3893 88.0497 43.3255 86.5734 42.7271C85.6986 42.3727 84.7075 41.9723 83.5864 42.0288C82.7358 42.0726 80.438 42.1912 79.5211 43.4972C78.9453 43.4576 78.3603 43.5657 77.8356 43.8179C74.7633 45.2958 75.9822 50.7046 76.7547 52.8018C77.1505 55.8299 78.3656 57.9107 79.8786 59.1452V60.216C79.7519 60.2387 79.6263 60.2624 79.5019 60.2873C79.4608 60.2955 79.4211 60.3071 79.3825 60.3204C79.338 60.3233 79.2933 60.3285 79.2484 60.338C74.0173 61.4551 70.8945 64.3948 70.8945 68.2012V77.1391C70.8945 77.6568 71.3144 78.0766 71.832 78.0766H95.437C95.9547 78.0766 96.3745 77.6568 96.3745 77.1391V68.2012C96.3745 64.3638 93.2128 61.4162 87.9169 60.3158ZM78.3719 48.0208C78.1547 48.3138 77.9587 48.6135 77.7842 48.9191C77.6306 47.368 77.7989 45.916 78.648 45.5076C78.9983 45.3391 79.4091 45.3171 79.775 45.4465C80.0408 45.5408 80.3352 45.5101 80.5762 45.3629C80.817 45.216 80.9789 44.9683 81.0167 44.6887C81.0473 44.4622 81.6442 44.0063 83.6827 43.9013C84.388 43.8638 85.1411 44.1701 85.8694 44.4649C86.8777 44.8732 88.165 45.3946 89.3528 44.7832C89.7775 46.2355 89.7647 47.7313 89.5666 49.0658C89.3722 48.7091 89.1488 48.3605 88.897 48.0208C88.7153 47.7757 88.4328 47.6415 88.1434 47.6415C88.0067 47.6415 87.8683 47.6713 87.7383 47.7338C86.4852 48.3351 85.1097 48.6398 83.647 48.6398C83.6378 48.6398 83.6284 48.6398 83.6192 48.6398C82.1591 48.6398 80.7836 48.3351 79.5305 47.7338C79.1253 47.5394 78.6392 47.6598 78.3719 48.0208ZM78.6108 52.5399C78.6652 51.5465 78.9461 50.6271 79.4689 49.7499C80.7681 50.2579 82.1602 50.5148 83.6167 50.5148H83.6497C85.1081 50.5148 86.5006 50.2577 87.8 49.7499C88.323 50.6271 88.6041 51.5465 88.6583 52.5399C88.1114 56.7688 85.7475 58.6643 83.6345 58.6643C81.5216 58.6643 79.1577 56.7688 78.6108 52.5399ZM86.2412 61.9302C85.7069 62.5296 84.7269 62.9315 83.6344 62.9315C82.5419 62.9315 81.5617 62.5296 81.0273 61.9301C81.4486 61.8329 81.7533 61.4565 81.7533 61.0166V60.2094C82.3764 60.4301 83.0125 60.5393 83.6342 60.5393C84.2559 60.5393 84.892 60.4302 85.5152 60.2094V61.0168C85.5152 61.4565 85.8198 61.8329 86.2411 61.9302H86.2412ZM94.4995 76.2015H90.8441V70.4494C90.8441 69.9318 90.4242 69.5119 89.9066 69.5119C89.3889 69.5119 88.9691 69.9318 88.9691 70.4494V76.2015H78.2998V70.4494C78.2998 69.9318 77.88 69.5119 77.3623 69.5119C76.8447 69.5119 76.4248 69.9318 76.4248 70.4494V76.2015H72.7694V68.201C72.7694 64.436 76.7853 62.8846 79.0523 62.309C79.7617 63.7837 81.555 64.8065 83.6344 64.8065C85.7138 64.8065 87.5053 63.7846 88.2153 62.3112C90.3019 62.8513 94.4994 64.4102 94.4994 68.201V76.2015H94.4995Z" fill="black"/>
<path d="M52.8691 20.1857C52.8594 20.1876 52.85 20.1907 52.8403 20.1929C52.8194 20.1957 52.7986 20.1982 52.7777 20.2026C47.4453 21.2929 44.2617 24.2451 44.2617 28.0998V37.0377C44.2617 37.5554 44.6816 37.9752 45.1992 37.9752H50.7281C50.7281 37.9752 50.7291 37.9752 50.7297 37.9752C50.7303 37.9752 50.7306 37.9752 50.7312 37.9752H63.2727C63.2727 37.9752 63.2736 37.9752 63.2742 37.9752C63.2748 37.9752 63.2752 37.9752 63.2758 37.9752H68.8045C69.3222 37.9752 69.742 37.5554 69.742 37.0377V28.0998C69.742 24.2724 66.5927 21.3273 61.3175 20.2216C61.2838 20.2146 61.2502 20.2098 61.2166 20.2065C61.1897 20.1985 61.1623 20.1915 61.1342 20.1858C61.0098 20.161 60.8842 20.1373 60.758 20.1148V19.044C62.2706 17.8098 63.4855 15.7296 63.8816 12.7024C64.8713 10.0612 65.6648 6.21288 63.952 2.67882C63.8075 2.38069 63.5166 2.181 63.1866 2.1535C62.8548 2.12553 62.5364 2.27444 62.3444 2.54428C61.8155 3.28819 61.4166 3.22366 59.9409 2.62569C59.0661 2.27132 58.0752 1.86991 56.9537 1.92741C56.1031 1.97132 53.8052 2.08975 52.8886 3.396C52.3127 3.356 51.7277 3.46444 51.2028 3.71663C48.1308 5.1946 49.3497 10.6033 50.122 12.7004C50.518 15.7285 51.7331 17.8093 53.2459 19.0437V20.1144C53.1192 20.1371 52.9936 20.1608 52.8692 20.1857H52.8691ZM51.7392 7.91944C51.522 8.21241 51.3261 8.51194 51.1516 8.81772C50.998 7.26663 51.1664 5.81475 52.0153 5.40632C52.3656 5.23803 52.7766 5.21553 53.1427 5.34522C53.4086 5.43929 53.7028 5.40866 53.9439 5.26147C54.1847 5.11444 54.3464 4.86678 54.3842 4.5871C54.4148 4.36069 55.0116 3.90491 57.05 3.79975C57.758 3.76225 58.5084 4.06835 59.2369 4.36335C60.245 4.77179 61.5323 5.29319 62.7202 4.68178C63.145 6.13413 63.1322 7.63007 62.9339 8.9646C62.7395 8.60788 62.5163 8.25928 62.2647 7.9196C62.083 7.67428 61.8005 7.54007 61.5109 7.54007C61.3742 7.54007 61.2358 7.57007 61.1058 7.63241C59.8525 8.23382 58.477 8.5385 57.0139 8.5385H56.987C55.5266 8.5385 54.1509 8.23366 52.8978 7.63241C52.4928 7.43804 52.0066 7.5585 51.7391 7.91944H51.7392ZM51.9781 12.4385C52.0325 11.4452 52.3133 10.5258 52.8363 9.64866C54.1355 10.1566 55.5278 10.4135 56.9847 10.4135H57.0164C58.4753 10.4135 59.868 10.1565 61.1673 9.64866C61.6902 10.5258 61.9711 11.4454 62.0253 12.4385C61.4784 16.6674 59.1148 18.5629 57.0019 18.5629C54.8889 18.5629 52.525 16.6676 51.9781 12.4385ZM59.6086 21.8288C59.0744 22.4282 58.0942 22.8302 57.0017 22.8302C55.9092 22.8302 54.9291 22.4282 54.3947 21.8288C54.8159 21.7316 55.1206 21.3552 55.1206 20.9154V20.1082C55.7437 20.3288 56.38 20.438 57.0017 20.438C57.6234 20.438 58.2594 20.329 58.8825 20.1083V20.9157C58.8825 21.3554 59.1872 21.7318 59.6084 21.829L59.6086 21.8288ZM57.0017 24.7052C59.0802 24.7052 60.8728 23.6833 61.5827 22.2098C63.6506 22.7451 67.8667 24.3032 67.8667 28.0998V36.1002H64.2114V30.3482C64.2114 29.8305 63.7916 29.4107 63.2739 29.4107C62.7562 29.4107 62.3364 29.8305 62.3364 30.3482V36.1002H51.667V30.3482C51.667 29.8305 51.2472 29.4107 50.7295 29.4107C50.2119 29.4107 49.792 29.8305 49.792 30.3482V36.1002H46.1366V28.0998C46.1366 24.319 50.3028 22.7583 52.4206 22.2101C53.1306 23.6835 54.9231 24.7052 57.0016 24.7052H57.0017Z" fill="black"/>
<path d="M18.5625 78.0768H42.1675C42.6852 78.0768 43.105 77.6569 43.105 77.1393V68.2013C43.105 64.349 39.9242 61.3972 34.5962 60.3057C34.5747 60.3013 34.5531 60.2987 34.5316 60.2958C34.52 60.293 34.5089 60.2896 34.4972 60.2873C34.373 60.2626 34.2473 60.2388 34.1209 60.2163V59.1454C35.6334 57.9113 36.8483 55.8313 37.2445 52.8044C38.2341 50.1629 39.028 46.3141 37.3152 42.7801C37.1706 42.4821 36.8797 42.2822 36.5497 42.2547C36.2184 42.228 35.8994 42.3758 35.7075 42.6457C35.1787 43.3893 34.7802 43.3255 33.3039 42.7271C32.4291 42.3727 31.4362 41.9723 30.3169 42.0288C29.4662 42.0726 27.1683 42.191 26.2517 43.4973C25.6756 43.458 25.0908 43.5657 24.5661 43.8179C21.4938 45.2958 22.7127 50.7046 23.4852 52.8018C23.8809 55.8299 25.0961 57.9108 26.6091 59.1452V60.216C26.4823 60.2387 26.3567 60.2624 26.2323 60.2873C26.1609 60.3015 26.0938 60.3244 26.03 60.3532C25.9577 60.3521 25.8842 60.3583 25.8105 60.3749C20.685 61.5188 17.625 64.4446 17.625 68.2013V77.1393C17.625 77.6569 18.0448 78.0768 18.5625 78.0768ZM25.1023 48.0212C24.8852 48.3141 24.6892 48.6138 24.5147 48.9194C24.3611 47.3683 24.5294 45.9163 25.3784 45.5079C25.7286 45.3396 26.1389 45.3173 26.5058 45.4468C26.7719 45.5412 27.0661 45.5104 27.3069 45.3632C27.5478 45.2162 27.7095 44.9685 27.7473 44.6888C27.778 44.4626 28.3747 44.0066 30.4131 43.9016C31.1186 43.8641 31.8716 44.1704 32.5998 44.4652C33.6083 44.8735 34.8956 45.3949 36.0833 44.7835C36.508 46.2358 36.4952 47.7316 36.297 49.0662C36.1025 48.7094 35.8792 48.3608 35.6275 48.0212C35.4458 47.776 35.1633 47.6418 34.8739 47.6418C34.7372 47.6418 34.5988 47.6716 34.4688 47.7341C33.2156 48.3354 31.8402 48.6401 30.3775 48.6401C30.3683 48.6401 30.3589 48.6401 30.3497 48.6401C28.8895 48.6401 27.5141 48.3354 26.2609 47.7341C25.8556 47.5398 25.3697 47.6601 25.1023 48.0212ZM25.3412 52.5402C25.3956 51.5468 25.6766 50.6274 26.1994 49.7502C27.4986 50.2582 28.8906 50.5151 30.3472 50.5151H30.3802C31.8386 50.5151 33.2311 50.258 34.5305 49.7502C35.0534 50.6274 35.3344 51.5468 35.3886 52.5402C34.8417 56.7691 32.478 58.6646 30.3648 58.6646C28.2517 58.6646 25.8883 56.7691 25.3412 52.5402ZM32.9717 61.9305C32.4373 62.5299 31.4573 62.9318 30.3648 62.9318C29.2723 62.9318 28.2922 62.5299 27.7578 61.9304C28.1791 61.8332 28.4838 61.4568 28.4838 61.0169V60.2098C29.1069 60.4304 29.743 60.5396 30.3647 60.5396C30.9864 60.5396 31.6225 60.4305 32.2456 60.2098V61.0171C32.2456 61.4568 32.5505 61.8332 32.9717 61.9305ZM19.4998 68.2013C19.4998 64.4119 23.5952 62.8646 25.7827 62.309C26.4919 63.7838 28.2852 64.8068 30.3648 64.8068C32.4445 64.8068 34.2356 63.7851 34.9458 62.3115C37.0597 62.8588 41.2298 64.4193 41.2298 68.2012V76.2016H37.5745V70.4496C37.5745 69.9319 37.1547 69.5121 36.637 69.5121C36.1194 69.5121 35.6995 69.9319 35.6995 70.4496V76.2016H25.0305V70.4496C25.0305 69.9319 24.6106 69.5121 24.093 69.5121C23.5753 69.5121 23.1555 69.9319 23.1555 70.4496V76.2016H19.5V68.2012L19.4998 68.2013Z" fill="black"/>
<path d="M63.8909 64.6189C64.0033 65.0378 64.382 65.3139 64.7959 65.3139C64.8762 65.3139 64.958 65.3036 65.0392 65.2819L70.1192 63.9208C70.1219 63.9202 70.1241 63.9188 70.1267 63.918C70.1769 63.9041 70.2253 63.885 70.2727 63.863C70.2841 63.8577 70.2953 63.8525 70.3064 63.8467C70.355 63.8217 70.4019 63.7934 70.4456 63.76C70.448 63.7583 70.4497 63.7563 70.452 63.7545C70.4928 63.7228 70.5303 63.6867 70.5659 63.648C70.5747 63.6384 70.5831 63.6291 70.5916 63.6192C70.6269 63.5773 70.6602 63.5331 70.6886 63.4839C70.7044 63.4566 70.7186 63.4287 70.7314 63.4003C70.7394 63.3827 70.7458 63.3645 70.7525 63.3466C70.7566 63.3358 70.7614 63.3253 70.765 63.3145C70.773 63.2911 70.7792 63.2673 70.7852 63.2436C70.7866 63.238 70.7886 63.2323 70.7898 63.2266C70.7958 63.2012 70.8 63.1758 70.8036 63.1503C70.8042 63.1456 70.8055 63.1411 70.8061 63.1366C70.8094 63.1116 70.8111 63.0866 70.8123 63.0616C70.8125 63.0561 70.8134 63.0506 70.8136 63.0452C70.8142 63.0222 70.8136 62.9994 70.8125 62.9766C70.8122 62.9688 70.8125 62.9609 70.812 62.9531C70.8106 62.932 70.8076 62.9109 70.8048 62.89C70.8036 62.8806 70.803 62.8713 70.8016 62.8619C70.7978 62.8394 70.7925 62.8173 70.7872 62.7953C70.7853 62.7878 70.7842 62.7802 70.7823 62.7725L69.4211 57.6925C69.287 57.1923 68.7725 56.8956 68.2728 57.0295C67.7727 57.1636 67.4758 57.6777 67.6098 58.1778L68.3853 61.0716L58.0766 55.1198V43.2163L60.195 45.3345C60.378 45.5177 60.618 45.6092 60.8578 45.6092C61.0977 45.6092 61.3377 45.5177 61.5206 45.3345C61.8869 44.9684 61.8869 44.3748 61.5206 44.0089L57.8019 40.2902C57.7969 40.2853 57.7916 40.2809 57.7864 40.2761C57.7695 40.2598 57.7525 40.2439 57.7344 40.2291C57.7247 40.2211 57.7144 40.2142 57.7045 40.2067C57.6902 40.1958 57.6759 40.1845 57.6609 40.1744C57.6517 40.1681 57.642 40.163 57.6325 40.1572C57.6159 40.1469 57.5995 40.1364 57.5823 40.1272C57.5739 40.1227 57.565 40.1191 57.5564 40.1147C57.5377 40.1053 57.5189 40.0959 57.4995 40.0878C57.4911 40.0844 57.4825 40.0817 57.4739 40.0784C57.4541 40.0708 57.4342 40.0631 57.4136 40.0569C57.4023 40.0534 57.3908 40.0511 57.3794 40.0481C57.3614 40.0433 57.3434 40.0381 57.325 40.0344C57.3023 40.0298 57.2794 40.0267 57.2562 40.0239C57.2489 40.023 57.2417 40.0214 57.2344 40.0206C57.2028 40.0173 57.1711 40.0156 57.1392 40.0156C57.1073 40.0156 57.0755 40.0173 57.0441 40.0206C57.0373 40.0213 57.0309 40.0228 57.0244 40.0236C57.0006 40.0266 56.9767 40.0297 56.9533 40.0344C56.9359 40.0378 56.9192 40.0428 56.9022 40.0472C56.8895 40.0505 56.8769 40.0531 56.8645 40.0569C56.8453 40.0628 56.8267 40.07 56.808 40.0772C56.7983 40.0809 56.7881 40.0839 56.7784 40.088C56.7605 40.0955 56.7433 40.1042 56.7259 40.1128C56.7159 40.1178 56.7055 40.1222 56.6956 40.1275C56.6805 40.1356 56.6659 40.145 56.6512 40.1541C56.6398 40.1611 56.6281 40.1675 56.6169 40.175C56.6053 40.1828 56.5944 40.1916 56.5833 40.1998C56.5698 40.2097 56.5561 40.2192 56.5433 40.2298C56.5384 40.2338 56.5341 40.2384 56.5294 40.2425C56.5112 40.258 56.4933 40.2736 56.4764 40.2905L52.758 44.0092C52.3917 44.3753 52.3917 44.9689 52.758 45.335C53.1242 45.7011 53.7177 45.7011 54.0837 45.335L56.2019 43.2169V55.1203L45.8933 61.072L46.6686 58.1783C46.8025 57.6781 46.5058 57.1642 46.0056 57.03C45.5055 56.8969 44.9916 57.1927 44.8573 57.693L43.4962 62.773C43.4947 62.7786 43.4941 62.7842 43.4927 62.7898C43.4867 62.8141 43.4811 62.8383 43.477 62.863C43.4744 62.8791 43.4731 62.895 43.4712 62.9111C43.4697 62.9255 43.4675 62.9397 43.4666 62.9541C43.4653 62.9717 43.4656 62.9891 43.4653 63.0066C43.4653 63.0197 43.4645 63.0327 43.465 63.0458C43.4655 63.063 43.4673 63.08 43.4689 63.097C43.47 63.1105 43.4708 63.1239 43.4725 63.1373C43.4747 63.1538 43.478 63.1698 43.4809 63.1859C43.4836 63.1998 43.4856 63.2139 43.4889 63.2278C43.4925 63.2438 43.4975 63.2591 43.5019 63.2747C43.5058 63.2886 43.5094 63.3025 43.5141 63.3162C43.52 63.3336 43.527 63.3505 43.5339 63.3673C43.5386 63.3787 43.5425 63.3903 43.5477 63.4017C43.5733 63.4581 43.6042 63.5119 43.6403 63.5622C43.6489 63.5741 43.6583 63.585 43.6672 63.5964C43.677 63.6089 43.6866 63.6217 43.697 63.6338C43.7081 63.6464 43.72 63.6581 43.7317 63.67C43.7414 63.6798 43.7506 63.6902 43.7608 63.6995C43.773 63.7109 43.7858 63.7213 43.7984 63.732C43.8092 63.7411 43.8197 63.7505 43.8309 63.7591C43.8436 63.7688 43.8567 63.7773 43.8698 63.7864C43.882 63.7948 43.8939 63.8036 43.9066 63.8114C43.9197 63.8195 43.9336 63.8267 43.9472 63.8342C43.9603 63.8416 43.9733 63.8492 43.9869 63.8559C44.0026 63.8638 44.0187 63.8702 44.0348 63.877C44.047 63.8822 44.0586 63.888 44.0711 63.8927C44.0995 63.9033 44.1283 63.9127 44.1575 63.9205C44.1581 63.9206 44.1587 63.9209 44.1594 63.9211L49.2392 65.2822C49.3206 65.3039 49.402 65.3142 49.4825 65.3142C49.8962 65.3142 50.2751 65.038 50.3875 64.6192C50.5214 64.1192 50.2247 63.6052 49.7245 63.4709L46.8309 62.6958L57.1395 56.7439L67.4481 62.6958L64.5545 63.4711C64.0544 63.6052 63.7575 64.1191 63.8916 64.6194L63.8909 64.6189Z" fill="black"/>
<path d="M27.3245 102L30.3065 92.844H32.2105L35.1925 102H33.4845L32.0845 97.128C31.9352 96.6427 31.7905 96.1433 31.6505 95.63C31.5199 95.1167 31.3892 94.608 31.2585 94.104H31.2025C31.0812 94.6173 30.9505 95.1307 30.8105 95.644C30.6799 96.148 30.5399 96.6427 30.3905 97.128L28.9765 102H27.3245ZM29.0885 99.522V98.248H33.4005V99.522H29.0885ZM37.5571 102L35.1631 95.126H36.8011L37.8931 98.696C37.9865 99.0227 38.0798 99.3633 38.1731 99.718C38.2758 100.063 38.3738 100.413 38.4671 100.768H38.5231C38.6258 100.413 38.7238 100.063 38.8171 99.718C38.9198 99.3633 39.0178 99.0227 39.1111 98.696L40.2031 95.126H41.7571L39.4191 102H37.5571ZM45.3428 105.038C44.7921 105.038 44.3021 104.973 43.8728 104.842C43.4434 104.711 43.1028 104.511 42.8508 104.24C42.6081 103.979 42.4868 103.647 42.4868 103.246C42.4868 102.957 42.5708 102.686 42.7388 102.434C42.9161 102.191 43.1588 101.972 43.4668 101.776V101.72C43.2988 101.608 43.1541 101.459 43.0328 101.272C42.9114 101.085 42.8508 100.852 42.8508 100.572C42.8508 100.311 42.9254 100.068 43.0748 99.844C43.2334 99.62 43.4108 99.438 43.6068 99.298V99.242C43.3734 99.0647 43.1634 98.8173 42.9768 98.5C42.7994 98.1827 42.7108 97.8233 42.7108 97.422C42.7108 96.8993 42.8368 96.456 43.0888 96.092C43.3408 95.7187 43.6721 95.4387 44.0828 95.252C44.4934 95.056 44.9414 94.958 45.4268 94.958C45.6134 94.958 45.7954 94.972 45.9728 95C46.1501 95.028 46.3041 95.07 46.4348 95.126H48.8988V96.316H47.6108V96.372C47.7414 96.512 47.8441 96.6753 47.9188 96.862C47.9934 97.0393 48.0308 97.2493 48.0308 97.492C48.0308 97.996 47.9141 98.4207 47.6808 98.766C47.4474 99.1113 47.1348 99.3727 46.7428 99.55C46.3508 99.7273 45.9121 99.816 45.4268 99.816C45.2774 99.816 45.1234 99.802 44.9648 99.774C44.8061 99.746 44.6474 99.6993 44.4888 99.634C44.3954 99.7273 44.3161 99.8207 44.2508 99.914C44.1854 100.007 44.1528 100.133 44.1528 100.292C44.1528 100.488 44.2368 100.642 44.4048 100.754C44.5728 100.866 44.8621 100.922 45.2728 100.922H46.4908C47.3214 100.922 47.9468 101.057 48.3668 101.328C48.7961 101.589 49.0108 102.019 49.0108 102.616C49.0108 103.064 48.8614 103.47 48.5628 103.834C48.2641 104.207 47.8394 104.501 47.2888 104.716C46.7381 104.931 46.0894 105.038 45.3428 105.038ZM45.4268 98.808C45.6414 98.808 45.8374 98.7567 46.0148 98.654C46.2014 98.542 46.3461 98.3833 46.4488 98.178C46.5608 97.9633 46.6168 97.7113 46.6168 97.422C46.6168 96.9833 46.5001 96.6473 46.2668 96.414C46.0428 96.1807 45.7628 96.064 45.4268 96.064C45.0908 96.064 44.8061 96.1807 44.5728 96.414C44.3394 96.6473 44.2228 96.9833 44.2228 97.422C44.2228 97.7113 44.2788 97.9633 44.3908 98.178C44.5028 98.3833 44.6474 98.542 44.8248 98.654C45.0021 98.7567 45.2028 98.808 45.4268 98.808ZM45.5948 103.988C45.9588 103.988 46.2808 103.937 46.5608 103.834C46.8408 103.741 47.0601 103.605 47.2188 103.428C47.3774 103.26 47.4568 103.078 47.4568 102.882C47.4568 102.611 47.3494 102.429 47.1348 102.336C46.9294 102.243 46.6308 102.196 46.2388 102.196H45.3008C45.1141 102.196 44.9461 102.187 44.7968 102.168C44.6474 102.149 44.5028 102.126 44.3628 102.098C44.1854 102.238 44.0501 102.383 43.9568 102.532C43.8728 102.681 43.8308 102.84 43.8308 103.008C43.8308 103.316 43.9894 103.554 44.3068 103.722C44.6241 103.899 45.0534 103.988 45.5948 103.988ZM51.1322 102.168C50.8429 102.168 50.5955 102.065 50.3902 101.86C50.1849 101.645 50.0822 101.384 50.0822 101.076C50.0822 100.759 50.1849 100.497 50.3902 100.292C50.5955 100.087 50.8429 99.984 51.1322 99.984C51.4309 99.984 51.6782 100.087 51.8742 100.292C52.0702 100.497 52.1682 100.759 52.1682 101.076C52.1682 101.384 52.0702 101.645 51.8742 101.86C51.6782 102.065 51.4309 102.168 51.1322 102.168ZM59.3024 102.14C58.5091 102.14 57.9444 101.911 57.6084 101.454C57.2817 100.987 57.1184 100.385 57.1184 99.648V96.4H56.1384V95.196L57.2024 95.126L57.3984 92.97H58.7424V95.126H60.4924V96.4H58.7424V99.648C58.7424 100.049 58.8217 100.353 58.9804 100.558C59.1391 100.754 59.3817 100.852 59.7084 100.852C59.8297 100.852 59.9511 100.843 60.0724 100.824C60.1937 100.805 60.3104 100.768 60.4224 100.712L60.7164 101.846C60.5391 101.93 60.3291 102 60.0864 102.056C59.8437 102.112 59.5824 102.14 59.3024 102.14ZM64.6742 102.168C64.0302 102.168 63.4469 102.028 62.9242 101.748C62.4109 101.459 62.0049 101.048 61.7062 100.516C61.4076 99.9747 61.2582 99.3213 61.2582 98.556C61.2582 97.8093 61.4122 97.17 61.7202 96.638C62.0282 96.0967 62.4249 95.6813 62.9102 95.392C63.3956 95.1027 63.9089 94.958 64.4502 94.958C65.0756 94.958 65.5982 95.098 66.0182 95.378C66.4382 95.658 66.7509 96.0453 66.9562 96.54C67.1709 97.0253 67.2782 97.5853 67.2782 98.22C67.2782 98.3693 67.2689 98.514 67.2502 98.654C67.2409 98.794 67.2222 98.9293 67.1942 99.06H62.4622V97.828H65.8502C65.8502 97.3333 65.7382 96.946 65.5142 96.666C65.2902 96.3767 64.9449 96.232 64.4782 96.232C64.2169 96.232 63.9602 96.302 63.7082 96.442C63.4656 96.582 63.2602 96.82 63.0922 97.156C62.9336 97.492 62.8542 97.9587 62.8542 98.556C62.8542 99.0973 62.9476 99.5407 63.1342 99.886C63.3209 100.222 63.5682 100.474 63.8762 100.642C64.1842 100.801 64.5156 100.88 64.8702 100.88C65.1689 100.88 65.4489 100.838 65.7102 100.754C65.9809 100.67 66.2329 100.553 66.4662 100.404L67.0262 101.44C66.7089 101.664 66.3449 101.841 65.9342 101.972C65.5329 102.103 65.1129 102.168 64.6742 102.168ZM70.3179 102.168C69.9165 102.168 69.5619 102.084 69.2539 101.916C68.9459 101.748 68.7032 101.515 68.5259 101.216C68.3579 100.908 68.2739 100.553 68.2739 100.152C68.2739 99.3773 68.5959 98.794 69.2399 98.402C69.8932 98.0007 70.9245 97.7253 72.3339 97.576C72.3245 97.3427 72.2779 97.128 72.1939 96.932C72.1192 96.736 71.9885 96.582 71.8019 96.47C71.6245 96.3487 71.3819 96.288 71.0739 96.288C70.7379 96.288 70.4065 96.3487 70.0799 96.47C69.7625 96.5913 69.4499 96.7453 69.1419 96.932L68.5539 95.84C68.8059 95.6813 69.0812 95.5367 69.3799 95.406C69.6785 95.266 69.9959 95.1587 70.3319 95.084C70.6679 95 71.0179 94.958 71.3819 94.958C71.9512 94.958 72.4225 95.0747 72.7959 95.308C73.1785 95.532 73.4632 95.868 73.6499 96.316C73.8459 96.7547 73.9439 97.296 73.9439 97.94V102H72.6139L72.5019 101.244H72.4459C72.1285 101.505 71.7972 101.725 71.4519 101.902C71.1065 102.079 70.7285 102.168 70.3179 102.168ZM70.8219 100.852C71.1019 100.852 71.3585 100.796 71.5919 100.684C71.8345 100.563 72.0819 100.385 72.3339 100.152V98.696C71.7085 98.7707 71.2139 98.8687 70.8499 98.99C70.4859 99.1113 70.2245 99.2607 70.0659 99.438C69.9165 99.606 69.8419 99.8067 69.8419 100.04C69.8419 100.329 69.9352 100.539 70.1219 100.67C70.3085 100.791 70.5419 100.852 70.8219 100.852ZM75.8706 102V95.126H77.2006L77.3126 96.064H77.3686C77.658 95.756 77.9706 95.4947 78.3066 95.28C78.652 95.0653 79.0393 94.958 79.4686 94.958C79.982 94.958 80.388 95.0653 80.6866 95.28C80.9853 95.4947 81.214 95.798 81.3726 96.19C81.6993 95.8353 82.04 95.5413 82.3946 95.308C82.7493 95.0747 83.146 94.958 83.5846 94.958C84.3126 94.958 84.8493 95.196 85.1946 95.672C85.54 96.148 85.7126 96.82 85.7126 97.688V102H84.0886V97.898C84.0886 97.3287 84.0046 96.9273 83.8366 96.694C83.6686 96.4607 83.4026 96.344 83.0386 96.344C82.8146 96.344 82.586 96.414 82.3526 96.554C82.1193 96.694 81.8673 96.9087 81.5966 97.198V102H79.9866V97.898C79.9866 97.3287 79.898 96.9273 79.7206 96.694C79.5526 96.4607 79.2866 96.344 78.9226 96.344C78.4933 96.344 78.0126 96.6287 77.4806 97.198V102H75.8706ZM14.8048 122.168C14.1701 122.168 13.6008 122.028 13.0968 121.748C12.5928 121.459 12.1914 121.048 11.8928 120.516C11.6034 119.975 11.4588 119.326 11.4588 118.57C11.4588 117.805 11.6174 117.156 11.9348 116.624C12.2521 116.083 12.6721 115.672 13.1948 115.392C13.7268 115.103 14.2961 114.958 14.9028 114.958C15.3414 114.958 15.7241 115.033 16.0508 115.182C16.3868 115.322 16.6761 115.504 16.9188 115.728L16.1488 116.736C15.9994 116.596 15.8268 116.484 15.6308 116.4C15.4441 116.316 15.2294 116.274 14.9868 116.274C14.6228 116.274 14.3008 116.372 14.0208 116.568C13.7408 116.755 13.5168 117.021 13.3488 117.366C13.1901 117.702 13.1108 118.103 13.1108 118.57C13.1108 119.027 13.1901 119.429 13.3488 119.774C13.5074 120.11 13.7221 120.376 13.9928 120.572C14.2728 120.759 14.5948 120.852 14.9588 120.852C15.2294 120.852 15.4814 120.801 15.7148 120.698C15.9574 120.595 16.1721 120.465 16.3588 120.306L17.0168 121.3C16.7274 121.561 16.3914 121.771 16.0088 121.93C15.6354 122.089 15.2341 122.168 14.8048 122.168ZM20.8458 122.168C20.2764 122.168 19.7444 122.028 19.2498 121.748C18.7551 121.459 18.3538 121.048 18.0458 120.516C17.7378 119.975 17.5838 119.326 17.5838 118.57C17.5838 117.805 17.7378 117.156 18.0458 116.624C18.3538 116.083 18.7551 115.672 19.2498 115.392C19.7444 115.103 20.2764 114.958 20.8458 114.958C21.4244 114.958 21.9611 115.103 22.4558 115.392C22.9504 115.672 23.3518 116.083 23.6598 116.624C23.9678 117.156 24.1218 117.805 24.1218 118.57C24.1218 119.326 23.9678 119.975 23.6598 120.516C23.3518 121.048 22.9504 121.459 22.4558 121.748C21.9611 122.028 21.4244 122.168 20.8458 122.168ZM20.8458 120.852C21.1818 120.852 21.4711 120.759 21.7138 120.572C21.9564 120.385 22.1431 120.119 22.2738 119.774C22.4044 119.429 22.4698 119.027 22.4698 118.57C22.4698 118.113 22.4044 117.711 22.2738 117.366C22.1431 117.021 21.9564 116.755 21.7138 116.568C21.4711 116.372 21.1818 116.274 20.8458 116.274C20.5098 116.274 20.2204 116.372 19.9778 116.568C19.7444 116.755 19.5624 117.021 19.4318 117.366C19.3011 117.711 19.2358 118.113 19.2358 118.57C19.2358 119.027 19.3011 119.429 19.4318 119.774C19.5624 120.119 19.7444 120.385 19.9778 120.572C20.2204 120.759 20.5098 120.852 20.8458 120.852ZM25.7154 122V115.126H27.0454L27.1574 116.05H27.2134C27.5214 115.751 27.8574 115.495 28.2214 115.28C28.5854 115.065 29.0007 114.958 29.4674 114.958C30.2047 114.958 30.7414 115.196 31.0774 115.672C31.4134 116.148 31.5814 116.82 31.5814 117.688V122H29.9714V117.898C29.9714 117.329 29.8874 116.927 29.7194 116.694C29.5514 116.461 29.276 116.344 28.8934 116.344C28.5947 116.344 28.3287 116.419 28.0954 116.568C27.8714 116.708 27.6147 116.918 27.3254 117.198V122H25.7154ZM33.5493 122V115.126H34.8793L34.9913 116.05H35.0473C35.3553 115.751 35.6913 115.495 36.0553 115.28C36.4193 115.065 36.8347 114.958 37.3013 114.958C38.0387 114.958 38.5753 115.196 38.9113 115.672C39.2473 116.148 39.4153 116.82 39.4153 117.688V122H37.8053V117.898C37.8053 117.329 37.7213 116.927 37.5533 116.694C37.3853 116.461 37.11 116.344 36.7273 116.344C36.4287 116.344 36.1627 116.419 35.9293 116.568C35.7053 116.708 35.4487 116.918 35.1593 117.198V122H33.5493ZM44.3373 122.168C43.6933 122.168 43.11 122.028 42.5873 121.748C42.074 121.459 41.668 121.048 41.3693 120.516C41.0707 119.975 40.9213 119.321 40.9213 118.556C40.9213 117.809 41.0753 117.17 41.3833 116.638C41.6913 116.097 42.088 115.681 42.5733 115.392C43.0587 115.103 43.572 114.958 44.1133 114.958C44.7387 114.958 45.2613 115.098 45.6813 115.378C46.1013 115.658 46.414 116.045 46.6193 116.54C46.834 117.025 46.9413 117.585 46.9413 118.22C46.9413 118.369 46.932 118.514 46.9133 118.654C46.904 118.794 46.8853 118.929 46.8573 119.06H42.1253V117.828H45.5133C45.5133 117.333 45.4013 116.946 45.1773 116.666C44.9533 116.377 44.608 116.232 44.1413 116.232C43.88 116.232 43.6233 116.302 43.3713 116.442C43.1287 116.582 42.9233 116.82 42.7553 117.156C42.5967 117.492 42.5173 117.959 42.5173 118.556C42.5173 119.097 42.6107 119.541 42.7973 119.886C42.984 120.222 43.2313 120.474 43.5393 120.642C43.8473 120.801 44.1787 120.88 44.5333 120.88C44.832 120.88 45.112 120.838 45.3733 120.754C45.644 120.67 45.896 120.553 46.1293 120.404L46.6893 121.44C46.372 121.664 46.008 121.841 45.5973 121.972C45.196 122.103 44.776 122.168 44.3373 122.168ZM51.377 122.168C50.7424 122.168 50.173 122.028 49.669 121.748C49.165 121.459 48.7637 121.048 48.465 120.516C48.1757 119.975 48.031 119.326 48.031 118.57C48.031 117.805 48.1897 117.156 48.507 116.624C48.8244 116.083 49.2444 115.672 49.767 115.392C50.299 115.103 50.8684 114.958 51.475 114.958C51.9137 114.958 52.2964 115.033 52.623 115.182C52.959 115.322 53.2484 115.504 53.491 115.728L52.721 116.736C52.5717 116.596 52.399 116.484 52.203 116.4C52.0164 116.316 51.8017 116.274 51.559 116.274C51.195 116.274 50.873 116.372 50.593 116.568C50.313 116.755 50.089 117.021 49.921 117.366C49.7624 117.702 49.683 118.103 49.683 118.57C49.683 119.027 49.7624 119.429 49.921 119.774C50.0797 120.11 50.2944 120.376 50.565 120.572C50.845 120.759 51.167 120.852 51.531 120.852C51.8017 120.852 52.0537 120.801 52.287 120.698C52.5297 120.595 52.7444 120.465 52.931 120.306L53.589 121.3C53.2997 121.561 52.9637 121.771 52.581 121.93C52.2077 122.089 51.8064 122.168 51.377 122.168ZM57.2311 122.14C56.4378 122.14 55.8731 121.911 55.5371 121.454C55.2104 120.987 55.0471 120.385 55.0471 119.648V116.4H54.0671V115.196L55.1311 115.126L55.3271 112.97H56.6711V115.126H58.4211V116.4H56.6711V119.648C56.6711 120.049 56.7504 120.353 56.9091 120.558C57.0678 120.754 57.3104 120.852 57.6371 120.852C57.7584 120.852 57.8798 120.843 58.0011 120.824C58.1224 120.805 58.2391 120.768 58.3511 120.712L58.6451 121.846C58.4678 121.93 58.2578 122 58.0151 122.056C57.7724 122.112 57.5111 122.14 57.2311 122.14ZM59.8677 122V115.126H61.4777V122H59.8677ZM60.6657 113.922C60.3857 113.922 60.1524 113.838 59.9657 113.67C59.7884 113.502 59.6997 113.278 59.6997 112.998C59.6997 112.718 59.7884 112.499 59.9657 112.34C60.1524 112.172 60.3857 112.088 60.6657 112.088C60.955 112.088 61.1884 112.172 61.3657 112.34C61.543 112.499 61.6317 112.718 61.6317 112.998C61.6317 113.278 61.543 113.502 61.3657 113.67C61.1884 113.838 60.955 113.922 60.6657 113.922ZM66.3458 122.168C65.7764 122.168 65.2444 122.028 64.7498 121.748C64.2551 121.459 63.8538 121.048 63.5458 120.516C63.2378 119.975 63.0838 119.326 63.0838 118.57C63.0838 117.805 63.2378 117.156 63.5458 116.624C63.8538 116.083 64.2551 115.672 64.7498 115.392C65.2444 115.103 65.7764 114.958 66.3458 114.958C66.9244 114.958 67.4611 115.103 67.9558 115.392C68.4504 115.672 68.8518 116.083 69.1598 116.624C69.4678 117.156 69.6218 117.805 69.6218 118.57C69.6218 119.326 69.4678 119.975 69.1598 120.516C68.8518 121.048 68.4504 121.459 67.9558 121.748C67.4611 122.028 66.9244 122.168 66.3458 122.168ZM66.3458 120.852C66.6818 120.852 66.9711 120.759 67.2138 120.572C67.4564 120.385 67.6431 120.119 67.7738 119.774C67.9044 119.429 67.9698 119.027 67.9698 118.57C67.9698 118.113 67.9044 117.711 67.7738 117.366C67.6431 117.021 67.4564 116.755 67.2138 116.568C66.9711 116.372 66.6818 116.274 66.3458 116.274C66.0098 116.274 65.7204 116.372 65.4778 116.568C65.2444 116.755 65.0624 117.021 64.9318 117.366C64.8011 117.711 64.7358 118.113 64.7358 118.57C64.7358 119.027 64.8011 119.429 64.9318 119.774C65.0624 120.119 65.2444 120.385 65.4778 120.572C65.7204 120.759 66.0098 120.852 66.3458 120.852ZM71.2154 122V115.126H72.5454L72.6574 116.05H72.7134C73.0214 115.751 73.3574 115.495 73.7214 115.28C74.0854 115.065 74.5007 114.958 74.9674 114.958C75.7047 114.958 76.2414 115.196 76.5774 115.672C76.9134 116.148 77.0814 116.82 77.0814 117.688V122H75.4714V117.898C75.4714 117.329 75.3874 116.927 75.2194 116.694C75.0514 116.461 74.776 116.344 74.3934 116.344C74.0947 116.344 73.8287 116.419 73.5954 116.568C73.3714 116.708 73.1147 116.918 72.8254 117.198V122H71.2154ZM80.9673 122.168C80.4913 122.168 80.02 122.079 79.5533 121.902C79.096 121.725 78.6993 121.477 78.3633 121.16L79.0773 120.236C79.3853 120.488 79.698 120.67 80.0153 120.782C80.3327 120.894 80.6687 120.95 81.0233 120.95C81.3967 120.95 81.672 120.871 81.8493 120.712C82.0267 120.553 82.1153 120.357 82.1153 120.124C82.1153 119.937 82.0453 119.779 81.9053 119.648C81.7747 119.517 81.602 119.405 81.3873 119.312C81.1727 119.219 80.9347 119.125 80.6733 119.032C80.3373 118.911 80.0247 118.766 79.7353 118.598C79.446 118.421 79.208 118.206 79.0213 117.954C78.844 117.693 78.7553 117.38 78.7553 117.016C78.7553 116.409 78.9793 115.915 79.4273 115.532C79.8753 115.149 80.482 114.958 81.2473 114.958C81.714 114.958 82.1433 115.037 82.5353 115.196C82.9273 115.345 83.2633 115.541 83.5433 115.784L82.8293 116.694C82.5867 116.517 82.3393 116.386 82.0873 116.302C81.8353 116.218 81.5693 116.176 81.2893 116.176C80.944 116.176 80.6873 116.251 80.5193 116.4C80.3513 116.549 80.2673 116.727 80.2673 116.932C80.2673 117.1 80.3187 117.245 80.4213 117.366C80.5333 117.478 80.692 117.581 80.8973 117.674C81.1027 117.758 81.35 117.847 81.6393 117.94C81.994 118.061 82.3253 118.211 82.6333 118.388C82.9413 118.556 83.184 118.775 83.3613 119.046C83.548 119.307 83.6413 119.639 83.6413 120.04C83.6413 120.432 83.5387 120.791 83.3333 121.118C83.128 121.435 82.8247 121.692 82.4233 121.888C82.0313 122.075 81.546 122.168 80.9673 122.168ZM89.7854 124.492C89.2067 123.54 88.754 122.546 88.4274 121.51C88.1007 120.474 87.9374 119.34 87.9374 118.108C87.9374 116.876 88.1007 115.742 88.4274 114.706C88.754 113.67 89.2067 112.676 89.7854 111.724L90.7934 112.172C90.2614 113.059 89.8694 114.015 89.6174 115.042C89.3747 116.059 89.2534 117.081 89.2534 118.108C89.2534 119.135 89.3747 120.157 89.6174 121.174C89.8694 122.191 90.2614 123.148 90.7934 124.044L89.7854 124.492ZM94.7584 122.168C94.2824 122.168 93.8531 122.112 93.4704 122C93.0971 121.888 92.7658 121.739 92.4764 121.552C92.1871 121.356 91.9398 121.141 91.7344 120.908L92.5044 119.872C92.7751 120.143 93.0831 120.376 93.4284 120.572C93.7738 120.759 94.1704 120.852 94.6184 120.852C95.1038 120.852 95.4958 120.735 95.7944 120.502C96.1024 120.259 96.2564 119.928 96.2564 119.508C96.2564 119.2 96.1771 118.934 96.0184 118.71C95.8691 118.486 95.6031 118.313 95.2204 118.192C94.8471 118.061 94.3198 117.996 93.6384 117.996V116.82C94.2264 116.82 94.6884 116.759 95.0244 116.638C95.3604 116.507 95.5984 116.339 95.7384 116.134C95.8878 115.919 95.9624 115.672 95.9624 115.392C95.9624 115.019 95.8458 114.729 95.6124 114.524C95.3791 114.309 95.0571 114.202 94.6464 114.202C94.3011 114.202 93.9838 114.281 93.6944 114.44C93.4051 114.589 93.1251 114.79 92.8544 115.042L92.0284 114.048C92.4111 113.712 92.8218 113.441 93.2604 113.236C93.6991 113.031 94.1798 112.928 94.7024 112.928C95.2718 112.928 95.7711 113.021 96.2004 113.208C96.6298 113.385 96.9658 113.651 97.2084 114.006C97.4604 114.351 97.5864 114.776 97.5864 115.28C97.5864 115.775 97.4464 116.19 97.1664 116.526C96.8958 116.862 96.5178 117.128 96.0324 117.324V117.38C96.3778 117.473 96.6904 117.618 96.9704 117.814C97.2504 118.01 97.4698 118.257 97.6284 118.556C97.7964 118.855 97.8804 119.2 97.8804 119.592C97.8804 120.133 97.7358 120.6 97.4464 120.992C97.1664 121.375 96.7884 121.669 96.3124 121.874C95.8458 122.07 95.3278 122.168 94.7584 122.168ZM100.186 124.492L99.1782 124.044C99.7102 123.148 100.098 122.191 100.34 121.174C100.592 120.157 100.718 119.135 100.718 118.108C100.718 117.081 100.592 116.059 100.34 115.042C100.098 114.015 99.7102 113.059 99.1782 112.172L100.186 111.724C100.774 112.676 101.227 113.67 101.544 114.706C101.871 115.742 102.034 116.876 102.034 118.108C102.034 119.34 101.871 120.474 101.544 121.51C101.227 122.546 100.774 123.54 100.186 124.492Z" fill="#060606"/>
</svg>
