<svg width="92" height="130" viewBox="0 0 92 130" fill="none" xmlns="http://www.w3.org/2000/svg">
<path d="M70.5672 41C70.7564 41 70.9437 41.0393 71.1177 41.1156C71.2917 41.1919 71.4488 41.3035 71.5795 41.4438C71.7102 41.5841 71.8119 41.75 71.8782 41.9317C71.9446 42.1133 71.9744 42.3069 71.9657 42.5007C71.5891 50.9312 68.0567 58.8885 62.103 64.7179C56.1494 70.5473 48.2327 73.8002 39.9992 73.8002C31.7657 73.8002 23.849 70.5473 17.8954 64.7179C11.9418 58.8885 8.40936 50.9312 8.03272 42.5007C8.02406 42.3069 8.05382 42.1133 8.12019 41.9317C8.18657 41.75 8.28819 41.5841 8.41891 41.4438C8.54963 41.3035 8.70673 41.1919 8.88073 41.1156C9.05473 41.0393 9.24201 41 9.43126 41H30.7041C31.0392 41 31.3633 41.1233 31.6173 41.3474C31.8713 41.5715 32.0385 41.8816 32.0884 42.2213C32.3737 44.1625 33.3289 45.9345 34.7806 47.2151C36.2322 48.4957 38.0839 49.2 39.9992 49.2C41.9145 49.2 43.7662 48.4957 45.2179 47.2151C46.6695 45.9345 47.6248 44.1625 47.91 42.2213C47.9599 41.8816 48.1271 41.5715 48.3811 41.3474C48.6352 41.1233 48.9592 41 49.2944 41H70.5672Z" fill="#E01F54"/>
<path d="M12.1539 40.9994C11.9641 40.9994 11.7764 40.9598 11.602 40.8831C11.4276 40.8065 11.2702 40.6942 11.1394 40.5533C11.0086 40.4123 10.9072 40.2456 10.8412 40.0632C10.7752 39.8808 10.7461 39.6866 10.7557 39.4923C11.1329 31.8024 14.3787 24.5552 19.8221 19.2493C25.2654 13.9433 32.49 10.9844 40.0018 10.9844C47.5135 10.9844 54.7381 13.9433 60.1814 19.2493C65.6248 24.5552 68.8706 31.8024 69.2478 39.4923C69.2574 39.6866 69.2283 39.8808 69.1623 40.0632C69.0963 40.2456 68.9949 40.4123 68.8641 40.5533C68.7333 40.6942 68.576 40.8065 68.4016 40.8831C68.2272 40.9598 68.0394 40.9994 67.8496 40.9994H49.2969C48.9617 40.9994 48.6377 40.8761 48.3837 40.652C48.1296 40.4279 47.9625 40.1178 47.9125 39.7781C47.6273 37.8368 46.672 36.0649 45.2204 34.7843C43.7687 33.5037 41.917 32.7993 40.0018 32.7993C38.0865 32.7993 36.2348 33.5037 34.7831 34.7843C33.3315 36.0649 32.3762 37.8368 32.091 39.7781C32.0411 40.1178 31.8739 40.4279 31.6198 40.652C31.3658 40.8761 31.0418 40.9994 30.7066 40.9994H12.1539Z" fill="#001852"/>
<path d="M12.4237 104V94.844H14.3697L15.9377 99.324C16.0404 99.6133 16.1337 99.9027 16.2177 100.192C16.3017 100.472 16.3857 100.78 16.4697 101.116H16.5257C16.6097 100.78 16.6891 100.472 16.7637 100.192C16.8477 99.9027 16.9364 99.6133 17.0297 99.324L18.5977 94.844H20.5297V104H19.0317V99.828C19.0317 99.5387 19.0411 99.2073 19.0597 98.834C19.0877 98.4607 19.1204 98.092 19.1577 97.728C19.1951 97.3547 19.2324 97.028 19.2697 96.748H19.2137L18.4857 99.072L17.0017 103.16H15.9097L14.4257 99.072L13.7257 96.748H13.6697C13.7071 97.028 13.7397 97.3547 13.7677 97.728C13.8051 98.092 13.8331 98.4607 13.8517 98.834C13.8797 99.2073 13.8937 99.5387 13.8937 99.828V104H12.4237ZM24.3814 104.168C23.98 104.168 23.6254 104.084 23.3174 103.916C23.0094 103.748 22.7667 103.515 22.5894 103.216C22.4214 102.908 22.3374 102.553 22.3374 102.152C22.3374 101.377 22.6594 100.794 23.3034 100.402C23.9567 100.001 24.988 99.7253 26.3974 99.576C26.388 99.3427 26.3414 99.128 26.2574 98.932C26.1827 98.736 26.052 98.582 25.8654 98.47C25.688 98.3487 25.4454 98.288 25.1374 98.288C24.8014 98.288 24.47 98.3487 24.1434 98.47C23.826 98.5913 23.5134 98.7453 23.2054 98.932L22.6174 97.84C22.8694 97.6813 23.1447 97.5367 23.4434 97.406C23.742 97.266 24.0594 97.1587 24.3954 97.084C24.7314 97 25.0814 96.958 25.4454 96.958C26.0147 96.958 26.486 97.0747 26.8594 97.308C27.242 97.532 27.5267 97.868 27.7134 98.316C27.9094 98.7547 28.0074 99.296 28.0074 99.94V104H26.6774L26.5654 103.244H26.5094C26.192 103.505 25.8607 103.725 25.5154 103.902C25.17 104.079 24.792 104.168 24.3814 104.168ZM24.8854 102.852C25.1654 102.852 25.422 102.796 25.6554 102.684C25.898 102.563 26.1454 102.385 26.3974 102.152V100.696C25.772 100.771 25.2774 100.869 24.9134 100.99C24.5494 101.111 24.288 101.261 24.1294 101.438C23.98 101.606 23.9054 101.807 23.9054 102.04C23.9054 102.329 23.9987 102.539 24.1854 102.67C24.372 102.791 24.6054 102.852 24.8854 102.852ZM31.5021 104.14C31.1194 104.14 30.8114 104.065 30.5781 103.916C30.3541 103.757 30.1908 103.533 30.0881 103.244C29.9854 102.955 29.9341 102.609 29.9341 102.208V94.116H31.5441V102.292C31.5441 102.497 31.5814 102.637 31.6561 102.712C31.7308 102.787 31.8148 102.824 31.9081 102.824C31.9454 102.824 31.9781 102.824 32.0061 102.824C32.0434 102.815 32.0901 102.805 32.1461 102.796L32.3561 104C32.2628 104.037 32.1414 104.07 31.9921 104.098C31.8521 104.126 31.6888 104.14 31.5021 104.14ZM36.6889 104.168C36.0449 104.168 35.4616 104.028 34.9389 103.748C34.4256 103.459 34.0196 103.048 33.7209 102.516C33.4222 101.975 33.2729 101.321 33.2729 100.556C33.2729 99.8093 33.4269 99.17 33.7349 98.638C34.0429 98.0967 34.4396 97.6813 34.9249 97.392C35.4102 97.1027 35.9236 96.958 36.4649 96.958C37.0902 96.958 37.6129 97.098 38.0329 97.378C38.4529 97.658 38.7656 98.0453 38.9709 98.54C39.1856 99.0253 39.2929 99.5853 39.2929 100.22C39.2929 100.369 39.2836 100.514 39.2649 100.654C39.2556 100.794 39.2369 100.929 39.2089 101.06H34.4769V99.828H37.8649C37.8649 99.3333 37.7529 98.946 37.5289 98.666C37.3049 98.3767 36.9596 98.232 36.4929 98.232C36.2316 98.232 35.9749 98.302 35.7229 98.442C35.4802 98.582 35.2749 98.82 35.1069 99.156C34.9482 99.492 34.8689 99.9587 34.8689 100.556C34.8689 101.097 34.9622 101.541 35.1489 101.886C35.3356 102.222 35.5829 102.474 35.8909 102.642C36.1989 102.801 36.5302 102.88 36.8849 102.88C37.1836 102.88 37.4636 102.838 37.7249 102.754C37.9956 102.67 38.2476 102.553 38.4809 102.404L39.0409 103.44C38.7236 103.664 38.3596 103.841 37.9489 103.972C37.5476 104.103 37.1276 104.168 36.6889 104.168ZM46.7973 104V98.442C46.7973 98.19 46.8067 97.882 46.8253 97.518C46.844 97.154 46.858 96.846 46.8673 96.594H46.8113C46.6993 96.818 46.5827 97.0467 46.4613 97.28C46.34 97.504 46.214 97.7373 46.0833 97.98L44.4593 100.458H49.4293V101.704H42.8633V100.612L46.3913 95.096H48.3093V104H46.7973ZM52.0291 104C52.0757 103.207 52.1504 102.483 52.2531 101.83C52.3651 101.167 52.5237 100.542 52.7291 99.954C52.9344 99.3567 53.1911 98.778 53.4991 98.218C53.8071 97.6487 54.1851 97.0607 54.6331 96.454H50.4051V95.096H56.3831V96.076C55.8511 96.7293 55.4124 97.35 55.0671 97.938C54.7311 98.526 54.4697 99.1233 54.2831 99.73C54.0964 100.327 53.9564 100.971 53.8631 101.662C53.7791 102.353 53.7137 103.132 53.6671 104H52.0291ZM59.5708 100.472C59.1415 100.472 58.7635 100.36 58.4368 100.136C58.1101 99.9027 57.8535 99.5713 57.6668 99.142C57.4801 98.7033 57.3868 98.176 57.3868 97.56C57.3868 96.6453 57.5875 95.936 57.9888 95.432C58.3995 94.928 58.9268 94.676 59.5708 94.676C60.2148 94.676 60.7375 94.928 61.1388 95.432C61.5495 95.936 61.7548 96.6453 61.7548 97.56C61.7548 98.176 61.6615 98.7033 61.4748 99.142C61.2881 99.5713 61.0315 99.9027 60.7048 100.136C60.3781 100.36 60.0001 100.472 59.5708 100.472ZM59.5708 99.534C59.8695 99.534 60.1121 99.38 60.2988 99.072C60.4948 98.7547 60.5928 98.2507 60.5928 97.56C60.5928 96.8693 60.4948 96.3747 60.2988 96.076C60.1121 95.768 59.8695 95.614 59.5708 95.614C59.2815 95.614 59.0388 95.768 58.8428 96.076C58.6468 96.3747 58.5488 96.8693 58.5488 97.56C58.5488 98.2507 58.6468 98.7547 58.8428 99.072C59.0388 99.38 59.2815 99.534 59.5708 99.534ZM59.8648 104.168L64.8628 94.676H65.8428L60.8588 104.168H59.8648ZM66.1368 104.168C65.7075 104.168 65.3295 104.056 65.0028 103.832C64.6761 103.599 64.4195 103.267 64.2328 102.838C64.0461 102.399 63.9528 101.872 63.9528 101.256C63.9528 100.341 64.1535 99.632 64.5548 99.128C64.9655 98.624 65.4928 98.372 66.1368 98.372C66.7808 98.372 67.3035 98.624 67.7048 99.128C68.1155 99.632 68.3208 100.341 68.3208 101.256C68.3208 101.872 68.2275 102.399 68.0408 102.838C67.8541 103.267 67.5975 103.599 67.2708 103.832C66.9441 104.056 66.5661 104.168 66.1368 104.168ZM66.1368 103.23C66.4355 103.23 66.6781 103.076 66.8648 102.768C67.0608 102.451 67.1588 101.947 67.1588 101.256C67.1588 100.565 67.0608 100.071 66.8648 99.772C66.6781 99.464 66.4355 99.31 66.1368 99.31C65.8475 99.31 65.6048 99.464 65.4088 99.772C65.2128 100.071 65.1148 100.565 65.1148 101.256C65.1148 101.947 65.2128 102.451 65.4088 102.768C65.6048 103.076 65.8475 103.23 66.1368 103.23ZM4.73329 124V114.844H10.2633V116.216H6.35729V118.806H9.68929V120.178H6.35729V124H4.73329ZM14.4653 124.168C13.8213 124.168 13.2379 124.028 12.7153 123.748C12.2019 123.459 11.7959 123.048 11.4973 122.516C11.1986 121.975 11.0493 121.321 11.0493 120.556C11.0493 119.809 11.2033 119.17 11.5113 118.638C11.8193 118.097 12.2159 117.681 12.7013 117.392C13.1866 117.103 13.6999 116.958 14.2413 116.958C14.8666 116.958 15.3893 117.098 15.8093 117.378C16.2293 117.658 16.5419 118.045 16.7473 118.54C16.9619 119.025 17.0693 119.585 17.0693 120.22C17.0693 120.369 17.0599 120.514 17.0413 120.654C17.0319 120.794 17.0133 120.929 16.9853 121.06H12.2533V119.828H15.6413C15.6413 119.333 15.5293 118.946 15.3053 118.666C15.0813 118.377 14.7359 118.232 14.2693 118.232C14.0079 118.232 13.7513 118.302 13.4993 118.442C13.2566 118.582 13.0513 118.82 12.8833 119.156C12.7246 119.492 12.6453 119.959 12.6453 120.556C12.6453 121.097 12.7386 121.541 12.9253 121.886C13.1119 122.222 13.3593 122.474 13.6673 122.642C13.9753 122.801 14.3066 122.88 14.6613 122.88C14.9599 122.88 15.2399 122.838 15.5013 122.754C15.7719 122.67 16.0239 122.553 16.2573 122.404L16.8173 123.44C16.4999 123.664 16.1359 123.841 15.7253 123.972C15.3239 124.103 14.9039 124.168 14.4653 124.168ZM18.607 124V117.126H19.937L20.049 118.064H20.105C20.3943 117.756 20.707 117.495 21.043 117.28C21.3883 117.065 21.7756 116.958 22.205 116.958C22.7183 116.958 23.1243 117.065 23.423 117.28C23.7216 117.495 23.9503 117.798 24.109 118.19C24.4356 117.835 24.7763 117.541 25.131 117.308C25.4856 117.075 25.8823 116.958 26.321 116.958C27.049 116.958 27.5856 117.196 27.931 117.672C28.2763 118.148 28.449 118.82 28.449 119.688V124H26.825V119.898C26.825 119.329 26.741 118.927 26.573 118.694C26.405 118.461 26.139 118.344 25.775 118.344C25.551 118.344 25.3223 118.414 25.089 118.554C24.8556 118.694 24.6036 118.909 24.333 119.198V124H22.723V119.898C22.723 119.329 22.6343 118.927 22.457 118.694C22.289 118.461 22.023 118.344 21.659 118.344C21.2296 118.344 20.749 118.629 20.217 119.198V124H18.607ZM32.0718 124.168C31.6705 124.168 31.3158 124.084 31.0078 123.916C30.6998 123.748 30.4571 123.515 30.2798 123.216C30.1118 122.908 30.0278 122.553 30.0278 122.152C30.0278 121.377 30.3498 120.794 30.9938 120.402C31.6471 120.001 32.6785 119.725 34.0878 119.576C34.0785 119.343 34.0318 119.128 33.9478 118.932C33.8731 118.736 33.7425 118.582 33.5558 118.47C33.3785 118.349 33.1358 118.288 32.8278 118.288C32.4918 118.288 32.1605 118.349 31.8338 118.47C31.5165 118.591 31.2038 118.745 30.8958 118.932L30.3078 117.84C30.5598 117.681 30.8351 117.537 31.1338 117.406C31.4325 117.266 31.7498 117.159 32.0858 117.084C32.4218 117 32.7718 116.958 33.1358 116.958C33.7051 116.958 34.1765 117.075 34.5498 117.308C34.9325 117.532 35.2171 117.868 35.4038 118.316C35.5998 118.755 35.6978 119.296 35.6978 119.94V124H34.3678L34.2558 123.244H34.1998C33.8825 123.505 33.5511 123.725 33.2058 123.902C32.8605 124.079 32.4825 124.168 32.0718 124.168ZM32.5758 122.852C32.8558 122.852 33.1125 122.796 33.3458 122.684C33.5885 122.563 33.8358 122.385 34.0878 122.152V120.696C33.4625 120.771 32.9678 120.869 32.6038 120.99C32.2398 121.111 31.9785 121.261 31.8198 121.438C31.6705 121.606 31.5958 121.807 31.5958 122.04C31.5958 122.329 31.6891 122.539 31.8758 122.67C32.0625 122.791 32.2958 122.852 32.5758 122.852ZM39.1925 124.14C38.8099 124.14 38.5019 124.065 38.2685 123.916C38.0445 123.757 37.8812 123.533 37.7785 123.244C37.6759 122.955 37.6245 122.609 37.6245 122.208V114.116H39.2345V122.292C39.2345 122.497 39.2719 122.637 39.3465 122.712C39.4212 122.787 39.5052 122.824 39.5985 122.824C39.6359 122.824 39.6685 122.824 39.6965 122.824C39.7339 122.815 39.7805 122.805 39.8365 122.796L40.0465 124C39.9532 124.037 39.8319 124.07 39.6825 124.098C39.5425 124.126 39.3792 124.14 39.1925 124.14ZM44.3793 124.168C43.7353 124.168 43.152 124.028 42.6293 123.748C42.116 123.459 41.71 123.048 41.4113 122.516C41.1127 121.975 40.9633 121.321 40.9633 120.556C40.9633 119.809 41.1173 119.17 41.4253 118.638C41.7333 118.097 42.13 117.681 42.6153 117.392C43.1007 117.103 43.614 116.958 44.1553 116.958C44.7807 116.958 45.3033 117.098 45.7233 117.378C46.1433 117.658 46.456 118.045 46.6613 118.54C46.876 119.025 46.9833 119.585 46.9833 120.22C46.9833 120.369 46.974 120.514 46.9553 120.654C46.946 120.794 46.9273 120.929 46.8993 121.06H42.1673V119.828H45.5553C45.5553 119.333 45.4433 118.946 45.2193 118.666C44.9953 118.377 44.65 118.232 44.1833 118.232C43.922 118.232 43.6653 118.302 43.4133 118.442C43.1707 118.582 42.9653 118.82 42.7973 119.156C42.6387 119.492 42.5593 119.959 42.5593 120.556C42.5593 121.097 42.6527 121.541 42.8393 121.886C43.026 122.222 43.2733 122.474 43.5813 122.642C43.8893 122.801 44.2207 122.88 44.5753 122.88C44.874 122.88 45.154 122.838 45.4153 122.754C45.686 122.67 45.938 122.553 46.1713 122.404L46.7313 123.44C46.414 123.664 46.05 123.841 45.6393 123.972C45.238 124.103 44.818 124.168 44.3793 124.168ZM53.6758 124.168C53.1904 124.168 52.7611 124.112 52.3878 124C52.0144 123.888 51.6831 123.739 51.3938 123.552C51.1044 123.356 50.8524 123.151 50.6378 122.936L51.3798 121.9C51.6504 122.152 51.9538 122.376 52.2898 122.572C52.6258 122.759 53.0178 122.852 53.4658 122.852C53.8018 122.852 54.0958 122.787 54.3478 122.656C54.6091 122.516 54.8144 122.32 54.9638 122.068C55.1131 121.807 55.1878 121.499 55.1878 121.144C55.1878 120.612 55.0338 120.201 54.7258 119.912C54.4271 119.623 54.0351 119.478 53.5498 119.478C53.2698 119.478 53.0271 119.52 52.8218 119.604C52.6258 119.679 52.3924 119.805 52.1218 119.982L51.3518 119.492L51.6178 115.096H56.3778V116.454H53.0178L52.8358 118.61C53.0224 118.517 53.2044 118.447 53.3818 118.4C53.5684 118.344 53.7784 118.316 54.0118 118.316C54.5158 118.316 54.9778 118.419 55.3978 118.624C55.8271 118.82 56.1678 119.123 56.4198 119.534C56.6811 119.945 56.8118 120.467 56.8118 121.102C56.8118 121.755 56.6624 122.311 56.3638 122.768C56.0744 123.225 55.6918 123.575 55.2158 123.818C54.7398 124.051 54.2264 124.168 53.6758 124.168ZM60.8395 124.168C60.3635 124.168 59.9342 124.112 59.5515 124C59.1782 123.888 58.8468 123.739 58.5575 123.552C58.2682 123.356 58.0208 123.141 57.8155 122.908L58.5855 121.872C58.8562 122.143 59.1642 122.376 59.5095 122.572C59.8548 122.759 60.2515 122.852 60.6995 122.852C61.1848 122.852 61.5768 122.735 61.8755 122.502C62.1835 122.259 62.3375 121.928 62.3375 121.508C62.3375 121.2 62.2582 120.934 62.0995 120.71C61.9502 120.486 61.6842 120.313 61.3015 120.192C60.9282 120.061 60.4008 119.996 59.7195 119.996V118.82C60.3075 118.82 60.7695 118.759 61.1055 118.638C61.4415 118.507 61.6795 118.339 61.8195 118.134C61.9688 117.919 62.0435 117.672 62.0435 117.392C62.0435 117.019 61.9268 116.729 61.6935 116.524C61.4602 116.309 61.1382 116.202 60.7275 116.202C60.3822 116.202 60.0648 116.281 59.7755 116.44C59.4862 116.589 59.2062 116.79 58.9355 117.042L58.1095 116.048C58.4922 115.712 58.9028 115.441 59.3415 115.236C59.7802 115.031 60.2608 114.928 60.7835 114.928C61.3528 114.928 61.8522 115.021 62.2815 115.208C62.7108 115.385 63.0468 115.651 63.2895 116.006C63.5415 116.351 63.6675 116.776 63.6675 117.28C63.6675 117.775 63.5275 118.19 63.2475 118.526C62.9768 118.862 62.5988 119.128 62.1135 119.324V119.38C62.4588 119.473 62.7715 119.618 63.0515 119.814C63.3315 120.01 63.5508 120.257 63.7095 120.556C63.8775 120.855 63.9615 121.2 63.9615 121.592C63.9615 122.133 63.8168 122.6 63.5275 122.992C63.2475 123.375 62.8695 123.669 62.3935 123.874C61.9268 124.07 61.4088 124.168 60.8395 124.168ZM67.2612 120.472C66.8319 120.472 66.4539 120.36 66.1272 120.136C65.8006 119.903 65.5439 119.571 65.3572 119.142C65.1706 118.703 65.0772 118.176 65.0772 117.56C65.0772 116.645 65.2779 115.936 65.6792 115.432C66.0899 114.928 66.6172 114.676 67.2612 114.676C67.9052 114.676 68.4279 114.928 68.8292 115.432C69.2399 115.936 69.4452 116.645 69.4452 117.56C69.4452 118.176 69.3519 118.703 69.1652 119.142C68.9786 119.571 68.7219 119.903 68.3952 120.136C68.0686 120.36 67.6906 120.472 67.2612 120.472ZM67.2612 119.534C67.5599 119.534 67.8026 119.38 67.9892 119.072C68.1852 118.755 68.2832 118.251 68.2832 117.56C68.2832 116.869 68.1852 116.375 67.9892 116.076C67.8026 115.768 67.5599 115.614 67.2612 115.614C66.9719 115.614 66.7292 115.768 66.5332 116.076C66.3372 116.375 66.2392 116.869 66.2392 117.56C66.2392 118.251 66.3372 118.755 66.5332 119.072C66.7292 119.38 66.9719 119.534 67.2612 119.534ZM67.5552 124.168L72.5532 114.676H73.5332L68.5492 124.168H67.5552ZM73.8272 124.168C73.3979 124.168 73.0199 124.056 72.6932 123.832C72.3666 123.599 72.1099 123.267 71.9232 122.838C71.7366 122.399 71.6432 121.872 71.6432 121.256C71.6432 120.341 71.8439 119.632 72.2452 119.128C72.6559 118.624 73.1832 118.372 73.8272 118.372C74.4712 118.372 74.9939 118.624 75.3952 119.128C75.8059 119.632 76.0112 120.341 76.0112 121.256C76.0112 121.872 75.9179 122.399 75.7312 122.838C75.5446 123.267 75.2879 123.599 74.9612 123.832C74.6346 124.056 74.2566 124.168 73.8272 124.168ZM73.8272 123.23C74.1259 123.23 74.3686 123.076 74.5552 122.768C74.7512 122.451 74.8492 121.947 74.8492 121.256C74.8492 120.565 74.7512 120.071 74.5552 119.772C74.3686 119.464 74.1259 119.31 73.8272 119.31C73.5379 119.31 73.2952 119.464 73.0992 119.772C72.9032 120.071 72.8052 120.565 72.8052 121.256C72.8052 121.947 72.9032 122.451 73.0992 122.768C73.2952 123.076 73.5379 123.23 73.8272 123.23Z" fill="#131313"/>
</svg>
