<svg width="14" height="14" viewBox="0 0 14 14" fill="none" xmlns="http://www.w3.org/2000/svg">
<path fill-rule="evenodd" clip-rule="evenodd" d="M4.97303 5.5499C4.96507 5.45348 4.96094 5.35643 4.96094 5.2581C4.96094 3.32626 6.52939 1.75781 8.46123 1.75781C10.3931 1.75781 11.9615 3.32626 11.9615 5.2581C11.9615 5.35643 11.9574 5.45348 11.9494 5.5499L8.50101 6.40939L4.97303 5.5499Z" fill="#FFD321"/>
<path fill-rule="evenodd" clip-rule="evenodd" d="M13.1362 6.09877C13.1362 5.94398 13.0747 5.79582 12.9653 5.68655C12.8559 5.57688 12.7075 5.51562 12.5527 5.51562C10.4868 5.51562 3.53222 5.51562 1.46627 5.51562C1.31151 5.51562 1.16313 5.57688 1.05369 5.68655C0.944248 5.79582 0.882812 5.94398 0.882812 6.09877V11.3475C0.882812 11.5023 0.944248 11.6505 1.05369 11.7598C1.16313 11.8694 1.31151 11.9307 1.46627 11.9307H12.5527C12.7075 11.9307 12.8559 11.8694 12.9653 11.7598C13.0747 11.6505 13.1362 11.5023 13.1362 11.3475C13.1362 10.1274 13.1362 7.31888 13.1362 6.09877Z" fill="#8EE26B"/>
<path d="M6.98972 10.7607C8.11666 10.7607 9.03022 9.84712 9.03022 8.72019C9.03022 7.59325 8.11666 6.67969 6.98972 6.67969C5.86278 6.67969 4.94922 7.59325 4.94922 8.72019C4.94922 9.84712 5.86278 10.7607 6.98972 10.7607Z" fill="#00CB75"/>
<path fill-rule="evenodd" clip-rule="evenodd" d="M0.863281 9.88281C1.98945 9.88281 2.90378 10.7971 2.90378 11.9233H1.44631C1.2916 11.9233 1.14339 11.8619 1.03413 11.7525C0.924681 11.6432 0.863281 11.495 0.863281 11.3403V9.88281Z" fill="#00CB75"/>
<path fill-rule="evenodd" clip-rule="evenodd" d="M11.0938 11.9288C11.2353 10.9404 12.0862 10.1797 13.1135 10.1797V11.3457C13.1135 11.5003 13.0521 11.6487 12.9426 11.7579C12.8334 11.8672 12.6852 11.9288 12.5304 11.9288H11.0938Z" fill="#00CB75"/>
<path fill-rule="evenodd" clip-rule="evenodd" d="M2.90378 5.50781H1.44631C1.2916 5.50781 1.14339 5.56921 1.03413 5.67866C0.924681 5.78792 0.863281 5.93613 0.863281 6.09084V7.54831C1.98945 7.54831 2.90378 6.63398 2.90378 5.50781Z" fill="#00CB75"/>
<path fill-rule="evenodd" clip-rule="evenodd" d="M13.1147 7.83974C11.9885 7.83974 11.0742 6.92541 11.0742 5.79924C11.0742 5.70036 11.0813 5.60297 11.095 5.50781H12.5317C12.6864 5.50781 12.8346 5.56922 12.9439 5.67848C13.0533 5.78792 13.1147 5.93614 13.1147 6.09066V7.83974Z" fill="#00CB75"/>
<path fill-rule="evenodd" clip-rule="evenodd" d="M0.585938 11.3863V6.13591C0.585938 5.90394 0.678218 5.68119 0.842095 5.51699C1.00629 5.35311 1.22904 5.26084 1.46101 5.26084H4.66951C4.66951 3.16798 6.36874 1.46875 8.46159 1.46875C8.78871 1.46875 9.1066 1.51044 9.40954 1.5884C9.56546 1.62881 9.65933 1.78791 9.61924 1.94383C9.57882 2.09975 9.41972 2.19362 9.2638 2.15353C9.00732 2.08734 8.73843 2.05234 8.46159 2.05234C6.69076 2.05234 5.2531 3.49001 5.2531 5.26084H7.69026C7.44778 5.047 7.29472 4.7342 7.29472 4.38576C7.29472 3.84258 7.66703 3.38564 8.1698 3.25581V2.92741C8.1698 2.7664 8.30058 2.63562 8.46159 2.63562C8.62261 2.63562 8.75339 2.7664 8.75339 2.92741V3.25581C9.25616 3.38564 9.62846 3.84258 9.62846 4.38576C9.62846 4.54678 9.49768 4.67756 9.33667 4.67756C9.17565 4.67756 9.04487 4.54678 9.04487 4.38576C9.04487 4.06374 8.78362 3.80248 8.46159 3.80248C8.13957 3.80248 7.87832 4.06374 7.87832 4.38576C7.87832 4.70779 8.13957 4.96904 8.46159 4.96904C8.75721 4.96904 9.02737 5.07946 9.23325 5.26084H11.1075H11.6701C11.6701 4.18816 11.1425 3.23767 10.333 2.65503C10.2025 2.56084 10.1726 2.37851 10.2668 2.24772C10.3607 2.11726 10.5433 2.08734 10.6738 2.18153C11.6303 2.87014 12.2537 3.99341 12.2537 5.26084H12.5452C12.7775 5.26084 12.9999 5.35311 13.1641 5.51699C13.3283 5.68119 13.4202 5.90394 13.4202 6.13591V11.3863C13.4202 11.6183 13.3283 11.8411 13.1641 12.0053C12.9999 12.1691 12.7775 12.2614 12.5452 12.2614H5.2531C5.09209 12.2614 4.9613 12.1306 4.9613 11.9696C4.9613 11.8086 5.09209 11.6781 5.2531 11.6781H10.8688C11.1046 10.7636 11.8814 10.0655 12.837 9.94614V8.15971C11.6866 8.01588 10.795 7.03326 10.795 5.84411H4.97339H3.19302C3.06128 6.89898 2.22407 7.73618 1.16921 7.86792V9.65434C2.22407 9.78608 3.06128 10.6233 3.19302 11.6781H3.50295C3.66397 11.6781 3.79443 11.8086 3.79443 11.9696C3.79443 12.1306 3.66397 12.2614 3.50295 12.2614H1.46101C1.22904 12.2614 1.00629 12.1691 0.842095 12.0053C0.678218 11.8411 0.585938 11.6183 0.585938 11.3863ZM2.60338 5.84411H1.46101C1.38369 5.84411 1.30954 5.87498 1.25481 5.92971C1.20008 5.98444 1.16921 6.05858 1.16921 6.13591V7.27828C1.90173 7.15545 2.48055 6.57663 2.60338 5.84411ZM11.9498 5.84411H11.3786C11.3786 6.71091 12.0096 7.43101 12.837 7.57007V6.13591C12.837 6.05858 12.8061 5.98444 12.7517 5.92971C12.6969 5.87498 12.6225 5.84411 12.5452 5.84411H11.9498ZM11.4782 11.6781H12.5452C12.6225 11.6781 12.6969 11.6473 12.7517 11.5925C12.8061 11.5378 12.837 11.4637 12.837 11.3863C12.837 11.2444 12.837 10.6774 12.837 10.5355C12.2047 10.6417 11.6873 11.0872 11.4782 11.6781ZM2.60338 11.6781C2.48055 10.9456 1.90173 10.3668 1.16921 10.244V11.3863C1.16921 11.4637 1.20008 11.5378 1.25481 11.5925C1.30954 11.6473 1.38369 11.6781 1.46101 11.6781H2.60338ZM7.00324 6.4277C8.29103 6.4277 9.33667 7.47334 9.33667 8.76113C9.33667 10.0489 8.29103 11.0946 7.00324 11.0946C5.71514 11.0946 4.66951 10.0489 4.66951 8.76113C4.66951 7.47334 5.71514 6.4277 7.00324 6.4277ZM7.00324 7.01098C6.03716 7.01098 5.2531 7.79505 5.2531 8.76113C5.2531 9.72721 6.03716 10.5113 7.00324 10.5113C7.96901 10.5113 8.75339 9.72721 8.75339 8.76113C8.75339 7.79505 7.96901 7.01098 7.00324 7.01098ZM4.37803 11.6781C4.53904 11.6781 4.66951 11.8086 4.66951 11.9696C4.66951 12.1306 4.53904 12.2614 4.37803 12.2614C4.21701 12.2614 4.08623 12.1306 4.08623 11.9696C4.08623 11.8086 4.21701 11.6781 4.37803 11.6781Z" fill="black"/>
</svg>
