<svg width="92" height="128" viewBox="0 0 92 128" fill="none" xmlns="http://www.w3.org/2000/svg">
<path d="M78 40C79.1046 40 80.0052 40.896 79.95 41.9992C79.6105 48.7846 77.5472 55.3839 73.9404 61.1672C69.9802 67.5171 64.3181 72.6288 57.5976 75.9211C50.877 79.2135 43.3677 80.5545 35.923 79.7917C28.4784 79.0289 21.397 76.193 15.4837 71.6062C9.57048 67.0194 5.06257 60.8658 2.47235 53.8447C-0.117871 46.8236 -0.686501 39.2167 0.831087 31.8885C2.34867 24.5604 5.89161 17.8049 11.0572 12.39C15.7618 7.45822 21.6406 3.81859 28.1284 1.80228C29.1832 1.47446 30.2751 2.12397 30.5498 3.19384L37.1152 28.7644C37.3899 29.8343 36.7309 30.9064 35.741 31.3965C34.7413 31.8914 33.8308 32.559 33.0537 33.3736C31.814 34.6732 30.9637 36.2945 30.5995 38.0532C30.2352 39.812 30.3717 41.6377 30.9934 43.3227C31.615 45.0078 32.6969 46.4847 34.1161 47.5855C35.5353 48.6863 37.2348 49.3669 39.0215 49.55C40.8082 49.7331 42.6105 49.4112 44.2234 48.6211C45.8363 47.8309 47.1953 46.6041 48.1457 45.0801C48.7414 44.1249 49.1617 43.077 49.3924 41.9856C49.6209 40.9049 50.4954 40 51.6 40H78Z" fill="#F69500"/>
<path d="M3.38661 102V92.844H8.90261V94.216H5.01061V96.554H8.30061V97.926H5.01061V100.628H9.04261V102H3.38661ZM10.7798 102V95.126H12.1098L12.2218 96.05H12.2778C12.5858 95.7513 12.9218 95.4947 13.2858 95.28C13.6498 95.0653 14.0651 94.958 14.5318 94.958C15.2691 94.958 15.8058 95.196 16.1418 95.672C16.4778 96.148 16.6458 96.82 16.6458 97.688V102H15.0358V97.898C15.0358 97.3287 14.9518 96.9273 14.7838 96.694C14.6158 96.4607 14.3405 96.344 13.9578 96.344C13.6591 96.344 13.3931 96.4187 13.1598 96.568C12.9358 96.708 12.6791 96.918 12.3898 97.198V102H10.7798ZM21.0078 105.038C20.4571 105.038 19.9671 104.973 19.5378 104.842C19.1085 104.711 18.7678 104.511 18.5158 104.24C18.2731 103.979 18.1518 103.647 18.1518 103.246C18.1518 102.957 18.2358 102.686 18.4038 102.434C18.5811 102.191 18.8238 101.972 19.1318 101.776V101.72C18.9638 101.608 18.8191 101.459 18.6978 101.272C18.5765 101.085 18.5158 100.852 18.5158 100.572C18.5158 100.311 18.5905 100.068 18.7398 99.844C18.8985 99.62 19.0758 99.438 19.2718 99.298V99.242C19.0385 99.0647 18.8285 98.8173 18.6418 98.5C18.4645 98.1827 18.3758 97.8233 18.3758 97.422C18.3758 96.8993 18.5018 96.456 18.7538 96.092C19.0058 95.7187 19.3371 95.4387 19.7478 95.252C20.1585 95.056 20.6065 94.958 21.0918 94.958C21.2785 94.958 21.4605 94.972 21.6378 95C21.8151 95.028 21.9691 95.07 22.0998 95.126H24.5638V96.316H23.2758V96.372C23.4065 96.512 23.5091 96.6753 23.5838 96.862C23.6585 97.0393 23.6958 97.2493 23.6958 97.492C23.6958 97.996 23.5791 98.4207 23.3458 98.766C23.1125 99.1113 22.7998 99.3727 22.4078 99.55C22.0158 99.7273 21.5771 99.816 21.0918 99.816C20.9425 99.816 20.7885 99.802 20.6298 99.774C20.4711 99.746 20.3125 99.6993 20.1538 99.634C20.0605 99.7273 19.9811 99.8207 19.9158 99.914C19.8505 100.007 19.8178 100.133 19.8178 100.292C19.8178 100.488 19.9018 100.642 20.0698 100.754C20.2378 100.866 20.5271 100.922 20.9378 100.922H22.1558C22.9865 100.922 23.6118 101.057 24.0318 101.328C24.4611 101.589 24.6758 102.019 24.6758 102.616C24.6758 103.064 24.5265 103.47 24.2278 103.834C23.9291 104.207 23.5045 104.501 22.9538 104.716C22.4031 104.931 21.7545 105.038 21.0078 105.038ZM21.0918 98.808C21.3065 98.808 21.5025 98.7567 21.6798 98.654C21.8665 98.542 22.0111 98.3833 22.1138 98.178C22.2258 97.9633 22.2818 97.7113 22.2818 97.422C22.2818 96.9833 22.1651 96.6473 21.9318 96.414C21.7078 96.1807 21.4278 96.064 21.0918 96.064C20.7558 96.064 20.4711 96.1807 20.2378 96.414C20.0045 96.6473 19.8878 96.9833 19.8878 97.422C19.8878 97.7113 19.9438 97.9633 20.0558 98.178C20.1678 98.3833 20.3125 98.542 20.4898 98.654C20.6671 98.7567 20.8678 98.808 21.0918 98.808ZM21.2598 103.988C21.6238 103.988 21.9458 103.937 22.2258 103.834C22.5058 103.741 22.7251 103.605 22.8838 103.428C23.0425 103.26 23.1218 103.078 23.1218 102.882C23.1218 102.611 23.0145 102.429 22.7998 102.336C22.5945 102.243 22.2958 102.196 21.9038 102.196H20.9658C20.7791 102.196 20.6111 102.187 20.4618 102.168C20.3125 102.149 20.1678 102.126 20.0278 102.098C19.8505 102.238 19.7151 102.383 19.6218 102.532C19.5378 102.681 19.4958 102.84 19.4958 103.008C19.4958 103.316 19.6545 103.554 19.9718 103.722C20.2891 103.899 20.7185 103.988 21.2598 103.988ZM27.3071 102.168C26.9058 102.168 26.5511 102.084 26.2431 101.916C25.9351 101.748 25.6925 101.515 25.5151 101.216C25.3471 100.908 25.2631 100.553 25.2631 100.152C25.2631 99.3773 25.5851 98.794 26.2291 98.402C26.8825 98.0007 27.9138 97.7253 29.3231 97.576C29.3138 97.3427 29.2671 97.128 29.1831 96.932C29.1085 96.736 28.9778 96.582 28.7911 96.47C28.6138 96.3487 28.3711 96.288 28.0631 96.288C27.7271 96.288 27.3958 96.3487 27.0691 96.47C26.7518 96.5913 26.4391 96.7453 26.1311 96.932L25.5431 95.84C25.7951 95.6813 26.0705 95.5367 26.3691 95.406C26.6678 95.266 26.9851 95.1587 27.3211 95.084C27.6571 95 28.0071 94.958 28.3711 94.958C28.9405 94.958 29.4118 95.0747 29.7851 95.308C30.1678 95.532 30.4525 95.868 30.6391 96.316C30.8351 96.7547 30.9331 97.296 30.9331 97.94V102H29.6031L29.4911 101.244H29.4351C29.1178 101.505 28.7865 101.725 28.4411 101.902C28.0958 102.079 27.7178 102.168 27.3071 102.168ZM27.8111 100.852C28.0911 100.852 28.3478 100.796 28.5811 100.684C28.8238 100.563 29.0711 100.385 29.3231 100.152V98.696C28.6978 98.7707 28.2031 98.8687 27.8391 98.99C27.4751 99.1113 27.2138 99.2607 27.0551 99.438C26.9058 99.606 26.8311 99.8067 26.8311 100.04C26.8311 100.329 26.9245 100.539 27.1111 100.67C27.2978 100.791 27.5311 100.852 27.8111 100.852ZM35.2539 105.038C34.7032 105.038 34.2132 104.973 33.7839 104.842C33.3546 104.711 33.0139 104.511 32.7619 104.24C32.5192 103.979 32.3979 103.647 32.3979 103.246C32.3979 102.957 32.4819 102.686 32.6499 102.434C32.8272 102.191 33.0699 101.972 33.3779 101.776V101.72C33.2099 101.608 33.0652 101.459 32.9439 101.272C32.8226 101.085 32.7619 100.852 32.7619 100.572C32.7619 100.311 32.8366 100.068 32.9859 99.844C33.1446 99.62 33.3219 99.438 33.5179 99.298V99.242C33.2846 99.0647 33.0746 98.8173 32.8879 98.5C32.7106 98.1827 32.6219 97.8233 32.6219 97.422C32.6219 96.8993 32.7479 96.456 32.9999 96.092C33.2519 95.7187 33.5832 95.4387 33.9939 95.252C34.4046 95.056 34.8526 94.958 35.3379 94.958C35.5246 94.958 35.7066 94.972 35.8839 95C36.0612 95.028 36.2152 95.07 36.3459 95.126H38.8099V96.316H37.5219V96.372C37.6526 96.512 37.7552 96.6753 37.8299 96.862C37.9046 97.0393 37.9419 97.2493 37.9419 97.492C37.9419 97.996 37.8252 98.4207 37.5919 98.766C37.3586 99.1113 37.0459 99.3727 36.6539 99.55C36.2619 99.7273 35.8232 99.816 35.3379 99.816C35.1886 99.816 35.0346 99.802 34.8759 99.774C34.7172 99.746 34.5586 99.6993 34.3999 99.634C34.3066 99.7273 34.2272 99.8207 34.1619 99.914C34.0966 100.007 34.0639 100.133 34.0639 100.292C34.0639 100.488 34.1479 100.642 34.3159 100.754C34.4839 100.866 34.7732 100.922 35.1839 100.922H36.4019C37.2326 100.922 37.8579 101.057 38.2779 101.328C38.7072 101.589 38.9219 102.019 38.9219 102.616C38.9219 103.064 38.7726 103.47 38.4739 103.834C38.1752 104.207 37.7506 104.501 37.1999 104.716C36.6492 104.931 36.0006 105.038 35.2539 105.038ZM35.3379 98.808C35.5526 98.808 35.7486 98.7567 35.9259 98.654C36.1126 98.542 36.2572 98.3833 36.3599 98.178C36.4719 97.9633 36.5279 97.7113 36.5279 97.422C36.5279 96.9833 36.4112 96.6473 36.1779 96.414C35.9539 96.1807 35.6739 96.064 35.3379 96.064C35.0019 96.064 34.7172 96.1807 34.4839 96.414C34.2506 96.6473 34.1339 96.9833 34.1339 97.422C34.1339 97.7113 34.1899 97.9633 34.3019 98.178C34.4139 98.3833 34.5586 98.542 34.7359 98.654C34.9132 98.7567 35.1139 98.808 35.3379 98.808ZM35.5059 103.988C35.8699 103.988 36.1919 103.937 36.4719 103.834C36.7519 103.741 36.9712 103.605 37.1299 103.428C37.2886 103.26 37.3679 103.078 37.3679 102.882C37.3679 102.611 37.2606 102.429 37.0459 102.336C36.8406 102.243 36.5419 102.196 36.1499 102.196H35.2119C35.0252 102.196 34.8572 102.187 34.7079 102.168C34.5586 102.149 34.4139 102.126 34.2739 102.098C34.0966 102.238 33.9612 102.383 33.8679 102.532C33.7839 102.681 33.7419 102.84 33.7419 103.008C33.7419 103.316 33.9006 103.554 34.2179 103.722C34.5352 103.899 34.9646 103.988 35.5059 103.988ZM42.8686 102.168C42.2246 102.168 41.6412 102.028 41.1186 101.748C40.6052 101.459 40.1992 101.048 39.9006 100.516C39.6019 99.9747 39.4526 99.3213 39.4526 98.556C39.4526 97.8093 39.6066 97.17 39.9146 96.638C40.2226 96.0967 40.6192 95.6813 41.1046 95.392C41.5899 95.1027 42.1032 94.958 42.6446 94.958C43.2699 94.958 43.7926 95.098 44.2126 95.378C44.6326 95.658 44.9452 96.0453 45.1506 96.54C45.3652 97.0253 45.4726 97.5853 45.4726 98.22C45.4726 98.3693 45.4632 98.514 45.4446 98.654C45.4352 98.794 45.4166 98.9293 45.3886 99.06H40.6566V97.828H44.0446C44.0446 97.3333 43.9326 96.946 43.7086 96.666C43.4846 96.3767 43.1392 96.232 42.6726 96.232C42.4112 96.232 42.1546 96.302 41.9026 96.442C41.6599 96.582 41.4546 96.82 41.2866 97.156C41.1279 97.492 41.0486 97.9587 41.0486 98.556C41.0486 99.0973 41.1419 99.5407 41.3286 99.886C41.5152 100.222 41.7626 100.474 42.0706 100.642C42.3786 100.801 42.7099 100.88 43.0646 100.88C43.3632 100.88 43.6432 100.838 43.9046 100.754C44.1752 100.67 44.4272 100.553 44.6606 100.404L45.2206 101.44C44.9032 101.664 44.5392 101.841 44.1286 101.972C43.7272 102.103 43.3072 102.168 42.8686 102.168ZM47.0103 102V95.126H48.3403L48.4523 96.064H48.5083C48.7976 95.756 49.1103 95.4947 49.4463 95.28C49.7916 95.0653 50.1789 94.958 50.6083 94.958C51.1216 94.958 51.5276 95.0653 51.8263 95.28C52.1249 95.4947 52.3536 95.798 52.5123 96.19C52.8389 95.8353 53.1796 95.5413 53.5343 95.308C53.8889 95.0747 54.2856 94.958 54.7243 94.958C55.4523 94.958 55.9889 95.196 56.3343 95.672C56.6796 96.148 56.8523 96.82 56.8523 97.688V102H55.2283V97.898C55.2283 97.3287 55.1443 96.9273 54.9763 96.694C54.8083 96.4607 54.5423 96.344 54.1783 96.344C53.9543 96.344 53.7256 96.414 53.4923 96.554C53.2589 96.694 53.0069 96.9087 52.7363 97.198V102H51.1263V97.898C51.1263 97.3287 51.0376 96.9273 50.8603 96.694C50.6923 96.4607 50.4263 96.344 50.0623 96.344C49.6329 96.344 49.1523 96.6287 48.6203 97.198V102H47.0103ZM61.7631 102.168C61.1191 102.168 60.5358 102.028 60.0131 101.748C59.4998 101.459 59.0938 101.048 58.7951 100.516C58.4964 99.9747 58.3471 99.3213 58.3471 98.556C58.3471 97.8093 58.5011 97.17 58.8091 96.638C59.1171 96.0967 59.5138 95.6813 59.9991 95.392C60.4844 95.1027 60.9978 94.958 61.5391 94.958C62.1644 94.958 62.6871 95.098 63.1071 95.378C63.5271 95.658 63.8398 96.0453 64.0451 96.54C64.2598 97.0253 64.3671 97.5853 64.3671 98.22C64.3671 98.3693 64.3578 98.514 64.3391 98.654C64.3298 98.794 64.3111 98.9293 64.2831 99.06H59.5511V97.828H62.9391C62.9391 97.3333 62.8271 96.946 62.6031 96.666C62.3791 96.3767 62.0338 96.232 61.5671 96.232C61.3058 96.232 61.0491 96.302 60.7971 96.442C60.5544 96.582 60.3491 96.82 60.1811 97.156C60.0224 97.492 59.9431 97.9587 59.9431 98.556C59.9431 99.0973 60.0364 99.5407 60.2231 99.886C60.4098 100.222 60.6571 100.474 60.9651 100.642C61.2731 100.801 61.6044 100.88 61.9591 100.88C62.2578 100.88 62.5378 100.838 62.7991 100.754C63.0698 100.67 63.3218 100.553 63.5551 100.404L64.1151 101.44C63.7978 101.664 63.4338 101.841 63.0231 101.972C62.6218 102.103 62.2018 102.168 61.7631 102.168ZM65.9048 102V95.126H67.2348L67.3468 96.05H67.4028C67.7108 95.7513 68.0468 95.4947 68.4108 95.28C68.7748 95.0653 69.1901 94.958 69.6568 94.958C70.3941 94.958 70.9308 95.196 71.2668 95.672C71.6028 96.148 71.7708 96.82 71.7708 97.688V102H70.1608V97.898C70.1608 97.3287 70.0768 96.9273 69.9088 96.694C69.7408 96.4607 69.4655 96.344 69.0828 96.344C68.7841 96.344 68.5181 96.4187 68.2848 96.568C68.0608 96.708 67.8041 96.918 67.5148 97.198V102H65.9048ZM76.1608 102.14C75.3675 102.14 74.8028 101.911 74.4668 101.454C74.1401 100.987 73.9768 100.385 73.9768 99.648V96.4H72.9968V95.196L74.0608 95.126L74.2568 92.97H75.6008V95.126H77.3508V96.4H75.6008V99.648C75.6008 100.049 75.6801 100.353 75.8388 100.558C75.9975 100.754 76.2401 100.852 76.5668 100.852C76.6881 100.852 76.8095 100.843 76.9308 100.824C77.0521 100.805 77.1688 100.768 77.2808 100.712L77.5748 101.846C77.3975 101.93 77.1875 102 76.9448 102.056C76.7021 102.112 76.4408 102.14 76.1608 102.14ZM27.0264 122.168C26.3918 122.168 25.7898 122.051 25.2204 121.818C24.6604 121.585 24.1611 121.253 23.7224 120.824L24.6044 119.76C24.9311 120.077 25.3091 120.325 25.7384 120.502C26.1771 120.67 26.6158 120.754 27.0544 120.754C27.5771 120.754 27.9738 120.647 28.2444 120.432C28.5151 120.217 28.6504 119.933 28.6504 119.578C28.6504 119.326 28.5898 119.125 28.4684 118.976C28.3471 118.817 28.1791 118.682 27.9644 118.57C27.7591 118.458 27.5164 118.346 27.2364 118.234L25.9764 117.688C25.6778 117.557 25.3838 117.389 25.0944 117.184C24.8144 116.969 24.5811 116.708 24.3944 116.4C24.2171 116.083 24.1284 115.7 24.1284 115.252C24.1284 114.767 24.2591 114.333 24.5204 113.95C24.7911 113.558 25.1551 113.25 25.6124 113.026C26.0791 112.793 26.6111 112.676 27.2084 112.676C27.7591 112.676 28.2771 112.779 28.7624 112.984C29.2571 113.18 29.6771 113.451 30.0224 113.796L29.1684 114.86C28.8698 114.617 28.5571 114.431 28.2304 114.3C27.9038 114.16 27.5631 114.09 27.2084 114.09C26.7791 114.09 26.4291 114.188 26.1584 114.384C25.8971 114.571 25.7664 114.832 25.7664 115.168C25.7664 115.401 25.8318 115.597 25.9624 115.756C26.1024 115.905 26.2844 116.036 26.5084 116.148C26.7418 116.251 26.9798 116.353 27.2224 116.456L28.4684 116.974C28.8324 117.133 29.1544 117.319 29.4344 117.534C29.7144 117.749 29.9291 118.01 30.0784 118.318C30.2371 118.626 30.3164 119.004 30.3164 119.452C30.3164 119.947 30.1858 120.399 29.9244 120.81C29.6631 121.221 29.2851 121.552 28.7904 121.804C28.3051 122.047 27.7171 122.168 27.0264 122.168ZM34.7393 122.168C34.1047 122.168 33.5353 122.028 33.0313 121.748C32.5273 121.459 32.126 121.048 31.8273 120.516C31.538 119.975 31.3933 119.326 31.3933 118.57C31.3933 117.805 31.552 117.156 31.8693 116.624C32.1867 116.083 32.6067 115.672 33.1293 115.392C33.6613 115.103 34.2307 114.958 34.8373 114.958C35.276 114.958 35.6587 115.033 35.9853 115.182C36.3213 115.322 36.6107 115.504 36.8533 115.728L36.0833 116.736C35.934 116.596 35.7613 116.484 35.5653 116.4C35.3787 116.316 35.164 116.274 34.9213 116.274C34.5573 116.274 34.2353 116.372 33.9553 116.568C33.6753 116.755 33.4513 117.021 33.2833 117.366C33.1247 117.702 33.0453 118.103 33.0453 118.57C33.0453 119.027 33.1247 119.429 33.2833 119.774C33.442 120.11 33.6567 120.376 33.9273 120.572C34.2073 120.759 34.5293 120.852 34.8933 120.852C35.164 120.852 35.416 120.801 35.6493 120.698C35.892 120.595 36.1067 120.465 36.2933 120.306L36.9513 121.3C36.662 121.561 36.326 121.771 35.9433 121.93C35.57 122.089 35.1687 122.168 34.7393 122.168ZM40.7803 122.168C40.211 122.168 39.679 122.028 39.1843 121.748C38.6897 121.459 38.2883 121.048 37.9803 120.516C37.6723 119.975 37.5183 119.326 37.5183 118.57C37.5183 117.805 37.6723 117.156 37.9803 116.624C38.2883 116.083 38.6897 115.672 39.1843 115.392C39.679 115.103 40.211 114.958 40.7803 114.958C41.359 114.958 41.8957 115.103 42.3903 115.392C42.885 115.672 43.2863 116.083 43.5943 116.624C43.9023 117.156 44.0563 117.805 44.0563 118.57C44.0563 119.326 43.9023 119.975 43.5943 120.516C43.2863 121.048 42.885 121.459 42.3903 121.748C41.8957 122.028 41.359 122.168 40.7803 122.168ZM40.7803 120.852C41.1163 120.852 41.4057 120.759 41.6483 120.572C41.891 120.385 42.0777 120.119 42.2083 119.774C42.339 119.429 42.4043 119.027 42.4043 118.57C42.4043 118.113 42.339 117.711 42.2083 117.366C42.0777 117.021 41.891 116.755 41.6483 116.568C41.4057 116.372 41.1163 116.274 40.7803 116.274C40.4443 116.274 40.155 116.372 39.9123 116.568C39.679 116.755 39.497 117.021 39.3663 117.366C39.2357 117.711 39.1703 118.113 39.1703 118.57C39.1703 119.027 39.2357 119.429 39.3663 119.774C39.497 120.119 39.679 120.385 39.9123 120.572C40.155 120.759 40.4443 120.852 40.7803 120.852ZM45.6499 122V115.126H46.9799L47.0919 116.344H47.1479C47.3906 115.896 47.6799 115.555 48.0159 115.322C48.3613 115.079 48.7206 114.958 49.0939 114.958C49.2713 114.958 49.4206 114.967 49.5419 114.986C49.6633 115.005 49.7753 115.042 49.8779 115.098L49.5559 116.47C49.4439 116.442 49.3413 116.423 49.2479 116.414C49.1546 116.395 49.0333 116.386 48.8839 116.386C48.6133 116.386 48.3286 116.493 48.0299 116.708C47.7313 116.913 47.4746 117.277 47.2599 117.8V122H45.6499ZM53.6899 122.168C53.0459 122.168 52.4625 122.028 51.9399 121.748C51.4265 121.459 51.0205 121.048 50.7219 120.516C50.4232 119.975 50.2739 119.321 50.2739 118.556C50.2739 117.809 50.4279 117.17 50.7359 116.638C51.0439 116.097 51.4405 115.681 51.9259 115.392C52.4112 115.103 52.9245 114.958 53.4659 114.958C54.0912 114.958 54.6139 115.098 55.0339 115.378C55.4539 115.658 55.7665 116.045 55.9719 116.54C56.1865 117.025 56.2939 117.585 56.2939 118.22C56.2939 118.369 56.2845 118.514 56.2659 118.654C56.2565 118.794 56.2379 118.929 56.2099 119.06H51.4779V117.828H54.8659C54.8659 117.333 54.7539 116.946 54.5299 116.666C54.3059 116.377 53.9605 116.232 53.4939 116.232C53.2325 116.232 52.9759 116.302 52.7239 116.442C52.4812 116.582 52.2759 116.82 52.1079 117.156C51.9492 117.492 51.8699 117.959 51.8699 118.556C51.8699 119.097 51.9632 119.541 52.1499 119.886C52.3365 120.222 52.5839 120.474 52.8919 120.642C53.1999 120.801 53.5312 120.88 53.8859 120.88C54.1845 120.88 54.4645 120.838 54.7259 120.754C54.9965 120.67 55.2485 120.553 55.4819 120.404L56.0419 121.44C55.7245 121.664 55.3605 121.841 54.9499 121.972C54.5485 122.103 54.1285 122.168 53.6899 122.168Z" fill="#131313"/>
<path d="M60.8672 34C60.9339 32.9467 61.0405 31.98 61.1872 31.1C61.3339 30.2067 61.5405 29.36 61.8072 28.56C62.0872 27.76 62.4405 26.9733 62.8672 26.2C63.2939 25.4267 63.8205 24.62 64.4472 23.78H58.7472V21.3H67.5872V23.1C66.8405 24.0067 66.2272 24.8533 65.7472 25.64C65.2805 26.4267 64.9205 27.2267 64.6672 28.04C64.4139 28.8533 64.2272 29.74 64.1072 30.7C63.9872 31.66 63.8939 32.76 63.8272 34H60.8672ZM69.8336 34V31.62H72.5936V24.28H70.2136V22.46C70.9069 22.3267 71.4936 22.1667 71.9736 21.98C72.4669 21.7933 72.9336 21.5667 73.3736 21.3H75.5336V31.62H77.9136V34H69.8336Z" fill="#060606"/>
</svg>
