<svg width="128" height="44" viewBox="0 0 128 44" fill="none" xmlns="http://www.w3.org/2000/svg">
<rect x="0.5" y="0.5" width="127" height="43" rx="11.5" stroke="black"/>
<g clip-path="url(#clip0_6825_98295)">
<path d="M25.825 20.2234L21.3583 24.7984L22.4083 31.2734C22.5008 31.7901 21.94 32.1684 21.4917 31.9234L16 28.8818V12.0234C16.2333 12.0234 16.4667 12.1318 16.5667 12.3568L19.325 18.2318L25.4667 19.1651C25.98 19.2568 26.1692 19.8609 25.825 20.2234Z" fill="#04CA00"/>
<path d="M15.9996 12.0234V28.8818L10.5079 31.9234C10.0671 32.1709 9.49789 31.7959 9.59123 31.2734L10.6412 24.7984L6.17456 20.2234C5.83039 19.8609 6.01873 19.2568 6.53289 19.1651L12.6746 18.2318L15.4329 12.3568C15.5329 12.1318 15.7662 12.0234 15.9996 12.0234Z" fill="#04CA00"/>
</g>
<g clip-path="url(#clip1_6825_98295)">
<path d="M49.825 20.2234L45.3583 24.7984L46.4083 31.2734C46.5008 31.7901 45.94 32.1684 45.4917 31.9234L40 28.8818V12.0234C40.2333 12.0234 40.4667 12.1318 40.5667 12.3568L43.325 18.2318L49.4667 19.1651C49.98 19.2568 50.1692 19.8609 49.825 20.2234Z" fill="#04CA00"/>
<path d="M39.9996 12.0234V28.8818L34.5079 31.9234C34.0671 32.1709 33.4979 31.7959 33.5912 31.2734L34.6412 24.7984L30.1746 20.2234C29.8304 19.8609 30.0187 19.2568 30.5329 19.1651L36.6746 18.2318L39.4329 12.3568C39.5329 12.1318 39.7662 12.0234 39.9996 12.0234Z" fill="#04CA00"/>
</g>
<g clip-path="url(#clip2_6825_98295)">
<path d="M73.825 20.2234L69.3583 24.7984L70.4083 31.2734C70.5008 31.7901 69.94 32.1684 69.4917 31.9234L64 28.8818V12.0234C64.2333 12.0234 64.4667 12.1318 64.5667 12.3568L67.325 18.2318L73.4667 19.1651C73.98 19.2568 74.1692 19.8609 73.825 20.2234Z" fill="#04CA00"/>
<path d="M63.9996 12.0234V28.8818L58.5079 31.9234C58.0671 32.1709 57.4979 31.7959 57.5912 31.2734L58.6412 24.7984L54.1746 20.2234C53.8304 19.8609 54.0187 19.2568 54.5329 19.1651L60.6746 18.2318L63.4329 12.3568C63.5329 12.1318 63.7662 12.0234 63.9996 12.0234Z" fill="#04CA00"/>
</g>
<g clip-path="url(#clip3_6825_98295)">
<path d="M97.825 20.2234L93.3583 24.7984L94.4083 31.2734C94.5008 31.7901 93.94 32.1684 93.4917 31.9234L88 28.8818V12.0234C88.2333 12.0234 88.4667 12.1318 88.5667 12.3568L91.325 18.2318L97.4667 19.1651C97.98 19.2568 98.1692 19.8609 97.825 20.2234Z" fill="#04CA00"/>
<path d="M87.9996 12.0234V28.8818L82.5079 31.9234C82.0671 32.1709 81.4979 31.7959 81.5912 31.2734L82.6412 24.7984L78.1746 20.2234C77.8304 19.8609 78.0187 19.2568 78.5329 19.1651L84.6746 18.2318L87.4329 12.3568C87.5329 12.1318 87.7662 12.0234 87.9996 12.0234Z" fill="#04CA00"/>
</g>
<g clip-path="url(#clip4_6825_98295)">
<path d="M121.825 20.2234L117.358 24.7984L118.408 31.2734C118.501 31.7901 117.94 32.1684 117.492 31.9234L112 28.8818V12.0234C112.233 12.0234 112.467 12.1318 112.567 12.3568L115.325 18.2318L121.467 19.1651C121.98 19.2568 122.169 19.8609 121.825 20.2234Z" fill="#ECEFF1"/>
<path d="M112 12.0234V28.8818L106.508 31.9234C106.067 32.1709 105.498 31.7959 105.591 31.2734L106.641 24.7984L102.175 20.2234C101.83 19.8609 102.019 19.2568 102.533 19.1651L108.675 18.2318L111.433 12.3568C111.533 12.1318 111.766 12.0234 112 12.0234Z" fill="#04CA00"/>
</g>
<defs>
<clipPath id="clip0_6825_98295">
<rect width="20" height="20" fill="white" transform="translate(6 12)"/>
</clipPath>
<clipPath id="clip1_6825_98295">
<rect width="20" height="20" fill="white" transform="translate(30 12)"/>
</clipPath>
<clipPath id="clip2_6825_98295">
<rect width="20" height="20" fill="white" transform="translate(54 12)"/>
</clipPath>
<clipPath id="clip3_6825_98295">
<rect width="20" height="20" fill="white" transform="translate(78 12)"/>
</clipPath>
<clipPath id="clip4_6825_98295">
<rect width="20" height="20" fill="white" transform="translate(102 12)"/>
</clipPath>
</defs>
</svg>
