<svg width="116" height="20" viewBox="0 0 116 20" fill="none" xmlns="http://www.w3.org/2000/svg">
<g clip-path="url(#clip0_7617_98640)">
<path d="M19.4401 7.25737L13.3223 6.36843L10.5863 0.824717C10.347 0.339795 9.6532 0.339561 9.41371 0.824717L6.67777 6.36843L0.56 7.25737C0.0249615 7.33515 -0.189921 7.99483 0.197657 8.37257L4.62449 12.6877L3.57941 18.7808C3.53731 19.0261 3.63813 19.2739 3.83953 19.4203C4.04086 19.5665 4.30773 19.5858 4.52805 19.47L10 16.5933C15.9573 19.7251 15.5481 19.5451 15.7761 19.5451C16.1791 19.5451 16.4894 19.1819 16.4206 18.7808L15.3755 12.6877L19.8024 8.37257C20.1896 7.99511 19.9755 7.33522 19.4401 7.25737Z" fill="#F7AC16"/>
<path d="M10 0.453125C9.75066 0.453125 9.52363 0.594883 9.41367 0.817578L6.67773 6.36129L0.56 7.25023C0.0249615 7.32801 -0.189921 7.9877 0.197657 8.36543L4.62449 12.6806L3.57941 18.7736C3.53731 19.0189 3.63813 19.2668 3.83953 19.4131C4.04086 19.5594 4.30773 19.5787 4.52805 19.4629L10 16.5862H10V0.453125Z" fill="#F2D422"/>
<path d="M0.56 7.25617C0.0249615 7.33395 -0.189921 7.99363 0.197657 8.37137L4.62449 12.6865L3.57941 18.7796C3.53731 19.0249 3.63813 19.2727 3.83953 19.4191C4.04086 19.5653 4.30773 19.5846 4.52805 19.4688L10 16.5921C15.9573 19.7239 15.5481 19.5439 15.7761 19.5439C15.9117 19.5439 16.0466 19.5018 16.1605 19.4191L6.67773 6.36719L0.56 7.25617Z" fill="#F7AC16"/>
<path d="M6.97492 11.933C2.23297 7.31066 2.4368 7.5584 2.37316 7.31867C2.34727 7.22238 2.34195 7.11035 2.37012 6.99219L0.56 7.2552C0.0249615 7.33297 -0.189921 7.99266 0.197657 8.37039L4.62449 12.6855L3.57941 18.7786C3.53731 19.0239 3.63813 19.2718 3.83953 19.4181C4.04086 19.5644 4.30773 19.5837 4.52805 19.4679L6.13691 18.622C5.97141 18.473 5.89164 18.2486 5.92984 18.026L6.97492 11.933Z" fill="#F48B19"/>
<path d="M0.199154 8.36555L4.62599 12.6807L3.58091 18.7738C3.5388 19.0191 3.63962 19.2669 3.84103 19.4132C4.04236 19.5595 4.30923 19.5788 4.52954 19.463L10.0015 16.5863C15.9588 19.7181 15.5496 19.5381 15.7776 19.5381C16.1806 19.5381 16.4909 19.1748 16.4221 18.7738L15.377 12.6807L0.0336459 7.69531C-0.0427995 7.96934 0.033724 8.20438 0.199154 8.36555Z" fill="#F2D422"/>
<path d="M0.199154 8.36555L4.62599 12.6807L3.58091 18.7738C3.5388 19.0191 3.63962 19.2669 3.84103 19.4132C4.04236 19.5595 4.30923 19.5788 4.52954 19.463L6.13841 18.6171C5.9729 18.4681 5.89314 18.2437 5.93134 18.0211L6.97642 11.9281L3.93431 8.96273L0.0336459 7.69531C-0.0427995 7.96934 0.033724 8.20438 0.199154 8.36555Z" fill="#EFB616"/>
<path d="M3.57976 18.7737C3.53765 19.019 3.63847 19.2669 3.83987 19.4132C4.0412 19.5595 4.30808 19.5788 4.52839 19.4629L10.0003 16.5863C15.9576 19.7181 15.5484 19.5381 15.7765 19.5381C16.1794 19.5381 16.4897 19.1748 16.4209 18.7737L15.3759 12.6807L19.8028 8.36551C19.9809 8.1918 20.045 7.93195 19.9682 7.69531L4.62484 12.6807L3.57976 18.7737Z" fill="#F7AC16"/>
<path d="M3.57976 18.7759C3.53765 19.0212 3.63847 19.269 3.83987 19.4154C4.0412 19.5616 4.30808 19.5809 4.52839 19.4651L6.13726 18.6193C5.97175 18.4702 5.89198 18.2458 5.93019 18.0232L6.97526 11.9302L6.96671 11.9219L4.62484 12.6828L3.57976 18.7759Z" fill="#F48B19"/>
<path d="M4.5284 19.4688L10.0003 16.5921C15.9576 19.7239 15.5484 19.5439 15.7764 19.5439C16.1794 19.5439 16.4897 19.1806 16.4209 18.7795L15.3759 12.6865L19.8027 8.37133C20.1898 7.99387 19.9758 7.33398 19.4404 7.25613L13.3226 6.36719L3.83984 19.419C4.04117 19.5653 4.30805 19.5846 4.5284 19.4688Z" fill="#F2D422"/>
<path d="M19.9682 7.69531L10.0003 10.9341L3.83984 19.4132C4.04117 19.5595 4.30805 19.5788 4.52836 19.463L10.0003 16.5863C15.9576 19.7181 15.5484 19.5381 15.7764 19.5381C16.1794 19.5381 16.4897 19.1748 16.4209 18.7738L15.3759 12.6807L19.8027 8.36555C19.9809 8.1918 20.045 7.93199 19.9682 7.69531Z" fill="#F7AC16"/>
<path d="M15.3759 12.6841L10.0003 10.9375L3.83984 19.4167C4.04117 19.5629 4.30805 19.5822 4.52836 19.4664L10.0003 16.5897C15.9576 19.7216 15.5484 19.5416 15.7764 19.5416C16.1794 19.5416 16.4897 19.1783 16.4209 18.7772L15.3759 12.6841Z" fill="#F2D422"/>
<path d="M3.83984 19.4167C4.04117 19.5629 4.30805 19.5822 4.52836 19.4664L10.0003 16.5897C15.9576 19.7216 15.5484 19.5416 15.7764 19.5416C15.912 19.5416 16.0469 19.4994 16.1608 19.4167L10.0003 10.9375L3.83984 19.4167Z" fill="#F7AC16"/>
<path d="M10.0004 10.9376L10.0003 10.9375L3.83984 19.4167C4.04117 19.5629 4.30805 19.5822 4.52836 19.4664L10.0003 16.5897H10.0004V10.9376Z" fill="#F2D422"/>
<path d="M6.26355 16.0781L3.83984 19.4141C4.04117 19.5603 4.30805 19.5796 4.52836 19.4638L6.13723 18.618C5.97172 18.4689 5.89195 18.2445 5.93016 18.022L6.26355 16.0781Z" fill="#EFB616"/>
</g>
<g clip-path="url(#clip1_7617_98640)">
<path d="M43.4401 7.25737L37.3223 6.36843L34.5863 0.824717C34.347 0.339795 33.6532 0.339561 33.4137 0.824717L30.6778 6.36843L24.56 7.25737C24.025 7.33515 23.8101 7.99483 24.1977 8.37257L28.6245 12.6877L27.5794 18.7808C27.5373 19.0261 27.6381 19.2739 27.8395 19.4203C28.0409 19.5665 28.3077 19.5858 28.528 19.47L34 16.5933C39.9573 19.7251 39.5481 19.5451 39.7761 19.5451C40.1791 19.5451 40.4894 19.1819 40.4206 18.7808L39.3755 12.6877L43.8024 8.37257C44.1896 7.99511 43.9755 7.33522 43.4401 7.25737Z" fill="#F7AC16"/>
<path d="M34 0.453125C33.7507 0.453125 33.5236 0.594883 33.4137 0.817578L30.6777 6.36129L24.56 7.25023C24.025 7.32801 23.8101 7.9877 24.1977 8.36543L28.6245 12.6806L27.5794 18.7736C27.5373 19.0189 27.6381 19.2668 27.8395 19.4131C28.0409 19.5594 28.3077 19.5787 28.528 19.4629L34 16.5862H34V0.453125Z" fill="#F2D422"/>
<path d="M24.56 7.25617C24.025 7.33395 23.8101 7.99363 24.1977 8.37137L28.6245 12.6865L27.5794 18.7796C27.5373 19.0249 27.6381 19.2727 27.8395 19.4191C28.0409 19.5653 28.3077 19.5846 28.528 19.4688L34 16.5921C39.9573 19.7239 39.5481 19.5439 39.7761 19.5439C39.9117 19.5439 40.0466 19.5018 40.1605 19.4191L30.6777 6.36719L24.56 7.25617Z" fill="#F7AC16"/>
<path d="M30.9749 11.933C26.233 7.31066 26.4368 7.5584 26.3732 7.31867C26.3473 7.22238 26.342 7.11035 26.3701 6.99219L24.56 7.2552C24.025 7.33297 23.8101 7.99266 24.1977 8.37039L28.6245 12.6855L27.5794 18.7786C27.5373 19.0239 27.6381 19.2718 27.8395 19.4181C28.0409 19.5644 28.3077 19.5837 28.528 19.4679L30.1369 18.622C29.9714 18.473 29.8916 18.2486 29.9298 18.026L30.9749 11.933Z" fill="#F48B19"/>
<path d="M24.1992 8.36555L28.626 12.6807L27.5809 18.7738C27.5388 19.0191 27.6396 19.2669 27.841 19.4132C28.0424 19.5595 28.3092 19.5788 28.5295 19.463L34.0015 16.5863C39.9588 19.7181 39.5496 19.5381 39.7776 19.5381C40.1806 19.5381 40.4909 19.1748 40.4221 18.7738L39.377 12.6807L24.0336 7.69531C23.9572 7.96934 24.0337 8.20438 24.1992 8.36555Z" fill="#F2D422"/>
<path d="M24.1992 8.36555L28.626 12.6807L27.5809 18.7738C27.5388 19.0191 27.6396 19.2669 27.841 19.4132C28.0424 19.5595 28.3092 19.5788 28.5295 19.463L30.1384 18.6171C29.9729 18.4681 29.8931 18.2437 29.9313 18.0211L30.9764 11.9281L27.9343 8.96273L24.0336 7.69531C23.9572 7.96934 24.0337 8.20438 24.1992 8.36555Z" fill="#EFB616"/>
<path d="M27.5798 18.7737C27.5376 19.019 27.6385 19.2669 27.8399 19.4132C28.0412 19.5595 28.3081 19.5788 28.5284 19.4629L34.0003 16.5863C39.9576 19.7181 39.5484 19.5381 39.7765 19.5381C40.1794 19.5381 40.4897 19.1748 40.4209 18.7737L39.3759 12.6807L43.8028 8.36551C43.9809 8.1918 44.045 7.93195 43.9682 7.69531L28.6248 12.6807L27.5798 18.7737Z" fill="#F7AC16"/>
<path d="M27.5798 18.7759C27.5376 19.0212 27.6385 19.269 27.8399 19.4154C28.0412 19.5616 28.3081 19.5809 28.5284 19.4651L30.1373 18.6193C29.9717 18.4702 29.892 18.2458 29.9302 18.0232L30.9753 11.9302L30.9667 11.9219L28.6248 12.6828L27.5798 18.7759Z" fill="#F48B19"/>
<path d="M28.5284 19.4688L34.0003 16.5921C39.9576 19.7239 39.5484 19.5439 39.7764 19.5439C40.1794 19.5439 40.4897 19.1806 40.4209 18.7795L39.3759 12.6865L43.8027 8.37133C44.1898 7.99387 43.9758 7.33398 43.4404 7.25613L37.3226 6.36719L27.8398 19.419C28.0412 19.5653 28.308 19.5846 28.5284 19.4688Z" fill="#F2D422"/>
<path d="M43.9682 7.69531L34.0003 10.9341L27.8398 19.4132C28.0412 19.5595 28.308 19.5788 28.5284 19.463L34.0003 16.5863C39.9576 19.7181 39.5484 19.5381 39.7764 19.5381C40.1794 19.5381 40.4897 19.1748 40.4209 18.7738L39.3759 12.6807L43.8027 8.36555C43.9809 8.1918 44.045 7.93199 43.9682 7.69531Z" fill="#F7AC16"/>
<path d="M39.3759 12.6841L34.0003 10.9375L27.8398 19.4167C28.0412 19.5629 28.308 19.5822 28.5284 19.4664L34.0003 16.5897C39.9576 19.7216 39.5484 19.5416 39.7764 19.5416C40.1794 19.5416 40.4897 19.1783 40.4209 18.7772L39.3759 12.6841Z" fill="#F2D422"/>
<path d="M27.8398 19.4167C28.0412 19.5629 28.308 19.5822 28.5284 19.4664L34.0003 16.5897C39.9576 19.7216 39.5484 19.5416 39.7764 19.5416C39.912 19.5416 40.0469 19.4994 40.1608 19.4167L34.0003 10.9375L27.8398 19.4167Z" fill="#F7AC16"/>
<path d="M34.0004 10.9376L34.0003 10.9375L27.8398 19.4167C28.0412 19.5629 28.308 19.5822 28.5284 19.4664L34.0003 16.5897H34.0004V10.9376Z" fill="#F2D422"/>
<path d="M30.2636 16.0781L27.8398 19.4141C28.0412 19.5603 28.308 19.5796 28.5284 19.4638L30.1372 18.618C29.9717 18.4689 29.892 18.2445 29.9302 18.022L30.2636 16.0781Z" fill="#EFB616"/>
</g>
<g clip-path="url(#clip2_7617_98640)">
<path d="M67.4401 7.25737L61.3223 6.36843L58.5863 0.824717C58.347 0.339795 57.6532 0.339561 57.4137 0.824717L54.6778 6.36843L48.56 7.25737C48.025 7.33515 47.8101 7.99483 48.1977 8.37257L52.6245 12.6877L51.5794 18.7808C51.5373 19.0261 51.6381 19.2739 51.8395 19.4203C52.0409 19.5665 52.3077 19.5858 52.528 19.47L58 16.5933C63.9573 19.7251 63.5481 19.5451 63.7761 19.5451C64.1791 19.5451 64.4894 19.1819 64.4206 18.7808L63.3755 12.6877L67.8024 8.37257C68.1896 7.99511 67.9755 7.33522 67.4401 7.25737Z" fill="#F7AC16"/>
<path d="M58 0.453125C57.7507 0.453125 57.5236 0.594883 57.4137 0.817578L54.6777 6.36129L48.56 7.25023C48.025 7.32801 47.8101 7.9877 48.1977 8.36543L52.6245 12.6806L51.5794 18.7736C51.5373 19.0189 51.6381 19.2668 51.8395 19.4131C52.0409 19.5594 52.3077 19.5787 52.528 19.4629L58 16.5862H58V0.453125Z" fill="#F2D422"/>
<path d="M48.56 7.25617C48.025 7.33395 47.8101 7.99363 48.1977 8.37137L52.6245 12.6865L51.5794 18.7796C51.5373 19.0249 51.6381 19.2727 51.8395 19.4191C52.0409 19.5653 52.3077 19.5846 52.528 19.4688L58 16.5921C63.9573 19.7239 63.5481 19.5439 63.7761 19.5439C63.9117 19.5439 64.0466 19.5018 64.1605 19.4191L54.6777 6.36719L48.56 7.25617Z" fill="#F7AC16"/>
<path d="M54.9749 11.933C50.233 7.31066 50.4368 7.5584 50.3732 7.31867C50.3473 7.22238 50.342 7.11035 50.3701 6.99219L48.56 7.2552C48.025 7.33297 47.8101 7.99266 48.1977 8.37039L52.6245 12.6855L51.5794 18.7786C51.5373 19.0239 51.6381 19.2718 51.8395 19.4181C52.0409 19.5644 52.3077 19.5837 52.528 19.4679L54.1369 18.622C53.9714 18.473 53.8916 18.2486 53.9298 18.026L54.9749 11.933Z" fill="#F48B19"/>
<path d="M48.1992 8.36555L52.626 12.6807L51.5809 18.7738C51.5388 19.0191 51.6396 19.2669 51.841 19.4132C52.0424 19.5595 52.3092 19.5788 52.5295 19.463L58.0015 16.5863C63.9588 19.7181 63.5496 19.5381 63.7776 19.5381C64.1806 19.5381 64.4909 19.1748 64.4221 18.7738L63.377 12.6807L48.0336 7.69531C47.9572 7.96934 48.0337 8.20438 48.1992 8.36555Z" fill="#F2D422"/>
<path d="M48.1992 8.36555L52.626 12.6807L51.5809 18.7738C51.5388 19.0191 51.6396 19.2669 51.841 19.4132C52.0424 19.5595 52.3092 19.5788 52.5295 19.463L54.1384 18.6171C53.9729 18.4681 53.8931 18.2437 53.9313 18.0211L54.9764 11.9281L51.9343 8.96273L48.0336 7.69531C47.9572 7.96934 48.0337 8.20438 48.1992 8.36555Z" fill="#EFB616"/>
<path d="M51.5798 18.7737C51.5376 19.019 51.6385 19.2669 51.8399 19.4132C52.0412 19.5595 52.3081 19.5788 52.5284 19.4629L58.0003 16.5863C63.9576 19.7181 63.5484 19.5381 63.7765 19.5381C64.1794 19.5381 64.4897 19.1748 64.4209 18.7737L63.3759 12.6807L67.8028 8.36551C67.9809 8.1918 68.045 7.93195 67.9682 7.69531L52.6248 12.6807L51.5798 18.7737Z" fill="#F7AC16"/>
<path d="M51.5798 18.7759C51.5376 19.0212 51.6385 19.269 51.8399 19.4154C52.0412 19.5616 52.3081 19.5809 52.5284 19.4651L54.1373 18.6193C53.9717 18.4702 53.892 18.2458 53.9302 18.0232L54.9753 11.9302L54.9667 11.9219L52.6248 12.6828L51.5798 18.7759Z" fill="#F48B19"/>
<path d="M52.5284 19.4688L58.0003 16.5921C63.9576 19.7239 63.5484 19.5439 63.7764 19.5439C64.1794 19.5439 64.4897 19.1806 64.4209 18.7795L63.3759 12.6865L67.8027 8.37133C68.1898 7.99387 67.9758 7.33398 67.4404 7.25613L61.3226 6.36719L51.8398 19.419C52.0412 19.5653 52.308 19.5846 52.5284 19.4688Z" fill="#F2D422"/>
<path d="M67.9682 7.69531L58.0003 10.9341L51.8398 19.4132C52.0412 19.5595 52.308 19.5788 52.5284 19.463L58.0003 16.5863C63.9576 19.7181 63.5484 19.5381 63.7764 19.5381C64.1794 19.5381 64.4897 19.1748 64.4209 18.7738L63.3759 12.6807L67.8027 8.36555C67.9809 8.1918 68.045 7.93199 67.9682 7.69531Z" fill="#F7AC16"/>
<path d="M63.3759 12.6841L58.0003 10.9375L51.8398 19.4167C52.0412 19.5629 52.308 19.5822 52.5284 19.4664L58.0003 16.5897C63.9576 19.7216 63.5484 19.5416 63.7764 19.5416C64.1794 19.5416 64.4897 19.1783 64.4209 18.7772L63.3759 12.6841Z" fill="#F2D422"/>
<path d="M51.8398 19.4167C52.0412 19.5629 52.308 19.5822 52.5284 19.4664L58.0003 16.5897C63.9576 19.7216 63.5484 19.5416 63.7764 19.5416C63.912 19.5416 64.0469 19.4994 64.1608 19.4167L58.0003 10.9375L51.8398 19.4167Z" fill="#F7AC16"/>
<path d="M58.0004 10.9376L58.0003 10.9375L51.8398 19.4167C52.0412 19.5629 52.308 19.5822 52.5284 19.4664L58.0003 16.5897H58.0004V10.9376Z" fill="#F2D422"/>
<path d="M54.2636 16.0781L51.8398 19.4141C52.0412 19.5603 52.308 19.5796 52.5284 19.4638L54.1372 18.618C53.9717 18.4689 53.892 18.2445 53.9302 18.022L54.2636 16.0781Z" fill="#EFB616"/>
</g>
<g clip-path="url(#clip3_7617_98640)">
<path d="M91.4401 7.25737L85.3223 6.36843L82.5863 0.824717C82.347 0.339795 81.6532 0.339561 81.4137 0.824717L78.6778 6.36843L72.56 7.25737C72.025 7.33515 71.8101 7.99483 72.1977 8.37257L76.6245 12.6877L75.5794 18.7808C75.5373 19.0261 75.6381 19.2739 75.8395 19.4203C76.0409 19.5665 76.3077 19.5858 76.528 19.47L82 16.5933C87.9573 19.7251 87.5481 19.5451 87.7761 19.5451C88.1791 19.5451 88.4894 19.1819 88.4206 18.7808L87.3755 12.6877L91.8024 8.37257C92.1896 7.99511 91.9755 7.33522 91.4401 7.25737Z" fill="#F7AC16"/>
<path d="M82 0.453125C81.7507 0.453125 81.5236 0.594883 81.4137 0.817578L78.6777 6.36129L72.56 7.25023C72.025 7.32801 71.8101 7.9877 72.1977 8.36543L76.6245 12.6806L75.5794 18.7736C75.5373 19.0189 75.6381 19.2668 75.8395 19.4131C76.0409 19.5594 76.3077 19.5787 76.528 19.4629L82 16.5862H82V0.453125Z" fill="#F2D422"/>
<path d="M72.56 7.25617C72.025 7.33395 71.8101 7.99363 72.1977 8.37137L76.6245 12.6865L75.5794 18.7796C75.5373 19.0249 75.6381 19.2727 75.8395 19.4191C76.0409 19.5653 76.3077 19.5846 76.528 19.4688L82 16.5921C87.9573 19.7239 87.5481 19.5439 87.7761 19.5439C87.9117 19.5439 88.0466 19.5018 88.1605 19.4191L78.6777 6.36719L72.56 7.25617Z" fill="#F7AC16"/>
<path d="M78.9749 11.933C74.233 7.31066 74.4368 7.5584 74.3732 7.31867C74.3473 7.22238 74.342 7.11035 74.3701 6.99219L72.56 7.2552C72.025 7.33297 71.8101 7.99266 72.1977 8.37039L76.6245 12.6855L75.5794 18.7786C75.5373 19.0239 75.6381 19.2718 75.8395 19.4181C76.0409 19.5644 76.3077 19.5837 76.528 19.4679L78.1369 18.622C77.9714 18.473 77.8916 18.2486 77.9298 18.026L78.9749 11.933Z" fill="#F48B19"/>
<path d="M72.1992 8.36555L76.626 12.6807L75.5809 18.7738C75.5388 19.0191 75.6396 19.2669 75.841 19.4132C76.0424 19.5595 76.3092 19.5788 76.5295 19.463L82.0015 16.5863C87.9588 19.7181 87.5496 19.5381 87.7776 19.5381C88.1806 19.5381 88.4909 19.1748 88.4221 18.7738L87.377 12.6807L72.0336 7.69531C71.9572 7.96934 72.0337 8.20438 72.1992 8.36555Z" fill="#F2D422"/>
<path d="M72.1992 8.36555L76.626 12.6807L75.5809 18.7738C75.5388 19.0191 75.6396 19.2669 75.841 19.4132C76.0424 19.5595 76.3092 19.5788 76.5295 19.463L78.1384 18.6171C77.9729 18.4681 77.8931 18.2437 77.9313 18.0211L78.9764 11.9281L75.9343 8.96273L72.0336 7.69531C71.9572 7.96934 72.0337 8.20438 72.1992 8.36555Z" fill="#EFB616"/>
<path d="M75.5798 18.7737C75.5376 19.019 75.6385 19.2669 75.8399 19.4132C76.0412 19.5595 76.3081 19.5788 76.5284 19.4629L82.0003 16.5863C87.9576 19.7181 87.5484 19.5381 87.7765 19.5381C88.1794 19.5381 88.4897 19.1748 88.4209 18.7737L87.3759 12.6807L91.8028 8.36551C91.9809 8.1918 92.045 7.93195 91.9682 7.69531L76.6248 12.6807L75.5798 18.7737Z" fill="#F7AC16"/>
<path d="M75.5798 18.7759C75.5376 19.0212 75.6385 19.269 75.8399 19.4154C76.0412 19.5616 76.3081 19.5809 76.5284 19.4651L78.1373 18.6193C77.9717 18.4702 77.892 18.2458 77.9302 18.0232L78.9753 11.9302L78.9667 11.9219L76.6248 12.6828L75.5798 18.7759Z" fill="#F48B19"/>
<path d="M76.5284 19.4688L82.0003 16.5921C87.9576 19.7239 87.5484 19.5439 87.7764 19.5439C88.1794 19.5439 88.4897 19.1806 88.4209 18.7795L87.3759 12.6865L91.8027 8.37133C92.1898 7.99387 91.9758 7.33398 91.4404 7.25613L85.3226 6.36719L75.8398 19.419C76.0412 19.5653 76.308 19.5846 76.5284 19.4688Z" fill="#F2D422"/>
<path d="M91.9682 7.69531L82.0003 10.9341L75.8398 19.4132C76.0412 19.5595 76.308 19.5788 76.5284 19.463L82.0003 16.5863C87.9576 19.7181 87.5484 19.5381 87.7764 19.5381C88.1794 19.5381 88.4897 19.1748 88.4209 18.7738L87.3759 12.6807L91.8027 8.36555C91.9809 8.1918 92.045 7.93199 91.9682 7.69531Z" fill="#F7AC16"/>
<path d="M87.3759 12.6841L82.0003 10.9375L75.8398 19.4167C76.0412 19.5629 76.308 19.5822 76.5284 19.4664L82.0003 16.5897C87.9576 19.7216 87.5484 19.5416 87.7764 19.5416C88.1794 19.5416 88.4897 19.1783 88.4209 18.7772L87.3759 12.6841Z" fill="#F2D422"/>
<path d="M75.8398 19.4167C76.0412 19.5629 76.308 19.5822 76.5284 19.4664L82.0003 16.5897C87.9576 19.7216 87.5484 19.5416 87.7764 19.5416C87.912 19.5416 88.0469 19.4994 88.1608 19.4167L82.0003 10.9375L75.8398 19.4167Z" fill="#F7AC16"/>
<path d="M82.0004 10.9376L82.0003 10.9375L75.8398 19.4167C76.0412 19.5629 76.308 19.5822 76.5284 19.4664L82.0003 16.5897H82.0004V10.9376Z" fill="#F2D422"/>
<path d="M78.2636 16.0781L75.8398 19.4141C76.0412 19.5603 76.308 19.5796 76.5284 19.4638L78.1372 18.618C77.9717 18.4689 77.892 18.2445 77.9302 18.022L78.2636 16.0781Z" fill="#EFB616"/>
</g>
<g clip-path="url(#clip4_7617_98640)">
<path d="M115.205 7.04551L109.419 6.20481L108.141 3.61414C108.069 3.46906 107.894 3.40949 107.748 3.48105C107.603 3.55269 107.544 3.72836 107.615 3.87351L108.884 6.4436L106.293 10.0092V1.19886C106.312 1.23109 106.228 1.06269 107.159 2.94902C107.231 3.09414 107.406 3.15367 107.551 3.08211C107.697 3.0105 107.756 2.83476 107.684 2.68964L106.832 0.96214C106.492 0.272959 105.508 0.273115 105.168 0.96214L102.581 6.20485L96.7952 7.04551C96.0396 7.15539 95.7278 8.08864 96.2811 8.62778L100.468 12.7086L99.4793 18.4709C99.3795 19.0517 99.8336 19.5564 100.393 19.5564C100.708 19.5564 100.387 19.6792 106 16.7284C111.615 19.6803 111.29 19.5555 111.607 19.5555C112.175 19.5555 112.619 19.044 112.521 18.471L111.533 12.7087C116.05 8.30528 115.767 8.5938 115.845 8.47684C116.215 7.92204 115.891 7.14524 115.205 7.04551ZM102.642 6.78809L105.233 10.3537L96.8537 7.6311C96.8903 7.6229 96.4885 7.68231 102.642 6.78809ZM96.6727 8.18848L105.052 10.9111L100.86 12.273C96.3479 7.87446 96.6986 8.2179 96.6727 8.18848ZM100.054 18.5962C100.058 18.5588 99.99 18.96 101.041 12.8304L105.233 11.4684L100.054 18.5962ZM105.707 16.2203C100.202 19.1144 100.563 18.9258 100.528 18.9407L105.707 11.8129V16.2203ZM105.707 10.0092L103.117 6.4436C105.868 0.868429 105.688 1.23089 105.707 1.19866V10.0092ZM109.358 6.78809C115.511 7.68219 115.11 7.6229 115.147 7.6311L106.767 10.3537L109.358 6.78809ZM111.946 18.5963L108.367 13.6704C108.272 13.5395 108.089 13.5105 107.958 13.6056C107.827 13.7007 107.798 13.884 107.893 14.0149L111.472 18.941C111.443 18.9283 111.778 19.1036 106.293 16.2202V11.8129L107.29 13.185C107.385 13.316 107.568 13.345 107.699 13.2498C107.83 13.1547 107.859 12.9714 107.764 12.8405L106.767 11.4684L110.959 12.8304C112.01 18.9602 111.942 18.5588 111.946 18.5963ZM111.14 12.273L106.948 10.911L115.328 8.18844C115.303 8.21661 115.593 7.932 111.14 12.273Z" fill="black" fill-opacity="0.22"/>
</g>
<defs>
<clipPath id="clip0_7617_98640">
<rect width="20" height="20" fill="white"/>
</clipPath>
<clipPath id="clip1_7617_98640">
<rect width="20" height="20" fill="white" transform="translate(24)"/>
</clipPath>
<clipPath id="clip2_7617_98640">
<rect width="20" height="20" fill="white" transform="translate(48)"/>
</clipPath>
<clipPath id="clip3_7617_98640">
<rect width="20" height="20" fill="white" transform="translate(72)"/>
</clipPath>
<clipPath id="clip4_7617_98640">
<rect width="20" height="20" fill="white" transform="translate(96)"/>
</clipPath>
</defs>
</svg>
