<svg width="40" height="40" viewBox="0 0 40 40" fill="none" xmlns="http://www.w3.org/2000/svg">
<path d="M33.654 12.1063C33.3637 9.69747 32.4413 7.4083 30.9804 5.47118C29.5194 3.53407 27.572 2.01797 25.3357 1.07679C23.0994 0.13561 20.6539 -0.197142 18.2475 0.112312C15.841 0.421766 13.5593 1.36241 11.6339 2.83875C9.70849 4.3151 8.20797 6.27458 7.28465 8.5183C6.36134 10.762 6.0481 13.2101 6.37673 15.614C6.70537 18.0179 7.66418 20.2921 9.15583 22.2056C10.6475 24.1192 12.6189 25.604 14.8699 26.5094C15.1658 26.6388 15.4012 26.8763 15.5279 27.1734L17.6788 33.8109C17.8634 34.2753 18.1835 34.6733 18.5975 34.9532C19.0115 35.2331 19.5002 35.3819 19.9999 35.3802C20.5132 35.3779 21.0135 35.2186 21.4336 34.9236C21.8537 34.6287 22.1734 34.2122 22.3499 33.7302L24.4354 27.2727C24.4964 27.1038 24.5905 26.9488 24.7122 26.8168C24.8339 26.6847 24.9807 26.5783 25.144 26.5037C27.9401 25.3624 30.2856 23.3372 31.8223 20.7374C33.359 18.1376 34.0023 15.1062 33.654 12.1063ZM19.9999 19.9969C18.7637 19.9969 17.5554 19.6304 16.5276 18.9436C15.4998 18.2569 14.6987 17.2807 14.2256 16.1387C13.7526 14.9967 13.6288 13.74 13.87 12.5276C14.1111 11.3152 14.7064 10.2016 15.5805 9.32752C16.4545 8.45344 17.5682 7.85819 18.7806 7.61703C19.9929 7.37587 21.2496 7.49964 22.3916 7.97269C23.5337 8.44574 24.5098 9.24681 25.1966 10.2746C25.8833 11.3024 26.2499 12.5108 26.2499 13.7469C26.2479 15.4039 25.5888 16.9925 24.4171 18.1642C23.2455 19.3359 21.6569 19.995 19.9999 19.9969Z" fill="#80D261"/>
<path d="M20 17.5C22.0711 17.5 23.75 15.8211 23.75 13.75C23.75 11.6789 22.0711 10 20 10C17.9289 10 16.25 11.6789 16.25 13.75C16.25 15.8211 17.9289 17.5 20 17.5Z" fill="#80D261"/>
<path d="M34.9125 38.6734C34.5595 39.0881 34.1208 39.4212 33.6266 39.65C33.1324 39.8787 32.5946 39.9976 32.05 39.9984H7.95C7.40557 39.9989 6.86757 39.8807 6.37344 39.6521C5.87931 39.4236 5.44091 39.0901 5.08876 38.6749C4.7366 38.2597 4.47914 37.7727 4.33429 37.2479C4.18944 36.7231 4.16068 36.173 4.25 35.6359L5.925 25.6359C6.05448 24.8379 6.4355 24.1022 7.0125 23.5359C8.66806 25.7292 10.8528 27.4667 13.3625 28.5859L15.3 34.5859L15.3625 34.7359C15.7295 35.6662 16.3683 36.4642 17.1955 37.0261C18.0227 37.588 19 37.8876 20 37.8859C21.0127 37.8788 21.9999 37.5675 22.8335 36.9924C23.6671 36.4174 24.3087 35.6051 24.675 34.6609L26.6375 28.5859C29.1427 27.4593 31.3227 25.7179 32.975 23.5234C33.5584 24.0917 33.9439 24.8322 34.075 25.6359L35.75 35.6359C35.8383 36.1727 35.8091 36.7222 35.6645 37.2466C35.5199 37.771 35.2634 38.2578 34.9125 38.6734Z" fill="#80D261"/>
</svg>
