<svg width="78" height="14" viewBox="0 0 78 14" fill="none" xmlns="http://www.w3.org/2000/svg">
<g clip-path="url(#clip0_7617_98640)">
<path d="M13.6081 5.07782L9.32561 4.45556L7.4104 0.574958C7.24289 0.235513 6.75724 0.235349 6.5896 0.574958L4.67444 4.45556L0.392 5.07782C0.017473 5.13226 -0.132945 5.59404 0.13836 5.85845L3.23714 8.87906L2.50559 13.1442C2.47611 13.3159 2.54669 13.4894 2.68767 13.5918C2.8286 13.6942 3.01541 13.7077 3.16963 13.6266L7 11.613C11.1701 13.8053 10.8837 13.6793 11.0433 13.6793C11.3254 13.6793 11.5426 13.425 11.4944 13.1442L10.7629 8.87906L13.8617 5.85845C14.1327 5.59423 13.9829 5.13231 13.6081 5.07782Z" fill="#F7AC16"/>
<path d="M7.00003 0.320312C6.82547 0.320312 6.66654 0.419543 6.58957 0.57543L4.67441 4.45603L0.392 5.07829C0.017473 5.13273 -0.132945 5.59451 0.13836 5.85893L3.23714 8.87954L2.50559 13.1447C2.47611 13.3164 2.54669 13.4899 2.68767 13.5923C2.8286 13.6947 3.01541 13.7082 3.16963 13.6271L7 11.6134H7.00003V0.320312Z" fill="#F2D422"/>
<path d="M0.392 5.07541C0.017473 5.12986 -0.132945 5.59164 0.13836 5.85605L3.23714 8.87666L2.50559 13.1418C2.47611 13.3135 2.54669 13.487 2.68767 13.5894C2.8286 13.6918 3.01541 13.7053 3.16963 13.6242L7 11.6106C11.1701 13.8029 10.8837 13.6769 11.0433 13.6769C11.1382 13.6769 11.2326 13.6474 11.3123 13.5894L4.67441 4.45312L0.392 5.07541Z" fill="#F7AC16"/>
<path d="M4.88244 8.34917C1.56308 5.11356 1.70576 5.28697 1.66121 5.11916C1.64309 5.05176 1.63937 4.97334 1.65908 4.89062L0.392 5.07473C0.017473 5.12917 -0.132945 5.59095 0.13836 5.85537L3.23714 8.87598L2.50559 13.1411C2.47611 13.3129 2.54669 13.4864 2.68767 13.5888C2.8286 13.6912 3.01541 13.7047 3.16963 13.6236L4.29584 13.0315C4.17998 12.9272 4.12415 12.7701 4.15089 12.6143L4.88244 8.34917Z" fill="#F48B19"/>
<path d="M0.140579 5.85979L3.23936 8.8804L2.50781 13.1455C2.47833 13.3172 2.54891 13.4907 2.68989 13.5932C2.83082 13.6955 3.01763 13.7091 3.17185 13.628L7.00222 11.6143C11.1723 13.8066 10.8859 13.6806 11.0455 13.6806C11.3276 13.6806 11.5448 13.4263 11.4966 13.1455L10.7651 8.8804L0.024724 5.39062C-0.0287877 5.58244 0.0247787 5.74697 0.140579 5.85979Z" fill="#F2D422"/>
<path d="M0.140579 5.85979L3.23936 8.8804L2.50781 13.1455C2.47833 13.3173 2.54891 13.4907 2.68989 13.5932C2.83082 13.6956 3.01763 13.7091 3.17185 13.628L4.29806 13.0359C4.1822 12.9316 4.12637 12.7745 4.15311 12.6187L4.88467 8.35357L2.75519 6.27782L0.024724 5.39062C-0.0287877 5.58244 0.0247787 5.74697 0.140579 5.85979Z" fill="#EFB616"/>
<path d="M2.50661 13.1455C2.47713 13.3172 2.54771 13.4907 2.68869 13.5931C2.82962 13.6955 3.01644 13.709 3.17065 13.628L7.00102 11.6143C11.1711 13.8066 10.8847 13.6806 11.0443 13.6806C11.3264 13.6806 11.5436 13.4263 11.4954 13.1455L10.7639 8.88037L13.8627 5.85976C13.9874 5.73816 14.0323 5.55627 13.9785 5.39062L3.23817 8.88037L2.50661 13.1455Z" fill="#F7AC16"/>
<path d="M2.50661 13.1415C2.47713 13.3133 2.54771 13.4868 2.68869 13.5892C2.82962 13.6916 3.01644 13.7051 3.17065 13.624L4.29686 13.0319C4.18101 12.9276 4.12517 12.7705 4.15191 12.6147L4.88347 8.34957L4.87748 8.34375L3.23817 8.87641L2.50661 13.1415Z" fill="#F48B19"/>
<path d="M3.16949 13.6242L6.99983 11.6105C11.1699 13.8028 10.8835 13.6768 11.0431 13.6768C11.3252 13.6768 11.5424 13.4225 11.4942 13.1418L10.7627 8.87663L13.8615 5.85602C14.1325 5.5918 13.9827 5.12988 13.6079 5.07539L9.32541 4.45312L2.6875 13.5894C2.82843 13.6918 3.01524 13.7053 3.16949 13.6242Z" fill="#F2D422"/>
<path d="M13.9774 5.39062L6.99983 7.65775L2.6875 13.5932C2.82843 13.6955 3.01524 13.7091 3.16946 13.628L6.99983 11.6143C11.1699 13.8066 10.8835 13.6806 11.0431 13.6806C11.3252 13.6806 11.5424 13.4263 11.4942 13.1455L10.7627 8.8804L13.8615 5.85979C13.9863 5.73816 14.0311 5.5563 13.9774 5.39062Z" fill="#F7AC16"/>
<path d="M10.7627 8.8789L6.99983 7.65625L2.6875 13.5917C2.82843 13.6941 3.01524 13.7076 3.16946 13.6265L6.99983 11.6128C11.1699 13.8051 10.8835 13.6791 11.0431 13.6791C11.3252 13.6791 11.5424 13.4248 11.4942 13.144L10.7627 8.8789Z" fill="#F2D422"/>
<path d="M2.6875 13.5917C2.82843 13.6941 3.01524 13.7076 3.16946 13.6265L6.99983 11.6128C11.1699 13.8051 10.8835 13.6791 11.0431 13.6791C11.138 13.6791 11.2324 13.6496 11.3122 13.5917L6.99983 7.65625L2.6875 13.5917Z" fill="#F7AC16"/>
<path d="M6.99986 7.65631L6.99983 7.65625L2.6875 13.5917C2.82843 13.6941 3.01524 13.7076 3.16946 13.6265L6.99983 11.6128H6.99986V7.65631Z" fill="#F2D422"/>
<path d="M4.3841 11.2578L2.6875 13.593C2.82843 13.6953 3.01524 13.7089 3.16946 13.6278L4.29567 13.0357C4.17981 12.9314 4.12398 12.7743 4.15072 12.6185L4.3841 11.2578Z" fill="#EFB616"/>
</g>
<g clip-path="url(#clip1_7617_98640)">
<path d="M29.6081 5.07782L25.3256 4.45556L23.4104 0.574958C23.2429 0.235513 22.7572 0.235349 22.5896 0.574958L20.6744 4.45556L16.392 5.07782C16.0175 5.13226 15.8671 5.59404 16.1384 5.85845L19.2371 8.87906L18.5056 13.1442C18.4761 13.3159 18.5467 13.4894 18.6877 13.5918C18.8286 13.6942 19.0154 13.7077 19.1696 13.6266L23 11.613C27.1701 13.8053 26.8837 13.6793 27.0433 13.6793C27.3254 13.6793 27.5426 13.425 27.4944 13.1442L26.7629 8.87906L29.8617 5.85845C30.1327 5.59423 29.9829 5.13231 29.6081 5.07782Z" fill="#F7AC16"/>
<path d="M23 0.320312C22.8255 0.320312 22.6665 0.419543 22.5896 0.57543L20.6744 4.45603L16.392 5.07829C16.0175 5.13273 15.8671 5.59451 16.1384 5.85893L19.2371 8.87954L18.5056 13.1447C18.4761 13.3164 18.5467 13.4899 18.6877 13.5923C18.8286 13.6947 19.0154 13.7082 19.1696 13.6271L23 11.6134H23V0.320312Z" fill="#F2D422"/>
<path d="M16.392 5.07541C16.0175 5.12986 15.8671 5.59164 16.1384 5.85605L19.2371 8.87666L18.5056 13.1418C18.4761 13.3135 18.5467 13.487 18.6877 13.5894C18.8286 13.6918 19.0154 13.7053 19.1696 13.6242L23 11.6106C27.1701 13.8029 26.8837 13.6769 27.0433 13.6769C27.1382 13.6769 27.2326 13.6474 27.3123 13.5894L20.6744 4.45312L16.392 5.07541Z" fill="#F7AC16"/>
<path d="M20.8824 8.34917C17.5631 5.11356 17.7058 5.28697 17.6612 5.11916C17.6431 5.05176 17.6394 4.97334 17.6591 4.89062L16.392 5.07473C16.0175 5.12917 15.8671 5.59095 16.1384 5.85537L19.2371 8.87598L18.5056 13.1411C18.4761 13.3129 18.5467 13.4864 18.6877 13.5888C18.8286 13.6912 19.0154 13.7047 19.1696 13.6236L20.2958 13.0315C20.18 12.9272 20.1241 12.7701 20.1509 12.6143L20.8824 8.34917Z" fill="#F48B19"/>
<path d="M16.1406 5.85979L19.2394 8.8804L18.5078 13.1455C18.4783 13.3172 18.5489 13.4907 18.6899 13.5932C18.8308 13.6955 19.0176 13.7091 19.1719 13.628L23.0022 11.6143C27.1723 13.8066 26.8859 13.6806 27.0455 13.6806C27.3276 13.6806 27.5448 13.4263 27.4966 13.1455L26.7651 8.8804L16.0247 5.39062C15.9712 5.58244 16.0248 5.74697 16.1406 5.85979Z" fill="#F2D422"/>
<path d="M16.1406 5.85979L19.2394 8.8804L18.5078 13.1455C18.4783 13.3173 18.5489 13.4907 18.6899 13.5932C18.8308 13.6956 19.0176 13.7091 19.1719 13.628L20.2981 13.0359C20.1822 12.9316 20.1264 12.7745 20.1531 12.6187L20.8847 8.35357L18.7552 6.27782L16.0247 5.39062C15.9712 5.58244 16.0248 5.74697 16.1406 5.85979Z" fill="#EFB616"/>
<path d="M18.5066 13.1455C18.4771 13.3172 18.5477 13.4907 18.6887 13.5931C18.8296 13.6955 19.0164 13.709 19.1707 13.628L23.001 11.6143C27.1711 13.8066 26.8847 13.6806 27.0443 13.6806C27.3264 13.6806 27.5436 13.4263 27.4954 13.1455L26.7639 8.88037L29.8627 5.85976C29.9874 5.73816 30.0323 5.55627 29.9785 5.39062L19.2382 8.88037L18.5066 13.1455Z" fill="#F7AC16"/>
<path d="M18.5066 13.1415C18.4771 13.3133 18.5477 13.4868 18.6887 13.5892C18.8296 13.6916 19.0164 13.7051 19.1707 13.624L20.2969 13.0319C20.181 12.9276 20.1252 12.7705 20.1519 12.6147L20.8835 8.34957L20.8775 8.34375L19.2382 8.87641L18.5066 13.1415Z" fill="#F48B19"/>
<path d="M19.1695 13.6242L22.9998 11.6105C27.1699 13.8028 26.8835 13.6768 27.0431 13.6768C27.3252 13.6768 27.5424 13.4225 27.4942 13.1418L26.7627 8.87663L29.8615 5.85602C30.1325 5.5918 29.9827 5.12988 29.6079 5.07539L25.3254 4.45312L18.6875 13.5894C18.8284 13.6918 19.0152 13.7053 19.1695 13.6242Z" fill="#F2D422"/>
<path d="M29.9774 5.39062L22.9998 7.65775L18.6875 13.5932C18.8284 13.6955 19.0152 13.7091 19.1695 13.628L22.9998 11.6143C27.1699 13.8066 26.8835 13.6806 27.0431 13.6806C27.3252 13.6806 27.5424 13.4263 27.4942 13.1455L26.7627 8.8804L29.8615 5.85979C29.9863 5.73816 30.0311 5.5563 29.9774 5.39062Z" fill="#F7AC16"/>
<path d="M26.7627 8.8789L22.9998 7.65625L18.6875 13.5917C18.8284 13.6941 19.0152 13.7076 19.1695 13.6265L22.9998 11.6128C27.1699 13.8051 26.8835 13.6791 27.0431 13.6791C27.3252 13.6791 27.5424 13.4248 27.4942 13.144L26.7627 8.8789Z" fill="#F2D422"/>
<path d="M18.6875 13.5917C18.8284 13.6941 19.0152 13.7076 19.1695 13.6265L22.9998 11.6128C27.1699 13.8051 26.8835 13.6791 27.0431 13.6791C27.138 13.6791 27.2324 13.6496 27.3122 13.5917L22.9998 7.65625L18.6875 13.5917Z" fill="#F7AC16"/>
<path d="M22.9999 7.65631L22.9998 7.65625L18.6875 13.5917C18.8284 13.6941 19.0152 13.7076 19.1695 13.6265L22.9998 11.6128H22.9999V7.65631Z" fill="#F2D422"/>
<path d="M20.3841 11.2578L18.6875 13.593C18.8284 13.6953 19.0152 13.7089 19.1695 13.6278L20.2957 13.0357C20.1798 12.9314 20.124 12.7743 20.1507 12.6185L20.3841 11.2578Z" fill="#EFB616"/>
</g>
<g clip-path="url(#clip2_7617_98640)">
<path d="M45.6081 5.07782L41.3256 4.45556L39.4104 0.574958C39.2429 0.235513 38.7572 0.235349 38.5896 0.574958L36.6744 4.45556L32.392 5.07782C32.0175 5.13226 31.8671 5.59404 32.1384 5.85845L35.2371 8.87906L34.5056 13.1442C34.4761 13.3159 34.5467 13.4894 34.6877 13.5918C34.8286 13.6942 35.0154 13.7077 35.1696 13.6266L39 11.613C43.1701 13.8053 42.8837 13.6793 43.0433 13.6793C43.3254 13.6793 43.5426 13.425 43.4944 13.1442L42.7629 8.87906L45.8617 5.85845C46.1327 5.59423 45.9829 5.13231 45.6081 5.07782Z" fill="#F7AC16"/>
<path d="M39 0.320312C38.8255 0.320312 38.6665 0.419543 38.5896 0.57543L36.6744 4.45603L32.392 5.07829C32.0175 5.13273 31.8671 5.59451 32.1384 5.85893L35.2371 8.87954L34.5056 13.1447C34.4761 13.3164 34.5467 13.4899 34.6877 13.5923C34.8286 13.6947 35.0154 13.7082 35.1696 13.6271L39 11.6134H39V0.320312Z" fill="#F2D422"/>
<path d="M32.392 5.07541C32.0175 5.12986 31.8671 5.59164 32.1384 5.85605L35.2371 8.87666L34.5056 13.1418C34.4761 13.3135 34.5467 13.487 34.6877 13.5894C34.8286 13.6918 35.0154 13.7053 35.1696 13.6242L39 11.6106C43.1701 13.8029 42.8837 13.6769 43.0433 13.6769C43.1382 13.6769 43.2326 13.6474 43.3123 13.5894L36.6744 4.45312L32.392 5.07541Z" fill="#F7AC16"/>
<path d="M36.8824 8.34917C33.5631 5.11356 33.7058 5.28697 33.6612 5.11916C33.6431 5.05176 33.6394 4.97334 33.6591 4.89062L32.392 5.07473C32.0175 5.12917 31.8671 5.59095 32.1384 5.85537L35.2371 8.87598L34.5056 13.1411C34.4761 13.3129 34.5467 13.4864 34.6877 13.5888C34.8286 13.6912 35.0154 13.7047 35.1696 13.6236L36.2958 13.0315C36.18 12.9272 36.1241 12.7701 36.1509 12.6143L36.8824 8.34917Z" fill="#F48B19"/>
<path d="M32.1406 5.85979L35.2394 8.8804L34.5078 13.1455C34.4783 13.3172 34.5489 13.4907 34.6899 13.5932C34.8308 13.6955 35.0176 13.7091 35.1719 13.628L39.0022 11.6143C43.1723 13.8066 42.8859 13.6806 43.0455 13.6806C43.3276 13.6806 43.5448 13.4263 43.4966 13.1455L42.7651 8.8804L32.0247 5.39062C31.9712 5.58244 32.0248 5.74697 32.1406 5.85979Z" fill="#F2D422"/>
<path d="M32.1406 5.85979L35.2394 8.8804L34.5078 13.1455C34.4783 13.3173 34.5489 13.4907 34.6899 13.5932C34.8308 13.6956 35.0176 13.7091 35.1719 13.628L36.2981 13.0359C36.1822 12.9316 36.1264 12.7745 36.1531 12.6187L36.8847 8.35357L34.7552 6.27782L32.0247 5.39062C31.9712 5.58244 32.0248 5.74697 32.1406 5.85979Z" fill="#EFB616"/>
<path d="M34.5066 13.1455C34.4771 13.3172 34.5477 13.4907 34.6887 13.5931C34.8296 13.6955 35.0164 13.709 35.1707 13.628L39.001 11.6143C43.1711 13.8066 42.8847 13.6806 43.0443 13.6806C43.3264 13.6806 43.5436 13.4263 43.4954 13.1455L42.7639 8.88037L45.8627 5.85976C45.9874 5.73816 46.0323 5.55627 45.9785 5.39062L35.2382 8.88037L34.5066 13.1455Z" fill="#F7AC16"/>
<path d="M34.5066 13.1415C34.4771 13.3133 34.5477 13.4868 34.6887 13.5892C34.8296 13.6916 35.0164 13.7051 35.1707 13.624L36.2969 13.0319C36.181 12.9276 36.1252 12.7705 36.1519 12.6147L36.8835 8.34957L36.8775 8.34375L35.2382 8.87641L34.5066 13.1415Z" fill="#F48B19"/>
<path d="M35.1695 13.6242L38.9998 11.6105C43.1699 13.8028 42.8835 13.6768 43.0431 13.6768C43.3252 13.6768 43.5424 13.4225 43.4942 13.1418L42.7627 8.87663L45.8615 5.85602C46.1325 5.5918 45.9827 5.12988 45.6079 5.07539L41.3254 4.45312L34.6875 13.5894C34.8284 13.6918 35.0152 13.7053 35.1695 13.6242Z" fill="#F2D422"/>
<path d="M45.9774 5.39062L38.9998 7.65775L34.6875 13.5932C34.8284 13.6955 35.0152 13.7091 35.1695 13.628L38.9998 11.6143C43.1699 13.8066 42.8835 13.6806 43.0431 13.6806C43.3252 13.6806 43.5424 13.4263 43.4942 13.1455L42.7627 8.8804L45.8615 5.85979C45.9863 5.73816 46.0311 5.5563 45.9774 5.39062Z" fill="#F7AC16"/>
<path d="M42.7627 8.8789L38.9998 7.65625L34.6875 13.5917C34.8284 13.6941 35.0152 13.7076 35.1695 13.6265L38.9998 11.6128C43.1699 13.8051 42.8835 13.6791 43.0431 13.6791C43.3252 13.6791 43.5424 13.4248 43.4942 13.144L42.7627 8.8789Z" fill="#F2D422"/>
<path d="M34.6875 13.5917C34.8284 13.6941 35.0152 13.7076 35.1695 13.6265L38.9998 11.6128C43.1699 13.8051 42.8835 13.6791 43.0431 13.6791C43.138 13.6791 43.2324 13.6496 43.3122 13.5917L38.9998 7.65625L34.6875 13.5917Z" fill="#F7AC16"/>
<path d="M38.9999 7.65631L38.9998 7.65625L34.6875 13.5917C34.8284 13.6941 35.0152 13.7076 35.1695 13.6265L38.9998 11.6128H38.9999V7.65631Z" fill="#F2D422"/>
<path d="M36.3841 11.2578L34.6875 13.593C34.8284 13.6953 35.0152 13.7089 35.1695 13.6278L36.2957 13.0357C36.1798 12.9314 36.124 12.7743 36.1507 12.6185L36.3841 11.2578Z" fill="#EFB616"/>
</g>
<g clip-path="url(#clip3_7617_98640)">
<path d="M61.6081 5.07782L57.3256 4.45556L55.4104 0.574958C55.2429 0.235513 54.7572 0.235349 54.5896 0.574958L52.6744 4.45556L48.392 5.07782C48.0175 5.13226 47.8671 5.59404 48.1384 5.85845L51.2371 8.87906L50.5056 13.1442C50.4761 13.3159 50.5467 13.4894 50.6877 13.5918C50.8286 13.6942 51.0154 13.7077 51.1696 13.6266L55 11.613C59.1701 13.8053 58.8837 13.6793 59.0433 13.6793C59.3254 13.6793 59.5426 13.425 59.4944 13.1442L58.7629 8.87906L61.8617 5.85845C62.1327 5.59423 61.9829 5.13231 61.6081 5.07782Z" fill="#F7AC16"/>
<path d="M55 0.320312C54.8255 0.320312 54.6665 0.419543 54.5896 0.57543L52.6744 4.45603L48.392 5.07829C48.0175 5.13273 47.8671 5.59451 48.1384 5.85893L51.2371 8.87954L50.5056 13.1447C50.4761 13.3164 50.5467 13.4899 50.6877 13.5923C50.8286 13.6947 51.0154 13.7082 51.1696 13.6271L55 11.6134H55V0.320312Z" fill="#F2D422"/>
<path d="M48.392 5.07541C48.0175 5.12986 47.8671 5.59164 48.1384 5.85605L51.2371 8.87666L50.5056 13.1418C50.4761 13.3135 50.5467 13.487 50.6877 13.5894C50.8286 13.6918 51.0154 13.7053 51.1696 13.6242L55 11.6106C59.1701 13.8029 58.8837 13.6769 59.0433 13.6769C59.1382 13.6769 59.2326 13.6474 59.3123 13.5894L52.6744 4.45312L48.392 5.07541Z" fill="#F7AC16"/>
<path d="M52.8824 8.34917C49.5631 5.11356 49.7058 5.28697 49.6612 5.11916C49.6431 5.05176 49.6394 4.97334 49.6591 4.89062L48.392 5.07473C48.0175 5.12917 47.8671 5.59095 48.1384 5.85537L51.2371 8.87598L50.5056 13.1411C50.4761 13.3129 50.5467 13.4864 50.6877 13.5888C50.8286 13.6912 51.0154 13.7047 51.1696 13.6236L52.2958 13.0315C52.18 12.9272 52.1241 12.7701 52.1509 12.6143L52.8824 8.34917Z" fill="#F48B19"/>
<path d="M48.1406 5.85979L51.2394 8.8804L50.5078 13.1455C50.4783 13.3172 50.5489 13.4907 50.6899 13.5932C50.8308 13.6955 51.0176 13.7091 51.1719 13.628L55.0022 11.6143C59.1723 13.8066 58.8859 13.6806 59.0455 13.6806C59.3276 13.6806 59.5448 13.4263 59.4966 13.1455L58.7651 8.8804L48.0247 5.39062C47.9712 5.58244 48.0248 5.74697 48.1406 5.85979Z" fill="#F2D422"/>
<path d="M48.1406 5.85979L51.2394 8.8804L50.5078 13.1455C50.4783 13.3173 50.5489 13.4907 50.6899 13.5932C50.8308 13.6956 51.0176 13.7091 51.1719 13.628L52.2981 13.0359C52.1822 12.9316 52.1264 12.7745 52.1531 12.6187L52.8847 8.35357L50.7552 6.27782L48.0247 5.39062C47.9712 5.58244 48.0248 5.74697 48.1406 5.85979Z" fill="#EFB616"/>
<path d="M50.5066 13.1455C50.4771 13.3172 50.5477 13.4907 50.6887 13.5931C50.8296 13.6955 51.0164 13.709 51.1707 13.628L55.001 11.6143C59.1711 13.8066 58.8847 13.6806 59.0443 13.6806C59.3264 13.6806 59.5436 13.4263 59.4954 13.1455L58.7639 8.88037L61.8627 5.85976C61.9874 5.73816 62.0323 5.55627 61.9785 5.39062L51.2382 8.88037L50.5066 13.1455Z" fill="#F7AC16"/>
<path d="M50.5066 13.1415C50.4771 13.3133 50.5477 13.4868 50.6887 13.5892C50.8296 13.6916 51.0164 13.7051 51.1707 13.624L52.2969 13.0319C52.181 12.9276 52.1252 12.7705 52.1519 12.6147L52.8835 8.34957L52.8775 8.34375L51.2382 8.87641L50.5066 13.1415Z" fill="#F48B19"/>
<path d="M51.1695 13.6242L54.9998 11.6105C59.1699 13.8028 58.8835 13.6768 59.0431 13.6768C59.3252 13.6768 59.5424 13.4225 59.4942 13.1418L58.7627 8.87663L61.8615 5.85602C62.1325 5.5918 61.9827 5.12988 61.6079 5.07539L57.3254 4.45312L50.6875 13.5894C50.8284 13.6918 51.0152 13.7053 51.1695 13.6242Z" fill="#F2D422"/>
<path d="M61.9774 5.39062L54.9998 7.65775L50.6875 13.5932C50.8284 13.6955 51.0152 13.7091 51.1695 13.628L54.9998 11.6143C59.1699 13.8066 58.8835 13.6806 59.0431 13.6806C59.3252 13.6806 59.5424 13.4263 59.4942 13.1455L58.7627 8.8804L61.8615 5.85979C61.9863 5.73816 62.0311 5.5563 61.9774 5.39062Z" fill="#F7AC16"/>
<path d="M58.7627 8.8789L54.9998 7.65625L50.6875 13.5917C50.8284 13.6941 51.0152 13.7076 51.1695 13.6265L54.9998 11.6128C59.1699 13.8051 58.8835 13.6791 59.0431 13.6791C59.3252 13.6791 59.5424 13.4248 59.4942 13.144L58.7627 8.8789Z" fill="#F2D422"/>
<path d="M50.6875 13.5917C50.8284 13.6941 51.0152 13.7076 51.1695 13.6265L54.9998 11.6128C59.1699 13.8051 58.8835 13.6791 59.0431 13.6791C59.138 13.6791 59.2324 13.6496 59.3122 13.5917L54.9998 7.65625L50.6875 13.5917Z" fill="#F7AC16"/>
<path d="M54.9999 7.65631L54.9998 7.65625L50.6875 13.5917C50.8284 13.6941 51.0152 13.7076 51.1695 13.6265L54.9998 11.6128H54.9999V7.65631Z" fill="#F2D422"/>
<path d="M52.3841 11.2578L50.6875 13.593C50.8284 13.6953 51.0152 13.7089 51.1695 13.6278L52.2957 13.0357C52.1798 12.9314 52.124 12.7743 52.1507 12.6185L52.3841 11.2578Z" fill="#EFB616"/>
</g>
<g clip-path="url(#clip4_7617_98640)">
<path d="M77.4435 4.93264L73.3936 4.34414L72.4986 2.53068C72.4484 2.42912 72.3255 2.38742 72.2238 2.43752C72.1223 2.48766 72.0806 2.61063 72.1307 2.71224L73.0186 4.5113L71.2052 7.00718V0.839982C71.2186 0.862541 71.1596 0.744662 71.8113 2.06509C71.8614 2.16668 71.9843 2.20835 72.086 2.15825C72.1876 2.10813 72.2293 1.98511 72.1791 1.88353L71.5823 0.674279C71.3443 0.191852 70.6558 0.191962 70.4177 0.674279L68.6065 4.34417L64.5566 4.93264C64.0277 5.00956 63.8095 5.66283 64.1967 6.04023L67.1273 8.89683L66.4355 12.9304C66.3657 13.337 66.6835 13.6903 67.0748 13.6903C67.2955 13.6903 67.071 13.7762 71.0001 11.7106C74.9306 13.777 74.7028 13.6896 74.9246 13.6896C75.3226 13.6896 75.6334 13.3316 75.5646 12.9305L74.8728 8.89689C78.035 5.81448 77.8367 6.01644 77.8913 5.93457C78.1508 5.54621 77.9236 5.00245 77.4435 4.93264ZM68.6497 4.75244L70.463 7.24836L64.5976 5.34255C64.6232 5.33681 64.342 5.3784 68.6497 4.75244ZM64.4709 5.73272L70.3363 7.63853L67.4022 8.59189C64.2435 5.5129 64.489 5.75331 64.4709 5.73272ZM66.838 13.0181C66.8405 12.9919 66.793 13.2728 67.529 8.98204L70.463 8.02869L66.838 13.0181ZM70.795 11.355C66.9414 13.3809 67.1941 13.2488 67.1699 13.2593L70.795 8.26984V11.355ZM70.795 7.00721L68.9816 4.5113C70.9076 0.608681 70.7816 0.862404 70.795 0.839846V7.00721ZM73.3504 4.75244C77.6578 5.37831 77.377 5.33681 77.4026 5.34255L71.5371 7.24836L73.3504 4.75244ZM75.1622 13.0182L72.657 9.57006C72.5904 9.47841 72.4621 9.45812 72.3705 9.52467C72.2788 9.59128 72.2585 9.71955 72.3251 9.81118L74.8304 13.2595C74.8098 13.2506 75.0445 13.3733 71.2052 11.3549V8.26984L71.9031 9.23026C71.9697 9.32195 72.0979 9.34226 72.1896 9.27563C72.2812 9.20904 72.3015 9.08075 72.2349 8.98915L71.5371 8.02869L74.4712 8.98206C75.2072 13.2729 75.1597 12.9919 75.1622 13.0182ZM74.598 8.59187L71.6639 7.6385L77.5293 5.73269C77.5119 5.75241 77.7153 5.55318 74.598 8.59187Z" fill="black" fill-opacity="0.22"/>
</g>
<defs>
<clipPath id="clip0_7617_98640">
<rect width="14" height="14" fill="white"/>
</clipPath>
<clipPath id="clip1_7617_98640">
<rect width="14" height="14" fill="white" transform="translate(16)"/>
</clipPath>
<clipPath id="clip2_7617_98640">
<rect width="14" height="14" fill="white" transform="translate(32)"/>
</clipPath>
<clipPath id="clip3_7617_98640">
<rect width="14" height="14" fill="white" transform="translate(48)"/>
</clipPath>
<clipPath id="clip4_7617_98640">
<rect width="14" height="14" fill="white" transform="translate(64)"/>
</clipPath>
</defs>
</svg>
