<svg width="16" height="16" viewBox="0 0 16 16" fill="none" xmlns="http://www.w3.org/2000/svg">
<path d="M13.0625 2.03125H12.1875V2.90375C12.1873 3.10261 12.1083 3.29329 11.9677 3.43391C11.827 3.57452 11.6364 3.65359 11.4375 3.65375C11.3296 3.66875 11.2197 3.66065 11.1151 3.62998C11.0106 3.59932 10.9137 3.5468 10.831 3.47589C10.7483 3.40498 10.6816 3.3173 10.6353 3.21866C10.589 3.12003 10.5642 3.01268 10.5625 2.90373V2.03125H5.4375V2.90375C5.43088 3.90823 3.81895 3.90628 3.8125 2.90373V2.03125H2.9375C2.42391 2.03211 1.9316 2.23652 1.56844 2.59969C1.20527 2.96285 1.00086 3.45516 1 3.96875V12.9062C1.00087 13.4198 1.20527 13.9121 1.56844 14.2753C1.9316 14.6385 2.42391 14.8429 2.9375 14.8438H11.155C11.4559 14.8425 11.7527 14.7738 12.0235 14.6427C12.2944 14.5116 12.5324 14.3215 12.72 14.0862L14.5675 11.7562C14.8481 11.4029 15.0006 10.9649 15 10.5137V3.96874C14.9991 3.45515 14.7947 2.96284 14.4316 2.59968C14.0684 2.23652 13.5761 2.03211 13.0625 2.03125ZM14.5 10.5138C14.5005 10.6353 14.4846 10.7565 14.4525 10.8738H12.75C12.6187 10.8737 12.4886 10.8996 12.3673 10.9498C12.2459 11 12.1357 11.0737 12.0428 11.1666C11.9499 11.2594 11.8763 11.3697 11.826 11.491C11.7758 11.6124 11.75 11.7424 11.75 11.8738V14.2188C11.5623 14.3007 11.3598 14.3433 11.155 14.3438H2.9375C2.5564 14.3433 2.19104 14.1917 1.92156 13.9222C1.65208 13.6527 1.50048 13.2874 1.5 12.9062V5.90375H14.5V10.5138Z" fill="#F15A24"/>
<path d="M4.93751 2.90688V1.40688C4.93916 1.059 4.30954 1.06559 4.31251 1.40688V2.90688C4.30951 3.24828 4.93934 3.25457 4.93751 2.90688Z" fill="#F15A24"/>
<path d="M11.6875 2.90688V1.40688C11.6892 1.059 11.0595 1.06559 11.0625 1.40688V2.90688C11.0595 3.24828 11.6893 3.25457 11.6875 2.90688Z" fill="#F15A24"/>
<path d="M3.4399 10.5003C3.37624 10.4843 3.30884 10.4939 3.25224 10.5272C3.19565 10.5605 3.15441 10.6146 3.13742 10.678C3.12044 10.7414 3.12907 10.809 3.16145 10.8661C3.19384 10.9232 3.24738 10.9652 3.31052 10.9832L3.96065 11.1574C3.56021 11.3886 3.30441 11.5363 3.30441 11.5363C3.25782 11.5645 3.22165 11.6071 3.20135 11.6577C3.18105 11.7082 3.17771 11.764 3.19183 11.8166C3.20595 11.8692 3.23677 11.9158 3.27966 11.9494C3.32254 11.983 3.37518 12.0018 3.42964 12.0029C3.64204 11.9664 3.66879 11.8826 4.21068 11.5905C4.132 11.8841 4.03645 12.2406 4.03645 12.2406C4.0207 12.3042 4.03053 12.3714 4.06381 12.4278C4.09709 12.4842 4.15117 12.5253 4.21443 12.5423C4.27769 12.5592 4.34507 12.5507 4.40209 12.5185C4.45911 12.4863 4.50122 12.433 4.51936 12.37L4.82298 11.237C5.17805 11.032 5.58025 10.7998 5.99398 10.5609V11.9274C5.78007 12.1413 5.16441 12.7569 5.16441 12.7569C5.11906 12.8041 5.09402 12.8671 5.09467 12.9326C5.09532 12.998 5.1216 13.0606 5.16788 13.1069C5.21416 13.1532 5.27674 13.1795 5.34218 13.1801C5.40762 13.1808 5.47071 13.1557 5.51791 13.1104L5.99398 12.6344V13.3779C5.99398 13.4442 6.02032 13.5077 6.06721 13.5546C6.11409 13.6015 6.17768 13.6279 6.24398 13.6279C6.31029 13.6279 6.37388 13.6015 6.42076 13.5546C6.46764 13.5077 6.49398 13.4442 6.49398 13.3779V12.6344L6.96994 13.1104C6.99313 13.1337 7.02069 13.1522 7.05104 13.1648C7.08139 13.1774 7.11393 13.1839 7.1468 13.184C7.17967 13.184 7.21222 13.1776 7.2426 13.165C7.27297 13.1524 7.30057 13.134 7.32381 13.1108C7.34706 13.0875 7.36549 13.0599 7.37805 13.0295C7.39061 12.9992 7.39706 12.9666 7.39703 12.9337C7.39699 12.9009 7.39048 12.8683 7.37785 12.838C7.36523 12.8076 7.34674 12.7801 7.32345 12.7569L6.49397 11.9274V10.5609L7.67741 11.2442L7.98103 12.3772C7.99894 12.4404 8.041 12.4941 8.09812 12.5265C8.15524 12.5589 8.22283 12.5676 8.28627 12.5506C8.34972 12.5336 8.40393 12.4923 8.43717 12.4356C8.47042 12.379 8.48004 12.3115 8.46394 12.2478L8.28972 11.5977C8.35866 11.6239 8.9808 12.0329 9.05829 12.0029C9.11275 12.0018 9.16539 11.983 9.20828 11.9494C9.25117 11.9158 9.28199 11.8692 9.29612 11.8166C9.31024 11.764 9.3069 11.7082 9.2866 11.6577C9.2663 11.6071 9.23013 11.5645 9.18354 11.5363C9.18354 11.5363 8.93279 11.3915 8.53977 11.1646L9.18989 10.9904C9.25277 10.9722 9.30602 10.9301 9.33819 10.8731C9.37036 10.8161 9.37889 10.7487 9.36195 10.6855C9.34501 10.6223 9.30394 10.5682 9.24757 10.5349C9.1912 10.5016 9.12403 10.4918 9.06048 10.5075L7.92747 10.8111C7.56933 10.6043 7.16273 10.3696 6.74405 10.1279C7.16272 9.88614 7.56933 9.65138 7.92747 9.44462L9.0605 9.74824C9.12396 9.76368 9.19095 9.75367 9.24713 9.72036C9.30331 9.68705 9.34422 9.63308 9.36112 9.56999C9.37803 9.50691 9.36957 9.43971 9.33757 9.38277C9.30557 9.32584 9.25256 9.28368 9.18988 9.26533L8.53976 9.09112C8.93279 8.8642 9.18353 8.71943 9.18353 8.71943C9.23954 8.68557 9.28005 8.6311 9.29636 8.56771C9.31266 8.50433 9.30347 8.43707 9.27075 8.38039C9.23803 8.3237 9.1844 8.2821 9.12135 8.26452C9.05831 8.24693 8.99088 8.25476 8.93355 8.28632C8.93355 8.28632 8.68277 8.43111 8.28972 8.65804L8.46394 8.00788C8.47965 7.94433 8.46981 7.87714 8.43652 7.82077C8.40324 7.7644 8.34917 7.72332 8.28593 7.70638C8.22269 7.68944 8.15533 7.69798 8.09832 7.73016C8.04131 7.76235 7.9992 7.81561 7.98103 7.8785L7.67741 9.01156C7.31926 9.21833 6.91264 9.45309 6.49397 9.69481V8.3427C6.70784 8.12883 7.32342 7.51323 7.32342 7.51323C7.36881 7.46605 7.39387 7.40295 7.39323 7.33749C7.3926 7.27203 7.36631 7.20943 7.32002 7.16314C7.27373 7.11684 7.21113 7.09055 7.14567 7.08992C7.08021 7.08928 7.01711 7.11434 6.96993 7.15972L6.49397 7.63567V6.87785C6.49266 6.81242 6.46575 6.7501 6.419 6.70429C6.37226 6.65847 6.30942 6.63281 6.24397 6.63281C6.17851 6.63281 6.11567 6.65848 6.06893 6.7043C6.02219 6.75011 5.99528 6.81243 5.99397 6.87787V7.63572C5.78391 7.42569 5.51791 7.15973 5.51791 7.15973C5.47073 7.11434 5.40763 7.08927 5.34216 7.08991C5.2767 7.09054 5.21409 7.11683 5.1678 7.16312C5.1215 7.20941 5.09521 7.27201 5.09457 7.33748C5.09393 7.40294 5.119 7.46605 5.16438 7.51323L5.99397 8.34271V9.6948C5.58022 9.45592 5.17805 9.22373 4.82297 9.01872L4.51936 7.88567C4.50146 7.82248 4.4594 7.76887 4.40228 7.73643C4.34516 7.704 4.27757 7.69535 4.21412 7.71235C4.15067 7.72935 4.09647 7.77064 4.06322 7.82729C4.02997 7.88394 4.02036 7.9514 4.03645 8.01508L4.21068 8.6652C3.81023 8.434 3.55441 8.28631 3.55441 8.28631C3.49708 8.25474 3.42965 8.24691 3.3666 8.26449C3.30356 8.28208 3.24992 8.32368 3.21719 8.38036C3.18447 8.43705 3.17528 8.5043 3.19158 8.56769C3.20788 8.63108 3.24839 8.68555 3.3044 8.71942L3.96065 9.09831C3.67375 9.17518 3.31052 9.27252 3.31052 9.27252C3.25282 9.2891 3.20299 9.32582 3.17008 9.37603C3.13718 9.42623 3.12338 9.48658 3.13119 9.5461C3.13901 9.60561 3.16792 9.66035 3.21268 9.70035C3.25743 9.74036 3.31506 9.76298 3.37508 9.76409C3.39697 9.76408 3.41877 9.76117 3.4399 9.75543L4.57295 9.4518L5.74391 10.1279C5.33018 10.3667 4.92802 10.5989 4.57295 10.8039L3.4399 10.5003Z" fill="#0182FC"/>
</svg>
