<svg width="75" height="80" viewBox="0 0 75 80" fill="none" xmlns="http://www.w3.org/2000/svg">
<path fill-rule="evenodd" clip-rule="evenodd" d="M29.8873 8.97141C29.2505 9.62656 28.6266 10.2508 27.8748 10.7786L26.5823 11.6859L26.9039 10.1398C27.9027 5.3375 32.1614 1.875 37.0739 1.875C41.9864 1.875 46.2448 5.33828 47.2511 10.1389L47.5738 11.6778L46.2827 10.7803C45.5248 10.2536 44.9002 9.62969 44.2605 8.97156C42.9423 7.61531 41.7455 6.51219 39.8745 7.79797C39.0516 8.36344 38.0387 8.37797 37.0739 8.37797C36.1091 8.37797 35.1013 8.36188 34.2806 7.79797C32.4061 6.50969 31.208 7.61266 29.8873 8.97141ZM36.0434 30.9092L31.2164 34.9987L27.4003 27.5294L27.947 27.2419C28.3584 27.0256 28.7772 26.8236 29.2028 26.6369L29.5184 26.4984L36.0434 30.9092ZM44.9523 26.637C45.3773 26.8234 45.7959 27.025 46.205 27.2442L46.7452 27.5338L42.9312 34.9989L38.1037 30.9091L44.6369 26.4987L44.9523 26.637ZM39.407 33.6495L37.0737 31.6711L34.7394 33.6506L36.3292 36.1966H37.8267L39.4069 33.6495H39.407ZM38.5758 41.1608H35.5817L36.4703 37.4467H37.6763L38.5759 41.1608H38.5758ZM39.3584 42.4106H60.5883V46.328H13.5595V42.4106H39.3584ZM19.0925 24.978C17.7912 24.978 16.7358 23.923 16.7358 22.6217C16.7358 21.3205 17.7911 20.2652 19.0925 20.2652C20.3939 20.2652 21.4494 21.3239 21.4494 22.6217C21.4494 23.9195 20.3898 24.978 19.0925 24.978ZM55.0627 20.2653C56.3602 20.2653 57.4195 21.3241 57.4195 22.6219C57.4195 23.9197 56.36 24.9781 55.0627 24.9781C53.7653 24.9781 52.7059 23.9231 52.7059 22.6219C52.7059 21.3206 53.7613 20.2653 55.0627 20.2653ZM68.7609 66.1889C68.7609 68.1347 67.1786 69.7203 65.2323 69.7203C63.2861 69.7203 61.6964 68.1358 61.6964 66.1889C61.6964 64.242 63.2875 62.6577 65.2323 62.6577C67.1772 62.6577 68.7609 64.2439 68.7609 66.1889ZM46.4625 69.7203C44.5133 69.7203 42.9266 68.1392 42.9266 66.1889C42.9266 64.2386 44.5139 62.6577 46.4625 62.6577C48.4111 62.6577 49.9911 64.2439 49.9911 66.1889C49.9911 68.1339 48.4088 69.7203 46.4625 69.7203ZM27.6927 69.7203C25.7434 69.7203 24.1567 68.1392 24.1567 66.1889C24.1567 64.2386 25.7441 62.6577 27.6927 62.6577C29.6412 62.6577 31.2213 64.2439 31.2213 66.1889C31.2213 68.1339 29.6389 69.7203 27.6927 69.7203ZM8.91531 69.7203C6.96906 69.7203 5.38672 68.1347 5.38672 66.1889C5.38672 64.2431 6.96969 62.6577 8.91531 62.6577C10.8609 62.6577 12.4512 64.2395 12.4512 66.1889C12.4512 68.1383 10.8645 69.7203 8.91531 69.7203Z" fill="#F1F1F1"/>
<path fill-rule="evenodd" clip-rule="evenodd" d="M58.9161 77.1877C59.5056 74.222 62.1439 71.9972 65.2317 71.9972C68.3195 71.9972 70.9578 74.222 71.5473 77.1877H58.9162H58.9161ZM65.2317 63.2831C66.8307 63.2831 68.1353 64.5877 68.1353 66.1894C68.1353 67.7911 66.8309 69.0958 65.2317 69.0958C63.6325 69.0958 62.3208 67.7925 62.3208 66.1894C62.3208 64.5863 63.6325 63.2831 65.2317 63.2831ZM74.1486 77.7675C73.8906 74.388 71.7461 71.5441 68.7984 70.2487C69.9259 69.2567 70.6407 67.805 70.6407 66.1895C70.6407 63.2084 68.2089 60.7834 65.2315 60.7834C62.2542 60.7834 59.8223 63.2084 59.8223 66.1895C59.8223 67.805 60.5372 69.2567 61.6647 70.2487C58.7168 71.5441 56.5725 74.388 56.3145 77.7675C56.2776 78.263 56.4472 78.7552 56.7861 79.1177C57.1251 79.48 57.604 79.688 58.0978 79.688H72.365C72.8587 79.688 73.3378 79.4802 73.6767 79.1177C74.0084 78.7552 74.1853 78.263 74.1484 77.7675H74.1486ZM40.1387 77.1877C40.7282 74.222 43.3739 71.9972 46.4617 71.9972C49.5495 71.9972 52.1878 74.222 52.7773 77.1877H40.1387ZM46.4617 63.2831C48.0609 63.2831 49.3653 64.5877 49.3653 66.1894C49.3653 67.7911 48.0609 69.0958 46.4617 69.0958C44.8625 69.0958 43.5508 67.7925 43.5508 66.1894C43.5508 64.5863 44.8551 63.2831 46.4617 63.2831ZM50.0286 70.2486C51.1561 69.2566 51.8636 67.8048 51.8636 66.1894C51.8636 63.2083 49.439 60.7833 46.4618 60.7833C43.4847 60.7833 41.0526 63.2083 41.0526 66.1894C41.0526 67.8048 41.7675 69.2566 42.895 70.2486C39.9472 71.5439 37.7953 74.3878 37.5448 77.7673C37.5079 78.2628 37.6775 78.755 38.0164 79.1175C38.3554 79.4798 38.827 79.6878 39.3281 79.6878H53.5953C54.089 79.6878 54.5681 79.48 54.907 79.1175C55.2386 78.755 55.4081 78.2628 55.3787 77.7673C55.1208 74.3878 52.9762 71.5439 50.0286 70.2486ZM21.3689 77.1877C21.9584 74.222 24.5967 71.9972 27.6918 71.9972C30.787 71.9972 33.4179 74.222 34.0075 77.1877H21.3689ZM27.6918 63.2831C29.2909 63.2831 30.5954 64.5877 30.5954 66.1894C30.5954 67.7911 29.2911 69.0958 27.6918 69.0958C26.0926 69.0958 24.7809 67.7925 24.7809 66.1894C24.7809 64.5863 26.0853 63.2831 27.6918 63.2831ZM31.2512 70.2486C32.3787 69.2566 33.0936 67.8048 33.0936 66.1894C33.0936 63.2083 30.669 60.7833 27.6918 60.7833C24.7147 60.7833 22.2826 63.2083 22.2826 66.1894C22.2826 67.8048 22.9975 69.2566 24.125 70.2486C21.1772 71.5439 19.0254 74.3878 18.7748 77.7673C18.7379 78.2628 18.9075 78.755 19.2464 79.1175C19.5854 79.4798 20.057 79.6878 20.5581 79.6878H34.8253C35.319 79.6878 35.7981 79.48 36.137 79.1158C36.4687 78.7533 36.6381 78.2611 36.6014 77.7673C36.3507 74.3878 34.1989 71.5439 31.2512 70.2486ZM2.59887 77.1877C3.18841 74.222 5.82669 71.9972 8.9145 71.9972C12.0023 71.9972 14.6479 74.222 15.2375 77.1877H2.59887ZM8.9145 63.2831C10.5211 63.2831 11.8254 64.5877 11.8254 66.1894C11.8254 67.7911 10.5211 69.0958 8.9145 69.0958C7.30794 69.0958 6.01091 67.7925 6.01091 66.1894C6.01091 64.5863 7.31528 63.2831 8.9145 63.2831ZM12.4814 70.2486C13.6089 69.2566 14.3237 67.8048 14.3237 66.1894C14.3237 63.2083 11.8992 60.7833 8.9145 60.7833C5.92981 60.7833 3.51278 63.2083 3.51278 66.1894C3.51278 67.8048 4.22762 69.2566 5.35512 70.2486C2.40731 71.5439 0.255436 74.3878 0.00496757 77.7673C-0.0319074 78.2628 0.137624 78.755 0.47653 79.1175C0.808249 79.4798 1.28716 79.6878 1.78091 79.6878H16.0554C16.5492 79.6878 17.0281 79.48 17.3598 79.1158C17.6989 78.7533 17.8682 78.2611 17.8314 77.7673C17.5807 74.3878 15.4292 71.5439 12.4814 70.2486ZM37.0731 19.8488C35.9382 19.8488 34.8623 19.4052 34.059 18.5987C33.5726 18.1097 33.5726 17.3192 34.059 16.8316C34.5528 16.3425 35.3414 16.3442 35.8276 16.8331C36.1592 17.1661 36.6014 17.3489 37.0731 17.3489C37.5448 17.3489 37.9868 17.1661 38.3186 16.8331C38.805 16.3442 39.6009 16.3442 40.0873 16.8316C40.5737 17.3194 40.5737 18.1112 40.0873 18.5987C39.284 19.405 38.2153 19.8488 37.0731 19.8488ZM38.0606 12.7987C38.4512 11.5877 39.5714 10.7753 40.8462 10.7753C42.1211 10.7753 43.2414 11.5877 43.6318 12.7987C43.8456 13.4548 43.4918 14.1613 42.8359 14.3752C42.7033 14.4175 42.5779 14.4361 42.4453 14.4361C41.9222 14.4361 41.4282 14.1019 41.2589 13.5736C41.2073 13.4252 41.06 13.2752 40.8462 13.2752C40.6325 13.2752 40.4851 13.4252 40.4336 13.5736C40.2198 14.23 39.5125 14.5892 38.8565 14.375C38.2006 14.1611 37.8395 13.4548 38.0606 12.7987ZM33.7126 13.5738C33.6684 13.4253 33.5211 13.2753 33.3 13.2753C33.0862 13.2753 32.9389 13.4253 32.8873 13.5738C32.6736 14.2302 31.9661 14.5894 31.3176 14.3752C30.6618 14.1613 30.3006 13.4548 30.5143 12.7987C30.905 11.5877 32.0325 10.7753 33.3 10.7753C34.5748 10.7753 35.695 11.5877 36.0929 12.7987C36.3067 13.4548 35.9456 14.1613 35.2897 14.3752C35.1643 14.4175 35.0317 14.4361 34.899 14.4361C34.3757 14.4361 33.8893 14.102 33.7126 13.5738ZM26.1 29.105L29.91 36.555C30.0795 36.8956 30.3964 37.1377 30.7722 37.2128C30.8532 37.2284 30.9417 37.2361 31.0228 37.2361C31.3101 37.2361 31.5976 37.1331 31.8261 36.9394L33.6315 35.4128L34.6412 37.0378L33.8011 40.5363H18.4064C19.475 35.8175 22.2975 31.7845 26.1001 29.105H26.1ZM27.3528 13.2269C27.8318 18.1658 32.0103 22.038 37.0731 22.038C42.1359 22.038 46.3143 18.1658 46.7934 13.2269C44.9879 12.4097 43.8087 11.197 42.9172 10.2786C41.5759 8.90203 41.5022 8.95187 40.9348 9.34234C39.8293 10.105 38.6798 10.2534 37.0732 10.2534C35.4667 10.2534 34.3245 10.1048 33.2117 9.34234C32.6443 8.95172 32.5706 8.90203 31.2367 10.2786C30.3376 11.1972 29.1586 12.4097 27.3529 13.2269H27.3528ZM24.7367 13.4908C24.7367 13.3362 24.7736 13.1908 24.8325 13.0581C24.8547 13.4114 24.8914 13.763 24.9431 14.1066C24.8178 13.9347 24.7367 13.7205 24.7367 13.4908ZM37.0731 2.50047C41.7748 2.50047 45.7101 5.83812 46.6386 10.2675C45.8722 9.73469 45.2678 9.11281 44.7078 8.53625C43.5214 7.31594 41.9 5.64563 39.5197 7.28312C39.0628 7.59547 38.5617 7.75312 37.0729 7.75312C35.5842 7.75312 35.0832 7.59531 34.6337 7.28312C32.2461 5.64563 30.6248 7.31594 29.4382 8.53625C28.8782 9.11281 28.2739 9.73469 27.5148 10.2675C28.4359 5.83812 32.3712 2.50047 37.0729 2.50047H37.0731ZM49.2031 14.1066C49.2547 13.7628 49.2915 13.4113 49.3137 13.0581C49.3726 13.1909 49.4095 13.3362 49.4095 13.4908C49.4095 13.7205 49.3358 13.9347 49.2031 14.1066ZM55.7398 40.5363H40.3525L39.5123 37.0378L40.5218 35.4128L42.32 36.9394C42.5484 37.1331 42.8359 37.2361 43.1306 37.2361C43.2117 37.2361 43.2926 37.2283 43.3737 37.2128C43.7495 37.1377 44.0665 36.8956 44.2434 36.555L48.0534 29.105C51.8561 31.7845 54.6712 35.8175 55.7397 40.5363H55.7398ZM36.9625 38.0722H37.1836L37.7804 40.5364H36.3729L36.9625 38.0722ZM37.0731 32.4909L38.5912 33.7783L37.4784 35.572H36.6751L35.555 33.7783L37.0731 32.4909ZM37.0731 29.3439L41.7453 26.1892C40.242 25.8064 38.6797 25.6017 37.0731 25.6017C35.4665 25.6017 33.9043 25.8064 32.4082 26.1892L37.0731 29.3439ZM45.909 27.7956C45.5184 27.5864 45.1131 27.3909 44.7004 27.2098L39.1365 30.9659L42.7328 34.0128L45.909 27.7956ZM29.4531 27.2098C29.0404 27.3909 28.6351 27.5864 28.2372 27.7956L31.4134 34.0127L35.0097 30.9658L29.4531 27.2098ZM59.9625 45.7036H14.1837V43.0363H59.9625V45.7036ZM57.3022 56.1708H16.844V48.2034H57.3022V56.1708ZM19.0917 20.8908C20.0423 20.8908 20.8236 21.6675 20.8236 22.6223C20.8236 23.5772 20.0423 24.3536 19.0917 24.3536C18.1337 24.3536 17.36 23.5769 17.36 22.6223C17.36 21.6678 18.1337 20.8908 19.0917 20.8908ZM53.33 22.6223C53.33 21.6675 54.1037 20.8908 55.0618 20.8908C56.0125 20.8908 56.7937 21.6675 56.7937 22.6223C56.7937 23.5772 56.0126 24.3536 55.0618 24.3536C54.1039 24.3536 53.33 23.5769 53.33 22.6223ZM13.5647 40.5409C12.5182 40.5942 11.6854 41.4598 11.6854 42.5175V46.2206C11.6854 47.3145 12.5772 48.2036 13.6678 48.2036H14.3457V56.7958C14.3457 57.8302 15.1859 58.6708 16.225 58.6708H57.9286C58.9603 58.6708 59.8004 57.8302 59.8004 56.7958V48.2036H60.4857C61.5764 48.2036 62.4608 47.3147 62.4608 46.2206V42.5175C62.4608 41.4598 61.6281 40.5942 60.5815 40.5409L62.7776 31.3673C62.8661 31.0003 62.785 30.6144 62.5565 30.3144L58.5107 25.0611C59.0045 24.3705 59.2918 23.53 59.2918 22.6223C59.2918 20.2894 57.3906 18.3909 55.0618 18.3909C52.7331 18.3909 50.8245 20.2894 50.8245 22.6223C50.8245 24.9553 52.7258 26.8534 55.0618 26.8534C55.5778 26.8534 56.0715 26.7581 56.5358 26.5877L60.2131 31.3659L58.1643 39.9095C57.1473 35.4908 54.7375 31.4672 51.2739 28.4422C50.3306 27.6203 49.3284 26.8877 48.2745 26.2469C48.2523 26.2328 48.2303 26.2219 48.2081 26.2094C47.2132 25.6063 46.1667 25.0858 45.0983 24.6547C45.0467 24.6314 44.995 24.6109 44.9361 24.5955C43.897 24.1861 42.8284 23.858 41.7378 23.6158C44.7225 22.3828 47.1248 20.0033 48.385 17.0266C50.3304 17.0219 51.9076 15.4375 51.9076 13.4906C51.9076 11.8017 50.7211 10.3877 49.1367 10.0377C48.0829 4.33469 43.0792 0 37.0731 0C31.067 0 26.0632 4.33469 25.0167 10.0378C23.425 10.3878 22.2384 11.8017 22.2384 13.4908C22.2384 15.4377 23.8228 17.022 25.7684 17.0267C27.0212 20.0034 29.4237 22.383 32.4156 23.6159C31.3175 23.858 30.2489 24.1863 29.2098 24.5938C29.1582 24.6111 29.1067 24.6316 29.0551 24.6548C27.9792 25.0878 26.9401 25.6066 25.9379 26.2095C25.9159 26.2219 25.9011 26.2328 25.879 26.247C24.8253 26.8878 23.8229 27.6205 22.8797 28.4423C19.4087 31.4673 17.0062 35.4908 15.9818 39.9097L13.9404 31.3661L17.6178 26.5878C18.0747 26.7583 18.5757 26.8536 19.0917 26.8536C21.4278 26.8536 23.3217 24.955 23.3217 22.6225C23.3217 20.29 21.4278 18.3911 19.0917 18.3911C16.7556 18.3911 14.8617 20.2895 14.8617 22.6225C14.8617 23.5302 15.149 24.3706 15.6354 25.0613L11.5897 30.3145C11.3612 30.6145 11.2801 31.0005 11.3686 31.3675L13.5647 40.5411V40.5409Z" fill="#0182FC"/>
</svg>
