<svg width="80" height="75" viewBox="0 0 80 75" fill="none" xmlns="http://www.w3.org/2000/svg">
<path d="M47.5248 9.61478C46.15 8.78619 44.3306 9.30994 43.5281 10.7002L39.7031 17.3252L43.0102 23.0531L48.5261 13.4992C49.3077 12.1453 48.8583 10.4182 47.5248 9.61478Z" stroke="#0182FC" stroke-width="1.75" stroke-miterlimit="10" stroke-linecap="round" stroke-linejoin="round"/>
<path d="M35.808 24.0703L33.3175 28.3839C32.6772 29.493 31.8355 30.4431 30.8555 31.2031" stroke="#0182FC" stroke-width="1.75" stroke-miterlimit="10" stroke-linecap="round" stroke-linejoin="round"/>
<path d="M38.7461 30.4405L39.7041 28.7812" stroke="#0182FC" stroke-width="1.75" stroke-miterlimit="10" stroke-linecap="round" stroke-linejoin="round"/>
<path d="M18.9325 31.2031C17.9525 30.443 17.1108 29.4928 16.4705 28.3839L13.98 24.0703L9.01953 26.9342L13.7333 35.0986C14.0761 35.6923 14.2566 36.3661 14.2566 37.0517V43.4598" stroke="#0182FC" stroke-width="1.75" stroke-miterlimit="10" stroke-linecap="round" stroke-linejoin="round"/>
<path d="M18.2161 47.4256L10.2585 39.4679C9.12333 38.3328 7.23052 38.2978 6.11693 39.4538C5.03693 40.5751 5.04974 42.3595 6.15521 43.4649L14.6452 51.9549C15.4126 52.7223 16.4532 53.1532 17.5382 53.1532H22.5208V47.4254L18.2161 47.4256Z" stroke="#0182FC" stroke-width="1.75" stroke-miterlimit="10" stroke-linecap="round" stroke-linejoin="round"/>
<path d="M18.3945 25.1719H31.3881" stroke="#0182FC" stroke-width="1.75" stroke-miterlimit="10" stroke-linecap="round" stroke-linejoin="round"/>
<path d="M35.8782 10.7001C35.0756 9.30999 33.2564 8.78624 31.8814 9.61468C30.5481 10.4181 30.0985 12.1451 30.8803 13.4991L38.6392 26.938L43.5996 24.0741L35.8782 10.7001Z" stroke="#0182FC" stroke-width="1.75" stroke-miterlimit="10" stroke-linecap="round" stroke-linejoin="round"/>
<path d="M65.1525 43.4598V37.0517C65.1525 36.3661 65.333 35.6923 65.6758 35.0986L70.3895 26.9342L65.4291 24.0703L62.9386 28.3839C62.2983 29.493 61.4566 30.4431 60.4766 31.2031" stroke="#0182FC" stroke-width="1.75" stroke-miterlimit="10" stroke-linecap="round" stroke-linejoin="round"/>
<path d="M48.5536 31.2031C47.5736 30.443 46.7319 29.4928 46.0916 28.3839L43.6011 24.0703L38.6406 26.9342L40.6625 30.4363" stroke="#0182FC" stroke-width="1.75" stroke-miterlimit="10" stroke-linecap="round" stroke-linejoin="round"/>
<path d="M73.2908 39.4538C72.1772 38.2978 70.2844 38.3328 69.1492 39.4679L61.1916 47.4256H56.8867V53.1534H61.8694C62.9544 53.1534 63.9952 52.7223 64.7623 51.9551L73.2523 43.4651C74.358 42.3595 74.3708 40.5751 73.2908 39.4538Z" stroke="#0182FC" stroke-width="1.75" stroke-miterlimit="10" stroke-linecap="round" stroke-linejoin="round"/>
<path d="M58.4609 21.9175C58.6444 21.4436 58.7461 20.9292 58.7461 20.3906C58.7461 18.052 56.8503 16.1562 54.5117 16.1562C52.1731 16.1562 50.2773 18.052 50.2773 20.3906C50.2773 20.9292 50.3791 21.4436 50.5625 21.9175" stroke="#0182FC" stroke-width="1.75" stroke-miterlimit="10" stroke-linecap="round" stroke-linejoin="round"/>
<path d="M54.5155 34.5856C58.3533 34.5856 61.4645 31.4744 61.4645 27.6366C61.4645 23.7987 58.3533 20.6875 54.5155 20.6875C50.6776 20.6875 47.5664 23.7987 47.5664 27.6366C47.5664 31.4744 50.6776 34.5856 54.5155 34.5856Z" stroke="#0182FC" stroke-width="1.75" stroke-miterlimit="10" stroke-linecap="round" stroke-linejoin="round"/>
<path d="M48.0156 25.1719H61.0092" stroke="#0182FC" stroke-width="1.75" stroke-miterlimit="10" stroke-linecap="round" stroke-linejoin="round"/>
<path d="M43.6522 36.0894C43.8356 35.6155 43.9375 35.1011 43.9375 34.5625C43.9375 32.2239 42.0417 30.3281 39.7031 30.3281C37.3645 30.3281 35.4688 32.2239 35.4688 34.5625C35.4688 35.1011 35.5706 35.6156 35.7541 36.0894" stroke="#0182FC" stroke-width="1.75" stroke-miterlimit="10" stroke-linecap="round" stroke-linejoin="round"/>
<path d="M32.9102 43.2756L44.1119 36.4375" stroke="#0182FC" stroke-width="1.75" stroke-miterlimit="10" stroke-linecap="round" stroke-linejoin="round"/>
<path d="M40.4792 54.6797C40.4792 54.6797 37.0661 57.2183 36.5156 62.0122" stroke="#0182FC" stroke-width="1.75" stroke-miterlimit="10" stroke-linecap="round" stroke-linejoin="round"/>
<path d="M39.7023 65.7016C41.4817 65.7016 42.9242 64.2591 42.9242 62.4797C42.9242 60.7003 41.4817 59.2578 39.7023 59.2578C37.923 59.2578 36.4805 60.7003 36.4805 62.4797C36.4805 64.2591 37.923 65.7016 39.7023 65.7016Z" stroke="#0182FC" stroke-width="1.75" stroke-miterlimit="10" stroke-linecap="round" stroke-linejoin="round"/>
<path d="M53.3665 7.10119L58.2645 5.78885C58.7667 5.65432 58.935 5.02651 58.5673 4.65885L54.9817 1.07323C54.614 0.705569 53.9862 0.87385 53.8517 1.37604L52.5393 6.27401C52.4048 6.77619 52.8643 7.23573 53.3665 7.10119Z" stroke="#0182FC" stroke-width="1.75" stroke-miterlimit="10" stroke-linecap="round" stroke-linejoin="round"/>
<path d="M25.4131 7.49449L22.8382 10.0693C22.5331 10.3745 22.0386 10.3745 21.7334 10.0693L19.1586 7.49449C18.8534 7.18934 18.8534 6.6948 19.1586 6.38965L21.7334 3.8148C22.0386 3.50965 22.5331 3.50965 22.8382 3.8148L25.4131 6.38965C25.7181 6.69465 25.7181 7.18934 25.4131 7.49449Z" stroke="#0182FC" stroke-width="1.75" stroke-miterlimit="10" stroke-linecap="round" stroke-linejoin="round"/>
<path d="M36.2031 2.96969L37.3603 1.8125" stroke="#0182FC" stroke-width="1.75" stroke-miterlimit="10" stroke-linecap="round" stroke-linejoin="round"/>
<path d="M63.4531 10.1875L64.6103 11.3447" stroke="#0182FC" stroke-width="1.75" stroke-miterlimit="10" stroke-linecap="round" stroke-linejoin="round"/>
<path d="M74.0469 32.1259L75.2041 30.9688" stroke="#0182FC" stroke-width="1.75" stroke-miterlimit="10" stroke-linecap="round" stroke-linejoin="round"/>
<path d="M4.20312 30.9688L5.36031 32.1259" stroke="#0182FC" stroke-width="1.75" stroke-miterlimit="10" stroke-linecap="round" stroke-linejoin="round"/>
<path d="M10.7344 6.5L11.8916 7.65719" stroke="#0182FC" stroke-width="1.75" stroke-miterlimit="10" stroke-linecap="round" stroke-linejoin="round"/>
<path d="M35.6109 47.4219H22.5195V53.1497H28.2844C28.7158 53.1497 29.0656 53.4995 29.0656 53.9309V58.1078" stroke="#0182FC" stroke-width="1.75" stroke-miterlimit="10" stroke-linecap="round" stroke-linejoin="round"/>
<path d="M29.0664 63.5766V71.9047C29.0664 72.7677 29.7659 73.4672 30.6289 73.4672H48.7787C49.6417 73.4672 50.3412 72.7677 50.3412 71.9047V53.9309C50.3412 53.4995 50.6911 53.1497 51.1225 53.1497H56.8873V47.4219H43.7959" stroke="#0182FC" stroke-width="1.75" stroke-miterlimit="10" stroke-linecap="round" stroke-linejoin="round"/>
<path d="M7.96183 13.6528L6.25714 10.7001C5.45449 9.30999 3.63527 8.78624 2.26027 9.61468C0.926985 10.4181 0.477454 12.1451 1.25917 13.4991L9.01808 26.938L13.9785 24.0741L10.6962 18.3889" stroke="#0182FC" stroke-width="1.75" stroke-miterlimit="10" stroke-linecap="round" stroke-linejoin="round"/>
<path d="M39.703 48.7575C43.5408 48.7575 46.652 45.6463 46.652 41.8084C46.652 37.9706 43.5408 34.8594 39.703 34.8594C35.8651 34.8594 32.7539 37.9706 32.7539 41.8084C32.7539 45.6463 35.8651 48.7575 39.703 48.7575Z" stroke="#0182FC" stroke-width="1.75" stroke-miterlimit="10" stroke-linecap="round" stroke-linejoin="round"/>
<path d="M69.3589 17.2618L65.4258 24.0742L70.3863 26.9381L78.1452 13.4992C78.9269 12.1453 78.4773 10.4182 77.1441 9.61478C75.7692 8.78619 73.9498 9.30994 73.1473 10.7002L72.0934 12.5259" stroke="#0182FC" stroke-width="1.75" stroke-miterlimit="10" stroke-linecap="round" stroke-linejoin="round"/>
<path d="M28.8436 21.9175C29.027 21.4436 29.1289 20.9292 29.1289 20.3906C29.1289 18.052 27.2331 16.1562 24.8945 16.1562C22.5559 16.1562 20.6602 18.052 20.6602 20.3906C20.6602 20.9292 20.762 21.4437 20.9455 21.9175" stroke="#0182FC" stroke-width="1.75" stroke-miterlimit="10" stroke-linecap="round" stroke-linejoin="round"/>
<path d="M24.8944 34.5856C28.7322 34.5856 31.8434 31.4744 31.8434 27.6366C31.8434 23.7987 28.7322 20.6875 24.8944 20.6875C21.0565 20.6875 17.9453 23.7987 17.9453 27.6366C17.9453 31.4744 21.0565 34.5856 24.8944 34.5856Z" stroke="#0182FC" stroke-width="1.75" stroke-miterlimit="10" stroke-linecap="round" stroke-linejoin="round"/>
</svg>
