<svg width="40" height="40" viewBox="0 0 40 40" fill="none" xmlns="http://www.w3.org/2000/svg">
<circle cx="20" cy="20" r="20" fill="#000080"/>
<path d="M19.9975 12.2891C18.4487 12.2891 16.9606 12.442 15.5781 12.7238L15.472 12.7454C13.8932 13.0668 12.8412 13.2809 11.9346 14.4465C11.0378 15.5995 11.0383 16.9367 11.0391 19.0077V20.9871C11.0383 23.0581 11.0378 24.3952 11.9346 25.5483C12.8412 26.7139 13.8932 26.928 15.472 27.2493L15.5781 27.271C16.9606 27.5527 18.4487 27.7057 19.9975 27.7057C21.5463 27.7057 23.0343 27.5527 24.4168 27.271L24.5229 27.2493C26.1018 26.928 27.1538 26.7139 28.0603 25.5483C28.9572 24.3952 28.9567 23.0581 28.9558 20.9871V19.0077C28.9567 16.9367 28.9572 15.5995 28.0603 14.4465C27.1538 13.2809 26.1018 13.0668 24.5229 12.7454L24.4168 12.7238C23.0343 12.442 21.5463 12.2891 19.9975 12.2891Z" fill="white"/>
<path d="M21.0083 17.7072C20.3666 17.3488 19.8417 17.0556 19.4096 16.8743C18.7071 16.5794 17.9622 16.5556 17.3499 17.0572C16.9667 17.3712 16.8312 17.8208 16.7718 18.2738C16.6281 19.3692 16.6282 20.6261 16.7718 21.721C16.8312 22.174 16.9667 22.6236 17.3499 22.9376C17.9622 23.4392 18.7071 23.4153 19.4096 23.1206C19.8417 22.9391 20.3666 22.6461 21.0083 22.2876C21.5099 22.0076 22.0253 21.7388 22.4932 21.4024C22.8429 21.151 23.1747 20.8394 23.2845 20.385C23.3462 20.1299 23.3462 19.8649 23.2845 19.6098C23.1747 19.1554 22.8429 18.8438 22.4932 18.5924C22.0253 18.256 21.5099 17.9873 21.0083 17.7072Z" fill="#000080"/>
</svg>
