<svg width="92" height="128" viewBox="0 0 92 128" fill="none" xmlns="http://www.w3.org/2000/svg">
<path d="M19.7762 44.12V40.44H16.2562V38.36H19.7762V34.68H21.9362V38.36H25.4562V40.44H21.9362V44.12H19.7762ZM31.4026 46.24C30.5626 46.24 29.8026 46.0933 29.1226 45.8C28.4559 45.5067 27.9292 45.1 27.5426 44.58C27.1692 44.0467 26.9826 43.44 26.9826 42.76C26.9826 42.24 27.0759 41.7933 27.2626 41.42C27.4626 41.0333 27.7226 40.6933 28.0426 40.4C28.3759 40.1067 28.7426 39.8533 29.1426 39.64V39.56C28.6626 39.1867 28.2559 38.76 27.9226 38.28C27.6026 37.8 27.4426 37.2267 27.4426 36.56C27.4426 35.84 27.6159 35.22 27.9626 34.7C28.3092 34.1667 28.7892 33.76 29.4026 33.48C30.0159 33.2 30.7159 33.06 31.5026 33.06C32.6759 33.06 33.6092 33.38 34.3026 34.02C35.0092 34.6467 35.3626 35.4867 35.3626 36.54C35.3626 36.94 35.2826 37.32 35.1226 37.68C34.9759 38.0267 34.7759 38.34 34.5226 38.62C34.2692 38.8867 33.9959 39.12 33.7026 39.32V39.4C34.1026 39.6133 34.4692 39.8733 34.8026 40.18C35.1359 40.4733 35.4026 40.8333 35.6026 41.26C35.8026 41.6733 35.9026 42.16 35.9026 42.72C35.9026 43.3867 35.7159 43.9867 35.3426 44.52C34.9692 45.04 34.4426 45.46 33.7626 45.78C33.0959 46.0867 32.3092 46.24 31.4026 46.24ZM32.2026 38.6C32.4559 38.3067 32.6492 38.0067 32.7826 37.7C32.9159 37.3933 32.9826 37.0733 32.9826 36.74C32.9826 36.4067 32.9226 36.12 32.8026 35.88C32.6826 35.64 32.5026 35.4533 32.2626 35.32C32.0359 35.1733 31.7626 35.1 31.4426 35.1C31.0559 35.1 30.7226 35.2267 30.4426 35.48C30.1626 35.72 30.0226 36.08 30.0226 36.56C30.0226 36.9067 30.1159 37.2 30.3026 37.44C30.4892 37.68 30.7426 37.8933 31.0626 38.08C31.3959 38.2667 31.7759 38.44 32.2026 38.6ZM31.4626 44.2C31.7826 44.2 32.0692 44.1467 32.3226 44.04C32.5892 43.92 32.7959 43.7467 32.9426 43.52C33.0892 43.28 33.1626 42.98 33.1626 42.62C33.1626 42.2467 33.0492 41.94 32.8226 41.7C32.6092 41.4467 32.2959 41.2267 31.8826 41.04C31.4826 40.84 31.0159 40.6267 30.4826 40.4C30.2026 40.6533 29.9692 40.96 29.7826 41.32C29.5959 41.6667 29.5026 42.0333 29.5026 42.42C29.5026 42.7933 29.5892 43.1133 29.7626 43.38C29.9492 43.6467 30.1892 43.8533 30.4826 44C30.7892 44.1333 31.1159 44.2 31.4626 44.2ZM41.649 46.24C40.9557 46.24 40.329 46.16 39.769 46C39.2223 45.84 38.7357 45.6267 38.309 45.36C37.8823 45.0933 37.5023 44.7933 37.169 44.46L38.489 42.6C38.8757 42.9467 39.2957 43.2467 39.749 43.5C40.2023 43.74 40.6957 43.86 41.229 43.86C41.6557 43.86 42.029 43.7867 42.349 43.64C42.669 43.48 42.9157 43.2533 43.089 42.96C43.2757 42.6667 43.369 42.3067 43.369 41.88C43.369 41.24 43.1823 40.7533 42.809 40.42C42.4357 40.0867 41.9557 39.92 41.369 39.92C41.009 39.92 40.7023 39.9667 40.449 40.06C40.1957 40.1533 39.8757 40.32 39.489 40.56L38.169 39.72L38.529 33.3H45.729V35.78H41.069L40.849 38.16C41.1023 38.0533 41.3357 37.98 41.549 37.94C41.7623 37.8867 42.0023 37.86 42.269 37.86C43.0023 37.86 43.6757 38 44.289 38.28C44.9023 38.56 45.389 38.9933 45.749 39.58C46.1223 40.1667 46.309 40.9067 46.309 41.8C46.309 42.7467 46.089 43.5533 45.649 44.22C45.2223 44.8733 44.6557 45.3733 43.949 45.72C43.2423 46.0667 42.4757 46.24 41.649 46.24ZM51.0354 41C50.4087 41 49.8487 40.8333 49.3554 40.5C48.8754 40.1667 48.4954 39.6933 48.2154 39.08C47.9354 38.4533 47.7954 37.7067 47.7954 36.84C47.7954 35.5333 48.1021 34.52 48.7154 33.8C49.3287 33.08 50.1021 32.72 51.0354 32.72C51.9821 32.72 52.7621 33.08 53.3754 33.8C53.9887 34.52 54.2954 35.5333 54.2954 36.84C54.2954 37.7067 54.1554 38.4533 53.8754 39.08C53.5954 39.6933 53.2087 40.1667 52.7154 40.5C52.2221 40.8333 51.6621 41 51.0354 41ZM51.0354 39.36C51.3821 39.36 51.6687 39.1733 51.8954 38.8C52.1221 38.4133 52.2354 37.76 52.2354 36.84C52.2354 35.9067 52.1221 35.26 51.8954 34.9C51.6687 34.54 51.3821 34.36 51.0354 34.36C50.7154 34.36 50.4354 34.54 50.1954 34.9C49.9554 35.26 49.8354 35.9067 49.8354 36.84C49.8354 37.76 49.9554 38.4133 50.1954 38.8C50.4354 39.1733 50.7154 39.36 51.0354 39.36ZM51.4754 46.24L58.5154 32.72H60.2154L53.1754 46.24H51.4754ZM60.6554 46.24C60.0287 46.24 59.4687 46.0733 58.9754 45.74C58.4954 45.4067 58.1154 44.9333 57.8354 44.32C57.5554 43.6933 57.4154 42.9467 57.4154 42.08C57.4154 40.7733 57.7221 39.76 58.3354 39.04C58.9487 38.32 59.7221 37.96 60.6554 37.96C61.6021 37.96 62.3821 38.32 62.9954 39.04C63.6087 39.76 63.9154 40.7733 63.9154 42.08C63.9154 42.9467 63.7754 43.6933 63.4954 44.32C63.2154 44.9333 62.8287 45.4067 62.3354 45.74C61.8421 46.0733 61.2821 46.24 60.6554 46.24ZM60.6554 44.6C61.0021 44.6 61.2887 44.4133 61.5154 44.04C61.7421 43.6533 61.8554 43 61.8554 42.08C61.8554 41.1467 61.7421 40.5 61.5154 40.14C61.2887 39.78 61.0021 39.6 60.6554 39.6C60.3354 39.6 60.0554 39.78 59.8154 40.14C59.5754 40.5 59.4554 41.1467 59.4554 42.08C59.4554 43 59.5754 43.6533 59.8154 44.04C60.0554 44.4133 60.3354 44.6 60.6554 44.6Z" fill="#060606"/>
<path d="M75.249 40C77.8729 40 80.0291 42.1346 79.7182 44.74C78.8493 52.0215 75.9902 58.9572 71.4127 64.7638C65.8503 71.8196 58.0743 76.7973 49.3378 78.8948C40.6013 80.9922 31.4131 80.0873 23.2536 76.3257C15.0942 72.5642 8.43874 66.1651 4.35975 58.1596C0.280749 50.1542 -0.98425 41.0085 0.768585 32.1964C2.52142 23.3843 7.19 15.4189 14.0221 9.58377C20.8541 3.74864 29.4518 0.383585 38.4296 0.0308395C45.8178 -0.25945 53.1094 1.50421 59.511 5.08115C61.8016 6.36103 62.2611 9.36017 60.7188 11.483C59.1765 13.6057 56.2173 14.0382 53.8809 12.844C49.2461 10.4749 44.0564 9.31912 38.8026 9.52554C31.9575 9.79449 25.4022 12.3602 20.1931 16.8092C14.984 21.2582 11.4245 27.3314 10.088 34.0502C8.75159 40.7689 9.71608 47.742 12.8261 53.8458C15.9361 59.9496 21.0106 64.8285 27.2317 67.6965C33.4529 70.5645 40.4585 71.2545 47.1196 69.6553C53.7808 68.0561 59.7095 64.2609 63.9506 58.8811C67.2057 54.752 69.321 49.8742 70.1287 44.732C70.5358 42.1398 72.6251 40 75.249 40Z" fill="#F69500"/>
<path d="M2.21766 102V92.844H5.10166C5.783 92.844 6.38966 92.9327 6.92166 93.11C7.45366 93.2873 7.87366 93.5813 8.18166 93.992C8.48966 94.4027 8.64366 94.9627 8.64366 95.672C8.64366 96.344 8.48966 96.8993 8.18166 97.338C7.883 97.7767 7.46766 98.1033 6.93566 98.318C6.413 98.5327 5.82033 98.64 5.15766 98.64H3.84166V102H2.21766ZM3.84166 97.338H5.03166C5.713 97.338 6.217 97.198 6.54366 96.918C6.87966 96.638 7.04766 96.2227 7.04766 95.672C7.04766 95.0933 6.87033 94.6967 6.51566 94.482C6.17033 94.258 5.657 94.146 4.97566 94.146H3.84166V97.338ZM11.3589 102.168C10.9576 102.168 10.6029 102.084 10.2949 101.916C9.9869 101.748 9.74423 101.515 9.5669 101.216C9.3989 100.908 9.3149 100.553 9.3149 100.152C9.3149 99.3773 9.6369 98.794 10.2809 98.402C10.9342 98.0007 11.9656 97.7253 13.3749 97.576C13.3656 97.3427 13.3189 97.128 13.2349 96.932C13.1602 96.736 13.0296 96.582 12.8429 96.47C12.6656 96.3487 12.4229 96.288 12.1149 96.288C11.7789 96.288 11.4476 96.3487 11.1209 96.47C10.8036 96.5913 10.4909 96.7453 10.1829 96.932L9.5949 95.84C9.8469 95.6813 10.1222 95.5367 10.4209 95.406C10.7196 95.266 11.0369 95.1587 11.3729 95.084C11.7089 95 12.0589 94.958 12.4229 94.958C12.9922 94.958 13.4636 95.0747 13.8369 95.308C14.2196 95.532 14.5042 95.868 14.6909 96.316C14.8869 96.7547 14.9849 97.296 14.9849 97.94V102H13.6549L13.5429 101.244H13.4869C13.1696 101.505 12.8382 101.725 12.4929 101.902C12.1476 102.079 11.7696 102.168 11.3589 102.168ZM11.8629 100.852C12.1429 100.852 12.3996 100.796 12.6329 100.684C12.8756 100.563 13.1229 100.385 13.3749 100.152V98.696C12.7496 98.7707 12.2549 98.8687 11.8909 98.99C11.5269 99.1113 11.2656 99.2607 11.1069 99.438C10.9576 99.606 10.8829 99.8067 10.8829 100.04C10.8829 100.329 10.9762 100.539 11.1629 100.67C11.3496 100.791 11.5829 100.852 11.8629 100.852ZM16.9116 102V95.126H18.2416L18.3536 96.344H18.4096C18.6523 95.896 18.9416 95.5553 19.2776 95.322C19.623 95.0793 19.9823 94.958 20.3556 94.958C20.533 94.958 20.6823 94.9673 20.8036 94.986C20.925 95.0047 21.037 95.042 21.1396 95.098L20.8176 96.47C20.7056 96.442 20.603 96.4233 20.5096 96.414C20.4163 96.3953 20.295 96.386 20.1456 96.386C19.875 96.386 19.5903 96.4933 19.2916 96.708C18.993 96.9133 18.7363 97.2773 18.5216 97.8V102H16.9116ZM24.5563 102.14C23.763 102.14 23.1983 101.911 22.8623 101.454C22.5356 100.987 22.3723 100.385 22.3723 99.648V96.4H21.3923V95.196L22.4563 95.126L22.6523 92.97H23.9963V95.126H25.7463V96.4H23.9963V99.648C23.9963 100.049 24.0756 100.353 24.2343 100.558C24.393 100.754 24.6356 100.852 24.9623 100.852C25.0836 100.852 25.205 100.843 25.3263 100.824C25.4476 100.805 25.5643 100.768 25.6763 100.712L25.9703 101.846C25.793 101.93 25.583 102 25.3403 102.056C25.0976 102.112 24.8363 102.14 24.5563 102.14ZM27.1929 102V95.126H28.8029V102H27.1929ZM27.9909 93.922C27.7109 93.922 27.4776 93.838 27.2909 93.67C27.1136 93.502 27.0249 93.278 27.0249 92.998C27.0249 92.718 27.1136 92.4987 27.2909 92.34C27.4776 92.172 27.7109 92.088 27.9909 92.088C28.2802 92.088 28.5136 92.172 28.6909 92.34C28.8682 92.4987 28.9569 92.718 28.9569 92.998C28.9569 93.278 28.8682 93.502 28.6909 93.67C28.5136 93.838 28.2802 93.922 27.9909 93.922ZM33.755 102.168C33.1203 102.168 32.551 102.028 32.047 101.748C31.543 101.459 31.1416 101.048 30.843 100.516C30.5536 99.9747 30.409 99.326 30.409 98.57C30.409 97.8047 30.5676 97.156 30.885 96.624C31.2023 96.0827 31.6223 95.672 32.145 95.392C32.677 95.1027 33.2463 94.958 33.853 94.958C34.2916 94.958 34.6743 95.0327 35.001 95.182C35.337 95.322 35.6263 95.504 35.869 95.728L35.099 96.736C34.9496 96.596 34.777 96.484 34.581 96.4C34.3943 96.316 34.1796 96.274 33.937 96.274C33.573 96.274 33.251 96.372 32.971 96.568C32.691 96.7547 32.467 97.0207 32.299 97.366C32.1403 97.702 32.061 98.1033 32.061 98.57C32.061 99.0273 32.1403 99.4287 32.299 99.774C32.4576 100.11 32.6723 100.376 32.943 100.572C33.223 100.759 33.545 100.852 33.909 100.852C34.1796 100.852 34.4316 100.801 34.665 100.698C34.9076 100.595 35.1223 100.465 35.309 100.306L35.967 101.3C35.6776 101.561 35.3416 101.771 34.959 101.93C34.5856 102.089 34.1843 102.168 33.755 102.168ZM37.3238 102V95.126H38.9338V102H37.3238ZM38.1218 93.922C37.8418 93.922 37.6084 93.838 37.4218 93.67C37.2444 93.502 37.1558 93.278 37.1558 92.998C37.1558 92.718 37.2444 92.4987 37.4218 92.34C37.6084 92.172 37.8418 92.088 38.1218 92.088C38.4111 92.088 38.6444 92.172 38.8218 92.34C38.9991 92.4987 39.0878 92.718 39.0878 92.998C39.0878 93.278 38.9991 93.502 38.8218 93.67C38.6444 93.838 38.4111 93.922 38.1218 93.922ZM40.9878 104.716V95.126H42.3178L42.4298 95.854H42.4858C42.7752 95.602 43.0972 95.392 43.4518 95.224C43.8065 95.0467 44.1752 94.958 44.5578 94.958C45.1272 94.958 45.6125 95.1027 46.0138 95.392C46.4152 95.6813 46.7232 96.0873 46.9378 96.61C47.1525 97.1327 47.2598 97.7487 47.2598 98.458C47.2598 99.242 47.1198 99.9093 46.8398 100.46C46.5598 101.011 46.1958 101.435 45.7478 101.734C45.3092 102.023 44.8332 102.168 44.3198 102.168C44.0212 102.168 43.7225 102.103 43.4238 101.972C43.1252 101.841 42.8358 101.655 42.5558 101.412L42.5978 102.56V104.716H40.9878ZM43.9838 100.838C44.2918 100.838 44.5672 100.749 44.8098 100.572C45.0525 100.395 45.2438 100.133 45.3838 99.788C45.5238 99.4333 45.5938 98.9947 45.5938 98.472C45.5938 98.0147 45.5425 97.6227 45.4398 97.296C45.3372 96.9693 45.1738 96.722 44.9498 96.554C44.7352 96.3767 44.4552 96.288 44.1098 96.288C43.8578 96.288 43.6105 96.3533 43.3678 96.484C43.1252 96.6053 42.8685 96.7967 42.5978 97.058V100.264C42.8498 100.469 43.0925 100.619 43.3258 100.712C43.5685 100.796 43.7878 100.838 43.9838 100.838ZM50.3921 102.168C49.9908 102.168 49.6361 102.084 49.3281 101.916C49.0201 101.748 48.7774 101.515 48.6001 101.216C48.4321 100.908 48.3481 100.553 48.3481 100.152C48.3481 99.3773 48.6701 98.794 49.3141 98.402C49.9674 98.0007 50.9988 97.7253 52.4081 97.576C52.3988 97.3427 52.3521 97.128 52.2681 96.932C52.1934 96.736 52.0628 96.582 51.8761 96.47C51.6988 96.3487 51.4561 96.288 51.1481 96.288C50.8121 96.288 50.4808 96.3487 50.1541 96.47C49.8368 96.5913 49.5241 96.7453 49.2161 96.932L48.6281 95.84C48.8801 95.6813 49.1554 95.5367 49.4541 95.406C49.7528 95.266 50.0701 95.1587 50.4061 95.084C50.7421 95 51.0921 94.958 51.4561 94.958C52.0254 94.958 52.4968 95.0747 52.8701 95.308C53.2528 95.532 53.5374 95.868 53.7241 96.316C53.9201 96.7547 54.0181 97.296 54.0181 97.94V102H52.6881L52.5761 101.244H52.5201C52.2028 101.505 51.8714 101.725 51.5261 101.902C51.1808 102.079 50.8028 102.168 50.3921 102.168ZM50.8961 100.852C51.1761 100.852 51.4328 100.796 51.6661 100.684C51.9088 100.563 52.1561 100.385 52.4081 100.152V98.696C51.7828 98.7707 51.2881 98.8687 50.9241 98.99C50.5601 99.1113 50.2988 99.2607 50.1401 99.438C49.9908 99.606 49.9161 99.8067 49.9161 100.04C49.9161 100.329 50.0094 100.539 50.1961 100.67C50.3828 100.791 50.6161 100.852 50.8961 100.852ZM58.1481 102.14C57.3548 102.14 56.7901 101.911 56.4541 101.454C56.1274 100.987 55.9641 100.385 55.9641 99.648V96.4H54.9841V95.196L56.0481 95.126L56.2441 92.97H57.5881V95.126H59.3381V96.4H57.5881V99.648C57.5881 100.049 57.6674 100.353 57.8261 100.558C57.9848 100.754 58.2274 100.852 58.5541 100.852C58.6754 100.852 58.7968 100.843 58.9181 100.824C59.0394 100.805 59.1561 100.768 59.2681 100.712L59.5621 101.846C59.3848 101.93 59.1748 102 58.9321 102.056C58.6894 102.112 58.4281 102.14 58.1481 102.14ZM60.7847 102V95.126H62.3947V102H60.7847ZM61.5827 93.922C61.3027 93.922 61.0694 93.838 60.8827 93.67C60.7054 93.502 60.6167 93.278 60.6167 92.998C60.6167 92.718 60.7054 92.4987 60.8827 92.34C61.0694 92.172 61.3027 92.088 61.5827 92.088C61.872 92.088 62.1054 92.172 62.2827 92.34C62.46 92.4987 62.5487 92.718 62.5487 92.998C62.5487 93.278 62.46 93.502 62.2827 93.67C62.1054 93.838 61.872 93.922 61.5827 93.922ZM67.2628 102.168C66.6934 102.168 66.1614 102.028 65.6668 101.748C65.1721 101.459 64.7708 101.048 64.4628 100.516C64.1548 99.9747 64.0008 99.326 64.0008 98.57C64.0008 97.8047 64.1548 97.156 64.4628 96.624C64.7708 96.0827 65.1721 95.672 65.6668 95.392C66.1614 95.1027 66.6934 94.958 67.2628 94.958C67.8414 94.958 68.3781 95.1027 68.8728 95.392C69.3674 95.672 69.7688 96.0827 70.0768 96.624C70.3848 97.156 70.5388 97.8047 70.5388 98.57C70.5388 99.326 70.3848 99.9747 70.0768 100.516C69.7688 101.048 69.3674 101.459 68.8728 101.748C68.3781 102.028 67.8414 102.168 67.2628 102.168ZM67.2628 100.852C67.5988 100.852 67.8881 100.759 68.1308 100.572C68.3734 100.385 68.5601 100.119 68.6908 99.774C68.8214 99.4287 68.8868 99.0273 68.8868 98.57C68.8868 98.1127 68.8214 97.7113 68.6908 97.366C68.5601 97.0207 68.3734 96.7547 68.1308 96.568C67.8881 96.372 67.5988 96.274 67.2628 96.274C66.9268 96.274 66.6374 96.372 66.3948 96.568C66.1614 96.7547 65.9794 97.0207 65.8488 97.366C65.7181 97.7113 65.6528 98.1127 65.6528 98.57C65.6528 99.0273 65.7181 99.4287 65.8488 99.774C65.9794 100.119 66.1614 100.385 66.3948 100.572C66.6374 100.759 66.9268 100.852 67.2628 100.852ZM72.1324 102V95.126H73.4624L73.5744 96.05H73.6304C73.9384 95.7513 74.2744 95.4947 74.6384 95.28C75.0024 95.0653 75.4177 94.958 75.8844 94.958C76.6217 94.958 77.1584 95.196 77.4944 95.672C77.8304 96.148 77.9984 96.82 77.9984 97.688V102H76.3884V97.898C76.3884 97.3287 76.3044 96.9273 76.1364 96.694C75.9684 96.4607 75.693 96.344 75.3104 96.344C75.0117 96.344 74.7457 96.4187 74.5124 96.568C74.2884 96.708 74.0317 96.918 73.7424 97.198V102H72.1324ZM29.1206 122V115.126H30.4506L30.5626 116.344H30.6186C30.8613 115.896 31.1506 115.555 31.4866 115.322C31.832 115.079 32.1913 114.958 32.5646 114.958C32.742 114.958 32.8913 114.967 33.0126 114.986C33.134 115.005 33.246 115.042 33.3486 115.098L33.0266 116.47C32.9146 116.442 32.812 116.423 32.7186 116.414C32.6253 116.395 32.504 116.386 32.3546 116.386C32.084 116.386 31.7993 116.493 31.5006 116.708C31.202 116.913 30.9453 117.277 30.7306 117.8V122H29.1206ZM35.6538 122.168C35.2525 122.168 34.8978 122.084 34.5898 121.916C34.2818 121.748 34.0392 121.515 33.8618 121.216C33.6938 120.908 33.6098 120.553 33.6098 120.152C33.6098 119.377 33.9318 118.794 34.5758 118.402C35.2292 118.001 36.2605 117.725 37.6698 117.576C37.6605 117.343 37.6138 117.128 37.5298 116.932C37.4552 116.736 37.3245 116.582 37.1378 116.47C36.9605 116.349 36.7178 116.288 36.4098 116.288C36.0738 116.288 35.7425 116.349 35.4158 116.47C35.0985 116.591 34.7858 116.745 34.4778 116.932L33.8898 115.84C34.1418 115.681 34.4172 115.537 34.7158 115.406C35.0145 115.266 35.3318 115.159 35.6678 115.084C36.0038 115 36.3538 114.958 36.7178 114.958C37.2872 114.958 37.7585 115.075 38.1318 115.308C38.5145 115.532 38.7992 115.868 38.9858 116.316C39.1818 116.755 39.2798 117.296 39.2798 117.94V122H37.9498L37.8378 121.244H37.7818C37.4645 121.505 37.1332 121.725 36.7878 121.902C36.4425 122.079 36.0645 122.168 35.6538 122.168ZM36.1578 120.852C36.4378 120.852 36.6945 120.796 36.9278 120.684C37.1705 120.563 37.4178 120.385 37.6698 120.152V118.696C37.0445 118.771 36.5498 118.869 36.1858 118.99C35.8218 119.111 35.5605 119.261 35.4018 119.438C35.2525 119.606 35.1778 119.807 35.1778 120.04C35.1778 120.329 35.2712 120.539 35.4578 120.67C35.6445 120.791 35.8778 120.852 36.1578 120.852ZM43.4098 122.14C42.6165 122.14 42.0518 121.911 41.7158 121.454C41.3892 120.987 41.2258 120.385 41.2258 119.648V116.4H40.2458V115.196L41.3098 115.126L41.5058 112.97H42.8498V115.126H44.5998V116.4H42.8498V119.648C42.8498 120.049 42.9292 120.353 43.0878 120.558C43.2465 120.754 43.4892 120.852 43.8158 120.852C43.9372 120.852 44.0585 120.843 44.1798 120.824C44.3012 120.805 44.4178 120.768 44.5298 120.712L44.8238 121.846C44.6465 121.93 44.4365 122 44.1938 122.056C43.9512 122.112 43.6898 122.14 43.4098 122.14ZM48.7817 122.168C48.1377 122.168 47.5543 122.028 47.0317 121.748C46.5183 121.459 46.1123 121.048 45.8137 120.516C45.515 119.975 45.3657 119.321 45.3657 118.556C45.3657 117.809 45.5197 117.17 45.8277 116.638C46.1357 116.097 46.5323 115.681 47.0177 115.392C47.503 115.103 48.0163 114.958 48.5577 114.958C49.183 114.958 49.7057 115.098 50.1257 115.378C50.5457 115.658 50.8583 116.045 51.0637 116.54C51.2783 117.025 51.3857 117.585 51.3857 118.22C51.3857 118.369 51.3763 118.514 51.3577 118.654C51.3483 118.794 51.3297 118.929 51.3017 119.06H46.5697V117.828H49.9577C49.9577 117.333 49.8457 116.946 49.6217 116.666C49.3977 116.377 49.0523 116.232 48.5857 116.232C48.3243 116.232 48.0677 116.302 47.8157 116.442C47.573 116.582 47.3677 116.82 47.1997 117.156C47.041 117.492 46.9617 117.959 46.9617 118.556C46.9617 119.097 47.055 119.541 47.2417 119.886C47.4283 120.222 47.6757 120.474 47.9837 120.642C48.2917 120.801 48.623 120.88 48.9777 120.88C49.2763 120.88 49.5563 120.838 49.8177 120.754C50.0883 120.67 50.3403 120.553 50.5737 120.404L51.1337 121.44C50.8163 121.664 50.4523 121.841 50.0417 121.972C49.6403 122.103 49.2203 122.168 48.7817 122.168Z" fill="#131313"/>
</svg>
