<svg width="64" height="57" viewBox="0 0 64 57" fill="none" xmlns="http://www.w3.org/2000/svg">
<g clip-path="url(#clip0_8421_114044)">
<path d="M43 48.7969V56.9969" stroke="#0182FC" stroke-width="2" stroke-miterlimit="10"/>
<path d="M36.4016 17.3984V22.9984L46.2016 25.9984C47.8016 26.4984 48.9016 27.9984 49.1016 29.6984V45.6984C49.1016 47.6984 47.4016 49.3984 45.4016 49.3984C44.0016 49.3984 30.1016 45.7984 30.1016 45.7984" stroke="#0182FC" stroke-width="2" stroke-miterlimit="10"/>
<path d="M43 35.8L43.1 42.8H41C35.6 44.2 19.8 49.4 18.7 49.4C16.7 49.4 15 47.7 15 45.7V29.7C15.1 28 16.2 26.6 17.9 26L27.7 23V19.4V17.6L27.3 17.2C26.3 16.1 25.6 14.7 25.3 13.2L25.2 12.8C25.1 12.3 25.1 11.8 25.1 11.3V7.9C25.1 4.1 28.2 1 32 1C35.8 1 38.9 4.1 38.9 7.9V8.4V11.4C38.9 11.9 38.9 12.4 38.8 12.9L38.7 13.3C38.4 14.8 37.7 16.2 36.7 17.3C35.7 18.4 34.4 19.2 33 19.6C32.4 19.8 31.7 19.8 31.1 19.6" stroke="#0182FC" stroke-width="2" stroke-miterlimit="10"/>
<path d="M18 41.7969H19L27 40.7969L35 39.7969H40" stroke="#0182FC" stroke-width="2" stroke-miterlimit="10"/>
<path d="M27.6016 23.1016V26.8016H29.0016L31.7016 24.8016H32.7016L35.0016 26.8016H36.4016V23.1016" stroke="#0182FC" stroke-width="2" stroke-miterlimit="10"/>
<path d="M32 28.7969V37.7969" stroke="#0182FC" stroke-width="2" stroke-miterlimit="10"/>
<path d="M32 49V51" stroke="#0182FC" stroke-width="2" stroke-miterlimit="10"/>
<path d="M32 53V55" stroke="#0182FC" stroke-width="2" stroke-miterlimit="10"/>
<path d="M21 48.7969V56.9969" stroke="#0182FC" stroke-width="2" stroke-miterlimit="10"/>
<path d="M21 35.7969L21.1 41.7969" stroke="#0182FC" stroke-width="2" stroke-miterlimit="10"/>
<path d="M46 13V16.2C46 18.9 48.2 21.1 50.9 21.2" stroke="#0182FC" stroke-width="2" stroke-miterlimit="10"/>
<path d="M48 24.2V20.2C46.7 19.3 46 17.8 46 16.2V13C46 10.2 48.2 8 51 8H51.5C54.1 8.3 56.1 10.6 56 13.2V16.2C56 17.8 55.3 19.2 54 20.2V24.2L60.6 27.1C62 27.7 63 29.2 63 30.8V52L61 54H59" stroke="#0182FC" stroke-width="2" stroke-miterlimit="10"/>
<path d="M59 35V57" stroke="#0182FC" stroke-width="2" stroke-miterlimit="10"/>
<path d="M9 25.2031V28.0031H11L13 26.0031H14" stroke="#0182FC" stroke-width="2" stroke-miterlimit="10"/>
<path d="M18.0016 13V16.2C18.0016 18.9 15.8016 21.1 13.1016 21.2" stroke="#0182FC" stroke-width="2" stroke-miterlimit="10"/>
<path d="M16 24.2V20.2C17.3 19.3 18 17.8 18 16.2V13C18 10.2 15.8 8 13 8C12.8 8 12.7 8 12.5 8C9.9 8.3 8 10.6 8 13.2V16.2C8 17.8 8.7 19.2 10 20.2V24.2L3.4 27.1C1.9 27.8 1 29.2 1 30.8V52L3 54H5" stroke="#0182FC" stroke-width="2" stroke-miterlimit="10"/>
<path d="M5 35V57" stroke="#0182FC" stroke-width="2" stroke-miterlimit="10"/>
<path d="M55 25V28H53L51 26H50" stroke="#0182FC" stroke-width="2" stroke-miterlimit="10"/>
<path d="M5 53H18" stroke="#0182FC" stroke-width="2" stroke-miterlimit="10"/>
<path d="M46 53H59" stroke="#0182FC" stroke-width="2" stroke-miterlimit="10"/>
</g>
<defs>
<clipPath id="clip0_8421_114044">
<rect width="64" height="57" fill="white"/>
</clipPath>
</defs>
</svg>
