<svg width="40" height="40" viewBox="0 0 40 40" fill="none" xmlns="http://www.w3.org/2000/svg">
<g clip-path="url(#clip0_5265_117887)">
<path fill-rule="evenodd" clip-rule="evenodd" d="M22.8242 9.53707C23.8275 9.53698 24.821 9.73455 25.748 10.1185C26.675 10.5025 27.5173 11.0653 28.2267 11.7748C28.9361 12.4844 29.4988 13.3267 29.8826 14.2537C30.2664 15.1808 30.4639 16.1743 30.4636 17.1777C30.4636 17.4367 30.5665 17.6851 30.7496 17.8682C30.9328 18.0514 31.1812 18.1543 31.4402 18.1543C31.6992 18.1543 31.9476 18.0514 32.1307 17.8682C32.3138 17.6851 32.4167 17.4367 32.4167 17.1777C32.4157 14.6339 31.4048 12.1947 29.606 10.396C27.8072 8.59735 25.3679 7.58651 22.8242 7.58566C22.696 7.58566 22.5692 7.6109 22.4508 7.65993C22.3324 7.70896 22.2249 7.78082 22.1343 7.87142C22.0437 7.96201 21.9718 8.06956 21.9228 8.18793C21.8738 8.3063 21.8485 8.43317 21.8485 8.56129C21.8485 8.68941 21.8738 8.81628 21.9228 8.93464C21.9718 9.05301 22.0437 9.16056 22.1343 9.25116C22.2249 9.34175 22.3324 9.41362 22.4508 9.46265C22.5692 9.51168 22.696 9.53691 22.8242 9.53691V9.53707ZM21.35 15.7843C21.2212 15.7855 21.0933 15.7611 20.974 15.7126C20.8546 15.6641 20.746 15.5924 20.6544 15.5017C20.5629 15.411 20.4903 15.303 20.4407 15.1841C20.3911 15.0651 20.3656 14.9375 20.3656 14.8087C20.3656 14.6798 20.3911 14.5522 20.4407 14.4333C20.4903 14.3143 20.5629 14.2064 20.6544 14.1157C20.746 14.025 20.8546 13.9533 20.974 13.9048C21.0933 13.8562 21.2212 13.8319 21.35 13.833C22.0082 13.8327 22.66 13.9621 23.2682 14.2138C23.8764 14.4655 24.429 14.8346 24.8944 15.3C25.3599 15.7654 25.7291 16.3179 25.9809 16.9261C26.2327 17.5342 26.3622 18.186 26.362 18.8442C26.362 19.1032 26.2591 19.3516 26.0759 19.5347C25.8928 19.7179 25.6444 19.8207 25.3854 19.8207C25.1264 19.8207 24.878 19.7179 24.6949 19.5347C24.5117 19.3516 24.4088 19.1032 24.4088 18.8442C24.409 18.4424 24.33 18.0445 24.1763 17.6733C24.0227 17.3021 23.7974 16.9648 23.5133 16.6806C23.2293 16.3965 22.8921 16.1711 22.5209 16.0173C22.1497 15.8635 21.7519 15.7843 21.3501 15.7843H21.35ZM27.7034 39.9271C24.6188 39.3825 21.5748 37.9673 18.9177 36.3443C15.8442 34.4648 12.9735 32.1222 10.427 29.5749C7.88048 27.0276 5.53665 24.1587 3.65736 21.0822C2.03579 18.426 0.616966 15.3808 0.0752471 12.2978C-0.0549356 11.6082 -0.015767 10.8974 0.189388 10.2263C0.407398 9.56166 0.781425 8.95891 1.28017 8.46848L5.34868 4.40137C5.53922 4.21207 5.7969 4.10583 6.06548 4.10583C6.33406 4.10583 6.59174 4.21207 6.78228 4.40137L14.0901 11.7085C14.279 11.8994 14.3849 12.1572 14.3849 12.4258C14.3849 12.6944 14.279 12.9522 14.0901 13.1432L10.2059 17.0285C9.92912 17.3032 9.7593 17.6675 9.72687 18.0561C9.69444 18.4447 9.80153 18.8322 10.0289 19.1489C11.5031 21.2193 13.2314 23.1802 15.0261 24.9757C16.8208 26.7711 18.7814 28.4997 20.8527 29.9721C21.1689 30.2 21.5561 30.3076 21.9446 30.2753C22.3331 30.2431 22.6973 30.0733 22.9717 29.7964L26.8596 25.9114C26.9533 25.8172 27.0647 25.7426 27.1874 25.6919C27.3102 25.6411 27.4417 25.6153 27.5745 25.6158C27.8438 25.6154 28.1023 25.7216 28.2933 25.9114L35.6012 33.2189C35.79 33.4098 35.896 33.6675 35.896 33.936C35.896 34.2046 35.79 34.4622 35.6012 34.6532L31.5324 38.7209C31.0455 39.2255 30.44 39.6002 29.7712 39.8109C29.1025 40.0216 28.3916 40.0615 27.7034 39.9271ZM22.8242 1.95105C22.6953 1.95221 22.5675 1.92783 22.4482 1.87932C22.3288 1.83081 22.2202 1.75914 22.1287 1.66844C22.0372 1.57774 21.9645 1.46981 21.915 1.35089C21.8654 1.23196 21.8399 1.10439 21.8399 0.975547C21.8399 0.846702 21.8654 0.719133 21.915 0.600206C21.9645 0.481279 22.0372 0.37335 22.1287 0.282651C22.2202 0.191953 22.3288 0.120281 22.4482 0.0717737C22.5675 0.0232669 22.6953 -0.00111395 22.8242 3.90657e-05C25.0799 -8.40657e-05 27.3136 0.44414 29.3977 1.30734C31.4818 2.17055 33.3754 3.43582 34.9705 5.03092C36.5656 6.62601 37.8308 8.51968 38.694 10.6038C39.5571 12.6879 40.0013 14.9216 40.0011 17.1774C40.0011 17.4364 39.8982 17.6848 39.7151 17.8679C39.5319 18.0511 39.2835 18.1539 39.0245 18.1539C38.7655 18.1539 38.5172 18.0511 38.334 17.8679C38.1509 17.6848 38.048 17.4364 38.048 17.1774C38.0484 13.1394 36.4446 9.26672 33.5897 6.41119C30.7347 3.55566 26.8623 1.95121 22.8243 1.95082L22.8242 1.95105Z" fill="#80D261"/>
</g>
<defs>
<clipPath id="clip0_5265_117887">
<rect width="40" height="40" fill="white"/>
</clipPath>
</defs>
</svg>
