<svg width="80" height="80" viewBox="0 0 80 80" fill="none" xmlns="http://www.w3.org/2000/svg">
<path fill-rule="evenodd" clip-rule="evenodd" d="M67.1006 17.5817C64.0042 17.5817 61.4864 15.062 61.4864 11.9659C61.4864 8.87047 64.0052 6.35156 67.1006 6.35156C70.1955 6.35156 72.715 8.87109 72.715 11.9659C72.715 15.0614 70.1963 17.5817 67.1006 17.5817ZM39.9997 17.5817C36.9033 17.5817 34.3855 15.062 34.3855 11.9659C34.3855 8.87047 36.9042 6.35156 39.9997 6.35156C43.0952 6.35156 45.6147 8.87031 45.6147 11.9659C45.6147 15.0622 43.0959 17.5817 39.9997 17.5817ZM18.5144 11.9661C18.5144 15.0622 15.9966 17.5819 12.9002 17.5819C9.80375 17.5819 7.28578 15.0622 7.28578 11.9661C7.28578 8.87062 9.80453 6.35172 12.9 6.35172C15.9956 6.35172 18.5144 8.87062 18.5144 11.9661ZM19.3542 36.893C19.9886 47.8002 29.0705 56.3628 40.0005 56.3628C50.9308 56.3628 60.0124 47.8005 60.6467 36.893L60.6816 36.2936H77.9805V41.5072H72.1319C71.8389 41.5072 71.5863 41.7119 71.5288 41.9997C70.7066 46.1258 69.0961 50.003 66.7611 53.503C66.5988 53.7463 66.6311 54.0717 66.8378 54.2784L70.977 58.4159L62.7364 66.6564L58.5974 62.5175C58.39 62.3102 58.0655 62.2794 57.8219 62.442C54.323 64.7773 50.4453 66.3852 46.3202 67.2083C46.0327 67.2656 45.8252 67.5181 45.8252 67.8114V73.66H34.1728V67.8114C34.1728 67.5184 33.9669 67.2658 33.6794 67.2083C29.5536 66.3847 25.6764 64.7758 22.1764 62.4406C21.9336 62.2786 21.6088 62.3111 21.4025 62.5175L17.2642 66.6566L9.02375 58.4161L13.1619 54.277C13.3681 54.0708 13.4009 53.7459 13.2389 53.503C10.9031 50.0033 9.29438 46.1256 8.47125 41.9997C8.41391 41.7123 8.16156 41.507 7.86891 41.507H2.01953V36.2934H19.3192L19.3542 36.893Z" fill="#F1F1F1"/>
<path fill-rule="evenodd" clip-rule="evenodd" d="M67.1008 19.4416C72.2838 19.4416 76.673 23.3672 77.298 28.4655H56.9023C57.5272 23.3672 61.9164 19.4416 67.1008 19.4416ZM62.1228 11.9623C62.1228 9.21859 64.3558 6.98422 67.1008 6.98422C69.8445 6.98422 72.0789 9.21859 72.0789 11.9623C72.0789 14.7073 69.8445 16.9419 67.1008 16.9419C64.3558 16.9417 62.1228 14.7073 62.1228 11.9623ZM56.41 30.9658H77.7895C78.36 30.9658 78.9105 30.7262 79.2958 30.3092C79.6834 29.8922 79.8802 29.3261 79.8381 28.7572C79.463 23.7562 76.1822 19.5734 71.7377 17.8231C73.4666 16.4531 74.5786 14.3359 74.5786 11.9622C74.5786 7.83891 71.2241 4.48438 67.1008 4.48438C62.9777 4.48438 59.6223 7.83891 59.6223 11.9622C59.6223 14.3358 60.7336 16.4531 62.4633 17.8231C58.0181 19.5733 54.7364 23.7562 54.3613 28.7572C54.3192 29.3261 54.5161 29.892 54.9036 30.3092C55.2898 30.7262 55.8395 30.9658 56.41 30.9658ZM39.9998 19.4416C45.1834 19.4416 49.5727 23.3672 50.1977 28.4655H29.8027C30.4277 23.3672 34.8161 19.4416 39.9998 19.4416ZM35.0217 11.9623C35.0217 9.21859 37.2547 6.98422 39.9997 6.98422C42.7447 6.98422 44.9784 9.21859 44.9784 11.9623C44.9784 14.7073 42.7447 16.9419 39.9997 16.9419C37.2547 16.9417 35.0217 14.7073 35.0217 11.9623ZM29.3105 30.9658H50.6898C51.2603 30.9658 51.81 30.7262 52.1961 30.3092C52.5837 29.8922 52.7805 29.3261 52.7378 28.7572C52.3627 23.7562 49.0819 19.5734 44.6373 17.8231C46.3663 16.4531 47.4789 14.3359 47.4789 11.9622C47.4789 7.83891 44.1236 4.48438 39.9997 4.48438C35.8764 4.48438 32.5219 7.83891 32.5219 11.9622C32.5219 14.3358 33.6339 16.4531 35.3628 17.8231C30.9183 19.5733 27.6375 23.7562 27.2623 28.7572C27.2197 29.3261 27.4164 29.892 27.8033 30.3092C28.1903 30.7262 28.7392 30.9658 29.3105 30.9658ZM12.9002 19.4416C18.0837 19.4416 22.4723 23.3672 23.0972 28.4655H2.70234C3.32734 23.3672 7.71656 19.4416 12.9002 19.4416ZM7.92219 11.9623C7.92219 9.21859 10.1552 6.98422 12.9002 6.98422C15.6453 6.98422 17.8781 9.21859 17.8781 11.9623C17.8781 14.7073 15.6452 16.9419 12.9002 16.9419C10.1552 16.9417 7.92219 14.7073 7.92219 11.9623ZM2.21016 30.9658H23.5903C24.1606 30.9658 24.7097 30.7262 25.0966 30.3092C25.4834 29.8922 25.6809 29.3261 25.6383 28.7572C25.2631 23.7562 21.9816 19.5734 17.537 17.8231C19.2666 16.4531 20.3788 14.3359 20.3788 11.9622C20.3788 7.83891 17.0234 4.48438 12.9003 4.48438C8.77703 4.48438 5.42188 7.83891 5.42188 11.9622C5.42188 14.3358 6.53391 16.4531 8.26281 17.8231C3.81828 19.5733 0.537344 23.7562 0.162344 28.7572C0.119531 29.3261 0.317031 29.892 0.703281 30.3092C1.09 30.7262 1.63906 30.9658 2.21016 30.9658ZM77.3444 40.8673H72.132C71.5352 40.8673 71.023 41.2873 70.905 41.8717C70.1011 45.9139 68.5269 49.7077 66.232 53.1463C65.9019 53.6422 65.9659 54.3033 66.3883 54.7248L70.0773 58.4125L62.7367 65.7531L59.0477 62.0641C58.6261 61.6433 57.9666 61.5777 57.4691 61.9094C54.0334 64.2027 50.2397 65.7747 46.1961 66.5808C45.6117 66.698 45.1894 67.2109 45.1894 67.8078V73.0202H34.8095V67.8078C34.8095 67.2109 34.3888 66.698 33.8044 66.5808C29.763 65.7745 25.9692 64.2027 22.5298 61.9078C22.0347 61.5777 21.3736 61.6417 20.9528 62.0641L17.2644 65.7531L9.92375 58.4125L13.6122 54.7234C14.0337 54.3034 14.0994 53.6423 13.7684 53.1464C11.4744 49.7094 9.90172 45.9155 9.09547 41.8719C8.97828 41.2875 8.46531 40.8675 7.86922 40.8675H2.65594V36.9262H18.7191C19.3691 48.1012 28.6648 56.9955 40.0005 56.9955C51.3369 56.9955 60.6319 48.1012 61.2819 36.9262H77.3442L77.3444 40.8673ZM58.777 36.9262H21.2239C21.8695 46.7217 30.0436 54.495 40.0005 54.495C49.9566 54.4948 58.13 46.7217 58.777 36.9262ZM78.5942 34.4264H1.40609C0.715625 34.4264 0.15625 34.9858 0.15625 35.6762V42.1172C0.15625 42.8077 0.715625 43.367 1.40609 43.367H6.85953C7.70406 47.0245 9.1375 50.483 11.1308 53.6702L7.27219 57.5281C6.78438 58.0167 6.78438 58.8075 7.27219 59.2967L16.3802 68.4045C16.868 68.8917 17.6595 68.8917 18.1481 68.4045L22.0067 64.5452C25.1963 66.54 28.6539 67.9734 32.3098 68.8164V74.2697C32.3098 74.9602 32.8698 75.5195 33.5597 75.5195H46.44C47.1305 75.5195 47.6898 74.9602 47.6898 74.2697V68.8164C51.3473 67.9711 54.8058 66.5384 57.9945 64.5466L61.8525 68.4045C62.3395 68.8917 63.1319 68.8917 63.6197 68.4045L72.7291 59.2967C72.9634 59.0623 73.0945 58.7433 73.0945 58.4123C73.0945 58.0808 72.9633 57.7623 72.7291 57.528L68.8697 53.67C70.8645 50.4805 72.298 47.0212 73.1417 43.3669H78.5944C79.2834 43.3669 79.8442 42.8075 79.8442 42.117V35.6761C79.8441 34.9858 79.2833 34.4264 78.5942 34.4264Z" fill="#0182FC"/>
</svg>
