<svg width="11" height="16" viewBox="0 0 11 16" fill="none" xmlns="http://www.w3.org/2000/svg">
<path fill-rule="evenodd" clip-rule="evenodd" d="M9.57188 16.0013H1.3075C0.586562 16.0013 0 15.4147 0 14.6938V3.03406C0 2.31312 0.586562 1.72656 1.3075 1.72656H7.34969H9.57188C10.2928 1.72656 10.8794 2.31312 10.8794 3.03406V14.6938C10.8794 15.4147 10.2928 16.0013 9.57188 16.0013Z" fill="#FBB440"/>
<path fill-rule="evenodd" clip-rule="evenodd" d="M9.54156 14.9284H1.33594C1.2325 14.9284 1.14844 14.8444 1.14844 14.7409V3.88281C1.14844 3.77938 1.2325 3.69531 1.33594 3.69531H9.54156C9.645 3.69531 9.72906 3.77938 9.72906 3.88281V14.7409C9.72906 14.8444 9.645 14.9284 9.54156 14.9284Z" fill="#ECF2F3"/>
<path fill-rule="evenodd" clip-rule="evenodd" d="M4.44969 0.821562C4.53781 0.354375 4.94875 0 5.44125 0C5.93375 0 6.34469 0.354375 6.43281 0.821562H7.16656C7.37156 0.821562 7.53875 0.988438 7.53875 1.19375V2.62812C7.53875 2.83344 7.37156 3.00031 7.16656 3.00031H3.71594C3.51094 3.00031 3.34375 2.83344 3.34375 2.62812V1.19375C3.34375 0.988438 3.51094 0.821562 3.71594 0.821562H4.44969Z" fill="#35200B"/>
<path fill-rule="evenodd" clip-rule="evenodd" d="M9.54313 3.69844C9.64656 3.69844 9.73063 3.7825 9.73063 3.88594V14.7441C9.73063 14.8475 9.64656 14.9316 9.54313 14.9316H9.48031V16.0013H9.5725C10.2934 16.0013 10.88 15.4147 10.88 14.6938V3.03406C10.88 2.31312 10.2934 1.72656 9.5725 1.72656H9.46094C9.47375 1.81531 9.48031 1.90656 9.48031 1.99969V3.69844H9.54313Z" fill="#FBA23A"/>
<path fill-rule="evenodd" clip-rule="evenodd" d="M5.44156 12.4297C3.72063 12.4297 2.32031 11.0297 2.32031 9.30875C2.32031 7.58781 3.72063 6.1875 5.44156 6.1875C7.1625 6.1875 8.56281 7.58781 8.56281 9.30875C8.56281 11.0297 7.1625 12.4297 5.44156 12.4297Z" fill="#3D881B"/>
<path fill-rule="evenodd" clip-rule="evenodd" d="M4.59656 10.7055C4.54688 10.7055 4.49937 10.6858 4.46406 10.6505L3.73062 9.91703C3.6575 9.84391 3.6575 9.72516 3.73062 9.65203C3.80375 9.57891 3.9225 9.57891 3.99562 9.65203L4.59656 10.253L6.88031 7.96891C6.95375 7.89578 7.0725 7.89578 7.14563 7.96891C7.21875 8.04203 7.21875 8.16078 7.14563 8.23422L4.72938 10.6505C4.69406 10.6858 4.64656 10.7055 4.59656 10.7055Z" fill="white"/>
</svg>
