<svg width="80" height="80" viewBox="0 0 80 80" fill="none" xmlns="http://www.w3.org/2000/svg">
<g clip-path="url(#clip0_6265_110903)">
<path fill-rule="evenodd" clip-rule="evenodd" d="M62.5887 54.875C62.5887 56.8675 64.2098 58.4897 66.2027 58.4897H66.8719C68.1759 58.4897 69.2361 59.5489 69.2361 60.8531C69.2361 62.1575 68.1764 63.2173 66.8719 63.2173H65.9316C65.1727 63.2173 64.4586 62.8464 64.0141 62.2322C63.8117 61.9525 63.4216 61.8889 63.1416 62.0914C62.862 62.2936 62.7983 62.6844 63.0005 62.9642C63.5659 63.7472 64.4292 64.2775 65.3831 64.4252L65.9125 64.5072V66.3973C65.9125 66.742 66.1925 67.0222 66.5373 67.0222C66.8822 67.0222 67.1622 66.742 67.1622 66.3973V64.4906L67.6525 64.3825C69.302 64.0187 70.4858 62.5453 70.4858 60.8534C70.4858 58.8612 68.8641 57.2395 66.8719 57.2395H66.2027C64.8994 57.2395 63.8384 56.1787 63.8384 54.8753C63.8384 53.5722 64.8998 52.5119 66.2027 52.5119H67.1437C67.9027 52.5119 68.6156 52.8828 69.0605 53.4969C69.2628 53.7762 69.6539 53.8403 69.9337 53.6378C70.2136 53.4353 70.2767 53.0453 70.0742 52.7653C69.508 51.982 68.6462 51.4519 67.6914 51.3041L67.162 51.2222V49.3334C67.162 48.9878 66.8827 48.7086 66.5372 48.7086C66.1916 48.7086 65.9123 48.988 65.9123 49.3334V51.2387L65.4219 51.3469C63.7728 51.7103 62.5887 53.1834 62.5887 54.875ZM8.68297 23.6206C7.15594 23.6206 5.52234 23.1845 4.30984 22.2284C3.39719 21.5088 2.79531 20.5703 2.53297 19.438L2.35547 18.6719H15.0317L14.8688 19.4284C14.2538 22.2852 11.3847 23.6206 8.68297 23.6206ZM16.1969 18.6719H28.8711L28.6933 19.4381C28.4309 20.5684 27.8292 21.5078 26.9181 22.2267C25.705 23.1841 24.0734 23.622 22.5448 23.622C19.843 23.622 16.9739 22.285 16.3595 19.4283L16.1969 18.6719ZM30.067 18.6719H42.7412L42.5778 19.4287C41.9611 22.2853 39.0934 23.622 36.3905 23.622C34.8631 23.622 33.2298 23.1839 32.0183 22.2266C31.1081 21.5073 30.5056 20.568 30.2442 19.4377L30.067 18.6719ZM43.9037 18.6719H56.5767L56.3975 19.4391C56.1341 20.5673 55.5348 21.505 54.6266 22.2245C53.4158 23.1837 51.7822 23.622 50.2545 23.622C47.5522 23.622 44.6837 22.2848 44.0672 19.4287L43.9037 18.6719ZM57.7705 18.6719H70.4167L70.1845 19.4711C69.8077 20.7689 68.9608 21.7772 67.7995 22.4477C65.6289 23.7006 62.5228 23.6816 60.3555 22.4291C59.2011 21.7619 58.342 20.7623 57.9864 19.4617L57.7705 18.6719ZM42.9877 35.5833C42.9877 39.2186 40.0311 42.1753 36.3956 42.1753C32.7606 42.1753 29.8044 39.2183 29.8044 35.5833C29.8044 31.9489 32.7614 28.9928 36.3956 28.9928C40.0302 28.9928 42.9877 31.9486 42.9877 35.5833ZM63.0661 24.5683C63.7786 24.6458 64.5025 24.6445 65.2144 24.5608L65.9123 24.4786V36.5083H62.3734V24.493L63.0661 24.5683ZM10.4184 52.1623H6.87813V24.728L7.57391 24.8073C7.94203 24.8494 8.31234 24.8711 8.68297 24.8711C9.03109 24.8711 9.37937 24.8503 9.72531 24.8122L10.4186 24.7359L10.4184 52.1623ZM56.148 62.0005V69.3847H11.1737V62.0005H56.148ZM57.3984 41.3366H75.6762V74.3922H57.3984V41.3366Z" fill="#F1F1F1"/>
<path fill-rule="evenodd" clip-rule="evenodd" d="M61.9622 54.872C61.9622 52.8492 63.3873 51.1519 65.2858 50.7334V49.3303C65.2858 48.6398 65.8452 48.0805 66.5356 48.0805C67.2261 48.0805 67.7855 48.6398 67.7855 49.3303V50.6833C68.8953 50.855 69.9094 51.4689 70.5792 52.3959C70.9837 52.9553 70.8578 53.7364 70.2984 54.1411C69.7391 54.5456 68.9572 54.4189 68.5527 53.8603C68.2233 53.4056 67.697 53.1336 67.1422 53.1336H66.2011C65.2439 53.1336 64.4619 53.9133 64.4619 54.872C64.4619 55.8316 65.2438 56.6113 66.2011 56.6113H66.8703C69.2078 56.6113 71.1092 58.5133 71.1092 60.8502C71.1092 62.8738 69.6839 64.5709 67.7856 64.9895V66.3942C67.7856 67.0833 67.2262 67.6441 66.5358 67.6441C65.8453 67.6441 65.2859 67.0833 65.2859 66.3942V65.0397C64.1769 64.868 63.162 64.2534 62.4922 63.327C62.0891 62.7677 62.2144 61.9866 62.7738 61.582C63.3331 61.1775 64.1142 61.3034 64.5188 61.8628C64.8481 62.3175 65.3752 62.5895 65.93 62.5895H66.8703C67.8298 62.5895 68.6095 61.8098 68.6095 60.8503C68.6095 59.8916 67.8298 59.1119 66.8703 59.1119H66.2011C63.8634 59.1117 61.9622 57.2095 61.9622 54.872ZM75.0494 73.7642V41.9586H58.0217V73.7642H75.0494ZM76.9891 77.3444H56.0842V76.2647H76.9891V77.3444ZM53.5845 75.6397V77.3442H3.20938V54.0348H55.5212V60.1227H10.5464C9.85594 60.1227 9.29656 60.682 9.29656 61.3725V70.0066C9.29656 70.6956 9.85594 71.2572 10.5464 71.2572H55.5212V73.7642H55.4594C54.4247 73.7642 53.5845 74.6052 53.5845 75.6397ZM7.50141 25.4253C7.88906 25.4695 8.28266 25.4931 8.68125 25.4931C9.05125 25.4931 9.42344 25.4711 9.79187 25.4305V51.5344H7.50141V25.4253ZM3.14016 19.2939H14.2562C13.7109 21.8269 11.1139 22.9927 8.68125 22.9927C7.16391 22.9927 5.71063 22.535 4.69516 21.7347C3.88734 21.0973 3.36859 20.28 3.14016 19.2939ZM13.7108 2.8925L20.4966 2.85781L14.7514 16.7942H4.15938L13.7108 2.8925ZM68.7936 16.7942H58.0969L52.2823 2.69438L59.0814 2.65969L68.7936 16.7942ZM67.4855 21.9034C65.52 23.0398 62.6511 23.0317 60.6666 21.885C59.8684 21.4236 58.9509 20.6227 58.5877 19.2939H69.5828C69.1908 20.6441 68.2814 21.4458 67.4855 21.9034ZM65.2856 35.8803H62.9967V25.1866C63.7556 25.2691 64.5281 25.2677 65.2856 25.1784V35.8803ZM28.0827 19.2939C27.8542 20.2784 27.3353 21.0972 26.5292 21.7333C25.5138 22.535 24.0619 22.9942 22.5431 22.9942C20.1105 22.9942 17.5134 21.8269 16.9689 19.2941L28.0827 19.2939ZM28.3627 16.7942L30.2839 2.80859L23.2064 2.84391L17.4561 16.7942H28.3627ZM41.9652 19.2939C41.4183 21.8269 38.8228 22.9941 36.3887 22.9941C34.8714 22.9941 33.4181 22.535 32.4041 21.7331C31.5986 21.0972 31.0791 20.2784 30.8514 19.2937H41.9652V19.2939ZM41.9092 16.7942H30.8853L32.8095 2.79375L39.9792 2.75828L41.9092 16.7942ZM55.7873 19.2939C55.5575 20.2784 55.0402 21.0958 54.2369 21.7317C53.2236 22.535 51.7703 22.9941 50.253 22.9941C47.8203 22.9941 45.2233 21.8267 44.6766 19.2939H55.7873ZM44.4325 16.7942H55.3923L49.5845 2.70828L42.5009 2.74437L44.4325 16.7942ZM36.3939 44.047C41.3358 44.047 45.7228 47.0553 47.5763 51.5344H25.2108C27.0634 47.0553 31.4527 44.047 36.3939 44.047ZM30.4277 35.5803C30.4277 32.2914 33.1042 29.6148 36.3939 29.6148C39.6844 29.6148 42.3609 32.2914 42.3609 35.5803C42.3609 38.8708 39.6844 41.5473 36.3939 41.5473C33.1042 41.5473 30.4277 38.8708 30.4277 35.5803ZM55.5212 51.5344H50.2417C48.8061 47.238 45.4884 43.9239 41.3683 42.425C43.4825 40.8848 44.8606 38.3909 44.8606 35.5803C44.8606 30.9133 41.0623 27.1144 36.3939 27.1144C31.7247 27.1144 27.928 30.9133 27.928 35.5803C27.928 38.3909 29.3045 40.8848 31.4181 42.425C27.2978 43.9239 23.9809 47.238 22.5453 51.5344H12.2922V24.807C13.6172 24.2756 14.7889 23.44 15.6122 22.3022C17.1384 24.4083 19.8533 25.4939 22.5431 25.4939C24.6434 25.4939 26.6095 24.855 28.0783 23.6958C28.6228 23.2661 29.0872 22.7769 29.4667 22.2381C29.847 22.7769 30.3105 23.2661 30.8558 23.6958C32.3245 24.855 34.2908 25.4939 36.3887 25.4939C39.0808 25.4939 41.7934 24.4084 43.3197 22.3022C44.8481 24.4083 47.5622 25.4939 50.2528 25.4939C52.3531 25.4939 54.3186 24.8534 55.7872 23.6928C56.362 23.2381 56.8455 22.7194 57.2359 22.1445C57.7953 22.8925 58.5263 23.5366 59.4166 24.0511C59.7608 24.2492 60.1219 24.4225 60.4961 24.5728V35.8805H55.4591C54.4244 35.8805 53.5844 36.7206 53.5844 37.7553V40.0833C53.5844 41.118 54.4245 41.9588 55.4591 41.9588H55.5209V51.5344H55.5212ZM55.5212 68.7567V62.6225H11.797V68.7567H55.5212ZM76.9891 39.4581V38.38H56.0842V39.4581H76.9891ZM55.4594 79.8441H77.6141C78.6466 79.8441 79.4888 79.0017 79.4888 77.9692V75.6397C79.4888 74.605 78.6464 73.7642 77.6141 73.7642H77.5498V41.9586H77.6141C78.6466 41.9586 79.4888 41.1177 79.4888 40.0831V37.7552C79.4888 36.7205 78.6464 35.8803 77.6141 35.8803H67.7855V24.5352C68.1142 24.3989 68.4325 24.2441 68.7353 24.0694C71.0212 22.7488 72.2792 20.538 72.2792 17.8416C72.2792 17.588 72.2027 17.3411 72.0589 17.1333L60.7669 0.697187C60.5341 0.358125 60.1486 0.15625 59.7373 0.15625C59.7358 0.15625 59.733 0.15625 59.7314 0.15625L13.0431 0.397344C12.6341 0.398906 12.2523 0.602187 12.0203 0.939687L0.728125 17.3742C0.583594 17.582 0.507812 17.8289 0.507812 18.0817C0.507812 20.3958 1.42156 22.3383 3.14828 23.6972C3.70094 24.135 4.32672 24.4975 5.00172 24.7783V51.5344H3.20953C1.83141 51.5344 0.709062 52.6567 0.709062 54.0348V77.3444C0.709062 78.7225 1.83141 79.8441 3.20953 79.8441H55.4594Z" fill="#0182FC"/>
</g>
<defs>
<clipPath id="clip0_6265_110903">
<rect width="80" height="80" fill="white"/>
</clipPath>
</defs>
</svg>
