<svg width="90" height="90" viewBox="0 0 90 90" fill="none" xmlns="http://www.w3.org/2000/svg">
<path d="M81.5615 1.32812H8.66614C4.73212 1.32812 1.54297 4.51728 1.54297 8.4513V81.3466C1.54297 85.2806 4.73212 88.4698 8.66614 88.4698H81.5615C85.4955 88.4698 88.6846 85.2806 88.6846 81.3466V8.4513C88.6846 4.51728 85.4955 1.32812 81.5615 1.32812Z" fill="#E2D8C9"/>
<path d="M1.69383 28.1894C1.90357 28.211 2.11551 28.1886 2.31606 28.1234C2.5166 28.0583 2.70132 27.952 2.85834 27.8113C3.08959 27.5367 3.26357 27.2186 3.37006 26.8758C3.47655 26.5329 3.51338 26.1723 3.47841 25.815V9.07326C3.47841 5.08065 5.11175 3.47756 9.07411 3.47756H25.9066C27.4189 3.47756 28.1902 2.88774 28.1902 1.75348C28.2078 1.54158 28.1806 1.32834 28.1102 1.12768C28.0399 0.927024 27.928 0.74346 27.7819 0.588968C27.2719 0.161683 26.6154 -0.0499099 25.9519 -0.000848721H7.80373C5.72562 0.0308785 3.74314 0.877717 2.28346 2.3572C0.823775 3.83669 0.00372414 5.8304 0 7.90875C0 9.8748 0 11.8409 0 13.822V19.448C0 21.5804 0 23.7128 0 25.8452C0 27.403 0.55957 28.1591 1.69383 28.1894Z" fill="#010101"/>
<path d="M86.5359 26.0445C86.5359 27.0124 86.8232 28.1618 88.2146 28.192C88.4303 28.216 88.6486 28.1934 88.8548 28.1255C89.061 28.0577 89.2501 27.9462 89.4094 27.7988C89.8228 27.2997 90.0285 26.6608 89.9841 26.0142C89.9841 20.4337 89.9841 14.112 89.9841 7.86602C89.9683 5.78779 89.1367 3.79892 87.6686 2.32793C86.2004 0.856943 84.2132 0.0215704 82.135 0.00179917H64.3951C63.6021 -0.0821958 62.807 0.139579 62.1719 0.621863C62.0359 0.778331 61.9334 0.961106 61.871 1.15883C61.8085 1.35656 61.7874 1.56502 61.809 1.77125C61.809 2.27033 61.809 3.46508 64.3195 3.46508H81.3183C84.8118 3.46508 86.5208 5.17404 86.5208 8.66757V16.5318C86.5208 19.6624 86.5208 22.8837 86.5359 26.0445Z" fill="#010101"/>
<path d="M7.92508 89.9876C13.4452 89.9876 19.0711 89.9876 24.5609 89.9876H25.9372C27.4495 89.9876 28.236 89.4129 28.2511 88.2786C28.2706 88.0714 28.2471 87.8623 28.182 87.6645C28.1169 87.4667 28.0117 87.2845 27.873 87.1293C27.3004 86.6745 26.5746 86.4579 25.8464 86.5243H8.80225C5.21797 86.5243 3.47877 84.8002 3.47877 81.2462V74.3801C3.47877 70.8866 3.47877 67.378 3.47877 63.8844C3.47877 62.5687 2.84358 61.8125 1.75469 61.8125C0.242339 61.8125 0.0306098 63.1131 0.0306098 63.8995C0.0306098 66.0471 0.0306098 68.2097 0.0306098 70.3724V76.1193C0.0306098 78.0854 0.0306098 80.0515 0.0306098 82.0175H0.00036276C-0.00966101 83.0631 0.18814 84.1003 0.58228 85.0688C0.97642 86.0374 1.55905 86.918 2.29633 87.6595C3.03361 88.401 3.91085 88.9886 4.87712 89.3883C5.84339 89.7879 6.87943 89.9917 7.92508 89.9876Z" fill="#010101"/>
<path d="M86.5204 64.322V81.3208C86.5204 84.8144 84.8266 86.5233 81.3331 86.5233H63.9562C62.9883 86.5233 61.8389 86.8107 61.8086 88.202C61.7868 88.4153 61.8106 88.6308 61.8784 88.8341C61.9462 89.0375 62.0564 89.2241 62.2018 89.3817C62.7001 89.8086 63.3472 90.0207 64.0015 89.9715H81.7414C82.8357 90.0183 83.9278 89.8378 84.9488 89.4413C85.9699 89.0448 86.8976 88.441 87.6735 87.6679C88.4494 86.8948 89.0567 85.9693 89.4569 84.9498C89.8571 83.9302 90.0417 82.8388 89.9988 81.7443V64.3976C90.074 63.6031 89.8472 62.8094 89.3637 62.1745C89.209 62.0404 89.0287 61.939 88.8338 61.8766C88.6388 61.8142 88.4332 61.7921 88.2294 61.8115C87.7152 61.8266 86.5356 61.8418 86.5204 64.322Z" fill="#010101"/>
<path d="M34.2581 21.8221L7.49396 33.5819C5.95694 34.2572 5.25841 36.0507 5.93376 37.5877L23.2905 77.0901C23.9659 78.6271 25.7594 79.3256 27.2964 78.6503L54.0605 66.8905C55.5976 66.2152 56.2961 64.4217 55.6207 62.8847L38.264 23.3823C37.5886 21.8453 35.7951 21.1467 34.2581 21.8221Z" fill="#96D2BA"/>
<path d="M56.8823 62.3394L39.5356 22.8519C39.3043 22.32 38.9701 21.839 38.5522 21.4367C38.1343 21.0344 37.641 20.7187 37.1007 20.5077C36.0139 20.0703 34.7999 20.0703 33.7131 20.5077L6.95958 32.3343C5.88511 32.8082 5.04266 33.6891 4.61731 34.7837C4.19195 35.8783 4.21848 37.097 4.69106 38.172L22.0377 77.6595C22.5148 78.7274 23.3934 79.5644 24.4833 79.989C25.5732 80.4137 26.7865 80.3917 27.8603 79.928L54.6138 68.177C55.6882 67.7032 56.5307 66.8222 56.956 65.7276C57.3814 64.6331 57.3549 63.4144 56.8823 62.3394ZM53.5097 65.6514L26.7563 77.4024C26.3509 77.5811 25.8914 77.5924 25.4778 77.4337C25.0642 77.2751 24.7301 76.9594 24.5482 76.5555L7.20156 37.068C7.02379 36.6608 7.01471 36.1997 7.17629 35.7858C7.33788 35.3719 7.65696 35.039 8.0636 34.8599L34.7868 23.109C34.9988 23.0062 35.2319 22.9545 35.4674 22.9577C35.6747 22.9614 35.8796 23.0024 36.0723 23.0787C36.277 23.1557 36.4641 23.2731 36.6226 23.4237C36.781 23.5744 36.9076 23.7554 36.9949 23.9559L54.4474 63.519C54.6014 63.9264 54.5894 64.378 54.4141 64.7767C54.2388 65.1754 53.9141 65.4895 53.5097 65.6514Z" fill="#221F1F"/>
<path d="M50.4344 22.1807L34.7751 62.3862C34.1658 63.9506 34.9401 65.7127 36.5044 66.322L63.745 76.9317C65.3093 77.541 67.0715 76.7667 67.6808 75.2023L83.3401 34.9968C83.9494 33.4325 83.1751 31.6703 81.6107 31.061L54.3702 20.4514C52.8058 19.8421 51.0437 20.6163 50.4344 22.1807Z" fill="#FFD764"/>
<path d="M84.5534 32.1241C84.3211 31.5903 83.9848 31.1081 83.5641 30.7057C83.1435 30.3032 82.6469 29.9885 82.1034 29.7799L54.8811 19.1935C54.3402 18.9787 53.7621 18.8733 53.1803 18.8835C52.5984 18.8936 52.0243 19.0191 51.4913 19.2525C50.9582 19.486 50.4768 19.8229 50.0748 20.2437C49.6728 20.6645 49.3582 21.1608 49.1493 21.704L33.4965 61.872C33.0752 62.9655 33.1026 64.181 33.5728 65.2543C34.0429 66.3276 34.9177 67.172 36.007 67.6038L63.2293 78.1903C63.7374 78.4011 64.2823 78.5091 64.8324 78.5079C65.4416 78.5019 66.0434 78.3734 66.6018 78.1298C67.1356 77.8974 67.6178 77.5611 68.0202 77.1405C68.4227 76.7199 68.7374 76.2233 68.946 75.6798L84.6896 35.5117C84.8928 34.9663 84.9855 34.3858 84.9621 33.8042C84.9387 33.2226 84.7998 32.6515 84.5534 32.1241ZM82.0581 34.5136L66.4052 74.6968C66.325 74.902 66.2048 75.0892 66.0516 75.2475C65.8985 75.4059 65.7153 75.5323 65.5129 75.6193C65.3121 75.705 65.0961 75.7492 64.8778 75.7492C64.6594 75.7492 64.4434 75.705 64.2426 75.6193L37.0202 65.0328C36.6094 64.8652 36.2789 64.5456 36.0977 64.1405C36.0116 63.9372 35.9672 63.7186 35.9672 63.4978C35.9672 63.277 36.0116 63.0584 36.0977 62.8551L51.7052 22.687C51.8735 22.2766 52.1949 21.9478 52.6013 21.77C53.0077 21.5922 53.4673 21.5793 53.883 21.7342L81.1053 32.3207C81.3105 32.4009 81.4977 32.5211 81.6561 32.6743C81.8144 32.8275 81.9408 33.0106 82.0278 33.213C82.1208 33.4164 82.1715 33.6366 82.1767 33.8602C82.1819 34.0838 82.1415 34.3061 82.0581 34.5136Z" fill="#221F1F"/>
<path d="M59.2267 13.8984H29.993C28.3141 13.8984 26.9531 15.2594 26.9531 16.9383V60.0856C26.9531 61.7645 28.3141 63.1255 29.993 63.1255H59.2267C60.9055 63.1255 62.2665 61.7645 62.2665 60.0856V16.9383C62.2665 15.2594 60.9055 13.8984 59.2267 13.8984Z" fill="#9EDDF9"/>
<path d="M59.2245 12.5313H30.0059C28.8347 12.5313 27.7115 12.9965 26.8833 13.8247C26.0551 14.6529 25.5898 15.7761 25.5898 16.9473V60.0796C25.5898 61.2508 26.0551 62.374 26.8833 63.2022C27.7115 64.0304 28.8347 64.4956 30.0059 64.4956H59.2245C60.3971 64.4956 61.5219 64.0309 62.3525 63.2031C63.1831 62.3754 63.6517 61.2522 63.6557 60.0796V16.9473C63.6517 15.7747 63.1831 14.6515 62.3525 13.8238C61.5219 12.996 60.3971 12.5312 59.2245 12.5313ZM60.9032 60.0796C60.9032 60.5248 60.7264 60.9518 60.4116 61.2666C60.0967 61.5814 59.6698 61.7583 59.2245 61.7583H30.0059C29.5607 61.7583 29.1337 61.5814 28.8189 61.2666C28.5041 60.9518 28.3272 60.5248 28.3272 60.0796V16.9473C28.3272 16.5021 28.5041 16.0751 28.8189 15.7603C29.1337 15.4455 29.5607 15.2686 30.0059 15.2686H59.2245C59.6698 15.2686 60.0967 15.4455 60.4116 15.7603C60.7264 16.0751 60.9032 16.5021 60.9032 16.9473V60.0796Z" fill="#221F1F"/>
<path d="M47.3526 52.9332C45.4832 52.957 43.6307 52.5775 41.9213 51.8207C40.2118 51.0638 38.6856 49.9474 37.4467 48.5473C34.8694 45.8271 33.4582 42.2068 33.5146 38.46C33.4401 34.7088 34.8162 31.0736 37.356 28.3121C38.6038 26.9192 40.1374 25.8117 41.8521 25.0653C43.5668 24.3189 45.4223 23.951 47.2921 23.9868C49.8565 23.9695 52.3752 24.6659 54.5665 25.9982C54.8863 26.1555 55.1601 26.3927 55.3614 26.6867C55.5628 26.9808 55.6849 27.3218 55.7159 27.6769C55.6344 28.6702 55.4155 29.6474 55.0656 30.5806C54.5514 32.2593 54.1884 33.4692 52.9634 33.4692H52.6912L50.1202 32.3349C49.4805 32.0593 48.7902 31.9202 48.0937 31.9266C47.2864 31.9208 46.4878 32.0942 45.7556 32.4342C45.0234 32.7741 44.3756 33.2722 43.8591 33.8927C42.6997 35.1515 42.0712 36.8094 42.1047 38.5204C42.0847 39.3549 42.2294 40.1851 42.5304 40.9636C42.8314 41.7421 43.2829 42.4536 43.8591 43.0575C44.3862 43.6751 45.0431 44.1688 45.7829 44.5034C46.5227 44.838 47.3272 45.0053 48.139 44.9933C49.109 44.9879 50.0634 44.7493 50.9217 44.2976C51.3525 44.0942 51.7715 43.867 52.177 43.6171L52.8878 44.6757H52.9937V43.3297H54.0372L54.2036 43.98C54.6529 44.7769 54.9359 45.6567 55.0353 46.5662C55.2644 47.5597 55.4011 48.5722 55.4437 49.5909C55.4437 51.1939 53.523 51.9047 51.4511 52.4341C50.1092 52.7603 48.7336 52.9279 47.3526 52.9332ZM47.3526 26.6485C45.832 26.6232 44.3245 26.9325 42.9368 27.5545C41.549 28.1765 40.315 29.096 39.322 30.2479C37.2294 32.5156 36.1059 35.5115 36.1915 38.5961C36.1227 41.6738 37.2754 44.6536 39.3976 46.8837C40.3855 48.0168 41.6097 48.9195 42.9841 49.5283C44.3585 50.1371 45.8497 50.4373 47.3526 50.4075C48.5011 50.3346 49.6376 50.1317 50.7403 49.8026C51.4227 49.6529 52.087 49.4298 52.7214 49.1372C52.7214 48.7591 52.5853 48.139 52.3887 47.0955C52.3887 46.914 52.3887 46.7476 52.2829 46.5964L52.0863 46.7023C50.8542 47.3491 49.4851 47.6914 48.0937 47.7004C46.912 47.7147 45.7413 47.4719 44.6628 46.9888C43.5843 46.5056 42.6237 45.7938 41.8476 44.9026C40.2485 43.1948 39.3708 40.9355 39.3976 38.5961C39.3637 36.2239 40.2406 33.9289 41.8476 32.1837C42.6212 31.2904 43.5816 30.5781 44.661 30.0972C45.7403 29.6163 46.9122 29.3787 48.0937 29.401C49.1352 29.3991 50.1656 29.6155 51.1184 30.0362L52.2677 30.5352C52.2677 30.3689 52.3887 30.1723 52.4643 29.9454C52.7063 29.1136 52.8424 28.5994 52.9181 28.2818C51.2192 27.2591 49.275 26.7156 47.2921 26.709L47.3526 26.6485Z" fill="#231F20"/>
<path d="M29.4607 19.66V41.8916C29.4408 42.0773 29.4602 42.265 29.5177 42.4427C29.5751 42.6204 29.6693 42.784 29.7941 42.9228C29.9189 43.0617 30.0716 43.1728 30.2421 43.2488C30.4126 43.3248 30.5973 43.3641 30.784 43.3641C30.9707 43.3641 31.1554 43.3248 31.3259 43.2488C31.4964 43.1728 31.6491 43.0617 31.7739 42.9228C31.8987 42.784 31.9929 42.6204 32.0503 42.4427C32.1078 42.265 32.1272 42.0773 32.1073 41.8916V19.66C32.1272 19.4744 32.1078 19.2866 32.0503 19.1089C31.9929 18.9313 31.8987 18.7677 31.7739 18.6288C31.6491 18.4899 31.4964 18.3789 31.3259 18.3028C31.1554 18.2268 30.9707 18.1875 30.784 18.1875C30.5973 18.1875 30.4126 18.2268 30.2421 18.3028C30.0716 18.3789 29.9189 18.4899 29.7941 18.6288C29.6693 18.7677 29.5751 18.9313 29.5177 19.1089C29.4602 19.2866 29.4408 19.4744 29.4607 19.66Z" fill="white"/>
<path d="M29.4607 46.6444V52.3006C29.4576 52.6699 29.5896 53.0275 29.832 53.3061C30.0744 53.5847 30.4103 53.765 30.7764 53.813C31.1453 53.7684 31.4849 53.5896 31.7303 53.3106C31.9758 53.0317 32.11 52.6722 32.1073 52.3006V46.6444C32.1272 46.4588 32.1078 46.271 32.0503 46.0933C31.9929 45.9156 31.8987 45.7521 31.7739 45.6132C31.6491 45.4743 31.4964 45.3632 31.3259 45.2872C31.1554 45.2112 30.9707 45.1719 30.784 45.1719C30.5973 45.1719 30.4126 45.2112 30.2421 45.2872C30.0716 45.3632 29.9189 45.4743 29.7941 45.6132C29.6693 45.7521 29.5751 45.9156 29.5177 46.0933C29.4602 46.271 29.4408 46.4588 29.4607 46.6444Z" fill="white"/>
<path d="M12.3103 43.2882L19.8721 61.5272C19.9396 61.689 20.0384 61.836 20.1627 61.9597C20.287 62.0834 20.4345 62.1814 20.5967 62.2481C20.7589 62.3148 20.9326 62.3489 21.108 62.3485C21.2834 62.3481 21.457 62.3131 21.6188 62.2456C21.7807 62.178 21.9277 62.0793 22.0514 61.955C22.1751 61.8306 22.2731 61.6832 22.3398 61.5209C22.4065 61.3587 22.4406 61.185 22.4402 61.0096C22.4397 60.8342 22.4047 60.6607 22.3372 60.4988L14.7755 42.2598C14.6259 41.9552 14.3656 41.7193 14.0478 41.6002C13.73 41.4812 13.3787 41.488 13.0658 41.6193C12.7529 41.7507 12.5019 41.9966 12.3643 42.3068C12.2267 42.617 12.2128 42.9681 12.3254 43.2882H12.3103Z" fill="white"/>
<path d="M21.4778 65.3664L23.3985 70.0093C23.5349 70.3362 23.7955 70.5955 24.1231 70.7302C24.4507 70.8649 24.8183 70.864 25.1452 70.7276C25.4721 70.5913 25.7315 70.3306 25.8662 70.003C26.0009 69.6755 26 69.3078 25.8636 68.9809L23.9278 64.338C23.7782 64.0333 23.5179 63.7974 23.2001 63.6783C22.8823 63.5593 22.531 63.5661 22.2181 63.6975C21.9052 63.8288 21.6543 64.0747 21.5167 64.385C21.3791 64.6952 21.3652 65.0462 21.4778 65.3664Z" fill="white"/>
<path d="M65.2761 30.5507L69.9643 32.3806C70.2819 32.4698 70.6213 32.4379 70.9167 32.291C71.2121 32.1441 71.4424 31.8928 71.563 31.5857C71.6835 31.2787 71.6858 30.9378 71.5692 30.6292C71.4527 30.3205 71.2257 30.0662 70.9323 29.9155L66.2591 28.0704C65.9302 27.9401 65.563 27.9457 65.2382 28.0861C64.9135 28.2265 64.6578 28.4901 64.5274 28.819C64.3971 29.1479 64.4027 29.5151 64.5431 29.8399C64.6835 30.1646 64.9472 30.4203 65.2761 30.5507Z" fill="white"/>
</svg>
