<svg width="195" height="56" viewBox="0 0 195 56" fill="none" xmlns="http://www.w3.org/2000/svg">
<g clip-path="url(#clip0_6981_92097)">
<path d="M79.5821 18.2812H76V34.4445H85.9164V31.2774H79.5821V18.2812Z" fill="#4845D2"/>
<path d="M86.2578 28.9695C86.2578 32.4206 88.5731 34.714 92.0678 34.714C95.5407 34.714 97.856 32.4206 97.856 28.9695C97.856 25.5184 95.5407 23.2031 92.0678 23.2031C88.5731 23.2031 86.2578 25.5184 86.2578 28.9695ZM89.6433 28.9476C89.6433 27.3095 90.6044 26.2174 92.0678 26.2174C93.5094 26.2174 94.4705 27.3095 94.4705 28.9476C94.4705 30.6077 93.5094 31.6998 92.0678 31.6998C90.6044 31.6998 89.6433 30.6077 89.6433 28.9476Z" fill="#4845D2"/>
<path d="M98.3953 28.7915C98.3953 32.0896 100.536 34.3175 103.572 34.3175C105.035 34.3175 106.302 33.7933 106.936 32.9415V34.4487C106.936 35.9558 105.996 36.9604 104.336 36.9604C102.851 36.9604 101.824 36.2615 101.759 35.0166H98.3516C98.6574 38.009 100.973 40.0183 104.14 40.0183C107.875 40.0183 110.234 37.5939 110.234 33.7496V23.5275H107.198L107.023 24.6414C106.411 23.7459 105.123 23.1562 103.637 23.1562C100.579 23.1562 98.3953 25.4496 98.3953 28.7915ZM101.803 28.7041C101.803 27.1314 102.851 26.083 104.183 26.083C105.734 26.083 106.87 27.1096 106.87 28.7041C106.87 30.2986 105.756 31.3907 104.205 31.3907C102.873 31.3907 101.803 30.2986 101.803 28.7041Z" fill="#4845D2"/>
<path d="M111.219 28.9695C111.219 32.4206 113.534 34.714 117.029 34.714C120.502 34.714 122.817 32.4206 122.817 28.9695C122.817 25.5184 120.502 23.2031 117.029 23.2031C113.534 23.2031 111.219 25.5184 111.219 28.9695ZM114.604 28.9476C114.604 27.3095 115.565 26.2174 117.029 26.2174C118.47 26.2174 119.431 27.3095 119.431 28.9476C119.431 30.6077 118.47 31.6998 117.029 31.6998C115.565 31.6998 114.604 30.6077 114.604 28.9476Z" fill="#4845D2"/>
<path d="M125.715 21.8224C126.763 21.8224 127.615 20.9705 127.615 19.9003C127.615 18.83 126.763 18 125.715 18C124.645 18 123.793 18.83 123.793 19.9003C123.793 20.9705 124.645 21.8224 125.715 21.8224ZM124.011 34.4472H127.397V23.5261H124.011V34.4472Z" fill="#4845D2"/>
<path d="M129.367 39.6846H132.687V33.3504C133.32 34.1804 134.762 34.7483 136.269 34.7483C139.523 34.7483 141.489 32.2583 141.402 28.8072C141.314 25.2906 139.283 23.1719 136.247 23.1719C134.696 23.1719 133.233 23.849 132.621 24.8538L132.446 23.5214H129.367V39.6846ZM132.752 28.9819C132.752 27.3438 133.844 26.2517 135.417 26.2517C137.011 26.2517 138.016 27.3656 138.016 28.9819C138.016 30.5983 137.011 31.7122 135.417 31.7122C133.844 31.7122 132.752 30.6201 132.752 28.9819Z" fill="#4845D2"/>
<path d="M141.762 30.9914C141.849 33.1975 143.597 34.7264 146.349 34.7264C148.992 34.7264 150.827 33.3285 150.827 31.0788C150.827 29.4625 149.866 28.3922 148.074 27.9553L146.131 27.4748C145.432 27.3001 144.995 27.1253 144.995 26.5574C144.995 25.9895 145.453 25.6182 146.131 25.6182C146.895 25.6182 147.397 26.1206 147.376 26.8632H150.412C150.324 24.5916 148.599 23.1719 146.196 23.1719C143.772 23.1719 141.959 24.6135 141.959 26.7977C141.959 28.2611 142.767 29.4625 144.929 30.0304L146.851 30.5327C147.419 30.6856 147.659 30.9477 147.659 31.319C147.659 31.8651 147.157 32.2146 146.305 32.2146C145.322 32.2146 144.798 31.7559 144.798 30.9914H141.762Z" fill="#4845D2"/>
<path d="M155.972 34.7284C157.305 34.7284 158.637 34.1168 159.314 33.2213L159.533 34.4445H162.7V23.5234H159.336V29.2024C159.336 30.8405 158.856 31.736 157.305 31.736C156.103 31.736 155.317 31.19 155.317 29.1587V23.5234H151.953V30.3818C151.953 32.9811 153.395 34.7284 155.972 34.7284Z" fill="#4845D2"/>
<path d="M168.034 34.4487V28.4858C168.034 26.651 169.017 26.1267 169.978 26.1267C171.048 26.1267 171.747 26.782 171.747 28.1362V34.4487H175.067V28.4858C175.067 26.6292 176.028 26.1049 176.989 26.1049C178.059 26.1049 178.78 26.7601 178.78 28.1362V34.4487H182.057V27.3062C182.057 24.8162 180.746 23.1562 177.928 23.1562C176.356 23.1562 175.067 23.9206 174.499 25.1001C173.844 23.9206 172.708 23.1562 170.895 23.1562C169.694 23.1562 168.58 23.7022 167.925 24.5759L167.794 23.5275H164.648V34.4487H168.034Z" fill="#4845D2"/>
<path d="M12 28C12 19.1634 19.1634 12 28 12H49C57.8366 12 65 19.1634 65 28V44H28C19.1634 44 12 36.8366 12 28Z" fill="#4845D2"/>
<path d="M49 18H28C22.4772 18 18 22.4772 18 28C18 33.5228 22.4772 38 28 38H49C54.5228 38 59 33.5228 59 28C59 22.4772 54.5228 18 49 18Z" fill="#A5B4FC"/>
<path d="M28 33C30.7614 33 33 30.7614 33 28C33 25.2386 30.7614 23 28 23C25.2386 23 23 25.2386 23 28C23 30.7614 25.2386 33 28 33Z" fill="black"/>
<path d="M26 27C26.5523 27 27 26.5523 27 26C27 25.4477 26.5523 25 26 25C25.4477 25 25 25.4477 25 26C25 26.5523 25.4477 27 26 27Z" fill="white"/>
<path d="M50 33C52.7614 33 55 30.7614 55 28C55 25.2386 52.7614 23 50 23C47.2386 23 45 25.2386 45 28C45 30.7614 47.2386 33 50 33Z" fill="black"/>
<path d="M48 27C48.5523 27 49 26.5523 49 26C49 25.4477 48.5523 25 48 25C47.4477 25 47 25.4477 47 26C47 26.5523 47.4477 27 48 27Z" fill="white"/>
</g>
<defs>
<clipPath id="clip0_6981_92097">
<rect width="171" height="32" fill="white" transform="translate(12 12)"/>
</clipPath>
</defs>
</svg>
