<svg width="194" height="56" viewBox="0 0 194 56" fill="none" xmlns="http://www.w3.org/2000/svg">
<g clip-path="url(#clip0_6981_92126)">
<path d="M63.2773 36.8241H75.2293V33.2241H67.5253V19.6641H63.2773V36.8241Z" fill="#2F234F"/>
<path d="M82.3098 34.4271C80.6058 34.4271 79.7178 32.9391 79.7178 30.7071C79.7178 28.4751 80.6058 26.9631 82.3098 26.9631C84.0138 26.9631 84.9258 28.4751 84.9258 30.7071C84.9258 32.9391 84.0138 34.4271 82.3098 34.4271ZM82.3338 37.2111C86.2938 37.2111 88.8858 34.4031 88.8858 30.7071C88.8858 27.0111 86.2938 24.2031 82.3338 24.2031C78.3978 24.2031 75.7578 27.0111 75.7578 30.7071C75.7578 34.4031 78.3978 37.2111 82.3338 37.2111Z" fill="#2F234F"/>
<path d="M95.7406 41.0679C97.5646 41.0679 99.1726 40.6599 100.253 39.6999C101.237 38.8119 101.885 37.4679 101.885 35.6199V24.5319H98.1406V25.8519H98.0926C97.3726 24.8199 96.2686 24.1719 94.6366 24.1719C91.5886 24.1719 89.4766 26.7159 89.4766 30.3159C89.4766 34.0839 92.0446 36.1479 94.8046 36.1479C96.2926 36.1479 97.2286 35.5479 97.9486 34.7319H98.0446V35.9559C98.0446 37.4439 97.3486 38.3079 95.6926 38.3079C94.3966 38.3079 93.7486 37.7559 93.5326 37.1079H89.7406C90.1246 39.6759 92.3566 41.0679 95.7406 41.0679ZM95.7166 33.2439C94.2526 33.2439 93.2926 32.0439 93.2926 30.1959C93.2926 28.3239 94.2526 27.1239 95.7166 27.1239C97.3486 27.1239 98.2126 28.5159 98.2126 30.1719C98.2126 31.8999 97.4206 33.2439 95.7166 33.2439Z" fill="#2F234F"/>
<path d="M109.583 34.4193C107.879 34.4193 106.991 32.9313 106.991 30.6993C106.991 28.4673 107.879 26.9553 109.583 26.9553C111.287 26.9553 112.199 28.4673 112.199 30.6993C112.199 32.9313 111.287 34.4193 109.583 34.4193ZM109.607 37.2033C113.567 37.2033 116.159 34.3953 116.159 30.6993C116.159 27.0033 113.567 24.1953 109.607 24.1953C105.671 24.1953 103.031 27.0033 103.031 30.6993C103.031 34.3953 105.671 37.2033 109.607 37.2033Z" fill="#2F234F"/>
<path d="M117.305 36.8241H121.217V24.5361H117.305V36.8241ZM117.305 22.8321H121.217V19.6641H117.305V22.8321Z" fill="#2F234F"/>
<path d="M122.91 40.8759H126.822V35.5479H126.87C127.638 36.5799 128.766 37.2039 130.35 37.2039C133.566 37.2039 135.702 34.6599 135.702 30.6759C135.702 26.9799 133.71 24.1719 130.446 24.1719C128.766 24.1719 127.566 24.9159 126.726 26.0199H126.654V24.5319H122.91V40.8759ZM129.342 34.1799C127.662 34.1799 126.702 32.8119 126.702 30.8199C126.702 28.8279 127.566 27.3159 129.27 27.3159C130.95 27.3159 131.742 28.7079 131.742 30.8199C131.742 32.9079 130.83 34.1799 129.342 34.1799Z" fill="#2F234F"/>
<path d="M142.07 37.2039C145.286 37.2039 147.662 35.8119 147.662 33.1239C147.662 29.9799 145.118 29.4279 142.958 29.0679C141.398 28.7799 140.006 28.6599 140.006 27.7959C140.006 27.0279 140.75 26.6679 141.71 26.6679C142.79 26.6679 143.534 27.0039 143.678 28.1079H147.278C147.086 25.6839 145.214 24.1719 141.734 24.1719C138.83 24.1719 136.43 25.5159 136.43 28.1079C136.43 30.9879 138.71 31.5639 140.846 31.9239C142.478 32.2119 143.966 32.3319 143.966 33.4359C143.966 34.2279 143.222 34.6599 142.046 34.6599C140.75 34.6599 139.934 34.0599 139.79 32.8359H136.094C136.214 35.5479 138.47 37.2039 142.07 37.2039Z" fill="#2F234F"/>
<path d="M152.976 37.1871C154.68 37.1871 155.76 36.5151 156.648 35.3151H156.72V36.8271H160.464V24.5391H156.552V31.4031C156.552 32.8671 155.736 33.8751 154.392 33.8751C153.144 33.8751 152.544 33.1311 152.544 31.7871V24.5391H148.656V32.6031C148.656 35.3391 150.144 37.1871 152.976 37.1871Z" fill="#2F234F"/>
<path d="M162.168 36.8199H166.08V29.9319C166.08 28.4679 166.8 27.4359 168.024 27.4359C169.2 27.4359 169.752 28.2039 169.752 29.5239V36.8199H173.664V29.9319C173.664 28.4679 174.36 27.4359 175.608 27.4359C176.784 27.4359 177.336 28.2039 177.336 29.5239V36.8199H181.248V28.8279C181.248 26.0679 179.856 24.1719 177.072 24.1719C175.488 24.1719 174.168 24.8439 173.208 26.3319H173.16C172.536 25.0119 171.312 24.1719 169.704 24.1719C167.928 24.1719 166.752 25.0119 165.984 26.2839H165.912V24.5319H162.168V36.8199Z" fill="#2F234F"/>
<path fill-rule="evenodd" clip-rule="evenodd" d="M32.1015 47.8203C43.1473 47.8203 52.1015 38.866 52.1015 27.8203C52.1015 16.7746 43.1473 7.82031 32.1015 7.82031C21.0559 7.82031 12.1016 16.7746 12.1016 27.8203C12.1016 38.866 21.0559 47.8203 32.1015 47.8203ZM35.1885 23.2729C36.8933 21.568 36.8933 18.8039 35.1885 17.099C33.4836 15.3941 30.7195 15.3941 29.0146 17.099C27.3098 18.8039 27.3098 21.568 29.0146 23.2729L32.1015 26.3598L35.1885 23.2729ZM36.649 30.9073C38.3539 32.6122 41.118 32.6122 42.8229 30.9073C44.5277 29.2024 44.5277 26.4383 42.8229 24.7334C41.118 23.0286 38.3539 23.0286 36.649 24.7334L33.5621 27.8204L36.649 30.9073ZM35.1885 38.5417C36.8933 36.8368 36.8933 34.0727 35.1885 32.3678L32.1015 29.2809L29.0146 32.3678C27.3098 34.0727 27.3098 36.8368 29.0146 38.5417C30.7195 40.2466 33.4836 40.2466 35.1885 38.5417ZM21.3802 30.9073C19.6754 29.2024 19.6754 26.4383 21.3802 24.7334C23.0851 23.0286 25.8492 23.0286 27.5541 24.7334L30.641 27.8204L27.5541 30.9073C25.8492 32.6122 23.0851 32.6122 21.3802 30.9073Z" fill="#7F57F1"/>
</g>
<defs>
<clipPath id="clip0_6981_92126">
<rect width="170" height="41" fill="white" transform="translate(12 7.5)"/>
</clipPath>
</defs>
</svg>
