<svg width="179" height="56" viewBox="0 0 179 56" fill="none" xmlns="http://www.w3.org/2000/svg">
<g clip-path="url(#clip0_6981_92138)">
<path d="M61.2773 36.4569H73.2293V32.8569H65.5253V19.2969H61.2773V36.4569Z" fill="#3C2B1F"/>
<path d="M80.3098 34.0521C78.6058 34.0521 77.7178 32.5641 77.7178 30.3321C77.7178 28.1001 78.6058 26.5881 80.3098 26.5881C82.0138 26.5881 82.9258 28.1001 82.9258 30.3321C82.9258 32.5641 82.0138 34.0521 80.3098 34.0521ZM80.3338 36.8361C84.2938 36.8361 86.8858 34.0281 86.8858 30.3321C86.8858 26.6361 84.2938 23.8281 80.3338 23.8281C76.3978 23.8281 73.7578 26.6361 73.7578 30.3321C73.7578 34.0281 76.3978 36.8361 80.3338 36.8361Z" fill="#3C2B1F"/>
<path d="M93.7406 40.7007C95.5646 40.7007 97.1726 40.2927 98.2526 39.3327C99.2366 38.4447 99.8846 37.1007 99.8846 35.2527V24.1647H96.1406V25.4847H96.0926C95.3726 24.4527 94.2686 23.8047 92.6366 23.8047C89.5886 23.8047 87.4766 26.3487 87.4766 29.9487C87.4766 33.7167 90.0446 35.7807 92.8046 35.7807C94.2926 35.7807 95.2286 35.1807 95.9486 34.3647H96.0446V35.5887C96.0446 37.0767 95.3486 37.9407 93.6926 37.9407C92.3966 37.9407 91.7486 37.3887 91.5326 36.7407H87.7406C88.1246 39.3087 90.3566 40.7007 93.7406 40.7007ZM93.7166 32.8767C92.2526 32.8767 91.2926 31.6767 91.2926 29.8287C91.2926 27.9567 92.2526 26.7567 93.7166 26.7567C95.3486 26.7567 96.2126 28.1487 96.2126 29.8047C96.2126 31.5327 95.4206 32.8767 93.7166 32.8767Z" fill="#3C2B1F"/>
<path d="M107.583 34.0521C105.879 34.0521 104.991 32.5641 104.991 30.3321C104.991 28.1001 105.879 26.5881 107.583 26.5881C109.287 26.5881 110.199 28.1001 110.199 30.3321C110.199 32.5641 109.287 34.0521 107.583 34.0521ZM107.607 36.8361C111.567 36.8361 114.159 34.0281 114.159 30.3321C114.159 26.6361 111.567 23.8281 107.607 23.8281C103.671 23.8281 101.031 26.6361 101.031 30.3321C101.031 34.0281 103.671 36.8361 107.607 36.8361Z" fill="#3C2B1F"/>
<path d="M115.305 36.4569H119.217V24.1689H115.305V36.4569ZM115.305 22.4649H119.217V19.2969H115.305V22.4649Z" fill="#3C2B1F"/>
<path d="M120.91 40.5087H124.822V35.1807H124.87C125.638 36.2127 126.766 36.8367 128.35 36.8367C131.566 36.8367 133.702 34.2927 133.702 30.3087C133.702 26.6127 131.71 23.8047 128.446 23.8047C126.766 23.8047 125.566 24.5487 124.726 25.6527H124.654V24.1647H120.91V40.5087ZM127.342 33.8127C125.662 33.8127 124.702 32.4447 124.702 30.4527C124.702 28.4607 125.566 26.9487 127.27 26.9487C128.95 26.9487 129.742 28.3407 129.742 30.4527C129.742 32.5407 128.83 33.8127 127.342 33.8127Z" fill="#3C2B1F"/>
<path d="M140.07 36.8367C143.286 36.8367 145.662 35.4447 145.662 32.7567C145.662 29.6127 143.118 29.0607 140.958 28.7007C139.398 28.4127 138.006 28.2927 138.006 27.4287C138.006 26.6607 138.75 26.3007 139.71 26.3007C140.79 26.3007 141.534 26.6367 141.678 27.7407H145.278C145.086 25.3167 143.214 23.8047 139.734 23.8047C136.83 23.8047 134.43 25.1487 134.43 27.7407C134.43 30.6207 136.71 31.1967 138.846 31.5567C140.478 31.8447 141.966 31.9647 141.966 33.0687C141.966 33.8607 141.222 34.2927 140.046 34.2927C138.75 34.2927 137.934 33.6927 137.79 32.4687H134.094C134.214 35.1807 136.47 36.8367 140.07 36.8367Z" fill="#3C2B1F"/>
<path d="M150.976 36.8121C152.68 36.8121 153.76 36.1401 154.648 34.9401H154.72V36.4521H158.464V24.1641H154.552V31.0281C154.552 32.4921 153.736 33.5001 152.392 33.5001C151.144 33.5001 150.544 32.7561 150.544 31.4121V24.1641H146.656V32.2281C146.656 34.9641 148.144 36.8121 150.976 36.8121Z" fill="#3C2B1F"/>
<path d="M160.168 36.4527H164.08V29.5647C164.08 28.1007 164.8 27.0687 166.024 27.0687C167.2 27.0687 167.752 27.8367 167.752 29.1567V36.4527H171.664V29.5647C171.664 28.1007 172.36 27.0687 173.608 27.0687C174.784 27.0687 175.336 27.8367 175.336 29.1567V36.4527H179.248V28.4607C179.248 25.7007 177.856 23.8047 175.072 23.8047C173.488 23.8047 172.168 24.4767 171.208 25.9647H171.16C170.536 24.6447 169.312 23.8047 167.704 23.8047C165.928 23.8047 164.752 24.6447 163.984 25.9167H163.912V24.1647H160.168V36.4527Z" fill="#3C2B1F"/>
<path d="M37.4128 9.47573L33.4798 8.42188L30.1654 20.7914L27.1731 9.62411L23.24 10.678L26.473 22.7434L18.4204 14.6909L15.5412 17.57L24.3739 26.4028L13.3742 23.4554L12.3203 27.3884L24.3389 30.6088C24.2013 30.0153 24.1285 29.3969 24.1285 28.7615C24.1285 24.2639 27.7745 20.6179 32.2721 20.6179C36.7697 20.6179 40.4157 24.2639 40.4157 28.7615C40.4157 29.3928 40.3438 30.0074 40.2079 30.5974L51.1306 33.5241L52.1844 29.5911L40.118 26.3579L51.1185 23.4103L50.0646 19.4773L37.9987 22.7103L46.0513 14.6578L43.1721 11.7786L34.4619 20.4888L37.4128 9.47573Z" fill="#F97316"/>
<path d="M40.1939 30.6406C39.8567 32.0662 39.1448 33.3469 38.168 34.373L46.081 42.2861L48.9602 39.4069L40.1939 30.6406Z" fill="#F97316"/>
<path d="M38.0881 34.4609C37.0995 35.4706 35.8502 36.2241 34.4492 36.6124L37.3286 47.3584L41.2616 46.3045L38.0881 34.4609Z" fill="#F97316"/>
<path d="M34.3023 36.6464C33.6523 36.8135 32.971 36.9023 32.2689 36.9023C31.5167 36.9023 30.7883 36.8003 30.0968 36.6094L27.2148 47.3652L31.1478 48.419L34.3023 36.6464Z" fill="#F97316"/>
<path d="M29.9607 36.5739C28.5811 36.1663 27.354 35.4032 26.3856 34.3906L18.4531 42.3231L21.3323 45.2023L29.9607 36.5739Z" fill="#F97316"/>
<path d="M26.3163 34.319C25.3645 33.3 24.6712 32.0364 24.3412 30.6328L13.3828 33.5691L14.4367 37.5021L26.3163 34.319Z" fill="#F97316"/>
</g>
<defs>
<clipPath id="clip0_6981_92138">
<rect width="168" height="41" fill="white" transform="translate(12 7.5)"/>
</clipPath>
</defs>
</svg>
