<svg width="194" height="56" viewBox="0 0 194 56" fill="none" xmlns="http://www.w3.org/2000/svg">
<g clip-path="url(#clip0_6981_92114)">
<path d="M63.8594 35.6366H75.8114V32.0366H68.1074V18.4766H63.8594V35.6366Z" fill="#340E0E"/>
<path d="M82.8958 33.2396C81.1918 33.2396 80.3037 31.7516 80.3037 29.5196C80.3037 27.2876 81.1918 25.7756 82.8958 25.7756C84.5998 25.7756 85.5117 27.2876 85.5117 29.5196C85.5117 31.7516 84.5998 33.2396 82.8958 33.2396ZM82.9197 36.0236C86.8797 36.0236 89.4717 33.2156 89.4717 29.5196C89.4717 25.8236 86.8797 23.0156 82.9197 23.0156C78.9837 23.0156 76.3438 25.8236 76.3438 29.5196C76.3438 33.2156 78.9837 36.0236 82.9197 36.0236Z" fill="#340E0E"/>
<path d="M96.3265 39.8882C98.1505 39.8882 99.7585 39.4802 100.839 38.5202C101.823 37.6322 102.47 36.2882 102.47 34.4402V23.3522H98.7265V24.6722H98.6785C97.9585 23.6402 96.8545 22.9922 95.2225 22.9922C92.1745 22.9922 90.0625 25.5362 90.0625 29.1362C90.0625 32.9042 92.6305 34.9682 95.3905 34.9682C96.8785 34.9682 97.8145 34.3682 98.5345 33.5522H98.6305V34.7762C98.6305 36.2642 97.9345 37.1282 96.2785 37.1282C94.9825 37.1282 94.3345 36.5762 94.1185 35.9282H90.3265C90.7105 38.4962 92.9425 39.8882 96.3265 39.8882ZM96.3025 32.0642C94.8385 32.0642 93.8785 30.8642 93.8785 29.0162C93.8785 27.1442 94.8385 25.9442 96.3025 25.9442C97.9345 25.9442 98.7985 27.3362 98.7985 28.9922C98.7985 30.7202 98.0065 32.0642 96.3025 32.0642Z" fill="#340E0E"/>
<path d="M110.165 33.2396C108.461 33.2396 107.573 31.7516 107.573 29.5196C107.573 27.2876 108.461 25.7756 110.165 25.7756C111.869 25.7756 112.781 27.2876 112.781 29.5196C112.781 31.7516 111.869 33.2396 110.165 33.2396ZM110.189 36.0236C114.149 36.0236 116.741 33.2156 116.741 29.5196C116.741 25.8236 114.149 23.0156 110.189 23.0156C106.253 23.0156 103.613 25.8236 103.613 29.5196C103.613 33.2156 106.253 36.0236 110.189 36.0236Z" fill="#340E0E"/>
<path d="M117.883 35.6366H121.795V23.3486H117.883V35.6366ZM117.883 21.6446H121.795V18.4766H117.883V21.6446Z" fill="#340E0E"/>
<path d="M123.492 39.6962H127.404V34.3682H127.452C128.22 35.4002 129.348 36.0242 130.932 36.0242C134.148 36.0242 136.284 33.4802 136.284 29.4962C136.284 25.8002 134.292 22.9922 131.028 22.9922C129.348 22.9922 128.148 23.7362 127.308 24.8402H127.236V23.3522H123.492V39.6962ZM129.924 33.0002C128.244 33.0002 127.284 31.6322 127.284 29.6402C127.284 27.6482 128.148 26.1362 129.852 26.1362C131.532 26.1362 132.324 27.5282 132.324 29.6402C132.324 31.7282 131.412 33.0002 129.924 33.0002Z" fill="#340E0E"/>
<path d="M142.656 36.0242C145.872 36.0242 148.248 34.6322 148.248 31.9442C148.248 28.8002 145.704 28.2482 143.544 27.8882C141.984 27.6002 140.592 27.4802 140.592 26.6162C140.592 25.8482 141.336 25.4882 142.296 25.4882C143.376 25.4882 144.12 25.8242 144.264 26.9282H147.864C147.672 24.5042 145.8 22.9922 142.32 22.9922C139.416 22.9922 137.016 24.3362 137.016 26.9282C137.016 29.8082 139.296 30.3842 141.432 30.7442C143.064 31.0322 144.552 31.1522 144.552 32.2562C144.552 33.0482 143.808 33.4802 142.632 33.4802C141.336 33.4802 140.52 32.8802 140.376 31.6562H136.68C136.8 34.3682 139.056 36.0242 142.656 36.0242Z" fill="#340E0E"/>
<path d="M153.562 35.9996C155.266 35.9996 156.346 35.3276 157.234 34.1276H157.306V35.6396H161.05V23.3516H157.138V30.2156C157.138 31.6796 156.322 32.6876 154.978 32.6876C153.73 32.6876 153.13 31.9436 153.13 30.5996V23.3516H149.242V31.4156C149.242 34.1516 150.73 35.9996 153.562 35.9996Z" fill="#340E0E"/>
<path d="M162.75 35.6402H166.662V28.7522C166.662 27.2882 167.382 26.2562 168.606 26.2562C169.782 26.2562 170.334 27.0242 170.334 28.3442V35.6402H174.246V28.7522C174.246 27.2882 174.942 26.2562 176.19 26.2562C177.366 26.2562 177.918 27.0242 177.918 28.3442V35.6402H181.83V27.6482C181.83 24.8882 180.438 22.9922 177.654 22.9922C176.07 22.9922 174.75 23.6642 173.79 25.1522H173.742C173.118 23.8322 171.894 22.9922 170.286 22.9922C168.51 22.9922 167.334 23.8322 166.566 25.1042H166.494V23.3522H162.75V35.6402Z" fill="#340E0E"/>
<path fill-rule="evenodd" clip-rule="evenodd" d="M32.6836 47.6406C43.7293 47.6406 52.6836 38.6863 52.6836 27.6406C52.6836 16.5949 43.7293 7.64062 32.6836 7.64062C21.6379 7.64062 12.6836 16.5949 12.6836 27.6406C12.6836 38.6863 21.6379 47.6406 32.6836 47.6406ZM38.9229 16.9575C39.2266 15.8787 38.1797 15.2408 37.2236 15.9219L23.8767 25.4302C22.8398 26.1689 23.0029 27.6406 24.1217 27.6406H27.6363V27.6134H34.4861L28.9048 29.5827L26.4443 38.3238C26.1406 39.4026 27.1874 40.0405 28.1436 39.3593L41.4905 29.8511C42.5274 29.1124 42.3642 27.6406 41.2455 27.6406H35.9157L38.9229 16.9575Z" fill="#F15757"/>
</g>
<defs>
<clipPath id="clip0_6981_92114">
<rect width="170" height="41" fill="white" transform="translate(12 7.5)"/>
</clipPath>
</defs>
</svg>
