<svg width="106" height="41" viewBox="0 0 106 41" fill="none" xmlns="http://www.w3.org/2000/svg">
<path d="M21.6016 20.7895C21.6016 19.2927 22.4795 18.25 23.8213 18.25C25.163 18.25 26.0409 19.2927 26.0409 20.7895C26.0409 22.2695 25.163 23.329 23.8213 23.329C22.4795 23.329 21.6016 22.2695 21.6016 20.7895Z" fill="#152C4F"/>
<path d="M32.9493 18.1875C31.6739 18.1875 30.8125 19.1965 30.8125 20.5756C30.8125 21.9715 31.6904 23.0142 32.9493 23.0142C34.3407 23.0142 35.2684 21.9547 35.2684 20.5756C35.2684 19.2134 34.3407 18.1875 32.9493 18.1875Z" fill="#152C4F"/>
<path d="M40.3438 20.7895C40.3438 19.2927 41.2217 18.25 42.5635 18.25C43.9052 18.25 44.7831 19.2927 44.7831 20.7895C44.7831 22.2695 43.9052 23.329 42.5635 23.329C41.2217 23.329 40.3438 22.2695 40.3438 20.7895Z" fill="#152C4F"/>
<path d="M53.8438 20.8051C53.8438 19.3083 54.7382 18.2656 56.1462 18.2656C57.5542 18.2656 58.399 19.3252 58.399 20.8051C58.399 22.2851 57.5542 23.3278 56.1462 23.3278C54.7382 23.3278 53.8438 22.3019 53.8438 20.8051Z" fill="#152C4F"/>
<path fill-rule="evenodd" clip-rule="evenodd" d="M53.0006 38.3888C81.1457 38.3888 103.962 30.2604 103.962 20.2335C103.962 10.2065 81.1457 2.07812 53.0006 2.07812C24.8553 2.07812 2.03906 10.2065 2.03906 20.2335C2.03906 30.2604 24.8553 38.3888 53.0006 38.3888ZM18.3292 24.9651V12.4526H16.3083V24.9651H18.3292ZM19.5661 20.7942C19.5661 23.3506 21.2557 25.1669 23.8232 25.1669C26.3908 25.1669 28.0804 23.3506 28.0804 20.7942C28.0804 18.2379 26.3908 16.4216 23.8232 16.4216C21.2557 16.4216 19.5661 18.2379 19.5661 20.7942ZM32.6031 24.7969C30.3006 24.7969 28.76 23.0479 28.76 20.6261C28.76 18.1875 30.3337 16.388 32.6693 16.388C33.8786 16.388 34.9055 16.9094 35.4025 17.7839L35.5184 16.657H37.3074V24.5447C37.3074 27.286 35.6179 29.0518 32.9675 29.0518C30.7147 29.0518 29.0748 27.6392 28.8098 25.4696H30.8472C30.9631 26.5628 31.8246 27.1851 33.0834 27.1851C34.4914 27.1851 35.3363 26.2769 35.3363 24.9146V23.502C34.8227 24.3092 33.7957 24.7969 32.6031 24.7969ZM38.3075 20.7942C38.3075 23.3506 39.9972 25.1669 42.5647 25.1669C45.1322 25.1669 46.8218 23.3506 46.8218 20.7942C46.8218 18.2379 45.1322 16.4216 42.5647 16.4216C39.9972 16.4216 38.3075 18.2379 38.3075 20.7942ZM50.2181 13.7308C50.2181 14.4203 49.6715 14.9585 49.0089 14.9585C48.3297 14.9585 47.8162 14.4203 47.8162 13.7308C47.8162 13.058 48.3297 12.5199 49.0089 12.5199C49.6715 12.5199 50.2181 13.058 50.2181 13.7308ZM50.0193 16.657V24.9651H47.9985V16.657H50.0193ZM51.7898 28.8164H53.761V23.8215C54.2745 24.6792 55.3843 25.1837 56.6102 25.1837C59.0286 25.1837 60.4697 23.3001 60.4366 20.7102C60.3869 18.1034 58.9126 16.4048 56.5936 16.4048C55.3512 16.4048 54.2248 16.9598 53.7279 17.9184L53.6119 16.657H51.7898V28.8164ZM64.2295 25.1837C62.2749 25.1837 61.016 24.1242 60.9497 22.476H62.7884C62.7884 23.1992 63.3019 23.6196 64.1964 23.6196C64.9418 23.6196 65.5547 23.317 65.5547 22.661C65.5547 22.1901 65.2234 21.9378 64.6933 21.7865L63.2688 21.4165C61.6951 20.9961 61.0822 20.1047 61.0822 19.0284C61.0822 17.4475 62.3909 16.4048 64.1467 16.4048C65.9191 16.4048 67.1283 17.4475 67.1946 19.0957H65.356C65.356 18.3725 64.859 17.9352 64.097 17.9352C63.3682 17.9352 62.9209 18.3388 62.9209 18.9107C62.9209 19.4489 63.335 19.6675 63.9479 19.8356L65.3891 20.1888C66.7308 20.5251 67.4596 21.3324 67.4596 22.5265C67.4596 24.141 66.151 25.1837 64.2295 25.1837ZM71.6516 25.1837C72.7611 25.1837 73.8211 24.6623 74.3016 23.8887L74.4345 24.9651H76.3227V16.657H74.3016V21.0129C74.3016 22.5097 73.7384 23.3506 72.4134 23.3506C71.3867 23.3506 70.6743 22.846 70.6743 21.1307V16.657H68.6532V21.8538C68.6532 23.8383 69.7133 25.1837 71.6516 25.1837ZM80.1274 20.1888V24.9651H78.1063V16.657H79.9613L80.061 17.5989C80.5415 16.8589 81.4029 16.4048 82.3633 16.4048C83.7215 16.4048 84.6162 17.0102 85.0635 17.9857C85.4613 17.0102 86.4386 16.4048 87.681 16.4048C89.6688 16.4048 90.7119 17.6157 90.7119 19.5329V24.9651H88.7572V20.0038C88.7572 18.8266 88.1283 18.2043 87.151 18.2043C86.1899 18.2043 85.4281 18.8434 85.4281 20.2056V24.9651H83.4565V20.0038C83.4565 18.8266 82.8276 18.2043 81.8665 18.2043C80.9062 18.2043 80.1274 18.8434 80.1274 20.1888Z" fill="#152C4F"/>
</svg>
