<svg width="90" height="90" viewBox="0 0 90 90" fill="none" xmlns="http://www.w3.org/2000/svg">
<path d="M25.582 2.50781H6.18984C4.82294 2.50781 3.71484 3.61591 3.71484 4.98281V24.375C3.71484 25.7419 4.82294 26.85 6.18984 26.85H25.582C26.9489 26.85 28.057 25.7419 28.057 24.375V4.98281C28.057 3.61591 26.9489 2.50781 25.582 2.50781Z" fill="#FBB316"/>
<path d="M25.582 28.2567H6.18984C5.16161 28.253 4.17655 27.8428 3.44948 27.1158C2.72241 26.3887 2.3123 25.4036 2.30859 24.3754V4.98322C2.3123 3.95499 2.72241 2.96993 3.44948 2.24285C4.17655 1.51578 5.16161 1.10567 6.18984 1.10197H25.582C26.0971 1.09453 26.6085 1.18932 27.0867 1.38086C27.5649 1.57241 28.0004 1.85689 28.3679 2.21786C28.7354 2.57882 29.0276 3.0091 29.2277 3.48377C29.4278 3.95845 29.5318 4.4681 29.5336 4.98322V24.3754C29.5318 24.8905 29.4278 25.4002 29.2277 25.8749C29.0276 26.3495 28.7354 26.7798 28.3679 27.1408C28.0004 27.5017 27.5649 27.7862 27.0867 27.9778C26.6085 28.1693 26.0971 28.2641 25.582 28.2567ZM6.18984 3.91447C5.90639 3.91447 5.63455 4.02707 5.43412 4.2275C5.23369 4.42793 5.12109 4.69977 5.12109 4.98322V24.3754C5.12109 24.5158 5.14874 24.6547 5.20245 24.7844C5.25616 24.9141 5.33488 25.0319 5.43412 25.1311C5.53337 25.2304 5.65118 25.3091 5.78085 25.3628C5.91052 25.4165 6.04949 25.4442 6.18984 25.4442H25.582C25.8644 25.4405 26.1341 25.3267 26.3337 25.1271C26.5334 24.9275 26.6471 24.6577 26.6508 24.3754V4.98322C26.6471 4.7009 26.5334 4.43117 26.3337 4.23153C26.1341 4.03188 25.8644 3.91811 25.582 3.91447H6.18984Z" fill="black"/>
<path d="M25.582 32.6953H6.18984C4.82294 32.6953 3.71484 33.8034 3.71484 35.1703V54.5625C3.71484 55.9294 4.82294 57.0375 6.18984 57.0375H25.582C26.9489 57.0375 28.057 55.9294 28.057 54.5625V35.1703C28.057 33.8034 26.9489 32.6953 25.582 32.6953Z" fill="#FBB316"/>
<path d="M25.582 58.4442H6.18984C5.16161 58.4405 4.17655 58.0303 3.44948 57.3033C2.72241 56.5762 2.3123 55.5911 2.30859 54.5629V35.1567C2.31599 34.1309 2.72773 33.1494 3.45441 32.4254C4.18108 31.7013 5.16404 31.2931 6.18984 31.2895H25.582C26.0959 31.282 26.6062 31.3764 27.0835 31.567C27.5608 31.7577 27.9956 32.0409 28.3629 32.4004C28.7302 32.7599 29.0228 33.1885 29.2237 33.6615C29.4246 34.1346 29.5299 34.6427 29.5336 35.1567V54.5629C29.5318 55.078 29.4278 55.5877 29.2277 56.0624C29.0276 56.537 28.7354 56.9673 28.3679 57.3283C28.0004 57.6892 27.5649 57.9737 27.0867 58.1653C26.6085 58.3568 26.0971 58.4516 25.582 58.4442ZM6.18984 34.102C5.90639 34.102 5.63455 34.2146 5.43412 34.415C5.23369 34.6154 5.12109 34.8873 5.12109 35.1707V54.5629C5.12109 54.8464 5.23369 55.1182 5.43412 55.3186C5.63455 55.5191 5.90639 55.6317 6.18984 55.6317H25.582C25.7277 55.6392 25.8734 55.6173 26.0104 55.5672C26.1474 55.5171 26.2729 55.4398 26.3793 55.34C26.4856 55.2401 26.5708 55.1199 26.6295 54.9863C26.6882 54.8528 26.7194 54.7088 26.7211 54.5629V35.1567C26.7175 34.8743 26.6037 34.6046 26.404 34.405C26.2044 34.2053 25.9347 34.0916 25.6523 34.0879L6.18984 34.102Z" fill="black"/>
<path d="M25.582 62.8828H6.18984C4.82294 62.8828 3.71484 63.9909 3.71484 65.3578V84.75C3.71484 86.1169 4.82294 87.225 6.18984 87.225H25.582C26.9489 87.225 28.057 86.1169 28.057 84.75V65.3578C28.057 63.9909 26.9489 62.8828 25.582 62.8828Z" fill="#FBB316"/>
<path d="M25.582 88.5895H6.18984C5.16161 88.5858 4.17655 88.1757 3.44948 87.4486C2.72241 86.7215 2.3123 85.7365 2.30859 84.7082V65.3582C2.3123 64.33 2.72241 63.3449 3.44948 62.6179C4.17655 61.8908 5.16161 61.4807 6.18984 61.477H25.582C26.0971 61.4695 26.6085 61.5643 27.0867 61.7559C27.5649 61.9474 28.0004 62.2319 28.3679 62.5929C28.7354 62.9538 29.0276 63.3841 29.2277 63.8588C29.4278 64.3334 29.5318 64.8431 29.5336 65.3582V84.7504C29.5263 85.262 29.4182 85.7671 29.2157 86.2369C29.0131 86.7067 28.72 87.132 28.353 87.4885C27.9861 87.845 27.5525 88.1257 27.077 88.3146C26.6016 88.5035 26.0936 88.5969 25.582 88.5895ZM6.18984 64.2895C5.90639 64.2895 5.63455 64.4021 5.43412 64.6025C5.23369 64.8029 5.12109 65.0748 5.12109 65.3582V84.7504C5.132 85.0265 5.2494 85.2876 5.44866 85.479C5.64792 85.6704 5.91355 85.7772 6.18984 85.777H25.582C25.8644 85.7733 26.1341 85.6596 26.3337 85.4599C26.5334 85.2603 26.6471 84.9905 26.6508 84.7082V65.3582C26.6471 65.0759 26.5334 64.8062 26.3337 64.6065C26.1341 64.4069 25.8644 64.2931 25.582 64.2895H6.18984Z" fill="black"/>
<path d="M55.2266 2.50781H35.8344C34.4675 2.50781 33.3594 3.61591 33.3594 4.98281V24.375C33.3594 25.7419 34.4675 26.85 35.8344 26.85H55.2266C56.5935 26.85 57.7016 25.7419 57.7016 24.375V4.98281C57.7016 3.61591 56.5935 2.50781 55.2266 2.50781Z" fill="#00CAFF"/>
<path d="M55.2266 28.2562H35.8344C34.8061 28.2525 33.8211 27.8424 33.094 27.1154C32.3669 26.3883 31.9568 25.4032 31.9531 24.375V4.98281C31.9568 3.95458 32.3669 2.96952 33.094 2.24245C33.8211 1.51537 34.8061 1.10527 35.8344 1.10156H55.2266C56.2475 1.1163 57.2217 1.53127 57.9397 2.25716C58.6577 2.98305 59.062 3.96182 59.0656 4.98281V24.375C59.062 25.396 58.6577 26.3748 57.9397 27.1007C57.2217 27.8265 56.2475 28.2415 55.2266 28.2562ZM35.8344 3.91406C35.5509 3.91406 35.2791 4.02666 35.0787 4.22709C34.8782 4.42752 34.7656 4.69936 34.7656 4.98281V24.375C34.7656 24.5153 34.7933 24.6543 34.847 24.784C34.9007 24.9137 34.9794 25.0315 35.0787 25.1307C35.1779 25.23 35.2957 25.3087 35.4254 25.3624C35.5551 25.4161 35.694 25.4437 35.8344 25.4437H55.2266C55.3669 25.4437 55.5059 25.4161 55.6356 25.3624C55.7652 25.3087 55.883 25.23 55.9823 25.1307C56.0815 25.0315 56.1602 24.9137 56.214 24.784C56.2677 24.6543 56.2953 24.5153 56.2953 24.375V4.98281C56.2953 4.69936 56.1827 4.42752 55.9823 4.22709C55.7819 4.02666 55.51 3.91406 55.2266 3.91406H35.8344Z" fill="black"/>
<path d="M55.2266 32.6953H35.8344C34.4675 32.6953 33.3594 33.8034 33.3594 35.1703V54.5625C33.3594 55.9294 34.4675 57.0375 35.8344 57.0375H55.2266C56.5935 57.0375 57.7016 55.9294 57.7016 54.5625V35.1703C57.7016 33.8034 56.5935 32.6953 55.2266 32.6953Z" fill="#539643"/>
<path d="M55.2266 58.4422H35.8344C34.8061 58.4385 33.8211 58.0284 33.094 57.3013C32.3669 56.5742 31.9568 55.5892 31.9531 54.5609V35.1547C31.9568 34.1265 32.3669 33.1414 33.094 32.4143C33.8211 31.6872 34.8061 31.2771 35.8344 31.2734H55.2266C56.2475 31.2882 57.2217 31.7031 57.9397 32.429C58.6577 33.1549 59.062 34.1337 59.0656 35.1547V54.5609C59.062 55.5819 58.6577 56.5607 57.9397 57.2866C57.2217 58.0125 56.2475 58.4275 55.2266 58.4422ZM35.8344 34.1C35.5509 34.1 35.2791 34.2126 35.0787 34.413C34.8782 34.6135 34.7656 34.8853 34.7656 35.1688V54.5609C34.7656 54.8444 34.8782 55.1162 35.0787 55.3167C35.2791 55.5171 35.5509 55.6297 35.8344 55.6297H55.2266C55.5026 55.6188 55.7638 55.5014 55.9552 55.3021C56.1465 55.1029 56.2533 54.8372 56.2531 54.5609V35.1547C56.2531 34.8712 56.1405 34.5994 55.9401 34.399C55.7397 34.1985 55.4678 34.0859 55.1844 34.0859L35.8344 34.1Z" fill="black"/>
<path d="M55.2266 62.8828H35.8344C34.4675 62.8828 33.3594 63.9909 33.3594 65.3578V84.75C33.3594 86.1169 34.4675 87.225 35.8344 87.225H55.2266C56.5935 87.225 57.7016 86.1169 57.7016 84.75V65.3578C57.7016 63.9909 56.5935 62.8828 55.2266 62.8828Z" fill="#539643"/>
<path d="M55.2266 88.5891H35.8344C34.8061 88.5854 33.8211 88.1753 33.094 87.4482C32.3669 86.7211 31.9568 85.736 31.9531 84.7078V65.3578C31.9568 64.3296 32.3669 63.3445 33.094 62.6174C33.8211 61.8904 34.8061 61.4803 35.8344 61.4766H55.2266C56.2475 61.4913 57.2217 61.9063 57.9397 62.6322C58.6577 63.358 59.062 64.3368 59.0656 65.3578V84.75C59.0511 85.7637 58.642 86.7317 57.9251 87.4485C57.2083 88.1654 56.2402 88.5745 55.2266 88.5891ZM35.8344 64.2891C35.5509 64.2891 35.2791 64.4017 35.0787 64.6021C34.8782 64.8025 34.7656 65.0744 34.7656 65.3578V84.75C34.7656 85.0334 34.8782 85.3053 35.0787 85.5057C35.2791 85.7061 35.5509 85.8187 35.8344 85.8187H55.2266C55.51 85.8187 55.7819 85.7061 55.9823 85.5057C56.1827 85.3053 56.2953 85.0334 56.2953 84.75V65.3578C56.2953 65.0744 56.1827 64.8025 55.9823 64.6021C55.7819 64.4017 55.51 64.2891 55.2266 64.2891H35.8344Z" fill="black"/>
<path d="M84.8672 2.50781H65.475C64.1081 2.50781 63 3.61591 63 4.98281V24.375C63 25.7419 64.1081 26.85 65.475 26.85H84.8672C86.2341 26.85 87.3422 25.7419 87.3422 24.375V4.98281C87.3422 3.61591 86.2341 2.50781 84.8672 2.50781Z" fill="#FF526A"/>
<path d="M84.8672 28.2562H65.475C64.4468 28.2525 63.4617 27.8424 62.7346 27.1154C62.0076 26.3883 61.5975 25.4032 61.5938 24.375V4.98281C61.5975 3.95458 62.0076 2.96952 62.7346 2.24245C63.4617 1.51537 64.4468 1.10527 65.475 1.10156H84.8672C85.8954 1.10527 86.8805 1.51537 87.6075 2.24245C88.3346 2.96952 88.7447 3.95458 88.7484 4.98281V24.375C88.7447 25.4032 88.3346 26.3883 87.6075 27.1154C86.8805 27.8424 85.8954 28.2525 84.8672 28.2562ZM65.475 3.91406C65.1916 3.91406 64.9197 4.02666 64.7193 4.22709C64.5189 4.42752 64.4062 4.69936 64.4062 4.98281V24.375C64.4062 24.5153 64.4339 24.6543 64.4876 24.784C64.5413 24.9137 64.62 25.0315 64.7193 25.1307C64.8185 25.23 64.9363 25.3087 65.066 25.3624C65.1957 25.4161 65.3347 25.4437 65.475 25.4437H84.8672C85.0075 25.4437 85.1465 25.4161 85.2762 25.3624C85.4058 25.3087 85.5237 25.23 85.6229 25.1307C85.7222 25.0315 85.8009 24.9137 85.8546 24.784C85.9083 24.6543 85.9359 24.5153 85.9359 24.375V4.98281C85.9359 4.69936 85.8233 4.42752 85.6229 4.22709C85.4225 4.02666 85.1506 3.91406 84.8672 3.91406H65.475Z" fill="black"/>
<path d="M84.8672 32.6953H65.475C64.1081 32.6953 63 33.8034 63 35.1703V54.5625C63 55.9294 64.1081 57.0375 65.475 57.0375H84.8672C86.2341 57.0375 87.3422 55.9294 87.3422 54.5625V35.1703C87.3422 33.8034 86.2341 32.6953 84.8672 32.6953Z" fill="#FFE266"/>
<path d="M84.8672 58.4422H65.475C64.4468 58.4385 63.4617 58.0284 62.7346 57.3013C62.0076 56.5742 61.5975 55.5892 61.5938 54.5609V35.1547C61.5975 34.1265 62.0076 33.1414 62.7346 32.4143C63.4617 31.6872 64.4468 31.2771 65.475 31.2734H84.8672C85.8954 31.2771 86.8805 31.6872 87.6075 32.4143C88.3346 33.1414 88.7447 34.1265 88.7484 35.1547V54.5609C88.7447 55.5892 88.3346 56.5742 87.6075 57.3013C86.8805 58.0284 85.8954 58.4385 84.8672 58.4422ZM65.475 34.1C65.1916 34.1 64.9197 34.2126 64.7193 34.413C64.5189 34.6135 64.4062 34.8853 64.4062 35.1688V54.5609C64.4062 54.8444 64.5189 55.1162 64.7193 55.3167C64.9197 55.5171 65.1916 55.6297 65.475 55.6297H84.8672C85.1506 55.6297 85.4225 55.5171 85.6229 55.3167C85.8233 55.1162 85.9359 54.8444 85.9359 54.5609V35.1547C85.9359 34.8712 85.8233 34.5994 85.6229 34.399C85.4225 34.1985 85.1506 34.0859 84.8672 34.0859L65.475 34.1Z" fill="black"/>
<path d="M84.8672 62.8828H65.475C64.1081 62.8828 63 63.9909 63 65.3578V84.75C63 86.1169 64.1081 87.225 65.475 87.225H84.8672C86.2341 87.225 87.3422 86.1169 87.3422 84.75V65.3578C87.3422 63.9909 86.2341 62.8828 84.8672 62.8828Z" fill="#00CAFF"/>
<path d="M84.8672 88.5891H65.475C64.4468 88.5854 63.4617 88.1753 62.7346 87.4482C62.0076 86.7211 61.5975 85.736 61.5938 84.7078V65.3578C61.5975 64.3296 62.0076 63.3445 62.7346 62.6174C63.4617 61.8904 64.4468 61.4803 65.475 61.4766H84.8672C85.8954 61.4803 86.8805 61.8904 87.6075 62.6174C88.3346 63.3445 88.7447 64.3296 88.7484 65.3578V84.75C88.7337 85.7709 88.3187 86.7452 87.5928 87.4632C86.867 88.1812 85.8882 88.5855 84.8672 88.5891ZM65.475 64.2891C65.1916 64.2891 64.9197 64.4017 64.7193 64.6021C64.5189 64.8025 64.4062 65.0744 64.4062 65.3578V84.75C64.4062 85.0334 64.5189 85.3053 64.7193 85.5057C64.9197 85.7061 65.1916 85.8187 65.475 85.8187H84.8672C85.1506 85.8187 85.4225 85.7061 85.6229 85.5057C85.8233 85.3053 85.9359 85.0334 85.9359 84.75V65.3578C85.9359 65.0744 85.8233 64.8025 85.6229 64.6021C85.4225 64.4017 85.1506 64.2891 84.8672 64.2891H65.475Z" fill="black"/>
<path d="M15.8203 18.4688C17.6843 18.4688 19.1953 16.9577 19.1953 15.0937C19.1953 13.2298 17.6843 11.7188 15.8203 11.7188C13.9564 11.7188 12.4453 13.2298 12.4453 15.0937C12.4453 16.9577 13.9564 18.4688 15.8203 18.4688Z" fill="#070808"/>
<path d="M15.8203 79.2656C17.6843 79.2656 19.1953 77.7546 19.1953 75.8906C19.1953 74.0267 17.6843 72.5156 15.8203 72.5156C13.9564 72.5156 12.4453 74.0267 12.4453 75.8906C12.4453 77.7546 13.9564 79.2656 15.8203 79.2656Z" fill="#070808"/>
<path d="M15.8203 48.25C17.6843 48.25 19.1953 46.739 19.1953 44.875C19.1953 43.011 17.6843 41.5 15.8203 41.5C13.9564 41.5 12.4453 43.011 12.4453 44.875C12.4453 46.739 13.9564 48.25 15.8203 48.25Z" fill="#070808"/>
<path d="M17.2266 15.0938H14.4141V77.0672H17.2266V15.0938Z" fill="#070808"/>
<path d="M14.9461 16.525C15.8159 16.525 16.5211 15.8198 16.5211 14.95C16.5211 14.0802 15.8159 13.375 14.9461 13.375C14.0762 13.375 13.3711 14.0802 13.3711 14.95C13.3711 15.8198 14.0762 16.525 14.9461 16.525Z" fill="white"/>
<path d="M14.9461 46.4469C15.8159 46.4469 16.5211 45.7417 16.5211 44.8719C16.5211 44.002 15.8159 43.2969 14.9461 43.2969C14.0762 43.2969 13.3711 44.002 13.3711 44.8719C13.3711 45.7417 14.0762 46.4469 14.9461 46.4469Z" fill="white"/>
<path d="M14.9461 77.4703C15.8159 77.4703 16.5211 76.7652 16.5211 75.8953C16.5211 75.0255 15.8159 74.3203 14.9461 74.3203C14.0762 74.3203 13.3711 75.0255 13.3711 75.8953C13.3711 76.7652 14.0762 77.4703 14.9461 77.4703Z" fill="white"/>
<path d="M6.46875 6.91406V14.9437C6.46875 15.3167 6.61691 15.6744 6.88063 15.9381C7.14435 16.2018 7.50204 16.35 7.875 16.35C8.24796 16.35 8.60565 16.2018 8.86937 15.9381C9.13309 15.6744 9.28125 15.3167 9.28125 14.9437V6.91406C9.28125 6.5411 9.13309 6.18342 8.86937 5.91969C8.60565 5.65597 8.24796 5.50781 7.875 5.50781C7.50204 5.50781 7.14435 5.65597 6.88063 5.91969C6.61691 6.18342 6.46875 6.5411 6.46875 6.91406Z" fill="white"/>
<path d="M6.46875 37.5312V45.5469C6.46875 45.9198 6.61691 46.2775 6.88063 46.5412C7.14435 46.805 7.50204 46.9531 7.875 46.9531C8.24796 46.9531 8.60565 46.805 8.86937 46.5412C9.13309 46.2775 9.28125 45.9198 9.28125 45.5469V37.5312C9.28125 37.1583 9.13309 36.8006 8.86937 36.5369C8.60565 36.2732 8.24796 36.125 7.875 36.125C7.50204 36.125 7.14435 36.2732 6.88063 36.5369C6.61691 36.8006 6.46875 37.1583 6.46875 37.5312Z" fill="white"/>
<path d="M6.46875 67.1016V75.1312C6.46875 75.5042 6.61691 75.8619 6.88063 76.1256C7.14435 76.3893 7.50204 76.5375 7.875 76.5375C8.24796 76.5375 8.60565 76.3893 8.86937 76.1256C9.13309 75.8619 9.28125 75.5042 9.28125 75.1312V67.1016C9.28125 66.7286 9.13309 66.3709 8.86937 66.1072C8.60565 65.8435 8.24796 65.6953 7.875 65.6953C7.50204 65.6953 7.14435 65.8435 6.88063 66.1072C6.61691 66.3709 6.46875 66.7286 6.46875 67.1016Z" fill="white"/>
<path d="M36.4219 6.82031V14.85C36.4219 15.223 36.57 15.5806 36.8338 15.8444C37.0975 16.1081 37.4552 16.2563 37.8281 16.2563C38.2011 16.2563 38.5588 16.1081 38.8225 15.8444C39.0862 15.5806 39.2344 15.223 39.2344 14.85V6.82031C39.2344 6.44735 39.0862 6.08967 38.8225 5.82594C38.5588 5.56222 38.2011 5.41406 37.8281 5.41406C37.4552 5.41406 37.0975 5.56222 36.8338 5.82594C36.57 6.08967 36.4219 6.44735 36.4219 6.82031Z" fill="white"/>
<path d="M36.4219 37.4219V45.4516C36.4219 45.8245 36.57 46.1822 36.8338 46.4459C37.0975 46.7097 37.4552 46.8578 37.8281 46.8578C38.2011 46.8578 38.5588 46.7097 38.8225 46.4459C39.0862 46.1822 39.2344 45.8245 39.2344 45.4516V37.4219C39.2344 37.0489 39.0862 36.6912 38.8225 36.4275C38.5588 36.1638 38.2011 36.0156 37.8281 36.0156C37.4552 36.0156 37.0975 36.1638 36.8338 36.4275C36.57 36.6912 36.4219 37.0489 36.4219 37.4219Z" fill="white"/>
<path d="M36.4219 67.0078V75.0234C36.4219 75.3964 36.57 75.7541 36.8338 76.0178C37.0975 76.2815 37.4552 76.4297 37.8281 76.4297C38.2011 76.4297 38.5588 76.2815 38.8225 76.0178C39.0862 75.7541 39.2344 75.3964 39.2344 75.0234V67.0078C39.2344 66.6349 39.0862 66.2772 38.8225 66.0134C38.5588 65.7497 38.2011 65.6016 37.8281 65.6016C37.4552 65.6016 37.0975 65.7497 36.8338 66.0134C36.57 66.2772 36.4219 66.6349 36.4219 67.0078Z" fill="white"/>
<path d="M66.3164 6.82031V14.85C66.3164 15.223 66.4646 15.5806 66.7283 15.8444C66.992 16.1081 67.3497 16.2563 67.7227 16.2563C68.0956 16.2563 68.4533 16.1081 68.717 15.8444C68.9807 15.5806 69.1289 15.223 69.1289 14.85V6.82031C69.1289 6.44735 68.9807 6.08967 68.717 5.82594C68.4533 5.56222 68.0956 5.41406 67.7227 5.41406C67.3497 5.41406 66.992 5.56222 66.7283 5.82594C66.4646 6.08967 66.3164 6.44735 66.3164 6.82031Z" fill="white"/>
<path d="M66.3164 37.4219V45.4516C66.3164 45.8245 66.4646 46.1822 66.7283 46.4459C66.992 46.7097 67.3497 46.8578 67.7227 46.8578C68.0956 46.8578 68.4533 46.7097 68.717 46.4459C68.9807 46.1822 69.1289 45.8245 69.1289 45.4516V37.4219C69.1289 37.0489 68.9807 36.6912 68.717 36.4275C68.4533 36.1638 68.0956 36.0156 67.7227 36.0156C67.3497 36.0156 66.992 36.1638 66.7283 36.4275C66.4646 36.6912 66.3164 37.0489 66.3164 37.4219Z" fill="white"/>
<path d="M66.3164 67.0078V75.0234C66.3164 75.3964 66.4646 75.7541 66.7283 76.0178C66.992 76.2815 67.3497 76.4297 67.7227 76.4297C68.0956 76.4297 68.4533 76.2815 68.717 76.0178C68.9807 75.7541 69.1289 75.3964 69.1289 75.0234V67.0078C69.1289 66.6349 68.9807 66.2772 68.717 66.0134C68.4533 65.7497 68.0956 65.6016 67.7227 65.6016C67.3497 65.6016 66.992 65.7497 66.7283 66.0134C66.4646 66.2772 66.3164 66.6349 66.3164 67.0078Z" fill="white"/>
</svg>
