<svg width="90" height="90" viewBox="0 0 90 90" fill="none" xmlns="http://www.w3.org/2000/svg">
<path d="M78.7914 4.02344H11.0102C7.35213 4.02344 4.38672 6.98885 4.38672 10.6469V78.4281C4.38672 82.0862 7.35213 85.0516 11.0102 85.0516H78.7914C82.4494 85.0516 85.4148 82.0862 85.4148 78.4281V10.6469C85.4148 6.98885 82.4494 4.02344 78.7914 4.02344Z" fill="#D8DFE5"/>
<path d="M4.62734 28.9143C4.82463 28.9364 5.02437 28.9166 5.21343 28.856C5.40248 28.7954 5.57656 28.6954 5.72422 28.5627C6.13922 28.0426 6.34037 27.3838 6.28672 26.7205V11.083C6.28672 7.42679 7.80547 5.9221 11.532 5.9221H27.1414C28.5477 5.9221 29.2648 5.38773 29.2789 4.33304C29.2953 4.136 29.27 3.93772 29.2045 3.75114C29.1391 3.56456 29.0351 3.39388 28.8992 3.25023C28.425 2.85292 27.8146 2.65617 27.1977 2.70179H17.4242H10.3227C8.39276 2.73124 6.55147 3.51673 5.19458 4.88939C3.83769 6.26206 3.07355 8.11231 3.06641 10.0424C3.06641 11.8705 3.06641 13.7127 3.06641 15.5408V26.7908C3.06641 28.1268 3.58672 28.8862 4.62734 28.9143Z" fill="#010101"/>
<path d="M83.516 26.9173C83.516 27.8032 83.7973 28.886 85.091 28.9141C85.2904 28.9326 85.4913 28.9082 85.6805 28.8427C85.8696 28.7773 86.0426 28.6722 86.1879 28.5345C86.5827 28.0755 86.7798 27.4789 86.7363 26.8751C86.7363 21.686 86.7363 15.8079 86.7363 10.0001C86.7109 8.071 85.9343 6.22788 84.5714 4.86239C83.2086 3.4969 81.3669 2.71669 79.4379 2.68757C77.6379 2.68757 75.852 2.68757 73.7285 2.68757H62.9285C62.1913 2.6109 61.4525 2.81697 60.8613 3.26414C60.6154 3.56363 60.4945 3.94647 60.5238 4.33289C60.5238 4.79695 60.5238 5.90789 62.8723 5.90789H78.6645C81.9129 5.90789 83.502 7.49695 83.516 10.7454V26.9173Z" fill="#010101"/>
<path d="M10.4329 86.3687H27.1251C28.5314 86.3687 29.2486 85.8344 29.2767 84.7797C29.2929 84.586 29.2688 84.3909 29.2059 84.207C29.143 84.023 29.0426 83.8541 28.9111 83.7109C28.3829 83.2903 27.7133 83.0889 27.0407 83.1484H11.2486C7.92981 83.1484 6.31262 81.5312 6.29856 78.2406V62.0828C6.29856 60.8594 5.70793 60.1562 4.69543 60.1562C3.28918 60.1562 3.09231 61.3797 3.07825 62.0969C3.07825 64.1078 3.07825 66.1047 3.07825 68.1156V73.4594C3.07825 75.2875 3.07825 77.1156 3.07825 78.9578C3.07269 79.9279 3.25872 80.8894 3.62567 81.7874C3.99262 82.6854 4.53326 83.5021 5.21657 84.1906C5.89989 84.8792 6.71243 85.426 7.60758 85.7998C8.50273 86.1736 9.46288 86.3669 10.4329 86.3687Z" fill="#010101"/>
<path d="M83.5156 62.5062V78.2984C83.5156 81.5609 81.9265 83.1359 78.6781 83.1499H62.5202C61.6343 83.1499 60.5656 83.4312 60.5234 84.7109C60.509 84.912 60.5352 85.114 60.6004 85.3049C60.6656 85.4957 60.7685 85.6715 60.9031 85.8218C61.365 86.2113 61.9593 86.4077 62.5624 86.3702H79.0718C80.0863 86.4137 81.0987 86.2465 82.0454 85.8794C82.9921 85.5123 83.8525 84.9532 84.5725 84.2372C85.2924 83.5212 85.8563 82.6638 86.2287 81.7192C86.601 80.7746 86.7737 79.763 86.7359 78.7484V62.5624C86.8244 61.8155 86.6175 61.0636 86.1593 60.4671C86.015 60.3381 85.8455 60.2403 85.6616 60.1798C85.4777 60.1193 85.2833 60.0974 85.0906 60.1156C84.6265 60.1718 83.5156 60.1999 83.5156 62.5062Z" fill="#010101"/>
<path d="M7.1851 77.1625C6.93058 78.1084 7.0515 79.1161 7.5226 79.975C7.71338 80.3389 7.96551 80.6671 8.26791 80.9453C8.67536 81.308 9.15445 81.5811 9.67416 81.7469C10.0226 81.816 10.3844 81.7507 10.6867 81.5641C10.9978 81.3709 11.2278 81.0709 11.3335 80.7203C11.4225 80.3544 11.3724 79.9685 11.1929 79.6375L10.9679 79.3562C10.7968 79.1828 10.5836 79.0568 10.3492 78.9906H10.2367L10.5742 79.1312C10.4071 79.0263 10.2557 78.8985 10.1242 78.7516L10.4054 78.9766C10.2511 78.8503 10.1098 78.709 9.98353 78.5547L10.2085 78.8359C10.0628 78.6857 9.93969 78.5152 9.84291 78.3297L9.98353 78.6672C9.90313 78.4602 9.85568 78.242 9.84291 78.0203V78.3859C9.82885 78.2034 9.82885 78.02 9.84291 77.8375V78.2031C9.83623 78.1048 9.83623 78.0061 9.84291 77.9078C9.91792 77.6379 9.91061 77.3517 9.82191 77.086C9.7332 76.8203 9.56716 76.5871 9.34505 76.4163C9.12294 76.2456 8.85491 76.1451 8.5753 76.1277C8.2957 76.1103 8.01727 76.1768 7.77572 76.3187C7.45799 76.5045 7.22575 76.8074 7.12885 77.1625H7.1851Z" fill="white"/>
<path d="M78.5813 82.4453C79.1302 82.4436 79.6733 82.3325 80.1788 82.1187C80.6844 81.9048 81.1423 81.5924 81.5258 81.1997C81.9093 80.807 82.2108 80.3418 82.4127 79.8314C82.6146 79.3209 82.7128 78.7754 82.7016 78.2266C82.7 77.8576 82.5535 77.5041 82.2938 77.2422C82.1635 77.1093 82.0082 77.0036 81.8368 76.9312C81.6654 76.8588 81.4814 76.8211 81.2953 76.8203C80.9244 76.8256 80.5706 76.9772 80.3109 77.2422C80.046 77.5018 79.8943 77.8556 79.8891 78.2266C79.9101 78.3805 79.9101 78.5366 79.8891 78.6906V78.325C79.8478 78.5411 79.7866 78.753 79.7063 78.9578L79.8469 78.6203C79.7572 78.8323 79.639 79.0311 79.4953 79.2109L79.7203 78.9297C79.5724 79.1269 79.3972 79.3021 79.2 79.45L79.4813 79.2391C79.2871 79.3879 79.0744 79.5109 78.8484 79.6047L79.1859 79.4641C78.9824 79.5481 78.7701 79.6094 78.5531 79.6469H78.9328C78.802 79.6612 78.6699 79.6612 78.5391 79.6469C78.1681 79.6522 77.8143 79.8038 77.5547 80.0687C77.2897 80.3284 77.1381 80.6822 77.1328 81.0531C77.1328 81.4261 77.281 81.7838 77.5447 82.0475C77.8084 82.3112 78.1661 82.4594 78.5391 82.4594L78.5813 82.4453Z" fill="white"/>
<path d="M78.3844 9.74791L78.6656 9.84634L78.3281 9.70572C78.5373 9.80081 78.7354 9.91871 78.9188 10.0573L78.6375 9.84634C78.8153 9.99603 78.98 10.1607 79.1297 10.3385L78.9047 10.0573C79.0433 10.2406 79.1612 10.4387 79.2563 10.6479L79.1156 10.3104C79.1772 10.4651 79.2243 10.6251 79.2563 10.7885C79.2976 10.9672 79.3849 11.132 79.5094 11.2667C79.6124 11.412 79.747 11.5322 79.9031 11.6182C80.0553 11.7263 80.2368 11.7851 80.4234 11.787C80.6067 11.8434 80.8027 11.8434 80.9859 11.787C81.341 11.6901 81.6439 11.4578 81.8297 11.1401L81.9703 10.8167C82.04 10.5683 82.04 10.3056 81.9703 10.0573C81.8894 9.69129 81.7518 9.34018 81.5625 9.01665C81.402 8.70034 81.1933 8.41093 80.9438 8.15884C80.4558 7.62888 79.834 7.24025 79.1438 7.03384C78.9604 6.9783 78.7646 6.9783 78.5813 7.03384C78.3941 7.03181 78.2113 7.09107 78.0609 7.20259C77.8993 7.28052 77.7629 7.40235 77.6672 7.55415C77.5427 7.68881 77.4554 7.85361 77.4141 8.03228C77.3641 8.21303 77.3508 8.40194 77.375 8.58789C77.3991 8.77385 77.4602 8.9531 77.5547 9.11509C77.7371 9.42995 78.0345 9.66181 78.3844 9.76197V9.74791Z" fill="white"/>
<path d="M10.1794 12.4154V12.1201V12.4998C10.1442 12.1914 10.1442 11.8801 10.1794 11.5717V11.9373C10.2233 11.5879 10.318 11.2468 10.4606 10.9248L10.2778 11.2482C10.4026 10.9415 10.5681 10.653 10.77 10.3904L10.5591 10.6717C10.7537 10.4095 10.9859 10.1773 11.2481 9.98262L10.9669 10.1936C11.1748 10.0544 11.3962 9.93661 11.6278 9.842C11.877 9.70325 12.0781 9.492 12.2045 9.23629C12.3308 8.98058 12.3764 8.69249 12.3352 8.41026C12.2941 8.12803 12.168 7.86499 11.9739 7.65606C11.7797 7.44712 11.5266 7.30217 11.2481 7.24043C10.8818 7.16036 10.499 7.21007 10.1653 7.38106C9.1905 7.86823 8.40432 8.6643 7.92937 9.64512C7.38547 10.732 7.22206 11.97 7.46531 13.1607C7.56414 13.5207 7.8019 13.8266 8.12628 14.0112C8.2869 14.1026 8.46395 14.1614 8.64732 14.1844C8.83069 14.2074 9.01679 14.1941 9.195 14.1451C9.3732 14.0962 9.54003 14.0126 9.68594 13.8992C9.83186 13.7858 9.95401 13.6448 10.0454 13.4841C10.1368 13.3235 10.1957 13.1465 10.2187 12.9631C10.2417 12.7797 10.2283 12.5936 10.1794 12.4154Z" fill="white"/>
<path d="M54.0976 20.5179L55.8273 21.446L60.4679 31.1913L61.3539 32.246C63.8564 32.4424 66.3422 32.8136 68.7929 33.3569C70.2489 33.7252 71.6628 34.2436 73.0117 34.9038L73.5179 36.5632L72.2664 38.7288L65.3757 45.7601L66.1211 52.7913L66.8242 58.2476L66.0648 59.6538H64.3914L54.0976 54.8163L47.4461 58.2898L43.2273 60.2163L41.2164 58.9788L39.2476 42.6101C39.2476 42.6101 34.2976 37.6319 34.3679 36.9851C34.5797 36.0265 34.8665 35.0861 35.2257 34.1726L47.6429 32.0632L50.2445 25.9319C50.2445 25.9319 51.4961 20.1382 54.0976 20.5179Z" fill="#F9DE6A"/>
<path d="M48.5008 44.5344L42.5523 45.4344L35.6055 39.5L27.3508 42.4672L23.6945 49.2172L19.1664 57.8656L17.1836 60.6781L30.5711 69.2984L32.2586 67.1891C33.0717 67.1861 33.8666 66.9483 34.5477 66.5043C35.2288 66.0602 35.767 65.4287 36.0977 64.6859C37.1523 62.1547 37.8414 60.5375 37.8414 60.5375L38.4602 57.1906L49.3164 49.2172C49.6406 48.3734 49.8074 47.4774 49.8086 46.5734C49.4857 45.8276 49.044 45.139 48.5008 44.5344Z" fill="#F4D6AF"/>
<path d="M34.2853 38.9954C32.6541 36 33.5119 33.2297 36.1838 32.7235C38.0541 32.3719 39.9525 32.1329 41.8088 31.8516C42.1657 31.7486 42.5343 31.6918 42.9057 31.6829C45.8447 31.9079 47.1244 30.1079 48.1228 27.5626C48.84 25.636 49.8666 23.8501 50.7385 21.9376C50.9905 21.2735 51.4393 20.7022 52.0248 20.3001C52.6104 19.898 53.3047 19.6843 54.015 19.6876C54.7549 19.6836 55.4775 19.9104 56.0824 20.3363C56.6873 20.7623 57.1444 21.3662 57.39 22.0641C58.6275 24.7079 59.9072 27.3235 61.1307 29.9813C61.2549 30.3614 61.4874 30.697 61.7997 30.9468C62.1119 31.1966 62.4904 31.3498 62.8885 31.3876C65.8416 31.7954 68.7947 32.3157 71.7478 32.7938C72.4029 32.8747 73.0194 33.1475 73.5198 33.5779C74.0203 34.0083 74.3823 34.577 74.5603 35.2126C74.7899 35.8528 74.8311 36.5455 74.679 37.2084C74.527 37.8714 74.1881 38.4769 73.7025 38.9532C71.565 41.1329 69.4838 43.3126 67.29 45.4641C66.9712 45.7486 66.7389 46.1171 66.6195 46.5274C66.5002 46.9377 66.4986 47.3733 66.615 47.7844C67.1775 50.7094 67.6416 53.6625 68.1057 56.6157C68.2636 57.3271 68.2062 58.0695 67.9407 58.7482C67.6753 59.4268 67.2138 60.0112 66.615 60.4266C66.0823 60.8161 65.4448 61.0365 64.7853 61.059C64.1258 61.0816 63.4747 60.9054 62.9166 60.5532C60.3572 59.1469 57.7978 57.7407 55.2666 56.3344C54.9027 56.0902 54.4744 55.9598 54.0361 55.9598C53.5979 55.9598 53.1695 56.0902 52.8057 56.3344C50.2885 57.7407 47.701 59.1469 45.1557 60.5532C44.5529 60.9285 43.8479 61.1059 43.1393 61.0605C42.4307 61.0151 41.754 60.7492 41.2041 60.3001C41.0552 60.2174 40.9257 60.104 40.8242 59.9672C40.7227 59.8305 40.6516 59.6737 40.6157 59.5072C40.5797 59.3408 40.5798 59.1686 40.6158 59.0022C40.6518 58.8358 40.7229 58.6789 40.8244 58.5422C40.9013 58.4071 41.0087 58.2917 41.1381 58.2054C41.2674 58.119 41.4152 58.0641 41.5695 58.045C41.7239 58.0259 41.8806 58.0431 42.0271 58.0952C42.1736 58.1474 42.3059 58.233 42.4135 58.3454C43.1588 58.936 43.8197 58.6688 44.4807 58.3454C46.9838 56.9391 49.515 55.6313 52.0041 54.211C52.6008 53.8381 53.2903 53.6404 53.9939 53.6404C54.6976 53.6404 55.3871 53.8381 55.9838 54.211C58.5291 55.6172 61.0885 57.0235 63.6338 58.4297C64.2244 58.7532 64.8291 59.0344 65.4478 58.5C65.6695 58.278 65.823 57.9971 65.8902 57.6906C65.9575 57.3842 65.9358 57.0649 65.8275 56.7704C65.3072 53.7329 64.7728 50.6813 64.2666 47.6438C64.1558 47 64.2099 46.3387 64.4238 45.7214C64.6378 45.1042 65.0046 44.5512 65.49 44.1141C67.5713 42.0329 69.7088 39.8954 71.7057 37.8141C71.9861 37.6268 72.2015 37.3572 72.3224 37.0424C72.4433 36.7276 72.4636 36.3831 72.3807 36.0563C72.1557 35.311 71.551 35.2407 70.9744 35.1422C68.1619 34.7063 65.265 34.2001 62.3963 33.8204C61.6906 33.7525 61.0176 33.4906 60.4516 33.0637C59.8857 32.6368 59.449 32.0615 59.19 31.4016C57.9666 28.7438 56.6869 26.1282 55.4353 23.4844C55.1541 22.8657 54.8588 22.2188 54.0291 22.2047C53.1994 22.1907 52.876 22.8657 52.6228 23.611C51.3853 26.2407 50.1057 28.8704 48.8822 31.5141C48.6142 32.1709 48.1707 32.7413 47.6003 33.163C47.0298 33.5846 46.3544 33.8412 45.6478 33.9047C42.7369 34.2985 39.84 34.8188 36.9291 35.311C36.3244 35.3954 35.8182 35.5922 35.6494 36.2251C35.5781 36.5056 35.5893 36.8008 35.6816 37.0752C35.7739 37.3495 35.9434 37.5915 36.1697 37.7719C37.6603 39.2485 39.1228 40.7532 40.5853 42.2438C41.1619 42.8204 41.64 43.4672 40.965 44.2266C40.29 44.986 39.5588 44.6344 39.0666 43.9454C37.2947 40.7813 35.1572 41.0344 32.3447 41.9766C30.9057 42.3739 29.5721 43.0841 28.4393 44.0565C27.3065 45.0289 26.4024 46.2394 25.7916 47.6016C23.7525 51.9329 21.3338 56.0391 19.0275 60.2579C18.6197 61.0032 18.5916 61.3407 19.3791 61.7766C22.6557 63.6047 25.9041 65.4891 29.1385 67.4016C29.7572 67.7532 30.165 67.936 30.5447 67.0922C30.6322 66.847 30.7819 66.6286 30.9791 66.4586C31.1763 66.2885 31.4143 66.1725 31.6697 66.1219C35.8885 64.9547 37.2947 61.4391 37.2947 57.6844C37.2585 57.2662 37.3392 56.8461 37.528 56.4711C37.7167 56.0962 38.006 55.7811 38.3635 55.561C41.401 53.4797 44.3822 51.3422 47.3916 49.2047C48.6572 48.3047 49.0369 47.2922 48.4463 46.3922C47.715 45.1829 46.7025 45.3797 45.6338 45.8438C41.415 47.6579 37.1963 49.4297 32.9775 51.2297C32.626 51.3704 32.3025 51.5532 31.951 51.6657C31.276 51.8766 30.6291 51.8907 30.3057 51.0751C29.9822 50.2594 30.4603 49.7813 31.1072 49.486L36.5635 47.025C39.376 45.8297 42.1885 44.6063 45.0713 43.4391C46.0116 42.9756 47.0972 42.9033 48.0906 43.2379C49.0841 43.5726 49.9047 44.2871 50.3728 45.225C50.9017 46.1648 51.0507 47.2713 50.7892 48.3174C50.5276 49.3635 49.8755 50.2698 48.9666 50.85C46.1541 52.8891 43.3416 54.9141 40.4166 56.8969C40.1219 57.0798 39.8784 57.3344 39.7087 57.6368C39.5391 57.9393 39.4488 58.2798 39.4463 58.6266C39.0385 63.1407 37.2525 66.6844 32.7807 68.175C32.6212 68.2127 32.4741 68.2906 32.3534 68.4014C32.2328 68.5122 32.1426 68.6522 32.0916 68.8079C31.951 69.3563 32.4994 69.3704 32.7666 69.5391C34.8197 70.8329 34.8338 70.8329 33.6947 72.9422C32.8369 74.5454 31.965 76.1344 31.1213 77.7516C30.7275 78.4829 30.2635 79.1579 29.3775 78.6657C28.4916 78.1735 28.7588 77.2594 29.1666 76.5563C29.8978 75.15 30.5728 73.8422 31.3744 72.5344C31.74 71.9016 31.74 71.5782 31.051 71.1282C25.726 68.1094 20.415 65.0251 15.1182 61.875C14.4713 61.4954 14.2603 61.7344 13.9791 62.2829C13.2338 63.6891 12.4603 65.0954 11.6728 66.5719C11.3072 67.2188 10.8432 67.8516 9.9994 67.3735C9.15565 66.8954 9.28221 66.1641 9.70409 65.4047C10.7166 63.5625 11.7291 61.7204 12.6853 59.7797C13.276 58.6125 14.0916 58.3735 15.0619 59.1469C16.0322 59.9204 16.7072 59.7094 17.3541 58.4719C19.8291 53.6626 22.4728 48.9516 24.99 44.1704C25.4062 43.2941 26.0038 42.5163 26.7432 41.8884C27.4826 41.2605 28.347 40.7969 29.2791 40.5282C30.9385 40.1344 32.5557 39.5719 34.2853 38.9954Z" fill="#020202"/>
<path d="M34.7064 28.2799C34.7254 28.4773 34.6925 28.6763 34.611 28.8571C34.5294 29.0379 34.4021 29.1943 34.2416 29.3108C34.081 29.4272 33.8929 29.4998 33.6957 29.5212C33.4985 29.5427 33.2992 29.5123 33.1174 29.433C31.9651 28.8204 30.8478 28.1444 29.7705 27.408C29.5377 27.2678 29.37 27.0411 29.3041 26.7775C29.2382 26.5139 29.2795 26.2349 29.4189 26.0017C29.4906 25.7735 29.6476 25.5817 29.8572 25.4665C30.0668 25.3512 30.3128 25.3213 30.5439 25.383C31.9765 25.9316 33.3074 26.7159 34.4814 27.7033C34.6361 27.8439 34.6502 28.1252 34.7064 28.2799Z" fill="#0A0A0A"/>
<path d="M68.9064 16.1432C68.3485 17.6164 67.5397 18.9819 66.5158 20.1791C66.3274 20.3273 66.089 20.397 65.8504 20.3734C65.6119 20.3498 65.3917 20.2348 65.2361 20.0526C65.0497 19.8972 64.9217 19.6832 64.8732 19.4455C64.8246 19.2078 64.8584 18.9607 64.9689 18.7447C65.5876 17.5635 66.2345 16.4104 66.9236 15.2854C67.0276 15.0681 67.2109 14.8989 67.4359 14.8125C67.6608 14.7262 67.9102 14.7294 68.1329 14.8213C68.39 14.9249 68.6055 15.1109 68.7454 15.3501C68.8854 15.5894 68.942 15.8683 68.9064 16.1432Z" fill="#080808"/>
<path d="M75.0094 29.2356C74.733 29.3164 74.4365 29.2922 74.1769 29.1676C73.9174 29.043 73.713 28.8268 73.6031 28.5606C73.4903 28.3435 73.4623 28.0922 73.5247 27.8556C73.5871 27.619 73.7354 27.4142 73.9406 27.281C75.0656 26.5356 76.2328 25.8747 77.4141 25.2138C77.6253 25.1013 77.8711 25.0721 78.1028 25.132C78.3345 25.1919 78.5353 25.3365 78.6656 25.5372C78.8224 25.7245 78.9083 25.9609 78.9083 26.2052C78.9083 26.4494 78.8224 26.6859 78.6656 26.8731C77.5709 27.8378 76.3387 28.634 75.0094 29.2356Z" fill="#070707"/>
<path d="M52.9891 14.0606V12.1622C52.9829 11.8879 53.081 11.6215 53.2636 11.4167C53.4462 11.212 53.6998 11.0842 53.973 11.0592C54.2462 11.0342 54.5187 11.1138 54.7355 11.282C54.9522 11.4502 55.097 11.6944 55.1407 11.9653C55.2339 13.37 55.2339 14.7793 55.1407 16.184C55.1378 16.3296 55.1027 16.4727 55.0379 16.603C54.9731 16.7334 54.8802 16.8477 54.7659 16.9378C54.6515 17.028 54.5186 17.0916 54.3768 17.1242C54.2349 17.1568 54.0875 17.1575 53.9454 17.1262C53.8022 17.1196 53.6619 17.0834 53.5333 17.02C53.4048 16.9565 53.2907 16.8672 53.1983 16.7576C53.1058 16.648 53.0371 16.5205 52.9962 16.3831C52.9554 16.2457 52.9434 16.1013 52.961 15.959C52.961 15.3403 52.961 14.7075 52.961 14.0747L52.9891 14.0606Z" fill="#0B0C0C"/>
<path d="M43.283 18.9987C43.283 19.8425 43.058 20.2222 42.5939 20.405C42.3805 20.5165 42.1321 20.5406 41.9012 20.4724C41.6703 20.4042 41.475 20.2489 41.3564 20.0394C40.6392 18.8722 39.9502 17.6769 39.3455 16.4394C39.2431 16.219 39.2223 15.9694 39.2867 15.7351C39.3511 15.5007 39.4965 15.2969 39.697 15.1597C39.8727 15.0016 40.1006 14.9141 40.3369 14.9141C40.5732 14.9141 40.8011 15.0016 40.9767 15.1597C41.8999 16.34 42.6745 17.6294 43.283 18.9987Z" fill="#060606"/>
<path d="M18.8856 66.8282C18.8012 67.7985 18.2528 68.2344 17.4793 67.9251C16.4951 67.4993 15.5535 66.9814 14.6668 66.3782C14.4701 66.2344 14.3309 66.0252 14.2742 65.7882C14.2176 65.5512 14.2471 65.3017 14.3575 65.0844C14.4112 64.8504 14.555 64.6469 14.7576 64.5179C14.9602 64.389 15.2054 64.3449 15.4403 64.3954C16.6326 64.769 17.7341 65.3868 18.6746 66.2094C18.8293 66.3219 18.8293 66.6454 18.8856 66.8282Z" fill="#060707"/>
</svg>
