<svg width="90" height="90" viewBox="0 0 90 90" fill="none" xmlns="http://www.w3.org/2000/svg">
<path d="M45.001 56.2531C45.001 56.2531 43.5947 51.2609 46.1119 49.6719C48.6291 48.0828 53.2697 45.8047 53.2697 45.8047C54.6399 46.3476 56.1283 46.5221 57.5869 46.3109C58.9028 46.0173 60.0961 45.3249 61.0041 44.3281L68.9775 48.4625C68.9775 48.4625 73.6603 49.8688 74.3494 53.4266C75.0385 56.9844 76.0791 69.3734 76.0791 69.3734C76.0791 69.3734 76.0791 74.9984 70.9744 74.9984C65.9826 74.7468 61.0127 74.169 56.0963 73.2687L51.5822 56.3937L45.001 56.2531Z" fill="#FAAA52"/>
<path d="M46.7594 35.9143C46.7594 35.9143 44.2844 28.8831 49.0516 25.6628C53.8188 22.4424 57.3063 20.6706 59.9782 21.8518C61.6111 22.6155 62.9565 23.882 63.8173 25.4659C63.8173 25.4659 68.1344 26.6049 68.6829 29.094C69.2313 31.5831 69.5969 33.3128 69.5969 33.3128C69.5969 33.3128 76.3891 34.5221 74.9266 40.9206C73.4641 47.319 64.6891 46.2362 64.6891 46.2362L61.4688 44.7596L62.6782 41.6659L63.2829 39.5424C63.2829 39.5424 58.4032 38.8112 57.8829 36.3081C57.3626 33.8049 52.3422 37.7003 46.7594 35.9143Z" fill="#818E93"/>
<path d="M39.7672 69.4656L36.4062 56.9922H51.5797L56.9656 76.4406H44.1969C44.1969 76.4406 42.3406 69.4375 39.7672 69.4656Z" fill="#E2D8D0"/>
<path d="M40.8638 69.5361L35.418 71.7109L38.6933 79.9123L44.1392 77.7375L40.8638 69.5361Z" fill="#FFF0D3"/>
<path d="M49.7969 36.3078L56.9406 35.4219C56.9406 35.4219 58.1359 37.9953 59.5984 38.5437C61.0609 39.0922 62.8187 39.5422 62.8187 39.5422C62.8187 39.5422 63.0859 44.3375 59.1484 45.4344C55.2109 46.5313 50.6266 45.6172 49.7969 36.3078Z" fill="#FFF0D3"/>
<path d="M26.4523 12.8281H13.6133V25.6672H26.4523V12.8281Z" fill="#A2D17D"/>
<path d="M26.6047 36.8281H13.7656V49.6672H26.6047V36.8281Z" fill="#A2D17D"/>
<path d="M26.6047 60.8203H13.7656V73.6594H26.6047V60.8203Z" fill="#A2D17D"/>
<path d="M4.62734 28.9143C4.82463 28.9364 5.02437 28.9166 5.21343 28.856C5.40248 28.7954 5.57656 28.6954 5.72422 28.5627C6.13922 28.0426 6.34037 27.3838 6.28672 26.7205V11.083C6.28672 7.42679 7.80547 5.9221 11.532 5.9221H27.1414C28.5477 5.9221 29.2648 5.38773 29.2789 4.33304C29.2953 4.136 29.27 3.93772 29.2045 3.75114C29.1391 3.56456 29.0351 3.39388 28.8992 3.25023C28.425 2.85292 27.8146 2.65617 27.1977 2.70179H17.4242H10.3227C8.39276 2.73124 6.55147 3.51673 5.19458 4.88939C3.83769 6.26206 3.07355 8.11231 3.06641 10.0424C3.06641 11.8705 3.06641 13.7127 3.06641 15.5408V26.7908C3.06641 28.1268 3.58672 28.8862 4.62734 28.9143Z" fill="#010101"/>
<path d="M83.516 26.9173C83.516 27.8032 83.7973 28.886 85.091 28.9141C85.2904 28.9326 85.4913 28.9082 85.6805 28.8427C85.8696 28.7773 86.0426 28.6722 86.1879 28.5345C86.5827 28.0755 86.7798 27.4789 86.7363 26.8751C86.7363 21.686 86.7363 15.8079 86.7363 10.0001C86.7109 8.071 85.9343 6.22788 84.5714 4.86239C83.2086 3.4969 81.3669 2.71669 79.4379 2.68757C77.6379 2.68757 75.852 2.68757 73.7285 2.68757H62.9285C62.1913 2.6109 61.4525 2.81697 60.8613 3.26414C60.6154 3.56363 60.4945 3.94647 60.5238 4.33289C60.5238 4.79695 60.5238 5.90789 62.8723 5.90789H78.6645C81.9129 5.90789 83.502 7.49695 83.516 10.7454V26.9173Z" fill="#010101"/>
<path d="M10.4329 86.3687H27.1251C28.5314 86.3687 29.2486 85.8344 29.2767 84.7797C29.2929 84.586 29.2688 84.3909 29.2059 84.207C29.143 84.023 29.0426 83.8541 28.9111 83.7109C28.3829 83.2903 27.7133 83.0889 27.0407 83.1484H11.2486C7.92981 83.1484 6.31262 81.5312 6.29856 78.2406V62.0828C6.29856 60.8594 5.70793 60.1562 4.69543 60.1562C3.28918 60.1562 3.09231 61.3797 3.07825 62.0969C3.07825 64.1078 3.07825 66.1047 3.07825 68.1156V73.4594C3.07825 75.2875 3.07825 77.1156 3.07825 78.9578C3.07269 79.9279 3.25872 80.8894 3.62567 81.7874C3.99262 82.6854 4.53326 83.5021 5.21657 84.1906C5.89989 84.8792 6.71243 85.426 7.60758 85.7998C8.50273 86.1736 9.46288 86.3669 10.4329 86.3687Z" fill="#010101"/>
<path d="M83.5156 62.5062V78.2984C83.5156 81.5609 81.9265 83.1359 78.6781 83.1499H62.5202C61.6343 83.1499 60.5656 83.4312 60.5234 84.7109C60.509 84.912 60.5352 85.114 60.6004 85.3049C60.6656 85.4957 60.7685 85.6715 60.9031 85.8218C61.365 86.2113 61.9593 86.4077 62.5624 86.3702H79.0718C80.0863 86.4137 81.0987 86.2465 82.0454 85.8794C82.9921 85.5123 83.8525 84.9532 84.5725 84.2372C85.2924 83.5212 85.8563 82.6638 86.2287 81.7192C86.601 80.7746 86.7737 79.763 86.7359 78.7484V62.5624C86.8244 61.8155 86.6175 61.0636 86.1593 60.4671C86.015 60.3381 85.8455 60.2403 85.6616 60.1798C85.4777 60.1193 85.2833 60.0974 85.0906 60.1156C84.6265 60.1718 83.5156 60.1999 83.5156 62.5062Z" fill="#010101"/>
<path d="M27.5637 66.8828C27.2872 66.6452 26.9292 66.5242 26.5652 66.5453C25.9887 66.5453 25.2996 66.8547 25.2996 68.0922C25.2996 68.4438 25.2996 68.7953 25.2996 69.1328C25.2996 69.9203 25.2996 70.75 25.2996 71.5516C25.348 71.7566 25.3179 71.9723 25.2152 72.1563C25.0175 72.2772 24.7827 72.3221 24.5543 72.2828C21.1371 72.2828 18.3668 72.2828 15.8074 72.2828C15.4559 72.2828 15.2449 72.2828 15.1465 72.1563C15.0481 72.0297 15.0059 71.8328 15.0199 71.425C15.0199 68.6828 15.0199 65.8 15.0199 62.8328C14.9793 62.6045 15.0244 62.3691 15.1465 62.1719C15.2449 62.0735 15.4699 62.0453 15.8918 62.0594C17.059 62.0594 18.2543 62.0594 19.4074 62.0594H21.334C21.784 62.0594 23.1199 62.0594 23.1762 60.7375C23.1913 60.5601 23.1705 60.3815 23.1149 60.2123C23.0594 60.0432 22.9702 59.887 22.8527 59.7532C22.4044 59.4212 21.8452 59.2752 21.2918 59.3453H19.4777C17.7762 59.3453 16.0184 59.3453 14.2887 59.3453C14.0235 59.3097 13.7539 59.3301 13.4971 59.4052C13.2404 59.4803 13.0022 59.6084 12.7981 59.7813C12.6288 59.9707 12.5023 60.1943 12.4271 60.437C12.3519 60.6796 12.3297 60.9356 12.3621 61.1875C12.3621 65.4063 12.3621 69.625 12.3621 73.1969C12.3343 73.4497 12.36 73.7056 12.4376 73.9479C12.5151 74.1901 12.6427 74.4134 12.8121 74.6031C12.9869 74.7598 13.1917 74.8792 13.4142 74.9542C13.6366 75.0291 13.8719 75.058 14.1059 75.0391H14.1762C15.5824 75.0391 16.9887 75.0391 18.3949 75.0391H21.8543C23.2606 75.0391 24.6668 75.0391 26.1434 75.0391C27.6199 75.0391 27.9293 74.2094 27.9434 73.4922C27.9434 71.7625 27.9434 69.9344 27.9434 68.036C27.9603 67.8281 27.9354 67.619 27.8702 67.421C27.805 67.2229 27.7008 67.0399 27.5637 66.8828Z" fill="black"/>
<path d="M12.8101 50.6241C13.0019 50.7896 13.2258 50.9137 13.4678 50.9887C13.7097 51.0637 13.9646 51.088 14.2163 51.0601H14.3148C15.6367 51.0601 16.9726 51.0601 18.2945 51.0601H21.7398C23.2116 51.0601 24.6882 51.0601 26.1695 51.0601C26.677 51.1021 27.181 50.9459 27.5757 50.6241C27.7236 50.4641 27.8373 50.2755 27.9098 50.07C27.9823 49.8644 28.0122 49.6463 27.9976 49.4288V48.3742C27.9976 46.9679 27.9976 45.5616 27.9976 44.1554C28.0088 43.948 27.9786 43.7403 27.9085 43.5448C27.8385 43.3492 27.7301 43.1695 27.5898 43.0163C27.3298 42.787 26.9942 42.6618 26.6476 42.6648C25.8179 42.6648 25.3257 43.2554 25.3398 44.1976V45.5195C25.3398 46.2085 25.3398 46.9257 25.3398 47.6429C25.3398 47.9804 25.3398 48.2054 25.2273 48.2898C25.1148 48.3741 24.946 48.4304 24.6085 48.4304C21.8945 48.4304 18.9835 48.4304 15.7351 48.4304C15.5387 48.4521 15.3407 48.4076 15.1726 48.3038C15.0636 48.1274 15.0189 47.9188 15.046 47.7132C15.046 44.2679 15.046 41.4413 15.046 38.8398C15.0222 38.6299 15.0666 38.4178 15.1726 38.2351C15.257 38.1507 15.482 38.1085 15.8616 38.1226C17.0991 38.1226 18.3648 38.1226 19.5882 38.1226H21.3179C21.5912 38.1655 21.8703 38.1527 22.1386 38.0851C22.4068 38.0174 22.6586 37.8962 22.8788 37.7288C22.9966 37.598 23.0861 37.4444 23.1417 37.2774C23.1974 37.1104 23.218 36.9338 23.2023 36.7585C23.2023 35.4366 21.796 35.4226 21.3741 35.4226H14.1601C13.9155 35.3872 13.666 35.4094 13.4315 35.4874C13.197 35.5653 12.9839 35.6969 12.8092 35.8717C12.6344 36.0464 12.5028 36.2595 12.4249 36.494C12.3469 36.7285 12.3247 36.978 12.3601 37.2226C12.3601 41.8913 12.3601 45.6601 12.3601 49.232C12.336 49.4824 12.3636 49.7352 12.4409 49.9746C12.5183 50.2141 12.644 50.4351 12.8101 50.6241Z" fill="black"/>
<path d="M19.8422 42.6548C19.6312 42.6548 19.3922 42.4298 19.1109 42.0501C18.9999 41.9022 18.8608 41.7775 18.7015 41.6834C18.5423 41.5893 18.366 41.5276 18.1828 41.5017C17.7868 41.4823 17.3989 41.6185 17.102 41.8813C16.805 42.144 16.6226 42.5125 16.5938 42.9079C16.6019 43.1294 16.6546 43.3469 16.7488 43.5475C16.8431 43.7481 16.9769 43.9275 17.1422 44.0751L17.8172 44.7642L18.6469 45.5939C18.7994 45.7835 18.9892 45.94 19.2044 46.0536C19.4196 46.1673 19.6558 46.2357 19.8984 46.2548C20.153 46.2376 20.4014 46.169 20.6286 46.0529C20.8559 45.9369 21.0571 45.776 21.2203 45.5798C22.9922 43.7939 24.7922 42.0079 26.5781 40.222L28.1813 38.6189C28.5183 38.3107 28.7455 37.9009 28.8281 37.4517V37.3673C28.8166 37.0867 28.7259 36.815 28.5667 36.5836C28.4075 36.3522 28.1861 36.1706 27.9281 36.0595C27.6152 35.9409 27.2718 35.929 26.9514 36.0256C26.631 36.1223 26.3514 36.322 26.1562 36.5939L24.5109 38.2251C23.3156 39.4064 22.0922 40.6298 20.9109 41.8533C20.5453 42.1908 20.1656 42.6548 19.8422 42.6548Z" fill="black"/>
<path d="M28.3938 60.2541C27.3531 59.2697 26.3687 60.2541 26.0453 60.5916L24.2031 62.4338C23.1062 63.5166 21.9812 64.6275 20.8984 65.7666C20.5187 66.1744 20.1109 66.5681 19.8297 66.5541C19.5484 66.54 19.2953 66.2025 19.1125 65.9353C18.9285 65.6574 18.6434 65.4623 18.3177 65.3914C17.9921 65.3205 17.6516 65.3794 17.3687 65.5556C17.1416 65.6733 16.9508 65.8507 16.817 66.0688C16.6832 66.2869 16.6114 66.5373 16.6094 66.7931C16.6094 67.4119 17.5656 68.4244 18.0156 68.8322C18.4656 69.24 19.4219 70.1119 20.0125 70.1119C20.2431 70.0901 20.4667 70.0215 20.6698 69.9103C20.873 69.7991 21.0512 69.6475 21.1937 69.465L28.1266 62.6025C28.3439 62.4326 28.5245 62.2204 28.6575 61.9787C28.7904 61.737 28.8729 61.4708 28.9 61.1963C28.8877 61.0122 28.8361 60.8329 28.7488 60.6704C28.6615 60.5079 28.5404 60.3659 28.3938 60.2541Z" fill="black"/>
<path d="M27.9981 20.4205C27.9981 19.0143 27.2527 18.7752 26.5918 18.7752C26.4189 18.7623 26.2451 18.7843 26.0808 18.8398C25.9166 18.8954 25.7651 18.9834 25.6356 19.0987C25.3384 19.4609 25.1969 19.9261 25.2418 20.3924C25.2418 20.758 25.2418 21.1237 25.2418 21.4893C25.2418 22.2627 25.2418 23.0643 25.2418 23.8518C25.2755 24.0298 25.2456 24.2139 25.1574 24.3721C25.0871 24.4565 24.8902 24.4846 24.5387 24.4846C21.7262 24.4846 18.7027 24.4846 15.6652 24.4846C15.4402 24.4846 15.1449 24.4846 15.0465 24.3862C14.9594 24.2224 14.925 24.0358 14.9481 23.8518C14.9481 21.194 14.9481 18.2268 14.9481 14.9784C14.9246 14.7701 14.9638 14.5596 15.0606 14.3737C15.2317 14.2786 15.4298 14.244 15.6231 14.2752C16.9027 14.2752 18.2106 14.2752 19.4762 14.2752H21.3606C21.6121 14.2991 21.8659 14.2728 22.1073 14.198C22.3487 14.1232 22.5728 14.0013 22.7668 13.8393C22.8892 13.7077 22.9836 13.5526 23.044 13.3833C23.1045 13.2141 23.1298 13.0343 23.1184 12.8549C23.1184 11.9971 22.5418 11.5612 21.4449 11.5612H14.0621C13.8389 11.5413 13.6141 11.5672 13.4013 11.6374C13.1885 11.7075 12.9923 11.8203 12.8246 11.969C12.676 12.1309 12.563 12.3222 12.4927 12.5305C12.4225 12.7388 12.3966 12.9595 12.4168 13.1784C12.4168 17.2659 12.4168 21.3674 12.4168 25.483C12.3979 25.717 12.4268 25.9523 12.5017 26.1747C12.5767 26.3972 12.6961 26.602 12.8527 26.7768C13.202 27.0796 13.6573 27.2314 14.1184 27.1987C15.5246 27.1987 16.9309 27.1987 18.3371 27.1987H21.7965C23.2027 27.1987 24.6793 27.1987 26.1277 27.1987H26.1981C26.4508 27.2247 26.7062 27.1982 26.9482 27.1207C27.1902 27.0433 27.4136 26.9166 27.6043 26.7487C27.7801 26.5631 27.9119 26.3403 27.9898 26.0969C28.0677 25.8534 28.0897 25.5956 28.0543 25.3424V20.4205H27.9981Z" fill="black"/>
<path d="M28.3938 12.4873C27.3531 11.4889 26.3687 12.4873 26.0453 12.8108C25.4406 13.4295 24.8359 14.0342 24.2172 14.6389C23.1203 15.7217 21.9812 16.8467 20.9125 17.9858C20.5047 18.4217 20.1391 18.7733 19.8297 18.7733C19.5203 18.7733 19.2953 18.4358 19.1125 18.1545C18.9285 17.8766 18.6434 17.6815 18.3177 17.6106C17.9921 17.5396 17.6516 17.5986 17.3687 17.7748C17.1416 17.8925 16.9508 18.0699 16.817 18.288C16.6832 18.5061 16.6114 18.7565 16.6094 19.0123C16.6094 19.5748 17.3828 20.4186 17.8609 20.9389C18.3391 21.4592 19.3375 22.3451 20.0266 22.3451C20.2363 22.3277 20.44 22.2661 20.6242 22.1643C20.8084 22.0625 20.969 21.9228 21.0953 21.7545L28.1266 14.8217C28.3439 14.6518 28.5245 14.4396 28.6575 14.1979C28.7904 13.9562 28.8729 13.69 28.9 13.4154C28.8857 13.2338 28.8332 13.0573 28.746 12.8973C28.6588 12.7374 28.5387 12.5977 28.3938 12.4873Z" fill="black"/>
<path d="M46.7574 34.0734C46.9401 34.0803 47.1223 34.048 47.2915 33.9786C47.4607 33.9092 47.6131 33.8043 47.7383 33.6711C47.8636 33.5378 47.9589 33.3792 48.0177 33.2061C48.0765 33.0329 48.0975 32.8491 48.0792 32.6671V32.0624C48.0582 31.7956 48.0582 31.5276 48.0792 31.2609C48.1011 29.5426 48.7514 27.8917 49.9074 26.6202C49.6222 27.7932 49.4991 28.9998 49.5417 30.2062C49.5417 31.739 50.5121 31.9499 50.948 31.9499C51.1316 31.9557 51.3144 31.9224 51.4841 31.8521C51.6538 31.7817 51.8067 31.6761 51.9324 31.5421C52.0901 31.3471 52.2054 31.1213 52.2708 30.8791C52.3362 30.6369 52.3502 30.3838 52.3121 30.1359C52.2292 28.8548 52.4359 27.5715 52.9167 26.3812C53.2509 25.4724 53.8479 24.6837 54.6317 24.1152C55.4155 23.5468 56.3507 23.2243 57.3183 23.189C58.2027 23.0176 59.1166 23.0821 59.9682 23.3758C60.8199 23.6696 61.5792 24.1823 62.1699 24.8624H62.0714C61.7836 24.869 61.5001 24.9348 61.2388 25.0558C60.9775 25.1767 60.7439 25.3503 60.5527 25.5655C60.4552 25.7292 60.3946 25.9121 60.3752 26.1015C60.3558 26.291 60.3779 26.4824 60.4402 26.6624C60.7355 27.8577 61.7058 27.6609 62.3527 27.5343H62.6058C63.275 27.4238 63.9603 27.4637 64.6122 27.651C65.2641 27.8383 65.8661 28.1683 66.3746 28.6171C66.9176 29.0701 67.3495 29.6416 67.6371 30.2876C67.9248 30.9336 68.0605 31.637 68.0339 32.3437C67.9706 32.6217 67.9675 32.91 68.0249 33.1894C68.0823 33.4687 68.1989 33.7324 68.3668 33.9629C68.5346 34.1934 68.7499 34.3853 68.9981 34.5256C69.2464 34.6659 69.5218 34.7515 69.8058 34.7765C70.4643 34.9126 71.0847 35.1919 71.6232 35.5946C72.1616 35.9973 72.6049 36.5135 72.9216 37.1067C73.2383 37.6998 73.4207 38.3553 73.4557 39.0268C73.4908 39.6982 73.3777 40.3692 73.1246 40.9921C72.8673 41.6597 72.4613 42.26 71.9374 42.7473C71.4135 43.2346 70.7856 43.5962 70.1011 43.8046C69.7656 43.8972 69.4764 44.111 69.2894 44.4045C69.1024 44.698 69.0308 45.0505 69.0886 45.3937C69.1292 45.6782 69.2709 45.9386 69.4879 46.1271C69.7048 46.3157 69.9824 46.4197 70.2699 46.4202H70.3121C70.7299 46.3872 71.139 46.2825 71.5214 46.1109C72.8579 45.5833 74.0059 44.668 74.8179 43.4826C75.6298 42.2973 76.0686 40.8961 76.0777 39.4593C76.1171 37.995 75.7141 36.5529 74.9214 35.3212C74.1286 34.0894 72.983 33.1253 71.6339 32.5546L71.423 32.4562C70.9589 32.2593 70.748 32.1749 70.7199 31.6546C70.6626 30.3196 70.2261 29.0286 69.4615 27.9328C68.6969 26.8369 67.6358 25.9817 66.4027 25.4671C66.0296 25.3378 65.712 25.0847 65.5027 24.7499C64.9407 23.6957 64.1613 22.7728 63.216 22.0423C62.2708 21.3119 61.1811 20.7905 60.0192 20.5126C58.8573 20.2348 57.6497 20.2068 56.4762 20.4306C55.3027 20.6544 54.1901 21.1249 53.2121 21.8109C52.6921 22.1528 52.123 22.4136 51.5246 22.5843C49.4281 23.2718 47.6505 24.6933 46.5188 26.5873C45.3871 28.4812 44.9774 30.7201 45.3652 32.8921C45.4187 33.2225 45.5883 33.5229 45.8435 33.7394C46.0987 33.9559 46.4227 34.0743 46.7574 34.0734Z" fill="black"/>
<path d="M51.4532 46.2536C51.2177 46.1432 50.9609 46.0859 50.7008 46.0859C50.4408 46.0859 50.1839 46.1432 49.9485 46.2536C48.5422 46.8302 47.3188 47.3505 46.2922 47.8708C45.6112 48.2256 45.0165 48.7257 44.5499 49.3356C44.0834 49.9455 43.7565 50.6504 43.5922 51.4005C43.5093 51.5819 43.4659 51.7788 43.4649 51.9783C43.4639 52.1777 43.5053 52.3751 43.5864 52.5573C43.6676 52.7395 43.7865 52.9024 43.9354 53.0351C44.0843 53.1678 44.2597 53.2673 44.45 53.327C44.6249 53.3961 44.8105 53.4342 44.9985 53.4395C45.1998 53.4451 45.3989 53.3965 45.575 53.2989C45.7637 53.1872 45.9265 53.0366 46.0526 52.8572C46.1786 52.6778 46.2651 52.4737 46.3063 52.2583C46.4578 51.6954 46.7587 51.1839 47.177 50.7779C47.5954 50.372 48.1156 50.0866 48.6828 49.952C49.1891 49.7552 49.6813 49.5302 50.1875 49.3192L51.0313 48.9395C51.3698 48.8391 51.6647 48.6278 51.8687 48.3397C52.0728 48.0515 52.174 47.7031 52.1563 47.3505C52.1363 47.1245 52.0619 46.9067 51.9394 46.7157C51.817 46.5247 51.6501 46.3661 51.4532 46.2536Z" fill="black"/>
<path d="M77.5406 67.1799C77.0625 63.9033 76.6828 60.5564 76.3031 57.3361C76.1625 56.0846 76.0219 54.833 75.8672 53.5955C75.7857 52.3317 75.3285 51.1211 74.5543 50.1188C73.7801 49.1166 72.7241 48.3685 71.5219 47.9705C70.3547 47.5486 69.1875 47.1408 68.0063 46.7471L64.9266 45.6783C64.4425 45.449 63.889 45.4137 63.3797 45.5799C63.2145 45.6676 63.0685 45.7874 62.9502 45.9323C62.8318 46.0772 62.7436 46.2442 62.6907 46.4236C62.6169 46.5872 62.5787 46.7645 62.5787 46.9439C62.5787 47.1233 62.6169 47.3007 62.6907 47.4642C62.8383 47.6961 63.0317 47.8955 63.259 48.0503C63.4862 48.205 63.7426 48.3118 64.0125 48.3642L65.8688 49.0252C67.2047 49.4892 68.5828 49.9814 69.9469 50.4314C70.8447 50.6598 71.6424 51.1774 72.2168 51.9043C72.7912 52.6312 73.1104 53.527 73.125 54.4533C73.5891 59.1221 74.0953 63.4392 74.6438 67.658C74.8453 68.4892 74.8274 69.3584 74.5918 70.1806C74.3563 71.0027 73.9111 71.7495 73.3 72.3479C72.6889 72.9462 71.9329 73.3755 71.1059 73.5937C70.279 73.8118 69.4096 73.8114 68.5828 73.5924C66.2766 73.2408 63.7594 72.9033 60.5672 72.5236C57.375 72.1439 57.2344 72.1299 56.3485 68.7971C56.087 68.1156 55.9627 67.3892 55.9828 66.6596C56.6902 66.5754 57.4072 66.6328 58.0922 66.8283H58.2188C60.8203 67.2502 63.4922 67.6158 66.0656 67.9674L66.8531 68.0799C67.1581 68.1649 67.4777 68.1839 67.7906 68.1354C68.1034 68.0868 68.4023 67.972 68.6672 67.7986C68.8061 67.6525 68.909 67.476 68.9676 67.2831C69.0262 67.0903 69.0389 66.8863 69.0047 66.6877C68.8219 64.1424 68.5266 61.5689 68.2313 59.0799L68.0906 57.8564C68.0717 57.692 68.0199 57.5331 67.9384 57.3891C67.857 57.2451 67.7474 57.1189 67.6163 57.0179C67.4852 56.9169 67.3352 56.8433 67.1751 56.8014C67.015 56.7594 66.8482 56.75 66.6844 56.7736C66.5028 56.7687 66.3222 56.8026 66.1547 56.8729C65.9872 56.9432 65.8366 57.0483 65.7129 57.1814C65.5892 57.3144 65.4952 57.4722 65.4372 57.6444C65.3792 57.8166 65.3586 57.9991 65.3766 58.1799C65.3766 58.6861 65.3766 59.1924 65.475 59.6846L65.5875 60.7392C65.7141 62.0752 65.8406 63.4252 65.9953 64.7611C65.9953 64.8455 65.9953 65.0846 65.9953 65.1127H65.7422L59.0766 64.1283L56.8266 63.7908L57.375 62.7783C57.9938 61.6111 58.5985 60.4861 59.2172 59.3752C59.5125 58.8267 60.1453 57.7017 58.9781 57.0127C58.8166 56.9049 58.6345 56.8318 58.4433 56.7979C58.2521 56.7641 58.0559 56.7701 57.8672 56.8158C57.605 56.928 57.3678 57.0916 57.1698 57.2969C56.9718 57.5022 56.8168 57.745 56.7141 58.0111C56.1375 59.0939 55.5469 60.1627 54.9 61.3158L54.4922 62.0752C54.3938 61.7236 54.2953 61.4002 54.211 61.0627C53.8313 59.7408 53.4797 58.4892 53.1985 57.2377C53.1706 56.9877 53.0933 56.7457 52.9712 56.5258C52.849 56.3059 52.6843 56.1125 52.4868 55.9568C52.2892 55.8011 52.0626 55.6862 51.8203 55.6188C51.5779 55.5514 51.3246 55.5329 51.075 55.5642C48.2625 55.5642 45.4735 55.5642 42.7078 55.5642H37.0828C36.225 55.5642 35.5922 55.6486 35.2547 56.0846C34.9172 56.5205 35.0016 57.1674 35.2547 57.9971L35.8735 60.3314C36.5344 62.8627 37.2797 65.4924 37.9828 68.0517C38.25 68.9799 38.1375 69.2049 37.2094 69.458C36.6865 69.5914 36.1962 69.8297 35.7683 70.1585C35.3404 70.4873 34.9839 70.8996 34.7203 71.3705C34.5046 71.9142 34.4009 72.4959 34.4154 73.0807C34.4299 73.6654 34.5623 74.2413 34.8047 74.7736C35.2828 76.1096 35.775 77.4455 36.2953 78.7814C36.465 79.4176 36.8255 79.9864 37.3284 80.4113C37.8313 80.8363 38.4523 81.0969 39.1078 81.158H39.6985C40.6331 81.1811 41.5613 80.9977 42.4169 80.6209C43.2725 80.2442 44.0344 79.6833 44.6485 78.9783C44.8321 78.7282 45.0743 78.5269 45.3538 78.3921C45.6332 78.2572 45.9415 78.193 46.2516 78.2049C49.486 78.2049 52.7906 78.2049 55.9828 78.2049H56.25C57.2063 78.2049 57.9094 78.1064 58.261 77.6283C58.6125 77.1502 58.5141 76.4752 58.261 75.6174C58.1891 75.4086 58.1465 75.1909 58.1344 74.9705C58.3852 74.9216 58.643 74.9216 58.8938 74.9705C60.4406 75.2096 61.9875 75.4064 63.5344 75.6033C65.0813 75.8002 66.9656 76.0533 68.6672 76.3205C69.8713 76.5257 71.1069 76.4429 72.2728 76.0787C73.4387 75.7145 74.5018 75.0793 75.375 74.2252C76.2646 73.3039 76.9244 72.1858 77.3007 70.9616C77.677 69.7374 77.7592 68.4418 77.5406 67.1799ZM41.9485 78.0642L41.7516 77.7549C41.3297 77.9096 40.8938 78.0783 40.4719 78.2611C40.319 78.3525 40.1487 78.4109 39.972 78.4327C39.7952 78.4545 39.6158 78.4392 39.4453 78.3877C39.2833 78.2863 39.1436 78.153 39.0348 77.9958C38.926 77.8387 38.8503 77.661 38.8125 77.4736C38.4107 76.2394 37.9412 75.0282 37.4063 73.8455C37.3076 73.6827 37.243 73.5015 37.2164 73.3129C37.1898 73.1244 37.2018 72.9324 37.2516 72.7486C37.3643 72.5807 37.5095 72.4369 37.6785 72.3259C37.8475 72.2148 38.0371 72.1386 38.236 72.1017C38.6578 71.9752 39.0797 71.8205 39.4453 71.6799L39.7828 71.5533C40.0081 71.5207 40.2371 71.5775 40.421 71.7115C40.6049 71.8455 40.7292 72.0461 40.7672 72.2705C41.2735 73.6767 41.7938 75.083 42.3281 76.3908C42.3959 76.5195 42.4371 76.6606 42.4492 76.8055C42.4613 76.9505 42.444 77.0964 42.3985 77.2346C42.3334 77.3564 42.2435 77.4632 42.1344 77.548C42.0254 77.6328 41.8998 77.6937 41.7656 77.7267L41.8922 78.0642H41.9485ZM42.061 69.3596C41.1188 69.008 40.9219 68.2627 40.6547 67.3205C39.8672 64.283 39.15 61.5689 38.4469 59.0517C38.3063 58.5877 38.3203 58.4611 38.3485 58.433C38.3766 58.4049 38.3485 58.433 38.7422 58.433H38.8969C40.1766 58.433 41.4703 58.433 42.736 58.433H45.9422C47.2641 58.433 48.6 58.433 49.9219 58.433C50.4985 58.433 50.6813 58.5033 50.836 59.108C52.0594 63.833 53.4516 68.9517 55.0547 74.8017C55.1953 75.308 55.1391 75.4064 55.125 75.4205C55.111 75.4346 54.9985 75.5049 54.4781 75.5049C51.5813 75.5049 48.6844 75.5049 45.886 75.5049C45.7555 75.5311 45.621 75.5307 45.4907 75.5035C45.3604 75.4763 45.237 75.423 45.1279 75.3467C45.0188 75.2705 44.9263 75.1729 44.856 75.0599C44.7856 74.9469 44.739 74.8208 44.7188 74.6892C44.4516 73.8596 44.1422 73.0299 43.8328 72.2424L43.4953 71.3142C43.4065 70.9061 43.2329 70.5212 42.9858 70.1845C42.7387 69.8478 42.4236 69.5667 42.061 69.3596Z" fill="black"/>
<path d="M43.6626 37.0658C43.9133 37.118 44.1669 37.1556 44.4219 37.1783C44.7214 37.1935 45.0184 37.2407 45.3079 37.3189C45.8584 37.4614 46.4308 37.4995 46.9954 37.4314C47.8673 37.4314 48.4016 37.4314 48.7532 37.8252C49.1631 38.5443 49.4036 39.3475 49.4563 40.1736C49.4563 40.5814 49.5829 40.9892 49.6813 41.3689C50.0079 43.0219 50.877 44.5186 52.1507 45.6216C53.4244 46.7246 55.0299 47.3709 56.7126 47.458H57.1063C58.661 47.4303 60.1627 46.8881 61.3764 45.9161C62.5901 44.9441 63.4474 43.5972 63.8141 42.0861C64.1657 40.933 64.6438 40.5814 65.6844 40.6798C65.9922 40.7228 66.3055 40.6998 66.6037 40.6125C66.9019 40.5253 67.1781 40.3756 67.4141 40.1736C67.5501 40.0199 67.6508 39.8382 67.7091 39.6414C67.7674 39.4447 67.7819 39.2375 67.7516 39.0345C67.728 38.6673 67.5614 38.324 67.2876 38.0783C66.7622 37.7812 66.1418 37.7005 65.5579 37.8533H65.4594C62.7594 38.1486 60.6923 37.9798 58.8641 36.3627C60.431 35.8644 61.9509 35.2291 63.4063 34.4642C64.6719 33.747 64.5594 32.9314 64.2501 32.3689C63.8141 31.5533 63.0688 31.4126 62.0423 31.9611C58.0884 33.9523 53.6981 34.9193 49.2735 34.7736C47.5792 34.7521 45.8899 34.5827 44.2251 34.2673C44.0313 34.1988 43.8248 34.1736 43.6202 34.1935C43.4156 34.2134 43.2179 34.2779 43.0409 34.3825C42.8639 34.4871 42.712 34.6292 42.5959 34.7988C42.4798 34.9684 42.4023 35.1614 42.3688 35.3642C42.2833 35.7118 42.3336 36.079 42.5094 36.3908C42.6456 36.5759 42.8181 36.7312 43.0164 36.8473C43.2146 36.9633 43.4345 37.0377 43.6626 37.0658ZM57.0219 44.758C56.0417 44.7364 55.0914 44.4167 54.2975 43.8414C53.5035 43.2661 52.9038 42.4624 52.5782 41.5377C52.5185 41.3823 52.4715 41.2224 52.4376 41.0595C52.3481 40.5769 52.2066 40.1054 52.0157 39.6533C51.7204 38.8236 51.4391 38.0502 51.7766 37.6283C52.1141 37.2064 52.986 37.2767 53.8016 37.2627C54.2697 37.2973 54.7398 37.2973 55.2079 37.2627H55.461C55.5864 37.2594 55.7102 37.2904 55.8193 37.3524C55.9283 37.4143 56.0184 37.5049 56.0798 37.6142C57.2617 39.1817 58.9873 40.2501 60.9173 40.6095C61.2969 40.6798 61.3954 40.7783 61.4094 40.8205C61.4235 40.8627 61.4094 41.0877 61.4094 41.397C61.1292 42.3502 60.5531 43.1896 59.7644 43.7938C58.9757 44.398 58.0152 44.7356 57.0219 44.758Z" fill="black"/>
<path d="M54.0547 30.3773C53.8547 29.4949 53.9162 28.5733 54.2317 27.7254C54.5472 26.8774 55.1029 26.1397 55.831 25.6026C56.5591 25.0655 57.4279 24.7522 58.3312 24.7011C59.2345 24.65 60.1332 24.8632 60.9172 25.3148C61.0774 25.406 61.267 25.4308 61.4453 25.3836C61.6235 25.3364 61.7761 25.2211 61.8701 25.0625C61.9641 24.9039 61.9921 24.7147 61.9481 24.5357C61.904 24.3567 61.7913 24.2022 61.6344 24.1054C60.6036 23.5127 59.4214 23.2355 58.2346 23.3083C57.0477 23.381 55.9083 23.8005 54.9576 24.5146C54.0068 25.2288 53.2866 26.2063 52.8861 27.3259C52.4857 28.4455 52.4226 29.6581 52.7047 30.8132C52.9016 31.6991 54.2656 31.3194 54.111 30.4335L54.0547 30.3773Z" fill="white"/>
<path d="M51.7773 38.2812C51.8236 39.7175 52.2944 41.1079 53.1304 42.2768C53.9663 43.4456 55.1299 44.3405 56.4742 44.8484C56.6532 44.8959 56.8437 44.8708 57.0043 44.7786C57.1649 44.6865 57.2827 44.5347 57.332 44.3563C57.3805 44.1773 57.3577 43.9866 57.2686 43.824C57.1795 43.6614 57.0308 43.5397 56.8539 43.4844C55.8029 43.0672 54.8962 42.353 54.2444 41.429C53.5926 40.5051 53.224 39.4113 53.1836 38.2812C53.1836 38.0948 53.1095 37.9159 52.9777 37.7841C52.8458 37.6522 52.6669 37.5781 52.4805 37.5781C52.294 37.5781 52.1151 37.6522 51.9833 37.7841C51.8514 37.9159 51.7773 38.0948 51.7773 38.2812Z" fill="white"/>
<path d="M47.2627 54.8471C47.2577 54.1268 47.4341 53.4169 47.7757 52.7828C48.1174 52.1488 48.6132 51.6109 49.2174 51.2189C50.6237 50.3022 52.1875 49.6538 53.8299 49.3064C54.0164 49.2561 54.1752 49.1337 54.2715 48.9662C54.3677 48.7988 54.3935 48.5999 54.3432 48.4135C54.2928 48.227 54.1705 48.0681 54.003 47.9719C53.8355 47.8756 53.6367 47.8498 53.4502 47.9002C51.5641 48.3056 49.7767 49.0798 48.1908 50.1783C47.4534 50.71 46.8559 51.4124 46.4493 52.2255C46.0428 53.0386 45.8393 53.9381 45.8565 54.8471C45.8565 55.7471 47.2627 55.7611 47.2627 54.8471Z" fill="white"/>
<path d="M57.0511 68.234C59.338 68.7889 61.652 69.2254 63.9839 69.5418C65.0996 69.6918 66.2105 69.8184 67.3167 69.9215C68.2308 70.0059 69.2855 70.1746 69.9746 69.4153C70.4407 68.6594 70.611 67.7578 70.4527 66.884C70.4527 65.7309 70.3542 64.5918 70.2839 63.4527C70.1152 61.1043 69.8339 58.7559 69.4683 56.4215C69.3277 55.5215 67.9777 55.9012 68.0621 56.7871C68.3714 58.7981 68.6105 60.809 68.7652 62.8199C68.8496 63.8465 68.9058 64.859 68.948 65.8856C68.948 66.3777 68.948 66.8699 68.948 67.2918C68.948 67.559 69.0324 68.0934 68.8496 68.3465C68.6667 68.5996 68.0339 68.5012 67.6964 68.4731L66.2902 68.3465C65.2917 68.234 64.3074 68.1074 63.323 67.9668C61.3261 67.6574 59.3292 67.2637 57.3605 66.7996C56.4746 66.5887 56.0949 67.9387 56.9808 68.2059L57.0511 68.234Z" fill="white"/>
<path d="M38.9685 59.1854C39.0419 62.194 39.7714 65.1504 41.106 67.8479C42.3856 70.0557 44.6216 72.0666 44.7622 74.7807C44.7622 75.6807 46.1685 75.6807 46.1685 74.7807C46.0278 72.0666 44.2419 70.0838 42.8075 67.9322C41.279 65.2655 40.4426 62.2584 40.3747 59.1854C40.3044 58.2994 38.8841 58.2854 38.9685 59.1854Z" fill="white"/>
<path d="M39.6133 59.7812H42.7211C42.9076 59.7812 43.0864 59.7072 43.2183 59.5753C43.3501 59.4434 43.4242 59.2646 43.4242 59.0781C43.4242 58.8916 43.3501 58.7128 43.2183 58.5809C43.0864 58.4491 42.9076 58.375 42.7211 58.375H39.6133C39.4279 58.3786 39.2512 58.4538 39.1201 58.5849C38.989 58.716 38.9138 58.8928 38.9102 59.0781C38.9102 59.2646 38.9842 59.4434 39.1161 59.5753C39.248 59.7072 39.4268 59.7812 39.6133 59.7812Z" fill="white"/>
<path d="M37.1094 72.757L39.2469 78.1007C39.2718 78.1931 39.3147 78.2796 39.373 78.3553C39.4314 78.4311 39.5041 78.4946 39.5871 78.5423C39.67 78.59 39.7615 78.6208 39.8563 78.6331C39.9512 78.6454 40.0475 78.6389 40.1398 78.614C40.2322 78.5891 40.3187 78.5462 40.3945 78.4878C40.4702 78.4295 40.5338 78.3567 40.5814 78.2738C40.6291 78.1909 40.66 78.0994 40.6723 78.0046C40.6846 77.9097 40.6781 77.8134 40.6531 77.721L38.5156 72.3773C38.4602 72.2027 38.3414 72.0553 38.1825 71.9642C38.0237 71.873 37.8365 71.8448 37.6578 71.8851C37.4783 71.9375 37.3263 72.0581 37.2344 72.2209C37.1425 72.3838 37.1178 72.5762 37.1656 72.757H37.1094Z" fill="white"/>
<path d="M15.2422 62.4766V71.4766C15.2422 71.663 15.3163 71.8419 15.4481 71.9737C15.58 72.1056 15.7588 72.1797 15.9453 72.1797C16.1318 72.1797 16.3106 72.1056 16.4425 71.9737C16.5744 71.8419 16.6484 71.663 16.6484 71.4766V62.4766C16.6484 62.2901 16.5744 62.1112 16.4425 61.9794C16.3106 61.8475 16.1318 61.7734 15.9453 61.7734C15.7588 61.7734 15.58 61.8475 15.4481 61.9794C15.3163 62.1112 15.2422 62.2901 15.2422 62.4766Z" fill="white"/>
<path d="M15.0625 38.8281V47.4484C15.0625 47.6349 15.1366 47.8138 15.2684 47.9456C15.4003 48.0775 15.5791 48.1516 15.7656 48.1516C15.9521 48.1516 16.1309 48.0775 16.2628 47.9456C16.3947 47.8138 16.4688 47.6349 16.4688 47.4484V38.8281C16.4688 38.6416 16.3947 38.4628 16.2628 38.3309C16.1309 38.1991 15.9521 38.125 15.7656 38.125C15.5791 38.125 15.4003 38.1991 15.2684 38.3309C15.1366 38.4628 15.0625 38.6416 15.0625 38.8281Z" fill="white"/>
<path d="M15.0625 14.9766V23.7797C15.0625 23.9662 15.1366 24.145 15.2684 24.2769C15.4003 24.4087 15.5791 24.4828 15.7656 24.4828C15.9521 24.4828 16.1309 24.4087 16.2628 24.2769C16.3947 24.145 16.4688 23.9662 16.4688 23.7797V14.9766C16.4688 14.7901 16.3947 14.6112 16.2628 14.4794C16.1309 14.3475 15.9521 14.2734 15.7656 14.2734C15.5791 14.2734 15.4003 14.3475 15.2684 14.4794C15.1366 14.6112 15.0625 14.7901 15.0625 14.9766Z" fill="white"/>
</svg>
