<svg width="90" height="90" viewBox="0 0 90 90" fill="none" xmlns="http://www.w3.org/2000/svg">
<path d="M49.9188 61.1726C49.9188 61.1726 37.8672 66.0101 29.3454 52.8616C23.2422 43.4116 30.3016 29.4335 40.75 27.9429C51.1985 26.4522 57.8641 30.9382 60.6485 37.6319C61.9042 40.4271 62.36 43.5157 61.9653 46.5545C61.5706 49.5932 60.3407 52.4629 58.4125 54.8444C54.9672 59.2179 57.9063 61.2007 57.9063 61.2007C57.9063 61.2007 55.6985 64.9132 49.9188 61.1726Z" fill="#51CA53"/>
<path d="M64.2383 27.0047L66.0945 22.6875L68.907 20.2406L67.8102 17.1891L67.5008 12.7313L69.9758 10.3125H74.532L77.3445 12.7313L77.893 15.6281L76.4867 18.6516L75.8398 20.2125L79.4961 23.025L80.9023 26.9766C80.9023 26.9766 72.5773 35.2594 64.2383 27.0047Z" fill="#FF526A"/>
<path d="M9.29297 82.4297L10.0242 78.9844L12.0492 76.425L14.4258 74.7656L12.7805 72.7406L12.5133 69.45L14.4258 66.2578L16.9148 64.8516L19.8398 65.1609L21.9492 67.3266L22.9617 69.4359L22.0477 72.7266L20.6414 75.1453L23.4539 77.1422L24.8602 79.4344L25.7883 81.9094C23.6417 84.1159 20.7226 85.4032 17.6457 85.5003C14.5688 85.5973 11.5744 84.4965 9.29297 82.4297Z" fill="#FF526A"/>
<path d="M64.2383 82.1484L64.6883 79.3359L66.8961 76.6781L69.7086 75.1453L66.9383 71.7141L68.0914 67.1016L71.4805 64.9219H74.293L76.9508 67.1016L77.8789 69.9141L77.3164 72.7266L75.6711 75.1453L77.8789 76.3125L79.3836 78.7453L80.7195 81.8672C80.7195 81.8672 73.1258 90.0938 64.2383 82.1484Z" fill="#4AC7FF"/>
<path d="M9.29297 27.0797L10.207 23.9016L11.9508 21.3703L14.243 20.2312L13.1461 17.7984L12.4148 14.5219L13.6945 11.5828L16.268 9.72656H18.9258L21.7383 11.5828L22.9336 13.9734V16.4344L21.5273 18.4031L20.3883 19.6828L22.9617 21.3141L24.5648 23.3672L25.5352 25.3078L25.9008 27.0938C25.9008 27.0938 17.0695 35.1516 9.29297 27.0797Z" fill="#4AC7FF"/>
<path d="M85.2761 33.2313C86.9832 37.0333 87.8552 41.1571 87.8334 45.3247C87.8116 49.4923 86.8964 53.6068 85.1495 57.3907C84.812 58.136 84.5448 59.1485 83.4198 58.6563C82.2948 58.1641 82.8573 57.25 83.1808 56.5329C84.7738 53.036 85.6133 49.2432 85.6448 45.4007C85.6763 41.5583 84.8991 37.7522 83.3636 34.2297C82.7589 34.3563 82.8573 34.9469 82.548 35.2563C82.3902 35.4168 82.1874 35.5256 81.9664 35.5683C81.7454 35.611 81.5167 35.5856 81.3105 35.4954C81.093 35.4216 80.9135 35.265 80.8108 35.0596C80.7081 34.8543 80.6906 34.6167 80.762 34.3985C81.1088 33.0054 81.6235 31.6596 82.2948 30.3907C82.4355 30.1516 82.8995 29.8704 83.1245 29.9407C84.6321 30.295 86.0811 30.8632 87.4276 31.6282C87.6007 31.7309 87.7269 31.8971 87.7794 32.0914C87.8319 32.2857 87.8066 32.4928 87.7089 32.6688C87.632 32.9098 87.4732 33.1163 87.26 33.2524C87.0468 33.3886 86.7927 33.4458 86.5417 33.4141C86.1198 33.3438 85.7823 32.9782 85.2761 33.2313Z" fill="#030404"/>
<path d="M57.0645 85.4433C52.8827 87.2978 48.3327 88.1732 43.7614 88.0027C39.8614 87.8242 36.0365 86.868 32.5114 85.1902C31.8645 84.8949 31.1051 84.5574 31.4989 83.6011C31.8926 82.6449 32.6942 82.912 33.4676 83.2636C36.9855 84.8978 40.8102 85.7666 44.6889 85.8127C48.5676 85.8587 52.4119 85.081 55.9676 83.5308C56.052 83.0949 55.7707 83.0386 55.5176 82.9402C55.3521 82.9116 55.1958 82.844 55.0617 82.7428C54.9276 82.6417 54.8196 82.5099 54.7467 82.3586C54.6738 82.2073 54.6381 82.0408 54.6425 81.8729C54.647 81.7049 54.6915 81.5405 54.7723 81.3933C55.0957 80.648 55.7707 80.8308 56.3754 80.9714C56.5339 81.0277 56.6889 81.0935 56.8395 81.1683C60.8332 82.5745 61.0582 83.5027 58.8645 87.187C58.541 87.7074 58.1895 88.073 57.4582 87.8058C56.727 87.5386 56.6848 87.0745 57.0645 85.4433Z" fill="#030403"/>
<path d="M6.63851 56.1731C7.11663 56.0465 7.11663 55.6528 7.27132 55.3856C7.32576 55.256 7.40623 55.139 7.50777 55.0417C7.6093 54.9445 7.72972 54.8691 7.86156 54.8204C7.9934 54.7716 8.13386 54.7504 8.27423 54.7581C8.41459 54.7659 8.55188 54.8023 8.67757 54.8653C8.80856 54.918 8.92708 54.9976 9.0255 55.0988C9.12393 55.2001 9.20009 55.3208 9.24909 55.4532C9.29809 55.5857 9.31884 55.7269 9.31003 55.8678C9.30121 56.0087 9.26301 56.1463 9.19788 56.2715C8.81819 57.4247 8.34007 58.5356 7.89007 59.6747C7.82796 59.8265 7.73726 59.9649 7.62288 60.0825C7.35803 60.29 7.03125 60.4028 6.69476 60.4028C6.35826 60.4028 6.03148 60.29 5.76663 60.0825C4.58538 59.4497 2.95413 59.6325 2.27913 58.1559C2.01194 57.4669 2.65882 56.9606 3.46038 56.9325C3.84007 56.9325 4.12132 57.4106 4.64163 57.059C2.89024 52.9921 2.05488 48.5896 2.19476 44.1637C2.32147 40.2724 3.23014 36.4465 4.86663 32.9137C5.19007 32.2247 5.48538 31.3106 6.49788 31.7044C7.51038 32.0981 7.18694 33.0122 6.84944 33.7997C5.2322 37.3014 4.3771 41.1067 4.34073 44.9637C4.30437 48.8207 5.08757 52.6415 6.63851 56.1731Z" fill="#030403"/>
<path d="M33.8766 6.90771C34.3547 7.20302 34.6922 7.37177 35.0016 7.59677C35.2234 7.74788 35.3762 7.98089 35.4263 8.24459C35.4764 8.50828 35.4197 8.78108 35.2687 9.00302C35.2256 9.10759 35.1623 9.2026 35.0823 9.28259C35.0023 9.36258 34.9073 9.42596 34.8028 9.46909C34.6982 9.51222 34.5862 9.53425 34.4731 9.5339C34.36 9.53356 34.248 9.51085 34.1438 9.46708C32.85 9.03115 31.5563 8.5249 30.2766 8.06083C30.0917 7.94159 29.9529 7.76309 29.8828 7.55459C30.0168 5.75658 30.6716 4.03653 31.7672 2.60459C31.9464 2.52389 32.1459 2.4995 32.3392 2.53465C32.5326 2.56981 32.7107 2.66285 32.85 2.80146C33.5813 3.43427 33.1594 4.10927 32.7094 5.0374C35.1562 4.22177 37.0969 3.39209 39.2203 2.97021C45.2495 1.73724 51.5147 2.45636 57.1078 5.02334C57.8391 5.34677 58.8937 5.58584 58.5141 6.69677C58.1344 7.80771 57.1078 7.34365 56.2781 6.99208C52.7602 5.40287 48.9465 4.5739 45.0863 4.55936C41.2262 4.54482 37.4063 5.34504 33.8766 6.90771Z" fill="#030303"/>
<path d="M17.6625 58.8281C14.9072 58.8254 12.213 59.6402 9.92115 61.1695C7.62926 62.6988 5.84269 64.8738 4.78765 67.4191C3.73261 69.9644 3.45655 72.7655 3.99442 75.4678C4.53229 78.17 5.85991 80.6519 7.80917 82.5992C9.75844 84.5465 12.2417 85.8716 14.9445 86.4068C17.6473 86.9419 20.4481 86.663 22.9923 85.6054C25.5366 84.5478 27.7097 82.759 29.2367 80.4656C30.7637 78.1721 31.5759 75.4772 31.5703 72.7219C31.5481 69.0414 30.0753 65.5182 27.4714 62.9171C24.8676 60.3159 21.3429 58.8466 17.6625 58.8281ZM23.85 82.7344C21.8026 83.9872 19.4275 84.5993 17.0297 84.4922C15.034 84.4154 13.0938 83.8139 11.4047 82.7484C11.2532 82.6894 11.1149 82.6011 10.9976 82.4885C10.8802 82.376 10.7863 82.2414 10.721 82.0926C10.6557 81.9437 10.6203 81.7834 10.617 81.6209C10.6137 81.4583 10.6424 81.2967 10.7015 81.1453C10.9161 80.0094 11.4031 78.9425 12.1208 78.0362C12.8384 77.1299 13.7653 76.4114 14.8219 75.9422C16.664 75.1125 16.7484 74.5359 15.2437 73.3547C14.7678 72.9938 14.374 72.536 14.0882 72.0115C13.8024 71.4871 13.6313 70.9079 13.5861 70.3124C13.5409 69.7168 13.6227 69.1184 13.826 68.5569C14.0293 67.9953 14.3496 67.4833 14.7656 67.0547C15.169 66.651 15.65 66.3333 16.1797 66.1208C16.7094 65.9084 17.2767 65.8056 17.8473 65.8188C18.4178 65.8319 18.9798 65.9607 19.4991 66.1973C20.0184 66.4339 20.4844 66.7734 20.8687 67.1953C21.2536 67.6339 21.5433 68.1476 21.7195 68.7038C21.8958 69.2601 21.9547 69.8468 21.8926 70.427C21.8304 71.0072 21.6486 71.5682 21.3587 72.0746C21.0687 72.5809 20.6768 73.0216 20.2078 73.3688C18.6187 74.6344 18.689 75.1266 20.5875 76.0547C21.5684 76.5284 22.4288 77.2189 23.1037 78.074C23.7785 78.9291 24.2501 79.9265 24.4828 80.9906C24.6295 81.2931 24.6512 81.6412 24.5433 81.9596C24.4354 82.278 24.2066 82.5412 23.9062 82.6922L23.85 82.7344ZM26.4797 80.1609C25.8388 77.8182 24.3305 75.8071 22.2609 74.5359C23.0021 73.7539 23.5353 72.7984 23.8116 71.757C24.0878 70.7156 24.0984 69.6215 23.8424 68.5749C23.5863 67.5283 23.0718 66.5626 22.3459 65.7664C21.62 64.9701 20.706 64.3687 19.6875 64.0172C18.4699 63.6242 17.1613 63.6129 15.9372 63.9849C14.7131 64.357 13.632 65.0944 12.839 66.0984C12.0062 67.0793 11.5047 68.2984 11.4062 69.5814C11.3077 70.8644 11.6173 72.1457 12.2906 73.2422C12.9937 74.3391 12.7547 74.7469 11.8125 75.3797C10.4484 76.2656 9.84373 77.3484 8.59216 80.0063C4.76717 76.5469 4.92185 69.0797 8.90154 64.7766C9.95054 63.6228 11.2191 62.6899 12.633 62.0323C14.0468 61.3747 15.5777 61.0056 17.1359 60.9467C18.6941 60.8877 20.2484 61.1401 21.7079 61.6891C23.1674 62.2381 24.5028 63.0725 25.6359 64.1438C30.164 68.475 30.6422 75.9422 26.4797 80.1609Z" fill="#020202"/>
<path d="M72.3788 58.8281C69.6333 58.8559 66.9573 59.6948 64.6873 61.2395C62.4174 62.7842 60.6549 64.9656 59.6214 67.5093C58.588 70.0531 58.3298 72.8456 58.8794 75.5357C59.4289 78.2259 60.7616 80.6934 62.7099 82.6281C64.6582 84.5627 67.1351 85.8781 69.829 86.4087C72.5229 86.9393 75.3135 86.6615 77.85 85.6103C80.3864 84.559 82.5554 82.7812 84.0841 80.5004C85.6127 78.2197 86.4329 75.5378 86.4413 72.7922C86.4154 69.0797 84.9223 65.528 82.2879 62.9121C79.6535 60.2961 76.0915 58.828 72.3788 58.8281ZM78.6367 82.7344C76.5952 83.9876 74.223 84.5953 71.8304 84.4781C69.8365 84.391 67.899 83.7903 66.2054 82.7344C65.9011 82.6095 65.6581 82.3698 65.5292 82.0671C65.4002 81.7645 65.3956 81.4232 65.5163 81.1172C65.7466 80.0278 66.2274 79.007 66.9206 78.1356C67.6138 77.2642 68.5004 76.5662 69.5101 76.0969C71.6054 75.1125 71.6617 74.8031 69.9742 73.2844C69.4757 72.933 69.0594 72.4778 68.7539 71.95C68.4483 71.4223 68.2608 70.8346 68.2043 70.2274C68.1478 69.6202 68.2235 69.008 68.4264 68.4329C68.6292 67.8578 68.9544 67.3335 69.3794 66.8962C69.8043 66.4588 70.3191 66.1188 70.8881 65.8996C71.4572 65.6803 72.067 65.5871 72.6755 65.6262C73.2841 65.6653 73.877 65.8359 74.4132 66.1262C74.9495 66.4165 75.4165 66.8197 75.782 67.3078C76.1671 67.7481 76.454 68.2654 76.6237 68.8252C76.7934 69.385 76.8419 69.9745 76.7661 70.5545C76.6902 71.1345 76.4918 71.6917 76.1839 72.1891C75.876 72.6864 75.4657 73.1126 74.9804 73.4391C73.4757 74.6062 73.5742 75.1687 75.346 76.0266C76.3536 76.5027 77.238 77.2045 77.9306 78.0775C78.6232 78.9506 79.1054 79.9715 79.3398 81.0609C79.4035 81.2149 79.4359 81.3801 79.4349 81.5468C79.434 81.7134 79.3998 81.8782 79.3343 82.0315C79.2688 82.1847 79.1733 82.3234 79.0535 82.4392C78.9337 82.5551 78.792 82.6459 78.6367 82.7062V82.7344ZM81.3085 80.1609C80.6862 77.8092 79.1732 75.7919 77.0898 74.5359C80.521 70.3172 78.496 65.325 74.5163 63.975C73.2945 63.5887 71.9837 63.585 70.7597 63.9645C69.5357 64.344 68.4569 65.0886 67.6679 66.0984C66.8166 67.1021 66.3083 68.3516 66.2172 69.6646C66.1261 70.9775 66.457 72.2853 67.1617 73.3969C67.7804 74.3531 67.6398 74.6906 66.782 75.2672C65.1868 76.4864 64.0277 78.1879 63.4773 80.1187C59.596 76.6031 59.7507 69.1078 63.7304 64.8328C64.7889 63.6654 66.0718 62.7233 67.5025 62.0627C68.9332 61.4021 70.4823 61.0367 72.0574 60.9881C73.6325 60.9395 75.2012 61.2089 76.6698 61.7801C78.1385 62.3512 79.477 63.2125 80.6054 64.3125C85.007 68.5594 85.4148 76.0547 81.3085 80.1609Z" fill="#020202"/>
<path d="M72.4523 3.8125C68.7318 3.84191 65.172 5.33294 62.5412 7.96382C59.9103 10.5947 58.4193 14.1545 58.3898 17.875C58.3304 19.7489 58.6482 21.6156 59.3243 23.3642C60.0003 25.1129 61.0209 26.7079 62.3254 28.0544C63.63 29.401 65.1918 30.4716 66.9181 31.2028C68.6445 31.9339 70.5002 32.3107 72.375 32.3107C74.2498 32.3107 76.1055 31.9339 77.8319 31.2028C79.5582 30.4716 81.12 29.401 82.4246 28.0544C83.7291 26.7079 84.7497 25.1129 85.4258 23.3642C86.1018 21.6156 86.4196 19.7489 86.3602 17.875C86.3351 14.1798 84.8665 10.6408 82.2681 8.01342C79.6696 5.38605 76.147 3.87847 72.4523 3.8125ZM78.457 27.8875C76.6343 28.9891 74.5398 29.559 72.4102 29.5328C70.2371 29.5771 68.0978 28.991 66.2508 27.8453C65.9282 27.6999 65.6722 27.4381 65.5341 27.1123C65.3959 26.7865 65.3857 26.4205 65.5055 26.0875C65.7545 24.9737 66.2678 23.9361 67.0021 23.0624C67.7363 22.1886 68.67 21.5043 69.7242 21.0672C71.468 20.3359 71.5383 19.6609 70.1039 18.5359C69.6181 18.1858 69.2124 17.7363 68.9137 17.2173C68.6151 16.6983 68.4304 16.1216 68.3718 15.5257C68.3133 14.9297 68.3823 14.3281 68.5743 13.7609C68.7662 13.1937 69.0767 12.6739 69.4852 12.2359C69.8855 11.8295 70.3628 11.5067 70.8891 11.2863C71.4154 11.066 71.9802 10.9526 72.5508 10.9526C73.1213 10.9526 73.6862 11.066 74.2125 11.2863C74.7388 11.5067 75.216 11.8295 75.6164 12.2359C76.0171 12.6772 76.3197 13.1983 76.5044 13.7649C76.689 14.3316 76.7515 14.9309 76.6878 15.5235C76.624 16.1161 76.4354 16.6884 76.1344 17.2028C75.8334 17.7172 75.4268 18.162 74.9414 18.5078C73.4227 19.6891 73.5352 20.2516 75.307 21.1375C76.2654 21.5879 77.1119 22.2453 77.7855 23.0624C78.4591 23.8795 78.943 24.8358 79.2023 25.8625C79.3049 26.0409 79.3671 26.2396 79.3845 26.4447C79.4019 26.6497 79.374 26.8561 79.303 27.0492C79.2319 27.2423 79.1193 27.4175 78.9731 27.5623C78.827 27.7072 78.6508 27.8182 78.457 27.8875ZM81.2695 25.2438C80.6508 22.9141 79.1739 20.9047 77.1352 19.6187C77.7237 18.9832 78.1798 18.2369 78.4768 17.4232C78.7739 16.6096 78.906 15.7449 78.8654 14.8797C78.8248 14.0145 78.6124 13.166 78.2405 12.3838C77.8686 11.6015 77.3446 10.9011 76.6992 10.3234C75.5536 9.33005 74.0882 8.78317 72.5719 8.78317C71.0556 8.78317 69.5901 9.33005 68.4445 10.3234C67.2927 11.2659 66.5172 12.5905 66.2592 14.0562C66.0011 15.522 66.2776 17.0317 67.0383 18.3109C67.6992 19.3797 67.5727 19.7172 66.6023 20.4625C65.0364 21.6423 63.9161 23.3177 63.4242 25.2156C59.4727 21.5312 59.6977 14.0922 63.7758 9.74687C64.8308 8.61696 66.099 7.70703 67.5073 7.06954C68.9156 6.43206 70.4361 6.07963 71.9813 6.03257C73.5265 5.9855 75.0656 6.24475 76.5101 6.79534C77.9546 7.34594 79.2759 8.177 80.3977 9.24063C85.0102 13.5578 85.4742 20.9828 81.2977 25.3141L81.2695 25.2438Z" fill="#020202"/>
<path d="M17.5758 3.8125C13.8929 3.85953 10.3732 5.33965 7.76351 7.93882C5.15384 10.538 3.65954 14.0517 3.59766 17.7344C3.62344 21.456 5.1133 25.0179 7.74496 27.6496C10.3766 30.2812 13.9385 31.7711 17.6602 31.7969C21.3418 31.7535 24.8615 30.2764 27.4715 27.6795C30.0816 25.0826 31.5763 21.5704 31.6383 17.8891C31.6198 14.1638 30.1328 10.5962 27.4999 7.96077C24.8671 5.3253 21.301 3.83467 17.5758 3.8125ZM23.7352 27.8313C21.8856 28.9845 19.7409 29.5756 17.5617 29.5328C15.3811 29.5568 13.239 28.9567 11.3883 27.8031C11.2246 27.7347 11.0766 27.6338 10.9532 27.5064C10.8298 27.379 10.7336 27.2278 10.6705 27.0621C10.6074 26.8963 10.5786 26.7195 10.586 26.5423C10.5933 26.3651 10.6366 26.1912 10.7133 26.0312C10.9598 24.9198 11.4725 23.8847 12.2073 23.0152C12.9422 22.1456 13.8772 21.4675 14.932 21.0391C16.6336 20.3359 16.6898 19.6328 15.2555 18.4937C14.7749 18.1403 14.3747 17.689 14.0814 17.1696C13.7881 16.6502 13.6082 16.0745 13.5537 15.4804C13.4993 14.8864 13.5714 14.2876 13.7653 13.7234C13.9593 13.1593 14.2706 12.6427 14.6789 12.2078C15.0803 11.803 15.5578 11.4818 16.084 11.2625C16.6101 11.0433 17.1745 10.9304 17.7445 10.9304C18.3146 10.9304 18.8789 11.0433 19.4051 11.2625C19.9313 11.4818 20.4088 11.803 20.8102 12.2078C21.2086 12.6518 21.5084 13.1752 21.6897 13.7436C21.8711 14.312 21.9298 14.9123 21.862 15.505C21.7942 16.0977 21.6015 16.6694 21.2966 17.1821C20.9916 17.6949 20.5814 18.1371 20.093 18.4797C18.6867 19.5906 18.6867 20.2797 20.3742 21.0531C21.3888 21.5129 22.2842 22.1996 22.9913 23.0603C23.6984 23.921 24.1983 24.9326 24.4523 26.0172C24.5906 26.3536 24.5932 26.7305 24.4594 27.0688C24.3257 27.407 24.0661 27.6803 23.7352 27.8313ZM26.5477 25.3C25.8642 22.9784 24.3663 20.9812 22.3289 19.675C22.9591 18.9711 23.4358 18.1437 23.7288 17.2455C24.0217 16.3473 24.1245 15.3979 24.0305 14.4578C23.9211 13.1773 23.4112 11.9637 22.5732 10.9894C21.7351 10.015 20.6115 9.32934 19.3617 9.02969C18.2092 8.66599 16.973 8.66373 15.8191 9.02321C14.6653 9.38269 13.6491 10.0867 12.907 11.0406C12.0459 12.0005 11.5166 13.2121 11.3976 14.4962C11.2786 15.7802 11.5761 17.0685 12.2461 18.1703C12.9633 19.3094 12.7523 19.7594 11.768 20.4625C10.2001 21.6672 9.10515 23.3843 8.67422 25.3141C6.75526 23.1421 5.72806 20.3252 5.79847 17.4278C5.86888 14.5305 7.03171 11.7668 9.05391 9.69062C11.151 7.46371 14.0343 6.14305 17.0904 6.00969C20.1464 5.87632 23.1338 6.94077 25.4169 8.97653C27.7 11.0123 29.0986 13.8586 29.3151 16.9099C29.5315 19.9611 28.5487 22.9764 26.5758 25.3141L26.5477 25.3Z" fill="#020202"/>
<path d="M59.1455 60.5548C57.219 59.3314 57.1205 58.7408 58.6112 57.0673C61.7801 53.6217 63.5065 49.0918 63.4346 44.4111C63.431 43.5978 63.3794 42.7854 63.2799 41.9783C62.7632 38.3262 61.1629 34.913 58.6859 32.1801C56.2088 29.4471 52.969 27.52 49.3851 26.6478C45.8013 25.7757 42.0382 25.9985 38.5824 27.2877C35.1265 28.5768 32.1368 30.8729 29.9997 33.8791C27.8626 36.8854 26.6764 40.4636 26.5944 44.1511C26.5124 47.8387 27.5384 51.466 29.5398 54.5643C31.5411 57.6626 34.4258 60.0893 37.8209 61.5307C41.2161 62.9722 44.9655 63.3621 48.5846 62.6501C49.2877 62.5236 49.9909 62.172 50.7924 62.6501C52.0017 63.4002 53.3811 63.8322 54.8022 63.9059C56.2234 63.9797 57.6401 63.6928 58.9205 63.072C59.5393 62.8189 60.3268 62.6079 60.3268 61.8064C60.3268 61.0048 59.6518 60.8783 59.1455 60.5548ZM51.6784 60.7517C51.2874 60.442 50.8234 60.238 50.3309 60.1592C49.8384 60.0804 49.3339 60.1295 48.8659 60.3017C45.6738 61.0359 42.3333 60.7739 39.2947 59.5509C36.2562 58.3279 33.6656 56.2027 31.8722 53.4618C30.0789 50.721 29.1689 47.4962 29.265 44.2221C29.3611 40.9481 30.4587 37.7822 32.4098 35.1513C34.3608 32.5203 37.0716 30.5508 40.1767 29.5081C43.2817 28.4655 46.6318 28.3998 49.7754 29.3201C52.9189 30.2403 55.7047 32.1022 57.7573 34.6547C59.8099 37.2072 61.0307 40.3277 61.2549 43.5954C61.4423 45.6164 61.2201 47.6543 60.6015 49.5873C59.9829 51.5204 58.9807 53.3087 57.6549 54.8454C57.0924 55.5345 56.4596 56.2517 55.9674 56.9126C54.8565 58.5579 55.433 60.0486 56.7268 61.497C55.8848 61.7707 54.991 61.8458 54.1151 61.7165C53.2393 61.5872 52.4053 61.257 51.6784 60.7517Z" fill="#020202"/>
<path d="M45.1531 47.8828C47.3328 47.8828 49.4984 47.8828 51.6781 47.8828C52.5359 47.8828 53.3516 48.0375 53.3094 49.0781C53.2672 50.1188 52.4375 50.0906 51.6781 50.1047H38.3047C37.5594 50.1047 36.7156 50.1047 36.6734 49.0922C36.6313 48.0797 37.4469 47.8969 38.3047 47.8969C40.5828 47.8969 42.875 47.8828 45.1531 47.8828Z" fill="#111212"/>
<path d="M44.8291 42.2953H38.1494C37.4603 42.2953 36.7431 42.2953 36.6728 41.3391C36.6025 40.3828 37.3056 40.1719 38.0791 40.1719H51.776C52.5916 40.1719 53.2806 40.3828 53.2666 41.325C53.2525 42.2672 52.4931 42.2953 51.79 42.2953H44.8291Z" fill="#010202"/>
<path d="M41.9065 32.9659C34.9877 34.0346 30.4174 42.6409 33.3986 48.969C33.5575 49.2586 33.6093 49.5949 33.545 49.9188C33.4807 50.2428 33.3044 50.5338 33.0471 50.7409C32.8888 50.815 32.7164 50.8544 32.5417 50.8563C32.3669 50.8583 32.1937 50.8227 32.0338 50.7521C31.8739 50.6815 31.731 50.5774 31.6147 50.4469C31.4984 50.3164 31.4114 50.1625 31.3596 49.9955C27.633 42.4862 33.3002 31.8127 41.5971 30.6877C42.4549 30.5471 43.158 31.0534 43.158 31.6721C43.1336 32.0001 42.995 32.3091 42.7664 32.5455C42.5377 32.7818 42.2334 32.9306 41.9065 32.9659Z" fill="white"/>
<path d="M45.2789 32.7922C46.009 32.7922 46.6008 32.2004 46.6008 31.4703C46.6008 30.7403 46.009 30.1484 45.2789 30.1484C44.5489 30.1484 43.957 30.7403 43.957 31.4703C43.957 32.2004 44.5489 32.7922 45.2789 32.7922Z" fill="white"/>
<path d="M16.3936 11.9688C15.89 12.1365 15.4335 12.4217 15.0618 12.8007C14.6902 13.1797 14.414 13.6416 14.2561 14.1484C14.1129 14.6842 14.1075 15.2474 14.2402 15.7858C14.373 16.3242 14.6397 16.8204 15.0155 17.2281C15.0808 17.294 15.1586 17.3463 15.2443 17.382C15.33 17.4177 15.4219 17.4361 15.5147 17.4361C15.6075 17.4361 15.6994 17.4177 15.7851 17.382C15.8708 17.3463 15.9485 17.294 16.0139 17.2281C16.1427 17.0967 16.2149 16.92 16.2149 16.7359C16.2149 16.5519 16.1427 16.3752 16.0139 16.2438L15.9155 16.1172C15.8452 16.0469 15.9155 16.2016 15.9155 16.1172L15.7608 15.8781L15.6905 15.7375C15.6905 15.6391 15.6905 15.8781 15.6905 15.7375L15.592 15.4703C15.592 15.4703 15.592 15.3578 15.592 15.3156C15.5854 15.222 15.5854 15.128 15.592 15.0344V14.8797C15.592 14.8094 15.592 14.8094 15.592 14.8797C15.584 14.7767 15.584 14.6733 15.592 14.5703C15.5841 14.5332 15.5841 14.4949 15.592 14.4578C15.592 14.4578 15.592 14.2891 15.592 14.3734C15.6207 14.3344 15.6443 14.2918 15.6623 14.2469L15.817 14.0219C15.7045 14.1344 15.817 13.9375 15.817 14.0219L15.9014 13.9375L16.1264 13.7266L16.2389 13.6562L16.478 13.5156H16.6467C16.8332 13.4653 16.992 13.3429 17.0883 13.1754C17.1846 13.008 17.2104 12.8091 17.16 12.6227C17.1097 12.4362 16.9873 12.2773 16.8198 12.1811C16.6524 12.0848 16.4535 12.059 16.267 12.1094L16.3936 11.9688Z" fill="white"/>
<path d="M71.4913 67.1641C70.9837 67.3244 70.5233 67.6071 70.1505 67.9872C69.7778 68.3672 69.5042 68.8331 69.3538 69.3438C69.2038 69.879 69.195 70.4439 69.328 70.9836C69.4611 71.5232 69.7316 72.0193 70.1132 72.4234C70.247 72.5532 70.426 72.6257 70.6124 72.6257C70.7988 72.6257 70.9778 72.5532 71.1116 72.4234C71.2351 72.2865 71.3035 72.1086 71.3035 71.9242C71.3035 71.7398 71.2351 71.5619 71.1116 71.425C71.0707 71.3911 71.033 71.3535 70.9991 71.3125C70.9288 71.2281 70.9991 71.3969 70.9991 71.3125L70.8444 71.0734L70.7741 70.9328C70.7741 70.8344 70.7741 71.0875 70.7741 70.9328C70.7677 70.8392 70.7677 70.7452 70.7741 70.6516V70.5109C70.7741 70.5109 70.7741 70.3141 70.7741 70.2156C70.7741 70.1172 70.7741 70.1172 70.7741 70.0609C70.7909 69.961 70.8144 69.8624 70.8444 69.7656V69.6531C70.8444 69.6531 70.8444 69.4844 70.8444 69.5688C70.8398 69.5267 70.8398 69.4843 70.8444 69.4422C70.8444 69.3578 70.9429 69.2875 70.9851 69.2172C70.8866 69.3297 71.0272 69.1469 70.9851 69.2172V69.1328L71.2101 68.9219L71.3366 68.8375L71.5616 68.7109L71.7304 68.6406C71.8227 68.6166 71.9094 68.5747 71.9855 68.5171C72.0616 68.4596 72.1257 68.3877 72.174 68.3054C72.2223 68.2232 72.254 68.1322 72.2671 68.0377C72.2803 67.9432 72.2747 67.847 72.2507 67.7547C72.2267 67.6624 72.1847 67.5757 72.1272 67.4995C72.0697 67.4234 71.9977 67.3594 71.9155 67.311C71.8332 67.2627 71.7422 67.2311 71.6477 67.2179C71.5532 67.2048 71.4571 67.2104 71.3647 67.2344L71.4913 67.1641Z" fill="white"/>
<path d="M71.4913 11.9688C70.9849 12.1313 70.5256 12.4147 70.1532 12.7944C69.7808 13.1742 69.5064 13.6389 69.3538 14.1484C69.2038 14.6837 69.195 15.2486 69.328 15.7883C69.4611 16.3279 69.7316 16.824 70.1132 17.2281C70.1785 17.294 70.2563 17.3463 70.342 17.382C70.4277 17.4177 70.5196 17.4361 70.6124 17.4361C70.7052 17.4361 70.7971 17.4177 70.8828 17.382C70.9685 17.3463 71.0463 17.294 71.1116 17.2281C71.2341 17.0935 71.3021 16.918 71.3021 16.7359C71.3021 16.5539 71.2341 16.3784 71.1116 16.2438L70.9991 16.1172C70.9288 16.0469 70.9991 16.2016 70.9991 16.1172C70.9558 16.0325 70.9039 15.9524 70.8444 15.8781C70.8297 15.8274 70.8059 15.7797 70.7741 15.7375C70.7741 15.6391 70.7741 15.8781 70.7741 15.7375C70.7677 15.6486 70.7677 15.5593 70.7741 15.4703V15.3156C70.7741 15.3156 70.7741 15.1187 70.7741 15.0344C70.7741 14.95 70.7741 14.9219 70.7741 14.8797C70.7741 14.8094 70.7741 14.8375 70.7741 14.8797C70.7893 14.7749 70.8128 14.6714 70.8444 14.5703V14.4578C70.8444 14.4578 70.8444 14.2891 70.8444 14.3734C70.8398 14.3314 70.8398 14.2889 70.8444 14.2469C70.8444 14.1625 70.9429 14.0922 70.9851 14.0219C70.8866 14.1344 71.0272 13.9516 70.9851 14.0219V13.9375L71.2101 13.7266L71.3366 13.6562L71.5616 13.5156H71.7304C71.9168 13.4671 72.0764 13.3466 72.174 13.1804C72.2716 13.0143 72.2992 12.8162 72.2507 12.6297C72.2022 12.4432 72.0816 12.2836 71.9155 12.186C71.7493 12.0885 71.5512 12.0609 71.3647 12.1094L71.4913 11.9688Z" fill="white"/>
<path d="M16.7084 67.1641C16.2005 67.3268 15.7395 67.61 15.3648 67.9896C14.9902 68.3692 14.7129 68.8338 14.5568 69.3438C14.4128 69.8805 14.4082 70.4451 14.5436 70.984C14.6789 71.523 14.9497 72.0185 15.3302 72.4234C15.4617 72.5523 15.6384 72.6244 15.8224 72.6244C16.0065 72.6244 16.1832 72.5523 16.3146 72.4234C16.4443 72.2896 16.5169 72.1106 16.5169 71.9242C16.5169 71.7379 16.4443 71.5588 16.3146 71.425L16.2162 71.3125C16.2162 71.2281 16.2162 71.3969 16.2162 71.3125C16.1567 71.2383 16.1048 71.1582 16.0615 71.0734L15.9912 70.9328C15.9912 70.8344 15.9912 71.0875 15.9912 70.9328L15.9068 70.6516C15.9133 70.6049 15.9133 70.5576 15.9068 70.5109C15.9068 70.5109 15.9068 70.3141 15.9068 70.2156C15.9005 70.1643 15.9005 70.1123 15.9068 70.0609C15.9236 69.961 15.9471 69.8624 15.9771 69.7656C15.982 69.7283 15.982 69.6905 15.9771 69.6531C15.9771 69.6531 16.0474 69.4844 15.9771 69.5688C15.9725 69.5267 15.9725 69.4843 15.9771 69.4422C16.0156 69.3623 16.0628 69.2868 16.1177 69.2172C16.0193 69.3297 16.1177 69.1188 16.1177 69.2172V69.1328L16.3427 68.9219L16.4693 68.8375L16.6943 68.7109L16.8631 68.6406C16.9554 68.6166 17.0421 68.5747 17.1182 68.5171C17.1943 68.4596 17.2584 68.3877 17.3067 68.3054C17.355 68.2232 17.3867 68.1322 17.3998 68.0377C17.413 67.9432 17.4074 67.847 17.3834 67.7547C17.3594 67.6624 17.3174 67.5757 17.2599 67.4995C17.2024 67.4234 17.1304 67.3594 17.0482 67.311C16.9659 67.2627 16.8749 67.2311 16.7804 67.2179C16.6859 67.2048 16.5898 67.2104 16.4974 67.2344L16.7084 67.1641Z" fill="white"/>
</svg>
