<svg width="90" height="90" viewBox="0 0 90 90" fill="none" xmlns="http://www.w3.org/2000/svg">
<path d="M55.5617 20.4031C55.5617 20.4031 48.6852 20.6844 49.5008 13.6391C50.0914 8.60469 57.2774 9.82812 58.6274 11.8953C59.9774 13.9625 62.8461 3.64062 62.8461 3.64062L87.4696 13.7938L78.0477 38.6L69.793 35.4781C69.793 35.4781 74.3352 28.0953 68.3867 25.8313C62.4383 23.5672 61.3555 31.9625 61.3555 31.9625L52.7492 28.7563L55.5617 20.4031Z" fill="#91D959"/>
<path d="M38.9086 51.3542V63.8839C38.9086 63.8839 45.1242 60.1714 48.3164 63.8839C51.5086 67.5964 50.7352 72.3214 47.6273 74.037C44.5195 75.7526 39.1898 74.037 39.1898 74.037L38.8945 86.1729H70.3805C70.3805 86.1729 73.8117 86.7636 73.8117 82.3761V54.0261C73.8662 53.6645 73.8365 53.2952 73.7249 52.9469C73.6133 52.5987 73.4229 52.2809 73.1685 52.0183C72.914 51.7557 72.6024 51.5553 72.2579 51.4328C71.9133 51.3103 71.5452 51.269 71.182 51.312H61.5492C61.5492 51.312 65.2758 44.2807 60.593 41.9464C55.9102 39.612 51.8742 40.737 50.468 43.1417C49.0617 45.5464 50.8758 51.312 50.8758 51.312L38.9086 51.3542Z" fill="#66CAFF"/>
<path d="M4.30193 51.3125L3.51443 82.4187C3.51443 82.4187 2.83943 86.2156 7.50818 86.2156H38.9097V73.5594C38.9097 73.5594 43.7051 77.8625 48.3176 73.5594C49.1675 72.7809 49.7941 71.7894 50.1323 70.6876C50.4706 69.5858 50.5084 68.4135 50.2417 67.2922C49.9749 66.1709 49.4135 65.1412 48.6153 64.3097C47.8172 63.4781 46.8114 62.8749 45.7019 62.5625C43.348 62.3384 40.9812 62.8284 38.9097 63.9688V52.0297L27.3082 52.1141C27.3082 52.1141 29.7129 57.9219 26.6472 60.8328C23.5816 63.7437 17.7316 63.4906 16.0582 60.8328C14.3847 58.175 16.4238 51.3406 16.4238 51.3406L4.30193 51.3125Z" fill="#FFE57E"/>
<path d="M3.52963 51.3531V20.725C3.52963 20.725 3.03744 16.1547 10.8281 16.1125C18.6187 16.0703 38.1796 16.1125 38.1796 16.1125V28.7687C38.1796 28.7687 28.8843 25.3937 27.6749 33.2547C27.3945 34.8952 27.7672 36.5803 28.7133 37.9495C29.6594 39.3188 31.1038 40.2634 32.7374 40.5813C34.6098 40.511 36.4538 40.1013 38.1796 39.3719V51.7469H26.9296C26.9296 51.7469 30.5718 62.4625 21.3749 62.4625C12.1781 62.4625 15.8906 51.2969 15.8906 51.2969L3.52963 51.3531Z" fill="#FF6D5E"/>
<path d="M74.9086 50.2734C74.66 50.0731 74.3742 49.924 74.0676 49.8347C73.7611 49.7454 73.4399 49.7177 73.1227 49.7531C70.9008 49.7531 68.6227 49.7531 66.4148 49.7531H64.0102C64.9945 45.3797 64.0102 42.2297 61.1133 40.1625C59.7431 39.1947 58.1113 38.6657 56.4339 38.6457C54.7565 38.6256 53.1125 39.1153 51.7195 40.05C48.682 42.1172 47.6836 45.2953 48.668 49.7531H46.8398C45.0117 49.7531 43.2961 49.7531 41.5383 49.7531C41.2124 49.8183 40.874 49.7526 40.5961 49.5703C40.4414 49.4297 40.3852 49.1063 40.3992 48.5156C40.3992 46.2797 40.3992 44.0156 40.3992 41.8219C40.3992 40.9641 40.3992 40.1203 40.3992 39.2766V39.0516C40.5079 38.6917 40.4891 38.3054 40.3458 37.9579C40.2025 37.6104 39.9435 37.323 39.6128 37.1444C39.282 36.9658 38.8997 36.9069 38.5306 36.9777C38.1614 37.0484 37.828 37.2445 37.5867 37.5328L37.3617 37.7016C36.3932 38.458 35.1774 38.826 33.952 38.7335C32.7265 38.641 31.5797 38.0948 30.7357 37.2015C29.8917 36.3083 29.4113 35.1323 29.3883 33.9037C29.3654 32.675 29.8016 31.4819 30.6117 30.5578C31.4316 29.6082 32.5891 29.0154 33.8388 28.9051C35.0885 28.7948 36.332 29.1758 37.3055 29.9672H37.3898C37.6725 30.256 38.0346 30.4543 38.4302 30.537C38.8258 30.6196 39.2371 30.5828 39.6117 30.4312C39.9281 30.2394 40.1759 29.9527 40.3199 29.6118C40.4638 29.2709 40.4965 28.8933 40.4133 28.5328C40.4063 28.4204 40.4063 28.3077 40.4133 28.1953C40.4133 24.5812 40.4133 20.9672 40.4133 17.3531C40.4133 15.0188 40.0758 14.6953 37.6992 14.6953H8.05547C3.99141 14.6953 2.33203 16.3547 2.33203 20.4328V82.1672C2.33203 86.2312 3.97734 87.8906 7.95703 87.8906H69.4664C73.882 87.8906 75.457 86.3156 75.457 81.8719V73.7859C75.457 66.6 75.457 59.4141 75.457 52.2281C75.5385 51.5298 75.3415 50.8275 74.9086 50.2734ZM37.207 77.7516C37.207 79.65 37.207 81.6187 37.207 83.5594C37.2627 83.8835 37.203 84.2169 37.0383 84.5016C36.8977 84.6562 36.5883 84.7125 36.0117 84.6984C33.8461 84.6984 31.6523 84.6984 29.4727 84.6984H7.81641C5.81953 84.6562 5.62266 84.375 5.62266 82.4906V73.8281C5.62266 67.2656 5.62266 60.7031 5.62266 54.1406C5.62266 53.5922 5.62266 53.3109 5.80547 53.1703C6.06148 53.0258 6.36018 52.976 6.64922 53.0297C8.49141 53.1281 10.4742 53.1281 12.893 53.0297C13.5539 53.0297 13.6805 53.0297 13.7086 53.1141C13.7367 53.1984 13.7789 53.3109 13.5961 54.0141C13.0901 56.0482 13.3895 58.1992 14.4318 60.0178C15.4741 61.8364 17.1787 63.182 19.1896 63.7737C21.2005 64.3653 23.3622 64.1573 25.2233 63.1929C27.0845 62.2285 28.5011 60.5825 29.1773 58.5984C29.7633 57.0129 29.8127 55.2788 29.318 53.6625C29.2438 53.4787 29.2011 53.2838 29.1914 53.0859C29.1914 53.0859 29.318 53.0859 29.7117 53.0859C32.5242 53.0859 34.6195 53.0859 36.6445 53.0859C36.8331 53.0618 37.0246 53.0962 37.193 53.1844C37.3055 53.2828 37.3195 53.5922 37.3055 53.8453C37.3055 55.9406 37.3055 58.0641 37.3055 60.1453V63.5344C37.2345 63.9313 37.282 64.3404 37.4421 64.7105C37.6021 65.0806 37.8676 65.3954 38.2055 65.6156C38.5307 65.7945 38.9071 65.8572 39.2727 65.7933C39.6383 65.7294 39.9712 65.5427 40.2164 65.2641L40.4836 65.0531C41.4679 64.287 42.7045 63.9195 43.9474 64.0238C45.1903 64.128 46.3485 64.6963 47.1914 65.6156C47.9925 66.5329 48.434 67.7095 48.434 68.9273C48.434 70.1452 47.9925 71.3218 47.1914 72.2391C46.3373 73.1459 45.1734 73.6984 43.9308 73.787C42.6882 73.8756 41.4577 73.4937 40.4836 72.7172L40.2445 72.5344C40.0199 72.2719 39.7164 72.089 39.3794 72.013C39.0424 71.937 38.6898 71.9719 38.3742 72.1125C38.0031 72.3189 37.705 72.6353 37.5212 73.0181C37.3373 73.4009 37.2767 73.8313 37.3477 74.25C37.2211 75.3469 37.207 76.5422 37.207 77.7516ZM37.0945 18.1547C37.2035 18.3311 37.2482 18.5397 37.2211 18.7453C37.2211 20.5875 37.2211 22.4438 37.2211 24.3703V26.2266C33.0023 25.2422 29.782 26.2266 27.6586 29.25C26.7342 30.5753 26.2257 32.146 26.1982 33.7616C26.1706 35.3772 26.6252 36.9643 27.5039 38.3203C29.5711 41.4844 32.5805 42.5391 37.2211 41.5969V43.425C37.2211 45.2953 37.2211 47.2359 37.2211 49.1344C37.2409 49.3244 37.2017 49.5159 37.1086 49.6828C36.9961 49.7953 36.7008 49.7953 36.4195 49.7953H26.7164C26.3314 49.7093 25.9288 49.7522 25.5706 49.9174C25.2123 50.0825 24.9183 50.3608 24.7336 50.7094C24.5786 51.0373 24.5373 51.4075 24.6163 51.7615C24.6952 52.1155 24.8899 52.4331 25.1695 52.6641L25.3805 52.9453C26.1323 53.9105 26.4977 55.1212 26.4054 56.3412C26.3131 57.5612 25.7697 58.7031 24.8812 59.5442C23.9927 60.3853 22.8227 60.8654 21.5995 60.8907C20.3763 60.916 19.1874 60.4848 18.2648 59.6812C17.3296 58.858 16.7361 57.7148 16.6008 56.4762C16.4655 55.2377 16.7982 53.9933 17.5336 52.9875L17.8008 52.6641C18.0873 52.4449 18.2908 52.1348 18.3777 51.7846C18.4646 51.4345 18.4297 51.0652 18.2789 50.7375C18.1342 50.4136 17.8895 50.1447 17.5808 49.97C17.272 49.7954 16.9154 49.7243 16.5633 49.7672H13.118C10.9383 49.7672 8.68828 49.7672 6.46641 49.7672C6.01641 49.7672 5.79141 49.7672 5.69297 49.6266C5.59453 49.4859 5.53828 49.2891 5.53828 48.9094C5.53828 38.8547 5.53828 28.9828 5.53828 19.8141C5.51225 19.5613 5.53879 19.3059 5.61623 19.0639C5.69367 18.8219 5.82035 18.5985 5.98828 18.4078C6.38297 18.0871 6.88847 17.9354 7.39453 17.9859H36.5039C36.7137 17.9777 36.9207 18.0369 37.0945 18.1547ZM40.4273 77.3438C40.4273 76.6828 40.4273 76.5562 40.5117 76.5422C40.5574 76.5272 40.6067 76.5272 40.6523 76.5422C40.9195 76.5573 41.1839 76.6045 41.4398 76.6828C43.5116 77.2814 45.7364 77.0325 47.6246 75.9908C49.5129 74.9491 50.91 73.1999 51.5086 71.1281C52.1072 69.0563 51.8583 66.8316 50.8166 64.9433C49.7749 63.0551 48.0257 61.658 45.9539 61.0594C44.3531 60.5182 42.6188 60.5182 41.018 61.0594C40.8461 61.1201 40.6658 61.1534 40.4836 61.1578C40.437 60.9637 40.437 60.7613 40.4836 60.5672C40.4836 58.5281 40.4836 56.1656 40.4836 53.8031C40.4524 53.5687 40.502 53.3306 40.6242 53.1281C40.7086 53.0297 40.9195 52.9594 41.3133 52.9875C43.493 52.9875 45.6867 52.9875 47.8664 52.9875H50.7633C51.1912 53.0815 51.6377 53.0399 52.0409 52.8686C52.4441 52.6972 52.784 52.4046 53.0133 52.0312C53.1811 51.6838 53.228 51.2903 53.1465 50.9132C53.065 50.5361 52.8597 50.197 52.5633 49.95L52.3102 49.6125C51.5956 48.6234 51.2824 47.4003 51.4337 46.1895C51.5851 44.9787 52.1897 43.8702 53.1258 43.0875C54.0308 42.3186 55.1797 41.8965 56.3672 41.8965C57.5547 41.8965 58.7036 42.3186 59.6086 43.0875C60.5364 43.8825 61.1268 45.0007 61.26 46.2152C61.3932 47.4297 61.0592 48.6494 60.3258 49.6266L60.1289 49.8797C59.8276 50.1419 59.6205 50.4956 59.5392 50.8867C59.458 51.2778 59.507 51.6847 59.6789 52.0453C59.8954 52.3939 60.2141 52.6673 60.5915 52.8283C60.9689 52.9894 61.3868 53.0302 61.7883 52.9453H62.0414C63.2227 52.9453 64.3898 52.9453 65.5711 52.9453C67.4133 52.9453 69.2555 52.9453 71.1117 52.9453C71.4449 52.8828 71.7895 52.9427 72.082 53.1141C72.2469 53.3676 72.312 53.6732 72.2648 53.9719C72.2648 60.2578 72.2648 66.6281 72.2648 72.8156V82.3781C72.2648 84.2063 71.8289 84.6141 69.9867 84.6281H52.0289C48.5836 84.6281 44.9977 84.6281 41.5102 84.6281C40.9758 84.6281 40.6664 84.6281 40.5258 84.4313C40.3852 84.2344 40.357 84.0234 40.3711 83.5734C40.5117 81.7172 40.5258 79.6781 40.4273 77.3438Z" fill="black"/>
<path d="M86.3415 11.0948L75.5556 6.7917L63.8837 2.13701C63.6105 1.99482 63.3111 1.91021 63.0039 1.88844C62.6967 1.86667 62.3883 1.9082 62.0978 2.01045C61.8248 2.15849 61.5837 2.35889 61.3883 2.60019C61.1928 2.84148 61.0469 3.11895 60.9587 3.4167C60.3822 4.94951 59.7775 6.4542 59.1587 7.98701L58.554 9.47764C57.4022 8.58421 55.992 8.08769 54.5345 8.06234C53.0769 8.03699 51.6504 8.48418 50.4681 9.33701C49.3316 10.1051 48.4641 11.2098 47.9874 12.4961C47.5107 13.7824 47.4488 15.1856 47.8103 16.5089C48.1429 17.8637 48.8938 19.0794 49.9566 19.9831C51.0194 20.8868 52.3399 21.4327 53.7306 21.5433L53.0978 23.1604C52.4931 24.7214 51.9165 26.198 51.2978 27.6604C51.1452 27.9454 51.055 28.2595 51.0332 28.582C51.0114 28.9045 51.0584 29.2279 51.1712 29.5308C51.3014 29.786 51.4819 30.0123 51.7018 30.196C51.9217 30.3797 52.1765 30.5169 52.4509 30.5995C55.2634 31.7105 58.1462 32.8214 60.9728 33.9604C61.2886 34.1461 61.6556 34.2258 62.02 34.1878C62.3843 34.1499 62.727 33.9963 62.9978 33.7495C63.2409 33.4879 63.4035 33.1616 63.4658 32.8099C63.5282 32.4582 63.4877 32.096 63.3493 31.7667C63.2022 31.3329 63.1427 30.8741 63.1742 30.4171C63.2058 29.9601 63.3278 29.5139 63.5332 29.1044C63.7386 28.6949 64.0233 28.3303 64.3707 28.0318C64.7182 27.7332 65.1214 27.5066 65.5572 27.3651C66.3469 27.1132 67.1998 27.1437 67.9695 27.4516C68.7392 27.7595 69.3778 28.3255 69.7759 29.0526C70.2051 29.8405 70.31 30.7646 70.0684 31.6286C69.8268 32.4926 69.2577 33.2283 68.4822 33.6792L68.2853 33.8198C67.9671 33.961 67.6988 34.1949 67.5157 34.4909C67.3325 34.787 67.243 35.1314 67.2587 35.4792C67.3431 36.5058 68.1587 36.8855 68.7775 37.0823L71.59 38.1933C73.3618 38.8823 75.1759 39.5995 76.9478 40.3448C77.2983 40.5021 77.675 40.5927 78.0587 40.612C78.2672 40.6152 78.4737 40.5719 78.6634 40.4855C78.9356 40.3424 79.1742 40.1429 79.3633 39.9005C79.5525 39.658 79.6878 39.378 79.7603 39.0792C80.9837 35.9855 82.2212 32.8917 83.4447 29.7839C85.1884 25.3964 86.9275 21.0042 88.6618 16.6073C88.9289 16.1014 89.0803 15.5425 89.1053 14.9709C89.1302 14.3993 89.028 13.8293 88.806 13.302C88.5841 12.7747 88.2479 12.3033 87.8217 11.9216C87.3956 11.5399 86.89 11.2575 86.3415 11.0948ZM72.4618 34.0026C73.0727 32.9854 73.401 31.8236 73.4128 30.6372C73.4246 29.4507 73.1195 28.2826 72.5289 27.2534C71.9384 26.2243 71.0839 25.3715 70.0536 24.7829C69.0233 24.1944 67.8545 23.8916 66.6681 23.9058C65.1275 23.8853 63.6289 24.4084 62.4356 25.3831C61.2423 26.3578 60.4306 27.7217 60.1431 29.2355C60.1431 29.4183 59.9744 29.8964 59.8478 29.9526C59.7212 30.0089 59.679 29.9526 59.215 29.7558C57.9867 29.1426 56.7068 28.6391 55.39 28.2511C55.0947 28.1526 54.9118 28.0542 54.8556 27.9417C54.7993 27.8292 54.8556 27.4636 55.0103 27.2245C55.9665 24.9464 56.7962 22.8511 57.5697 20.8401C57.9634 19.7995 57.9775 19.0823 57.5697 18.6183C57.1618 18.1542 56.5009 18.0417 55.4322 18.2105C54.5914 18.4651 53.6857 18.3957 52.8935 18.016C52.1013 17.6363 51.48 16.9737 51.1519 16.1587C50.8238 15.3438 50.8127 14.4355 51.1208 13.6128C51.4289 12.7901 52.0338 12.1125 52.8165 11.7136C54.9681 10.6589 56.5431 11.9808 57.4993 13.2745C58.0759 14.062 58.6525 14.4136 59.2431 14.3573C59.8337 14.3011 60.2978 13.7948 60.6494 12.9511C61.7603 10.3355 62.6181 8.19795 63.3353 6.2292C63.4759 5.84951 63.5744 5.73701 63.6306 5.72295C63.6868 5.70889 63.9259 5.72295 64.2353 5.84951C70.479 8.28701 76.7228 10.7339 82.9665 13.1901L84.9212 13.9636C85.2612 14.06 85.5524 14.2809 85.7369 14.5823C85.8273 14.962 85.7773 15.3616 85.5962 15.7073C82.404 23.6526 79.8165 30.1495 77.4681 36.1964C77.3556 36.5058 77.229 36.7026 77.1025 36.7448C76.9759 36.787 76.6806 36.7448 76.4134 36.5901C75.2743 36.112 74.0509 35.5917 72.7853 35.1839C72.279 35.0151 72.1665 34.9026 72.1525 34.8464C72.1384 34.7901 72.2087 34.4245 72.4618 34.0026Z" fill="black"/>
<path d="M8.35547 21.3047V46.2516C8.35547 46.6245 8.50363 46.9822 8.76735 47.2459C9.03107 47.5097 9.38876 47.6578 9.76172 47.6578C10.1347 47.6578 10.4924 47.5097 10.7561 47.2459C11.0198 46.9822 11.168 46.6245 11.168 46.2516V21.3047C11.168 20.9317 11.0198 20.574 10.7561 20.3103C10.4924 20.0466 10.1347 19.8984 9.76172 19.8984C9.38876 19.8984 9.03107 20.0466 8.76735 20.3103C8.50363 20.574 8.35547 20.9317 8.35547 21.3047Z" fill="white"/>
<path d="M8.71875 55.8828V61.3812C8.71875 61.7542 8.86691 62.1119 9.13063 62.3756C9.39435 62.6393 9.75204 62.7875 10.125 62.7875C10.498 62.7875 10.8556 62.6393 11.1194 62.3756C11.3831 62.1119 11.5312 61.7542 11.5312 61.3812V55.8828C11.5312 55.5099 11.3831 55.1522 11.1194 54.8884C10.8556 54.6247 10.498 54.4766 10.125 54.4766C9.75204 54.4766 9.39435 54.6247 9.13063 54.8884C8.86691 55.1522 8.71875 55.5099 8.71875 55.8828Z" fill="white"/>
<path d="M8.80078 66.0938V81.5625C8.80078 81.9355 8.94894 82.2931 9.21266 82.5569C9.47638 82.8206 9.83407 82.9688 10.207 82.9688C10.58 82.9688 10.9377 82.8206 11.2014 82.5569C11.4651 82.2931 11.6133 81.9355 11.6133 81.5625V66.0938C11.6133 65.7208 11.4651 65.3631 11.2014 65.0994C10.9377 64.8357 10.58 64.6875 10.207 64.6875C9.83407 64.6875 9.47638 64.8357 9.21266 65.0994C8.94894 65.3631 8.80078 65.7208 8.80078 66.0938Z" fill="white"/>
<path d="M53.4367 44.3906L53.2539 44.4891C52.9463 44.6797 52.7169 44.974 52.607 45.3188C52.5581 45.5031 52.5581 45.6969 52.607 45.8813C52.6178 46.0663 52.6759 46.2454 52.7757 46.4016L53.0007 46.6969C53.1701 46.8696 53.3844 46.9914 53.6195 47.0484H53.9851C54.2375 47.0484 54.4852 46.9804 54.7023 46.8516L54.8429 46.8234C55.0055 46.7404 55.1419 46.6138 55.2367 46.4578C55.3612 46.3232 55.4484 46.1584 55.4898 45.9797C55.5387 45.7954 55.5387 45.6015 55.4898 45.4172C55.4766 45.2326 55.4187 45.054 55.321 44.8969L55.096 44.6156C54.9275 44.4389 54.7134 44.3124 54.4773 44.25H54.0976C53.851 44.2591 53.61 44.3266 53.3945 44.4469L53.4367 44.3906Z" fill="white"/>
<path d="M42.7653 68.0364L43.1028 67.8536L42.7653 67.9942C42.9747 67.9166 43.1914 67.8601 43.4121 67.8255H43.0325C43.2885 67.7832 43.5498 67.7832 43.8059 67.8255H43.4262C43.6812 67.8629 43.9313 67.9289 44.1715 68.0223L43.834 67.8817C44.0537 67.9793 44.2614 68.102 44.4528 68.2473L44.1715 68.0223C44.3339 68.1496 44.4802 68.2959 44.6075 68.4583L44.3825 68.177L44.4668 68.2895C44.6619 68.5989 44.9612 68.8284 45.3106 68.9364C45.6765 69.0254 46.0624 68.9753 46.3934 68.7958C46.7054 68.6036 46.9357 68.3032 47.0403 67.952C47.0902 67.7713 47.1035 67.5824 47.0793 67.3964C47.0552 67.2105 46.9941 67.0312 46.8996 66.8692C46.3116 65.9958 45.4105 65.3816 44.3825 65.1536C43.3494 64.9167 42.265 65.0774 41.345 65.6036C41.0272 65.7894 40.795 66.0923 40.6981 66.4474C40.5878 66.7965 40.6181 67.1749 40.7825 67.502C40.8755 67.662 40.9992 67.802 41.1465 67.9141C41.2937 68.0262 41.4617 68.1081 41.6406 68.1551C41.8196 68.2021 42.0061 68.2134 42.1895 68.1882C42.3728 68.163 42.5494 68.1019 42.709 68.0083L42.7653 68.0364Z" fill="white"/>
<path d="M52.4661 13.1996C52.1685 13.5078 51.9512 13.8845 51.8333 14.2964C51.7799 14.5037 51.747 14.7156 51.7348 14.9292C51.7134 15.0879 51.7134 15.2487 51.7348 15.4074C51.7699 15.7792 51.885 16.139 52.0723 16.4621C52.2928 16.8275 52.5963 17.1359 52.9583 17.3621C53.1205 17.4599 53.3037 17.5177 53.4926 17.5308C53.6722 17.5798 53.8615 17.5798 54.0411 17.5308C54.3872 17.4164 54.6845 17.1885 54.8848 16.8839C54.9793 16.7219 55.0404 16.5427 55.0645 16.3567C55.0887 16.1708 55.0754 15.9819 55.0254 15.8011C54.9174 15.4517 54.688 15.1524 54.3786 14.9574C54.3555 14.9633 54.3313 14.9633 54.3083 14.9574L54.5895 15.1824L54.3645 14.9574L54.5895 15.2527C54.5244 15.167 54.4723 15.0723 54.4348 14.9714L54.5754 15.3089C54.5232 15.1921 54.4855 15.0693 54.4629 14.9433V15.3089C54.4489 15.1828 54.4489 15.0554 54.4629 14.9292V15.2949C54.4892 15.1852 54.5221 15.0772 54.5614 14.9714L54.4208 15.3089C54.4622 15.2217 54.5092 15.1371 54.5614 15.0558L54.3364 15.3511V15.2667C54.5962 15.0048 54.7426 14.6513 54.7442 14.2824C54.7575 14.0927 54.7186 13.903 54.6317 13.7339C54.5738 13.5609 54.4721 13.4059 54.3364 13.2839C54.0729 13.022 53.7165 12.875 53.345 12.875C52.9735 12.875 52.617 13.022 52.3536 13.2839L52.4661 13.1996Z" fill="white"/>
<path d="M64.0709 8.18589L61.6099 14.064C61.5349 14.3339 61.5422 14.6201 61.6309 14.8858C61.7197 15.1516 61.8857 15.3847 62.1078 15.5555C62.3299 15.7262 62.5979 15.8267 62.8776 15.8441C63.1572 15.8615 63.4356 15.795 63.6771 15.6531C63.9773 15.4481 64.204 15.1525 64.324 14.8093L66.7849 8.88902C66.8349 8.70827 66.8482 8.51936 66.824 8.33341C66.7999 8.14745 66.7388 7.9682 66.6443 7.80621C66.4512 7.49509 66.1512 7.2651 65.8006 7.15933C65.4346 7.0717 65.0492 7.12175 64.7178 7.29995C64.4233 7.51091 64.1982 7.80458 64.0709 8.1437V8.18589Z" fill="white"/>
</svg>
