<svg width="90" height="90" viewBox="0 0 90 90" fill="none" xmlns="http://www.w3.org/2000/svg">
<path d="M18.5047 8.90227H28.3484C29.375 8.90227 30.5984 8.60695 30.5984 7.17258C30.6154 6.95707 30.5866 6.74041 30.5139 6.53683C30.4412 6.33324 30.3262 6.14734 30.1766 5.99133C29.9319 5.78176 29.648 5.62288 29.3414 5.52391C29.0348 5.42493 28.7117 5.38783 28.3906 5.41477H26.8016C21.8234 5.41477 16.8594 5.41477 11.8812 5.41477C9.95492 5.44774 8.11779 6.23242 6.76206 7.60129C5.40632 8.97017 4.6394 10.8148 4.625 12.7413C4.625 14.5226 4.625 16.3085 4.625 18.0991V23.2038C4.625 25.1445 4.625 27.0851 4.625 29.0116C4.625 30.5163 5.20156 31.2898 6.32656 31.3179C6.539 31.3396 6.75363 31.317 6.95692 31.2517C7.16022 31.1863 7.34779 31.0796 7.50781 30.9382C7.95717 30.3963 8.17448 29.6989 8.1125 28.9976C8.1125 26.0163 8.1125 23.0304 8.1125 20.0398V13.7538C8.1125 10.2523 9.51875 8.90227 13.0484 8.8882L18.5047 8.90227Z" fill="#010101"/>
<path d="M79.3244 5.4065H63.279C62.5088 5.3269 61.7377 5.54866 61.1275 6.02525C60.9897 6.18192 60.885 6.36484 60.8198 6.56301C60.7545 6.76118 60.73 6.9705 60.7478 7.17838C60.7478 7.6565 60.7478 8.894 63.2087 8.894H78.6775C81.7431 8.894 83.2337 10.3846 83.2337 13.4221V20.5659C83.2337 23.3784 83.2337 26.3174 83.2337 29.1862C83.2337 29.9737 83.4587 31.2815 84.9353 31.3096C85.1519 31.3278 85.3699 31.301 85.5756 31.2308C85.7813 31.1606 85.9703 31.0486 86.1306 30.9018C86.3405 30.6625 86.5008 30.3839 86.6022 30.0821C86.7036 29.7804 86.744 29.4615 86.7212 29.144C86.7212 23.6596 86.7212 18.1753 86.7212 12.6909C86.699 10.7463 85.909 8.88944 84.5234 7.52493C83.1378 6.16042 81.269 5.39895 79.3244 5.4065Z" fill="#010101"/>
<path d="M4.62422 79.9891C4.61866 80.9584 4.80479 81.9193 5.17191 82.8165C5.53902 83.7137 6.07988 84.5295 6.76338 85.2169C7.44688 85.9043 8.25954 86.4498 9.15461 86.8221C10.0497 87.1943 11.0095 87.386 11.9789 87.3859C16.9992 87.3859 22.0055 87.3859 27.0117 87.3859H28.2633C29.2898 87.3859 30.5273 87.0766 30.5414 85.6703C30.5587 85.457 30.5327 85.2425 30.465 85.0395C30.3974 84.8365 30.2894 84.6493 30.1477 84.4891C29.5992 84.0415 28.8983 83.8247 28.193 83.8844H12.7242C9.54609 83.8844 8.06953 82.4781 8.06953 79.2719V73.0422C8.06953 69.8828 8.06953 66.7094 8.06953 63.5219C8.06953 62.2422 7.42266 61.4688 6.32578 61.4688C4.76484 61.4688 4.59609 62.875 4.58203 63.5359C4.58203 65.4906 4.58203 67.4453 4.58203 69.4141V74.6172C4.61016 76.4031 4.61016 78.2031 4.62422 79.9891Z" fill="#010101"/>
<path d="M78.5804 83.8943H62.8164C62.0429 83.8943 60.7351 84.1193 60.6929 85.5959C60.6746 85.8158 60.7027 86.0371 60.7754 86.2454C60.8481 86.4537 60.9637 86.6445 61.1148 86.8053C61.5984 87.2179 62.2243 87.4248 62.8586 87.3818H78.9601C79.977 87.4255 80.9919 87.2576 81.9406 86.8888C82.8893 86.52 83.7511 85.9583 84.4715 85.2392C85.1919 84.5202 85.7552 83.6594 86.1257 82.7114C86.4963 81.7634 86.666 80.7488 86.6242 79.7318V63.9959C86.6935 63.2353 86.4725 62.4767 86.0054 61.8724C85.8485 61.7307 85.6634 61.6236 85.4623 61.5582C85.2612 61.4928 85.0486 61.4705 84.8383 61.4928C84.3742 61.4928 83.1226 61.4928 83.1226 63.9537V79.4224C83.1226 82.4037 81.632 83.8943 78.5804 83.8943Z" fill="#010101"/>
<path d="M48.9961 53.1891V72.6234L51.1336 74.4375H63.8742L63.8883 80.0625L69.8367 74.8172H76.7836L78.8508 72.8906V53.1891L76.7133 51.0938H51.2602L48.9961 53.1891Z" fill="#A2D17D"/>
<path d="M75.5133 50.0506H52.2118C51.6487 50.0156 51.0845 50.1007 50.5569 50.3004C50.0292 50.5 49.5499 50.8096 49.151 51.2085C48.752 51.6075 48.4425 52.0867 48.2428 52.6144C48.0432 53.1421 47.958 53.7062 47.993 54.2693V71.6365C47.9557 72.2002 48.0393 72.7653 48.2381 73.294C48.4369 73.8228 48.7464 74.303 49.1459 74.7024C49.5453 75.1018 50.0255 75.4113 50.5542 75.6102C51.083 75.809 51.6481 75.8925 52.2118 75.8552C55.6008 75.8552 58.9899 75.8552 62.379 75.8552C62.7868 75.8552 62.9415 75.9396 62.9274 76.3896C62.9274 77.7959 62.9274 79.1178 62.9274 80.4818C62.9274 81.0303 62.9977 81.5224 63.5743 81.7474C64.1508 81.9724 64.5024 81.6631 64.868 81.2974C66.5555 79.6099 68.243 77.9365 69.9024 76.249C70.0163 76.1201 70.1573 76.0179 70.3154 75.9498C70.4734 75.8817 70.6445 75.8495 70.8165 75.8552C72.4196 75.8552 74.0368 75.8552 75.654 75.8552C76.2113 75.8824 76.7681 75.7912 77.2877 75.5876C77.8073 75.384 78.2778 75.0727 78.6684 74.6742C79.059 74.2756 79.3607 73.7989 79.5537 73.2753C79.7468 72.7517 79.8267 72.1932 79.7883 71.6365V54.2553C79.8221 53.6882 79.7341 53.1205 79.5302 52.5903C79.3263 52.0602 79.0113 51.5798 78.6063 51.1814C78.2013 50.7831 77.7158 50.4761 77.1823 50.2811C76.6488 50.086 76.0797 50.0074 75.5133 50.0506ZM77.7633 71.6084C77.7999 71.9139 77.7664 72.2237 77.6654 72.5143C77.5643 72.805 77.3984 73.0688 77.1801 73.2856C76.9619 73.5025 76.6971 73.6668 76.4058 73.7661C76.1146 73.8653 75.8045 73.8969 75.4993 73.8584H70.1133C69.8877 73.8443 69.6618 73.8813 69.4525 73.9665C69.2431 74.0517 69.0556 74.183 68.904 74.3506C67.6102 75.6724 66.2883 76.9802 64.868 78.4146V75.1662C64.868 74.1678 64.5446 73.8584 63.4618 73.8584H52.2118C51.8967 73.9029 51.5755 73.8736 51.2737 73.7728C50.9719 73.6719 50.6976 73.5023 50.4726 73.2772C50.2476 73.0522 50.0779 72.778 49.9771 72.4761C49.8762 72.1743 49.8469 71.8532 49.8915 71.5381V54.3115C49.8477 53.9908 49.8809 53.6643 49.9884 53.3589C50.0959 53.0536 50.2745 52.7782 50.5095 52.5556C50.7444 52.333 51.029 52.1695 51.3397 52.0787C51.6504 51.9879 51.9783 51.9724 52.2961 52.0334H75.4711C75.7807 51.9921 76.0955 52.0225 76.3914 52.1222C76.6874 52.2219 76.9564 52.3882 77.1779 52.6083C77.3994 52.8284 77.5674 53.0965 77.6689 53.3918C77.7704 53.6871 77.8027 54.0017 77.7633 54.3115V71.6084Z" fill="#010101"/>
<path d="M70.5799 69.1047C70.1861 68.3172 69.8205 67.5016 69.4549 66.7C67.9361 63.4281 66.4221 60.1469 64.9127 56.8562C64.7018 56.3922 64.4486 56.0266 63.8861 55.9844C63.6495 56.0039 63.4245 56.0951 63.2411 56.2459C63.0576 56.3967 62.9246 56.5998 62.8596 56.8281C61.1299 60.5969 59.3861 64.3516 57.6565 68.0781C57.4455 68.5141 56.9674 69.0344 57.1502 69.3859C57.333 69.7375 57.9799 69.8359 58.4158 70.075C58.8518 70.3141 58.894 70.1734 59.0346 69.8359C59.569 68.6266 60.1315 67.4453 60.6658 66.25C60.7068 66.1254 60.789 66.0184 60.899 65.9468C61.0089 65.8752 61.14 65.8433 61.2705 65.8563C63.0143 65.8563 64.7721 65.8563 66.5299 65.8563C66.6499 65.8417 66.7712 65.8705 66.8718 65.9376C66.9724 66.0046 67.0456 66.1055 67.0783 66.2219C67.4721 67.1078 67.8799 67.9797 68.2736 68.8516C68.9486 70.2578 68.9486 70.2578 70.383 69.5969C70.6783 69.5125 70.7205 69.3859 70.5799 69.1047ZM61.7908 63.9016L63.8861 59.3875L65.9674 63.9016H61.7908Z" fill="#010101"/>
<path d="M54.0273 62.8031V55.1953C54.0273 54.8224 53.8792 54.4647 53.6155 54.2009C53.3517 53.9372 52.9941 53.7891 52.6211 53.7891C52.2481 53.7891 51.8905 53.9372 51.6267 54.2009C51.363 54.4647 51.2148 54.8224 51.2148 55.1953V62.8031C51.2148 63.1761 51.363 63.5338 51.6267 63.7975C51.8905 64.0612 52.2481 64.2094 52.6211 64.2094C52.9941 64.2094 53.3517 64.0612 53.6155 63.7975C53.8792 63.5338 54.0273 63.1761 54.0273 62.8031Z" fill="white"/>
<path d="M52.8633 56.6016H58.4883C58.8612 56.6016 59.2189 56.4534 59.4827 56.1897C59.7464 55.926 59.8945 55.5683 59.8945 55.1953C59.8945 54.8224 59.7464 54.4647 59.4827 54.2009C59.2189 53.9372 58.8612 53.7891 58.4883 53.7891H52.8633C52.4903 53.7891 52.1326 53.9372 51.8689 54.2009C51.6052 54.4647 51.457 54.8224 51.457 55.1953C51.457 55.5683 51.6052 55.926 51.8689 56.1897C52.1326 56.4534 52.4903 56.6016 52.8633 56.6016Z" fill="white"/>
<path d="M26.4516 41.2859C34.3812 41.2859 40.8094 34.8577 40.8094 26.9281C40.8094 18.9985 34.3812 12.5703 26.4516 12.5703C18.522 12.5703 12.0938 18.9985 12.0938 26.9281C12.0938 34.8577 18.522 41.2859 26.4516 41.2859Z" fill="#82C9EF"/>
<path d="M26.5359 19.5234H26.3672C25.8235 19.5234 25.3828 19.9642 25.3828 20.5078V26.7094C25.3828 27.253 25.8235 27.6938 26.3672 27.6938H26.5359C27.0796 27.6938 27.5203 27.253 27.5203 26.7094V20.5078C27.5203 19.9642 27.0796 19.5234 26.5359 19.5234Z" fill="#231F20"/>
<path d="M33.751 34.0732L33.8703 33.9539C34.2548 33.5694 34.2548 32.9462 33.8703 32.5618L27.1484 25.8398C26.764 25.4554 26.1407 25.4554 25.7563 25.8398L25.637 25.9591C25.2526 26.3436 25.2525 26.9668 25.637 27.3513L32.3589 34.0732C32.7433 34.4576 33.3666 34.4576 33.751 34.0732Z" fill="#231F20"/>
<path d="M26.6914 41.3984C34.7297 41.3984 41.2461 34.8821 41.2461 26.8438C41.2461 18.8054 34.7297 12.2891 26.6914 12.2891C18.6531 12.2891 12.1367 18.8054 12.1367 26.8438C12.1367 34.8821 18.6531 41.3984 26.6914 41.3984Z" stroke="#010101" stroke-width="1.6" stroke-miterlimit="10"/>
<path d="M20.418 17.1694C18.8816 18.2182 17.6265 19.6287 16.7633 21.2765C15.9002 22.9244 15.4553 24.7592 15.468 26.6194C15.4476 26.8302 15.4716 27.0429 15.5383 27.2439C15.605 27.4449 15.713 27.6297 15.8553 27.7864C15.9977 27.9432 16.1713 28.0684 16.3649 28.1542C16.5585 28.2399 16.7679 28.2842 16.9797 28.2842C17.1914 28.2842 17.4009 28.2399 17.5945 28.1542C17.7881 28.0684 17.9617 27.9432 18.104 27.7864C18.2464 27.6297 18.3544 27.4449 18.4211 27.2439C18.4878 27.0429 18.5118 26.8302 18.4914 26.6194C18.4704 26.2447 18.4704 25.8691 18.4914 25.4944C18.4914 25.1991 18.4914 25.6632 18.4914 25.4944C18.4914 25.3257 18.4914 25.3257 18.4914 25.2413C18.4914 25.1569 18.5617 24.8757 18.618 24.6929C18.7016 24.3313 18.8048 23.9745 18.9273 23.6241C18.9709 23.5329 19.0084 23.4389 19.0398 23.3429C18.8992 23.6663 19.1242 23.1179 19.0398 23.3429L19.293 22.8366C19.4617 22.5132 19.6586 22.1898 19.8555 21.8804C20.0523 21.571 20.0664 21.571 20.1789 21.4304C20.0805 21.5569 20.1086 21.5288 20.1789 21.4304C20.2773 21.3038 20.3055 21.2616 20.3758 21.1913C20.6239 20.9104 20.8868 20.6428 21.1633 20.3898L21.5852 20.0382C21.4445 20.1366 21.4867 20.1226 21.5852 20.0382L21.8945 19.8273C22.0796 19.7337 22.2435 19.6032 22.3763 19.4439C22.509 19.2845 22.6076 19.0997 22.6662 18.9008C22.7248 18.7019 22.742 18.4931 22.7168 18.2872C22.6916 18.0814 22.6245 17.8829 22.5196 17.704C22.4148 17.5251 22.2744 17.3695 22.1071 17.2469C21.9399 17.1244 21.7493 17.0373 21.5471 16.9912C21.345 16.945 21.1355 16.9408 20.9316 16.9787C20.7277 17.0166 20.5338 17.0959 20.3617 17.2116L20.418 17.1694Z" fill="white"/>
<path d="M41.9477 50.1891L24.468 67.7953L11.3758 60.9328L11.1367 58.9922L41.9477 49.0781V50.1891Z" fill="#F3F095"/>
<path d="M23.9883 67.3687L30.3164 79.7156L32.1586 80.025L42.5367 49.9312L41.7914 48.8203L23.9883 67.3687Z" fill="#F89B56"/>
<path d="M40.8946 48.1885C40.3289 48.2229 39.7728 48.3512 39.2493 48.5682L12.5305 57.4838C12.0092 57.5795 11.5335 57.8429 11.1756 58.2338C10.8177 58.6247 10.5972 59.1218 10.5477 59.6494C10.5148 60.1864 10.6538 60.7199 10.9446 61.1725C11.2354 61.6252 11.6628 61.9734 12.1649 62.1666C15.6383 63.9244 19.0837 65.7244 22.5008 67.4963C22.9345 67.6965 23.2868 68.0388 23.4993 68.4666C25.3274 72.0573 27.1649 75.6291 29.0118 79.1823C29.2824 79.7231 29.7458 80.1429 30.3107 80.3589C30.8756 80.575 31.5009 80.5716 32.0633 80.3494C32.4534 80.1418 32.7938 79.852 33.0609 79.4999C33.328 79.1479 33.5154 78.742 33.6102 78.3104L40.6415 57.2166C41.3587 55.051 42.0477 52.8854 42.7508 50.7057C42.8513 50.4148 42.8796 50.1038 42.8331 49.7996C42.7867 49.4953 42.667 49.2069 42.4843 48.9592C42.3017 48.7115 42.0615 48.5119 41.7846 48.3777C41.5076 48.2434 41.2022 48.1785 40.8946 48.1885ZM23.1477 65.6823C19.829 63.9526 16.4962 62.251 13.1633 60.5354C13.0108 60.4696 12.8648 60.3896 12.7274 60.2963C12.3055 59.9869 12.3337 59.6635 12.7274 59.4244C12.895 59.3443 13.0691 59.2785 13.2477 59.2276L38.5602 50.7901H38.7852L38.8555 50.8885L36.7883 52.9276C32.5508 57.1463 28.3321 61.3651 24.1321 65.5838C24.0102 65.7205 23.8414 65.8065 23.6591 65.8248C23.4768 65.843 23.2943 65.7921 23.1477 65.6823ZM36.9712 62.3073L31.8665 77.6354C31.7399 78.001 31.7118 78.5354 31.2618 78.6057C30.8118 78.676 30.643 78.1276 30.4602 77.7619C28.7446 74.4432 27.029 71.1104 25.2993 67.7916C25.252 67.733 25.217 67.6655 25.1963 67.593C25.1756 67.5206 25.1697 67.4448 25.1789 67.37C25.1881 67.2953 25.2122 67.2231 25.2498 67.1578C25.2873 67.0926 25.3377 67.0355 25.3977 66.9901L40.079 52.3229C40.079 52.2526 40.2055 52.2104 40.4024 52.0276C39.2212 55.5713 38.0821 58.9323 36.9712 62.3073Z" fill="#010101"/>
<path d="M19.1119 60.6347L30.9807 56.416C32.2463 55.966 31.6979 53.9269 30.4182 54.3769L18.5494 58.5957C17.2838 59.0457 17.8322 61.0847 19.1119 60.6207V60.6347Z" fill="white"/>
<rect x="59.0625" y="22.5" width="9.84375" height="9.84375" fill="white"/>
<mask id="path-20-inside-1_6433_111329" fill="white">
<path d="M76.0244 12.0781C77.6813 12.0781 79.0244 13.4213 79.0244 15.0781V38.7119C79.0244 40.3688 77.6813 41.7119 76.0244 41.7119H52.3906C50.7338 41.7119 49.3906 40.3688 49.3906 38.7119V15.0781C49.3906 13.4213 50.7338 12.0781 52.3906 12.0781H76.0244ZM61.3672 23.0547C60.8149 23.0547 60.3672 23.5024 60.3672 24.0547V29.7373C60.3672 30.2896 60.8149 30.7373 61.3672 30.7373H67.0498C67.6021 30.7373 68.0498 30.2896 68.0498 29.7373V24.0547C68.0498 23.5024 67.6021 23.0547 67.0498 23.0547H61.3672Z"/>
</mask>
<path d="M76.0244 12.0781C77.6813 12.0781 79.0244 13.4213 79.0244 15.0781V38.7119C79.0244 40.3688 77.6813 41.7119 76.0244 41.7119H52.3906C50.7338 41.7119 49.3906 40.3688 49.3906 38.7119V15.0781C49.3906 13.4213 50.7338 12.0781 52.3906 12.0781H76.0244ZM61.3672 23.0547C60.8149 23.0547 60.3672 23.5024 60.3672 24.0547V29.7373C60.3672 30.2896 60.8149 30.7373 61.3672 30.7373H67.0498C67.6021 30.7373 68.0498 30.2896 68.0498 29.7373V24.0547C68.0498 23.5024 67.6021 23.0547 67.0498 23.0547H61.3672Z" fill="#F89B56"/>
<path d="M60.3672 24.0547L59.0672 24.0547V24.0547H60.3672ZM61.3672 30.7373L61.3672 32.0373H61.3672V30.7373ZM76.0244 12.0781V13.3781C76.9633 13.3781 77.7244 14.1392 77.7244 15.0781H79.0244H80.3244C80.3244 12.7033 78.3992 10.7781 76.0244 10.7781V12.0781ZM79.0244 15.0781H77.7244V38.7119H79.0244H80.3244V15.0781H79.0244ZM79.0244 38.7119H77.7244C77.7244 39.6508 76.9633 40.4119 76.0244 40.4119V41.7119V43.0119C78.3992 43.0119 80.3244 41.0867 80.3244 38.7119H79.0244ZM76.0244 41.7119V40.4119H52.3906V41.7119V43.0119H76.0244V41.7119ZM52.3906 41.7119V40.4119C51.4517 40.4119 50.6906 39.6508 50.6906 38.7119H49.3906H48.0906C48.0906 41.0867 50.0158 43.0119 52.3906 43.0119V41.7119ZM49.3906 38.7119H50.6906V15.0781H49.3906H48.0906V38.7119H49.3906ZM49.3906 15.0781H50.6906C50.6906 14.1392 51.4517 13.3781 52.3906 13.3781V12.0781V10.7781C50.0158 10.7781 48.0906 12.7033 48.0906 15.0781H49.3906ZM52.3906 12.0781V13.3781H76.0244V12.0781V10.7781H52.3906V12.0781ZM61.3672 23.0547V21.7547C60.0969 21.7547 59.0672 22.7844 59.0672 24.0547L60.3672 24.0547L61.6672 24.0547C61.6672 24.2204 61.5329 24.3547 61.3672 24.3547V23.0547ZM60.3672 24.0547H59.0672V29.7373H60.3672H61.6672V24.0547H60.3672ZM60.3672 29.7373H59.0672C59.0672 31.0076 60.0969 32.0373 61.3672 32.0373L61.3672 30.7373L61.3672 29.4373C61.5329 29.4373 61.6672 29.5716 61.6672 29.7373H60.3672ZM61.3672 30.7373V32.0373H67.0498V30.7373V29.4373H61.3672V30.7373ZM67.0498 30.7373V32.0373C68.3201 32.0373 69.3498 31.0076 69.3498 29.7373H68.0498H66.7498C66.7498 29.5716 66.8841 29.4373 67.0498 29.4373V30.7373ZM68.0498 29.7373H69.3498V24.0547H68.0498H66.7498V29.7373H68.0498ZM68.0498 24.0547H69.3498C69.3498 22.7844 68.3201 21.7547 67.0498 21.7547V23.0547V24.3547C66.8841 24.3547 66.7498 24.2204 66.7498 24.0547H68.0498ZM67.0498 23.0547V21.7547H61.3672V23.0547V24.3547H67.0498V23.0547Z" fill="black" mask="url(#path-20-inside-1_6433_111329)"/>
<path d="M54.8438 16.875L54.8437 24.6094" stroke="white" stroke-width="2" stroke-linecap="round"/>
<path d="M60.4688 16.875H54.8438" stroke="white" stroke-width="2" stroke-linecap="round"/>
</svg>
