<svg width="90" height="90" viewBox="0 0 90 90" fill="none" xmlns="http://www.w3.org/2000/svg">
<path d="M68.0508 39.8828C77.1376 39.8828 84.5039 32.5165 84.5039 23.4297C84.5039 14.3429 77.1376 6.97656 68.0508 6.97656C58.964 6.97656 51.5977 14.3429 51.5977 23.4297C51.5977 32.5165 58.964 39.8828 68.0508 39.8828Z" fill="#FF7676"/>
<path d="M66.643 39.25C66.643 39.25 61.1868 52.8484 42.6102 55.8719C36.6671 56.9153 30.548 55.7285 25.4259 52.5391C25.4259 52.5391 20.4759 66.7422 33.8634 77.8516C44.6774 86.7391 61.1024 82.5062 61.1024 82.5062L70.5946 78.5125L84.4884 77.8516L79.8055 67.4172C79.8055 67.4172 85.7821 45.8734 66.643 39.25Z" fill="#F9DB63"/>
<path d="M55.618 11.9956C55.618 11.9956 40.5992 -0.773117 21.0945 12.7269C7.55234 22.1347 12.5164 38.6722 12.5164 38.6722L7.91797 50.2597H19.843C19.843 50.2597 31.093 55.3644 38.3633 55.8847C42.6242 56.2148 46.9043 55.5695 50.8786 53.9978C54.8528 52.4262 58.4166 49.9695 61.2992 46.8144C66.643 41.1894 65.518 40.1909 65.518 40.1909C65.518 40.1909 43.2289 33.1738 55.618 11.9956Z" fill="#62C8FF"/>
<path d="M29.3492 74.4211C39.0805 85.5585 56.3211 88.0617 69.4555 80.2289C70.2992 79.7047 71.2747 79.4315 72.268 79.4414C75.2492 79.4414 78.2445 79.4414 81.2258 79.357H83.4195C84.5727 79.357 85.2758 79.1601 85.4867 78.8367C85.6977 78.5132 85.5852 77.7679 85.107 76.6289C84.6289 75.4898 84.1227 74.2523 83.7008 73.0711C82.9977 71.3836 82.2945 69.6961 81.5774 68.0086C81.213 67.183 81.1629 66.2528 81.4367 65.3929C82.3533 62.2511 82.5765 58.9477 82.0909 55.7111C81.6053 52.4746 80.4224 49.3821 78.6242 46.6476C77.2473 44.5573 75.5914 42.6648 73.7024 41.0226L73.0836 40.4742L74.3774 39.9257L75.1649 39.5882C82.1961 36.1429 85.768 30.6304 85.6836 23.1914C85.7605 19.9439 84.8802 16.7457 83.1523 13.995C81.4244 11.2444 78.9253 9.06299 75.9664 7.72262C73.0931 6.16692 69.826 5.48951 66.571 5.77451C63.316 6.05951 60.2163 7.29437 57.657 9.32574C57.2344 9.67306 56.7121 9.87666 56.1659 9.90701C55.6197 9.93735 55.0781 9.79286 54.6195 9.49449C49.884 7.11963 44.6729 5.84571 39.3758 5.76793C33.3019 5.81668 27.3615 7.55498 22.2195 10.7882C14.0633 15.7523 7.43986 26.0882 11.1664 38.0414C11.3553 38.7263 11.2695 39.4578 10.9274 40.0804L10.5055 41.0929C9.43673 43.6992 8.3633 46.282 7.28517 48.8414C6.80705 49.9945 6.68048 50.7117 6.89142 51.0492C7.10236 51.3867 7.84767 51.5554 9.12736 51.5835H13.4586L20.6024 51.682C21.1455 51.6661 21.6859 51.7657 22.1877 51.9741C22.6895 52.1826 23.1413 52.4953 23.5133 52.8914C23.7064 53.1362 23.842 53.4212 23.9102 53.7255C23.9784 54.0297 23.9773 54.3454 23.907 54.6492C23.1544 58.1395 23.2562 61.7599 24.2037 65.2024C25.1513 68.6449 26.9165 71.8075 29.3492 74.4211ZM57.2633 12.6586C58.6685 11.2317 60.343 10.0979 62.1897 9.32303C64.0363 8.54815 66.0185 8.14756 68.0211 8.14449C70.0432 8.15207 72.0435 8.56263 73.9051 9.35219C75.7668 10.1417 77.4523 11.2944 78.8633 12.7429C80.273 14.1551 81.3881 15.8333 82.1437 17.6801C82.8993 19.5269 83.2804 21.5054 83.2649 23.5007C83.2245 27.5173 81.609 31.3576 78.7661 34.1952C75.9232 37.0329 72.0799 38.6412 68.0633 38.6742C64.0333 38.6595 60.1716 37.0569 57.3154 34.2139C54.4592 31.3708 52.8388 27.5165 52.8055 23.4867C52.7887 21.4757 53.1745 19.4817 53.9401 17.6221C54.7056 15.7625 55.8356 14.0748 57.2633 12.6586ZM17.6211 49.2211C16.032 49.3054 14.4711 49.2914 12.8117 49.2211H9.70392L10.9836 46.057C11.757 44.1304 12.5024 42.2742 13.3039 40.432C13.5305 39.972 13.6634 39.4715 13.6948 38.9597C13.7262 38.4479 13.6554 37.935 13.4867 37.4507C12.1137 33.0658 12.219 28.3512 13.7867 24.0319C15.3543 19.7127 18.2974 16.028 22.1633 13.5445C31.543 7.0898 41.8508 6.24605 52.7352 11.0132C53.2836 11.2523 53.7899 11.4773 53.9445 12.0117C53.9832 12.2453 53.9705 12.4846 53.9074 12.7129C53.8443 12.9412 53.7322 13.153 53.5789 13.3336C52.0141 15.5536 50.9959 18.1119 50.6074 20.8C50.2188 23.4881 50.4709 26.2301 51.343 28.8023C51.3636 28.9516 51.3636 29.103 51.343 29.2523L51.4133 30.0398H23.907C23.2438 29.966 22.5758 30.1305 22.0227 30.5039C21.8591 30.7209 21.7883 30.994 21.8258 31.2632C21.9102 32.3039 22.4867 32.4726 23.8227 32.4726H33.3852C39.3055 32.4726 45.1977 32.4726 51.1039 32.4726C51.6721 32.4285 52.2419 32.5354 52.7556 32.7823C53.2692 33.0293 53.7085 33.4075 54.0289 33.8789C56.0984 36.7812 59.0622 38.925 62.4664 39.982C62.7162 40.0187 62.9536 40.1144 63.159 40.2611C63.3644 40.4078 63.5319 40.6014 63.6477 40.8257C63.6977 41.0735 63.6894 41.3296 63.6235 41.5736C63.5576 41.8176 63.4359 42.043 63.268 42.232C61.9953 44.2888 60.4535 46.1663 58.6836 47.8148C57.5727 48.8273 57.5024 49.2211 58.4024 50.2617C58.799 50.2843 59.195 50.2089 59.5555 50.0421C59.9161 49.8753 60.23 49.6223 60.4695 49.3054C62.697 47.3257 64.5957 45.0046 66.0945 42.4289C66.2955 42.0459 66.5766 41.7107 66.9188 41.4462C67.261 41.1817 67.6561 40.9941 68.0774 40.8961C68.4456 40.8129 68.8272 40.8074 69.1976 40.8801C69.5681 40.9527 69.9194 41.1018 70.2289 41.3179C78.3289 47.0976 81.7883 56.407 79.0461 65.0554C78.8516 65.5813 78.7638 66.1407 78.788 66.7008C78.8121 67.261 78.9477 67.8108 79.1867 68.3179C80.0164 70.1601 80.7477 71.9882 81.5211 73.9429C81.8445 74.7304 82.1539 75.532 82.4914 76.3335L82.7867 77.0648H78.9617C76.4586 77.0648 74.0117 77.0648 71.5649 77.0648C70.6696 77.0547 69.7905 77.3038 69.0336 77.782C64.1717 80.8351 58.5465 82.4535 52.8055 82.4507C46.3692 82.4721 40.1006 80.399 34.9461 76.5445C31.8258 74.3813 29.3407 71.423 27.7483 67.9763C26.156 64.5295 25.5143 60.7196 25.8899 56.9414C25.9742 55.8586 26.0445 55.2257 26.5367 54.9023C27.0289 54.5789 27.7039 54.8039 28.618 55.1132C36.6118 57.9095 45.3731 57.5371 53.1008 54.0726C53.9727 53.6929 54.507 53.3976 54.6477 52.6664C54.4227 52.0195 54.1977 51.6539 53.9305 51.5414C53.6633 51.4289 53.0305 51.5414 52.1305 51.907C47.962 53.8621 43.3941 54.8155 38.7915 54.691C34.189 54.5665 29.6793 53.3675 25.6227 51.1898C23.1905 49.8084 20.4146 49.1498 17.6211 49.2914V49.2211Z" fill="#010101"/>
<path d="M73.6031 19.601C73.6331 20.5231 73.4186 21.4368 72.9815 22.2494C72.5444 23.0619 71.9001 23.7444 71.1141 24.2275C70.6054 24.4868 70.1876 24.8947 69.9163 25.3971C69.645 25.8994 69.5331 26.4725 69.5953 27.04C69.6409 27.2637 69.6345 27.4949 69.5767 27.7158C69.5188 27.9366 69.4109 28.1412 69.2615 28.3138C69.112 28.4863 68.9249 28.6223 68.7146 28.7111C68.5043 28.7999 68.2764 28.8392 68.0484 28.826C66.9937 28.826 66.5156 28.0525 66.5016 26.9979C66.4231 25.935 66.6568 24.8724 67.1739 23.9406C67.691 23.0088 68.4691 22.2483 69.4125 21.7525C69.8808 21.4728 70.2394 21.0413 70.4286 20.5297C70.6179 20.0182 70.6266 19.4572 70.4531 18.94C70.3441 18.4519 70.082 18.0113 69.7051 17.6825C69.3282 17.3537 68.8562 17.1538 68.3578 17.1119C67.8622 17.0491 67.3593 17.1377 66.915 17.3661C66.4708 17.5945 66.106 17.952 65.8687 18.3916C65.6503 18.8298 65.5257 19.3088 65.5031 19.7979C65.5069 20.0073 65.4639 20.215 65.3772 20.4057C65.2905 20.5964 65.1622 20.7653 65.0018 20.9001C64.8414 21.0349 64.6529 21.1321 64.4501 21.1847C64.2474 21.2373 64.0354 21.2439 63.8297 21.2041C62.8594 21.1057 62.5219 20.4869 62.5078 19.5307C62.6045 18.1039 63.2478 16.7693 64.3037 15.8049C65.3596 14.8404 66.7468 14.3204 68.1765 14.353C69.6062 14.3856 70.9682 14.9684 71.979 15.98C72.9899 16.9916 73.5716 18.3541 73.6031 19.7838V19.601Z" fill="#010202"/>
<path d="M68.2055 32.8828C67.1508 32.8828 66.6586 32.3062 66.6445 31.4766C66.6445 31.1036 66.7927 30.7459 67.0564 30.4822C67.3201 30.2185 67.6778 30.0703 68.0508 30.0703C68.4237 30.0703 68.7814 30.2185 69.0452 30.4822C69.3089 30.7459 69.457 31.1036 69.457 31.4766C69.4591 31.8242 69.3324 32.1603 69.1013 32.42C68.8701 32.6797 68.551 32.8446 68.2055 32.8828Z" fill="#010705"/>
<path d="M50.2039 23.4297H26.5086C25.9106 23.4297 25.4258 23.9145 25.4258 24.5125C25.4258 25.1105 25.9106 25.5953 26.5086 25.5953H50.2039C50.8019 25.5953 51.2867 25.1105 51.2867 24.5125C51.2867 23.9145 50.8019 23.4297 50.2039 23.4297Z" fill="#010101"/>
<path d="M68.3992 59.3281H44.7039C44.1059 59.3281 43.6211 59.8129 43.6211 60.4109C43.6211 61.009 44.1059 61.4938 44.7039 61.4938H68.3992C68.9972 61.4938 69.482 61.009 69.482 60.4109C69.482 59.8129 68.9972 59.3281 68.3992 59.3281Z" fill="#010101"/>
<path d="M68.3992 65.1797H44.7039C44.1059 65.1797 43.6211 65.6645 43.6211 66.2625C43.6211 66.8605 44.1059 67.3453 44.7039 67.3453H68.3992C68.9972 67.3453 69.482 66.8605 69.482 66.2625C69.482 65.6645 68.9972 65.1797 68.3992 65.1797Z" fill="#010101"/>
<path d="M59.468 37.0781H29.9227C29.3246 37.0781 28.8398 37.5629 28.8398 38.1609C28.8398 38.759 29.3246 39.2437 29.9227 39.2437H59.468C60.066 39.2437 60.5508 38.759 60.5508 38.1609C60.5508 37.5629 60.066 37.0781 59.468 37.0781Z" fill="#010101"/>
<path d="M16.2701 32.4997C16.0756 32.5003 15.8831 32.4606 15.7047 32.383C15.5263 32.3054 15.3659 32.1916 15.2338 32.0489C15.1016 31.9061 15.0005 31.7375 14.9368 31.5537C14.8732 31.3699 14.8483 31.1748 14.8639 30.9809C15.2701 25.8425 17.4762 21.0122 21.0936 17.3403C25.7201 12.8825 32.4279 10.7591 41.0904 11.0403C41.2824 11.04 41.4725 11.0789 41.6488 11.1548C41.8252 11.2307 41.9841 11.3419 42.1159 11.4816C42.2476 11.6212 42.3494 11.7864 42.4149 11.9668C42.4804 12.1473 42.5082 12.3393 42.4967 12.5309C42.4717 12.8866 42.3126 13.2195 42.0516 13.4623C41.7905 13.7051 41.447 13.8396 41.0904 13.8387C33.1873 13.6137 27.1545 15.47 23.1045 19.3653C19.9581 22.5534 18.0276 26.7428 17.6483 31.2059C17.6199 31.5591 17.4593 31.8885 17.1986 32.1283C16.9379 32.3682 16.5963 32.5008 16.242 32.4997H16.2701Z" fill="white"/>
<path d="M56.5747 28.7656C56.3898 28.8133 56.1971 28.8229 56.0084 28.7937C55.8197 28.7645 55.639 28.6972 55.4771 28.5959C55.3153 28.4946 55.1758 28.3614 55.0671 28.2044C54.9584 28.0474 54.8828 27.8699 54.845 27.6828C53.7762 22.8172 54.3387 18.7109 56.5465 15.4765C58.9579 12.2871 62.4644 10.103 66.3903 9.34529C66.5845 9.3026 66.7855 9.30158 66.9801 9.34229C67.1747 9.383 67.3585 9.46452 67.5193 9.58147C67.6801 9.69841 67.8143 9.84812 67.913 10.0207C68.0117 10.1933 68.0726 10.3849 68.0919 10.5828C68.1245 10.9223 68.0327 11.262 67.8335 11.5388C67.6343 11.8156 67.3413 12.0106 67.009 12.0875C63.7686 12.7011 60.8634 14.4762 58.8387 17.0797C57.095 19.639 56.6731 23 57.5731 27.064C57.6638 27.42 57.6116 27.7974 57.4276 28.1154C57.2437 28.4334 56.9426 28.6668 56.5887 28.7656H56.5747Z" fill="white"/>
<path d="M31.9649 71.3823C28.2664 67.4166 27.7461 61.5385 27.7461 58.8104C27.7453 58.6146 27.7854 58.4207 27.8639 58.2413C27.9423 58.0619 28.0574 57.9008 28.2017 57.7685C28.346 57.6361 28.5163 57.5353 28.7018 57.4726C28.8873 57.4098 29.0839 57.3865 29.2789 57.4041C29.632 57.4325 29.9615 57.5931 30.2013 57.8538C30.4412 58.1145 30.5738 58.4561 30.5727 58.8104C30.5727 61.1588 30.9945 66.2495 34.032 69.4979C34.2462 69.7516 34.3637 70.0729 34.3637 70.4049C34.3637 70.7369 34.2462 71.0582 34.032 71.312C33.9053 71.4593 33.7494 71.5787 33.5741 71.6628C33.3989 71.7468 33.2081 71.7936 33.0139 71.8002C32.8196 71.8068 32.6261 71.7731 32.4456 71.7012C32.265 71.6292 32.1013 71.5206 31.9649 71.3823Z" fill="white"/>
</svg>
