<svg width="90" height="90" viewBox="0 0 90 90" fill="none" xmlns="http://www.w3.org/2000/svg">
<path d="M8.19922 54.3636V10.2073C8.19922 10.2073 15.4695 4.38547 20.6023 4.96204C22.4584 8.02392 24.5014 10.9686 26.7195 13.7792L32.7805 4.96204C32.7805 4.96204 54.1273 12.8652 61.7352 14.5245C69.343 16.1839 77.2039 15.9308 87.3289 10.573V74.5292C87.3289 74.5292 80.6352 80.1542 76.5008 80.4636C74.0802 77.8249 71.8658 75.0041 69.8773 72.0261L64.8711 79.662L38.1523 72.2089L8.19922 54.3636Z" fill="#DBB179"/>
<path d="M80.9742 27.9156L77.0086 23.95L72.5789 28.3656L68.0648 23.8516L64.1273 27.8031L68.5711 32.2469L63.832 37L67.9102 41.0781L72.4242 36.5641L76.8961 41.0219L80.8758 37.0563L76.3477 32.5281L80.9742 27.9156Z" fill="#E2D861"/>
<path d="M20.6023 85.5016C30.2872 85.5016 38.1383 77.6505 38.1383 67.9656C38.1383 58.2808 30.2872 50.4297 20.6023 50.4297C10.9175 50.4297 3.06641 58.2808 3.06641 67.9656C3.06641 77.6505 10.9175 85.5016 20.6023 85.5016Z" fill="#F05151"/>
<path d="M24.3695 36.0828C26.3578 36.0828 27.9695 34.471 27.9695 32.4828C27.9695 30.4946 26.3578 28.8828 24.3695 28.8828C22.3813 28.8828 20.7695 30.4946 20.7695 32.4828C20.7695 34.471 22.3813 36.0828 24.3695 36.0828Z" fill="#F37153"/>
<path d="M27.0836 60.2031L9.94141 66.8969C11.0416 67.8729 12.3648 68.5634 13.7945 68.9078C16.818 69.9484 18.1961 71.1859 18.843 72.7891C19.4898 74.3922 19.8977 76.7828 20.6008 77.6969C21.3039 78.6109 23.2445 77.9781 23.5117 75.7281C23.7789 73.4781 28.2367 60.9906 28.2367 60.9906L27.0836 60.2031Z" fill="#E2D861"/>
<path d="M26.7201 12.2224C27.9998 9.98641 29.2092 8.0036 30.3061 5.95048C30.5736 5.25894 31.1035 4.70105 31.7803 4.39819C32.4571 4.09532 33.2262 4.072 33.9201 4.33329C41.2748 6.03485 48.1795 9.10048 55.3232 11.4489C60.6456 13.4508 66.2869 14.4704 71.9732 14.4583C76.4122 14.2898 80.7286 12.956 84.4889 10.5911C84.9113 10.2103 85.4356 9.961 85.9976 9.87358C86.5595 9.78617 87.1348 9.86447 87.6529 10.0989C88.7498 10.7317 88.7498 11.8286 88.7498 12.9114C88.7498 27.4802 88.7498 42.0489 88.7498 56.6177C88.7498 57.0255 88.7498 57.4192 88.7498 57.813C88.7499 58.1326 88.6249 58.4396 88.4015 58.6683C88.1781 58.8969 87.8741 59.0291 87.5545 59.0364C87.3971 59.0581 87.2369 59.0467 87.0842 59.0028C86.9315 58.9589 86.7897 58.8835 86.6678 58.7815C86.546 58.6795 86.4468 58.5532 86.3767 58.4106C86.3066 58.268 86.2671 58.1124 86.2607 57.9536C86.1811 57.39 86.1435 56.8212 86.1482 56.252V12.6583C84.0313 13.8409 81.8207 14.8474 79.5389 15.6677C72.5076 17.9177 65.6311 17.0739 58.7545 15.1333C51.6529 13.1645 44.917 10.127 37.8717 8.01766C36.2545 7.60985 34.4545 6.49891 33.0061 7.03329C31.5576 7.56766 31.2623 9.66298 30.3764 11.027C29.8279 11.8849 29.3779 12.813 28.8576 13.6849C27.6482 15.6677 25.7498 15.6958 24.5686 13.6849C23.3873 11.6739 22.1217 9.4661 20.9545 7.34266C20.8976 7.16078 20.8044 6.99235 20.6804 6.8476C20.5565 6.70285 20.4044 6.58481 20.2334 6.50064C20.0625 6.41647 19.8762 6.36793 19.6859 6.35796C19.4955 6.34799 19.3052 6.37681 19.1264 6.44267C15.9841 7.22711 12.9979 8.53952 10.2951 10.3239C10.0145 10.5082 9.79247 10.7691 9.65541 11.0756C9.51834 11.3822 9.47194 11.7215 9.52168 12.0536C9.52168 14.6692 9.52168 17.2989 9.52168 19.9145C9.52168 20.8567 9.38106 21.6864 8.11543 21.6302C6.84981 21.5739 7.03262 20.7583 7.03262 19.9145C7.03262 16.9474 7.03262 14.0645 7.03262 11.027C7.00413 10.5466 7.10527 10.0673 7.32544 9.63934C7.54561 9.21136 7.87674 8.85041 8.28418 8.59423C11.5811 6.27501 15.3116 4.6441 19.2529 3.79892C19.9605 3.56885 20.7293 3.61845 21.4014 3.93751C22.0735 4.25657 22.5979 4.82088 22.867 5.51454C23.992 7.73642 25.3139 9.84579 26.7201 12.2224Z" fill="#020202"/>
<path d="M67.8539 63.9005C67.5107 63.8895 67.1852 63.7455 66.9464 63.4987C66.7075 63.252 66.574 62.922 66.5742 62.5786C66.6077 62.257 66.7592 61.9591 66.9994 61.7426C67.2397 61.5261 67.5516 61.4062 67.875 61.4062C68.1984 61.4062 68.5103 61.5261 68.7506 61.7426C68.9908 61.9591 69.1423 62.257 69.1758 62.5786C69.1777 62.7527 69.1448 62.9255 69.079 63.0867C69.0132 63.2479 68.9159 63.3944 68.7928 63.5175C68.6697 63.6407 68.5232 63.738 68.362 63.8037C68.2008 63.8695 68.028 63.9024 67.8539 63.9005Z" fill="#232323"/>
<path d="M55.2104 63.4961C55.2116 63.8503 55.079 64.192 54.8391 64.4527C54.5992 64.7134 54.2698 64.874 53.9167 64.9023C53.5928 64.8809 53.2885 64.7397 53.0629 64.5064C52.8373 64.2731 52.7065 63.9642 52.696 63.6397C52.6855 63.3153 52.796 62.9986 53.006 62.7511C53.216 62.5037 53.5105 62.3431 53.8323 62.3007C54.6198 62.2023 55.0417 62.7367 55.2104 63.4961Z" fill="#252525"/>
<path d="M47.5164 34.5391C48.2196 34.7219 48.768 35.0594 48.7539 35.9453C48.7663 36.1153 48.7421 36.286 48.6831 36.4459C48.6241 36.6058 48.5315 36.7513 48.4116 36.8725C48.2918 36.9937 48.1474 37.0878 47.9881 37.1486C47.8289 37.2094 47.6585 37.2355 47.4883 37.225C47.3191 37.2342 47.15 37.2064 46.9926 37.1437C46.8352 37.0809 46.6934 36.9846 46.5769 36.8615C46.4605 36.7384 46.3723 36.5914 46.3184 36.4308C46.2645 36.2701 46.2463 36.0997 46.2649 35.9312C46.2649 35.0453 46.7852 34.6797 47.5164 34.5391Z" fill="#181819"/>
<path d="M47.8111 49.5026C47.9805 49.4798 48.1528 49.4945 48.3159 49.5455C48.4789 49.5966 48.6288 49.6829 48.7549 49.7982C48.881 49.9136 48.9802 50.0552 49.0455 50.2131C49.1108 50.371 49.1407 50.5413 49.133 50.712C49.1726 50.8938 49.1659 51.0827 49.1135 51.2613C49.0611 51.4398 48.9646 51.6024 48.8331 51.7339C48.7015 51.8655 48.5389 51.962 48.3604 52.0144C48.1818 52.0668 47.993 52.0735 47.8111 52.0339C47.656 52.0567 47.4977 52.0451 47.3476 51.9999C47.1974 51.9547 47.059 51.8769 46.9423 51.7723C46.8255 51.6676 46.7332 51.5385 46.6719 51.3941C46.6107 51.2498 46.5819 51.0937 46.5877 50.937C46.5384 50.7577 46.5337 50.5691 46.574 50.3875C46.6144 50.206 46.6986 50.0371 46.8193 49.8956C46.94 49.7541 47.0935 49.6443 47.2664 49.5758C47.4393 49.5073 47.6263 49.4822 47.8111 49.5026Z" fill="#161616"/>
<path d="M48.1757 54.3672C48.9069 54.5781 49.4694 54.9016 49.4413 55.7734C49.4474 55.9437 49.418 56.1134 49.3548 56.2716C49.2915 56.4298 49.196 56.5731 49.0742 56.6922C48.9524 56.8114 48.8071 56.9038 48.6475 56.9635C48.4879 57.0232 48.3176 57.049 48.1475 57.0391C47.9775 57.0443 47.8083 57.0128 47.6516 56.9467C47.4948 56.8805 47.3542 56.7813 47.2394 56.6557C47.1246 56.5302 47.0382 56.3814 46.9862 56.2194C46.9342 56.0574 46.9178 55.8861 46.9382 55.7172C46.9522 54.8453 47.5147 54.5359 48.1757 54.3672Z" fill="#181919"/>
<path d="M35.1569 32.5115C35.1569 32.8434 35.025 33.1618 34.7903 33.3965C34.5556 33.6312 34.2372 33.7631 33.9053 33.7631C33.5734 33.7631 33.255 33.6312 33.0203 33.3965C32.7856 33.1618 32.6537 32.8434 32.6537 32.5115C32.6459 32.353 32.6709 32.1946 32.7272 32.0462C32.7834 31.8978 32.8697 31.7627 32.9806 31.6491C33.0914 31.5356 33.2245 31.4462 33.3716 31.3865C33.5186 31.3268 33.6764 31.2981 33.835 31.3021C34.003 31.2864 34.1724 31.3061 34.3324 31.3598C34.4924 31.4135 34.6393 31.5001 34.7638 31.614C34.8883 31.7279 34.9876 31.8666 35.0553 32.0211C35.123 32.1757 35.1576 32.3428 35.1569 32.5115Z" fill="#151616"/>
<path d="M40.2185 32.6667C40.2048 32.8348 40.1569 32.9983 40.0778 33.1472C39.9986 33.2961 39.8898 33.4273 39.7581 33.5326C39.6264 33.638 39.4746 33.7153 39.3119 33.7599C39.1493 33.8044 38.9792 33.8152 38.8122 33.7917C38.639 33.7912 38.468 33.7521 38.3117 33.6773C38.1554 33.6025 38.0177 33.4938 37.9086 33.3592C37.7996 33.2245 37.7219 33.0673 37.6811 32.8988C37.6404 32.7304 37.6377 32.555 37.6732 32.3854C37.6765 32.2259 37.7124 32.0687 37.7788 31.9236C37.8452 31.7785 37.9407 31.6486 38.0593 31.5418C38.1779 31.4351 38.3172 31.3538 38.4684 31.3029C38.6197 31.2521 38.7798 31.2329 38.9388 31.2464C39.1214 31.2381 39.3036 31.2704 39.4722 31.3409C39.6409 31.4114 39.7918 31.5185 39.9141 31.6543C40.0365 31.7901 40.1272 31.9513 40.1799 32.1263C40.2325 32.3014 40.2457 32.4859 40.2185 32.6667Z" fill="#151616"/>
<path d="M73.7591 44.1564C73.748 44.3189 73.7051 44.4777 73.6326 44.6236C73.5602 44.7695 73.4598 44.8997 73.337 45.0067C73.2143 45.1138 73.0716 45.1957 72.9172 45.2476C72.7629 45.2996 72.5998 45.3206 72.4372 45.3095C72.2747 45.2985 72.116 45.2555 71.9701 45.1831C71.8242 45.1106 71.694 45.0102 71.5869 44.8874C71.4798 44.7647 71.398 44.622 71.346 44.4677C71.2941 44.3133 71.273 44.1502 71.2841 43.9877C71.2801 43.829 71.3088 43.6713 71.3685 43.5242C71.4282 43.3772 71.5176 43.2441 71.6311 43.1332C71.7447 43.0224 71.8798 42.9361 72.0282 42.8799C72.1766 42.8236 72.335 42.7986 72.4935 42.8064C72.6695 42.797 72.8455 42.8262 73.0091 42.8919C73.1726 42.9576 73.3199 43.0583 73.4404 43.1869C73.561 43.3155 73.652 43.4689 73.7071 43.6364C73.7621 43.8039 73.7799 43.9814 73.7591 44.1564Z" fill="#131414"/>
<path d="M49.1177 45.4688C49.1177 46.5938 48.5974 47.0438 47.8662 47.0578C47.7089 47.0674 47.5514 47.0447 47.4033 46.9911C47.2551 46.9375 47.1196 46.854 47.0049 46.746C46.8903 46.6379 46.799 46.5075 46.7367 46.3628C46.6744 46.2182 46.6424 46.0622 46.6427 45.9047C46.6096 45.7342 46.6146 45.5586 46.6571 45.3902C46.6997 45.2219 46.7788 45.065 46.8889 44.9307C46.999 44.7964 47.1374 44.6881 47.2941 44.6133C47.4509 44.5386 47.6222 44.4994 47.7959 44.4984C48.0972 44.4678 48.3992 44.5501 48.6434 44.7294C48.8876 44.9086 49.0566 45.1721 49.1177 45.4688Z" fill="#141515"/>
<path d="M73.7431 48.9789C73.7431 49.9071 73.2931 50.3852 72.4916 50.3852C72.336 50.4013 72.1787 50.3839 72.0304 50.3343C71.882 50.2846 71.746 50.2038 71.6315 50.0973C71.5169 49.9907 71.4265 49.8609 71.3663 49.7165C71.306 49.5721 71.2774 49.4165 71.2822 49.2602C71.2433 49.0879 71.2445 48.9091 71.2857 48.7374C71.3269 48.5656 71.407 48.4057 71.5197 48.2698C71.6325 48.1339 71.775 48.0258 71.9362 47.9537C72.0973 47.8816 72.2729 47.8474 72.4494 47.8539C72.6114 47.8242 72.778 47.8314 72.9368 47.8749C73.0957 47.9183 73.2427 47.997 73.367 48.1051C73.4913 48.2132 73.5896 48.3478 73.6547 48.4991C73.7199 48.6504 73.7501 48.8144 73.7431 48.9789Z" fill="#131313"/>
<path d="M71.0829 57.4688C71.8 57.6656 72.3625 58.0031 72.3063 58.875C72.3108 59.0448 72.2795 59.2137 72.2144 59.3705C72.1494 59.5274 72.052 59.6689 71.9286 59.7856C71.8052 59.9024 71.6586 59.9918 71.4983 60.0481C71.3381 60.1045 71.1678 60.1264 70.9985 60.1125C70.8283 60.116 70.6593 60.0827 70.5032 60.0148C70.347 59.9469 70.2074 59.846 70.0939 59.7192C69.9804 59.5923 69.8956 59.4424 69.8454 59.2797C69.7953 59.117 69.7808 58.9453 69.8032 58.7766C69.8313 57.9469 70.3094 57.6516 71.0829 57.4688Z" fill="#161717"/>
<path d="M64.8003 64.687C64.7018 65.5167 64.3081 66.0932 63.5206 66.0932C63.3456 66.1173 63.1675 66.1046 62.9977 66.0557C62.828 66.0069 62.6703 65.9231 62.5349 65.8096C62.3995 65.6962 62.2893 65.5557 62.2115 65.3971C62.1337 65.2385 62.0899 65.0654 62.083 64.8889C62.0761 64.7124 62.1062 64.5364 62.1714 64.3722C62.2366 64.2081 62.3355 64.0594 62.4616 63.9357C62.5878 63.812 62.7384 63.7162 62.9038 63.6542C63.0692 63.5923 63.2458 63.5656 63.4221 63.576C64.2518 63.5057 64.5612 64.0963 64.8003 64.687Z" fill="#161617"/>
<path d="M45.1838 32.7109C45.0573 33.4703 44.6635 33.9624 43.7776 33.9203C43.6202 33.9261 43.4634 33.8996 43.3167 33.8425C43.1699 33.7853 43.0365 33.6988 42.9245 33.5881C42.8125 33.4774 42.7244 33.345 42.6655 33.199C42.6066 33.0529 42.5783 32.8964 42.5823 32.739C42.568 32.5673 42.5906 32.3945 42.6486 32.2322C42.7066 32.0699 42.7986 31.9219 42.9184 31.798C43.0383 31.6742 43.1832 31.5774 43.3435 31.5141C43.5038 31.4509 43.6758 31.4226 43.8479 31.4312C44.7619 31.4031 45.0713 31.9656 45.1838 32.7109Z" fill="#111111"/>
<path d="M47.8124 39.5724C48.5999 39.5724 49.1062 39.924 49.1202 40.7537C49.1421 40.9233 49.1255 41.0956 49.0717 41.2579C49.0179 41.4202 48.9282 41.5683 48.8094 41.6913C48.6905 41.8142 48.5455 41.9088 48.3851 41.968C48.2247 42.0272 48.053 42.0496 47.8827 42.0334C47.7268 42.0539 47.5683 42.0402 47.4182 41.9932C47.2681 41.9463 47.13 41.8672 47.0136 41.7615C46.8971 41.6557 46.8051 41.5259 46.7439 41.381C46.6828 41.2361 46.6539 41.0796 46.6593 40.9224C46.6219 40.7544 46.6241 40.5799 46.6657 40.4128C46.7073 40.2458 46.7872 40.0906 46.899 39.9597C47.0109 39.8288 47.1516 39.7257 47.3101 39.6584C47.4686 39.5912 47.6406 39.5618 47.8124 39.5724Z" fill="#0F1010"/>
<path d="M72.4641 52.7891C73.2938 52.9156 73.786 53.3094 73.7016 54.1953C73.7075 54.3721 73.6732 54.548 73.6011 54.7095C73.5291 54.8711 73.4213 55.0142 73.2858 55.128C73.1504 55.2418 72.9908 55.3233 72.8192 55.3663C72.6477 55.4094 72.4685 55.4129 72.2954 55.3766C72.1381 55.3717 71.9835 55.3343 71.8414 55.2668C71.6993 55.1992 71.5727 55.103 71.4697 54.984C71.3666 54.8651 71.2893 54.7262 71.2427 54.5759C71.196 54.4256 71.181 54.2673 71.1985 54.1109C71.2266 53.1969 71.7188 52.8734 72.4641 52.7891Z" fill="#101111"/>
<path d="M51.4969 60.3541C51.4814 60.521 51.4322 60.6829 51.3523 60.8302C51.2723 60.9775 51.1633 61.107 51.0318 61.2109C50.9003 61.3148 50.7491 61.3908 50.5873 61.4345C50.4255 61.4782 50.2565 61.4886 50.0906 61.465C49.9177 61.465 49.747 61.4261 49.5911 61.3512C49.4352 61.2763 49.2982 61.1673 49.1902 61.0323C49.0822 60.8972 49.0059 60.7396 48.967 60.5711C48.9281 60.4026 48.9277 60.2275 48.9656 60.0588C48.9628 59.8999 48.9937 59.7422 49.0563 59.5962C49.1189 59.4501 49.2116 59.3189 49.3286 59.2113C49.4455 59.1037 49.5839 59.0221 49.7346 58.9718C49.8853 58.9216 50.045 58.9038 50.2031 58.9197C50.389 58.9061 50.5754 58.9352 50.7484 59.0046C50.9213 59.0741 51.076 59.1821 51.2008 59.3205C51.3256 59.4588 51.4172 59.6239 51.4685 59.803C51.5198 59.9822 51.5295 60.1706 51.4969 60.3541Z" fill="#121212"/>
<path d="M58.4138 63.8906C59.2717 63.8906 59.7357 64.3125 59.8201 65.1281C59.8447 65.2838 59.835 65.4429 59.7917 65.5945C59.7484 65.746 59.6725 65.8862 59.5694 66.0054C59.4663 66.1246 59.3384 66.2198 59.1947 66.2845C59.051 66.3491 58.8949 66.3816 58.7373 66.3797C58.5695 66.4202 58.3947 66.422 58.2261 66.385C58.0574 66.348 57.8994 66.2732 57.764 66.1662C57.6285 66.0592 57.5192 65.9228 57.4442 65.7673C57.3692 65.6119 57.3305 65.4414 57.331 65.2687C57.3095 65.1068 57.3205 64.9422 57.3636 64.7847C57.4066 64.6271 57.4808 64.4797 57.5817 64.3513C57.6827 64.2228 57.8083 64.1159 57.9512 64.0368C58.0941 63.9577 58.2514 63.908 58.4138 63.8906Z" fill="#101010"/>
<path d="M88.7345 64.4859C88.7345 63.5156 88.7345 62.5312 87.4127 62.5453C86.0908 62.5594 86.147 63.6141 86.147 64.5281C86.147 67.3406 86.147 70.1859 86.147 73.0641C86.2094 73.3971 86.175 73.741 86.0479 74.055C85.9208 74.369 85.7063 74.6401 85.4298 74.8359C82.7818 76.5865 79.8512 77.8663 76.7673 78.6188C76.4966 78.7158 76.1988 78.7041 75.9365 78.5861C75.6743 78.4681 75.468 78.2529 75.3611 77.9859C74.3392 76.1109 73.2658 74.2359 72.1408 72.3609C70.9736 70.4484 69.1314 70.4344 67.922 72.3609C66.9236 74.0062 65.9673 75.6937 65.1095 77.3953C65.037 77.6174 64.9188 77.8218 64.7625 77.9955C64.6061 78.1691 64.4152 78.3081 64.2019 78.4034C63.9887 78.4988 63.7578 78.5485 63.5242 78.5492C63.2905 78.55 63.0593 78.5018 62.8455 78.4078C55.1955 76.6922 48.0517 73.4297 40.6267 71.0672C39.8814 70.8422 39.8533 70.4203 39.8814 69.8016C39.9998 67.922 39.9055 66.035 39.6002 64.1766C38.6444 59.4578 35.97 55.2623 32.0957 52.4041C28.2215 49.5458 23.4236 48.2285 18.633 48.7078C15.3952 49.1405 12.2905 50.273 9.53453 52.0266V34.1109C9.53453 31.6078 9.53453 29.1047 9.53453 26.6016C9.53453 25.6875 9.14078 25.125 8.2689 25.125C7.39703 25.125 7.0314 25.7156 7.0314 26.6156C7.0314 27.0234 7.0314 27.4172 7.0314 27.8109C7.0314 36.1219 7.0314 44.4328 7.0314 52.7437C7.06088 53.157 7.0063 53.5719 6.87095 53.9635C6.7356 54.355 6.52229 54.7151 6.2439 55.0219C4.26773 57.1553 2.81668 59.7204 2.00618 62.5133C1.19567 65.3061 1.04809 68.2495 1.57515 71.1094C2.26254 75.244 4.27764 79.0423 7.31568 81.9299C10.3537 84.8175 14.2494 86.6372 18.4136 87.1138C22.5778 87.5904 26.784 86.6981 30.3959 84.5717C34.0078 82.4453 36.8291 79.2005 38.433 75.3281C39.2908 73.2891 39.2767 73.3031 41.4705 74.0344C48.6564 76.425 55.6173 79.5047 63.0845 81.0656C63.8307 81.3337 64.6524 81.2964 65.3713 80.962C66.0901 80.6276 66.648 80.0231 66.9236 79.2797C67.8658 77.4938 68.9345 75.7781 70.0173 73.9078C71.1845 75.9469 72.3236 77.7188 73.2517 79.5328C73.3814 79.8794 73.5783 80.197 73.8309 80.4674C74.0836 80.7378 74.3872 80.9557 74.7243 81.1086C75.0613 81.2614 75.4252 81.3462 75.7951 81.3582C76.165 81.3701 76.5336 81.3089 76.8798 81.1781C80.7077 80.3133 84.326 78.6977 87.5252 76.425C87.9303 76.1623 88.2567 75.7948 88.4696 75.3615C88.6826 74.9282 88.7741 74.4453 88.7345 73.9641C88.6923 70.8562 88.7064 67.6641 88.7345 64.4859ZM20.5033 84.6938C17.2009 84.666 13.9805 83.6617 11.2477 81.8074C8.51491 79.953 6.39191 77.3315 5.14603 74.273C3.90015 71.2145 3.58711 67.8557 4.24632 64.6196C4.90554 61.3836 6.50754 58.4149 8.85058 56.0875C11.1936 53.76 14.1729 52.1779 17.4133 51.5404C20.6538 50.9028 24.0104 51.2383 27.0605 52.5046C30.1106 53.7709 32.7178 55.9114 34.5539 58.6566C36.3899 61.4017 37.3726 64.6287 37.3783 67.9313C37.3765 70.1415 36.9379 72.3296 36.0878 74.3699C35.2378 76.4101 33.9929 78.2623 32.4248 79.8199C30.8567 81.3776 28.9963 82.61 26.9504 83.4464C24.9045 84.2828 22.7135 84.7067 20.5033 84.6938Z" fill="#010101"/>
<path d="M81.5616 35.6388C80.5772 34.6263 78.8475 33.642 78.7491 32.5873C78.6506 31.5326 80.5772 30.4638 81.5616 29.367C81.7845 29.1877 81.9644 28.9608 82.0881 28.7028C82.2117 28.4448 82.2759 28.1624 82.2759 27.8763C82.2759 27.5903 82.2117 27.3079 82.0881 27.0499C81.9644 26.7919 81.7845 26.5649 81.5616 26.3857C80.6756 25.4998 79.8037 24.5998 78.9037 23.7279C78.7164 23.4553 78.4655 23.2323 78.1727 23.0783C77.8799 22.9242 77.5541 22.8438 77.2233 22.8438C76.8925 22.8438 76.5666 22.9242 76.2738 23.0783C75.9811 23.2323 75.7302 23.4553 75.5428 23.7279C74.5725 24.6842 73.6725 25.7107 72.5616 26.892C71.4225 25.6685 70.4522 24.5576 69.4116 23.517C69.2373 23.3147 69.0215 23.1524 68.7788 23.0412C68.5361 22.93 68.2723 22.8724 68.0053 22.8724C67.7383 22.8724 67.4745 22.93 67.2318 23.0412C66.9892 23.1524 66.7733 23.3147 66.5991 23.517C65.5584 24.4873 64.56 25.4998 63.5897 26.5263C63.3853 26.6993 63.2211 26.9147 63.1085 27.1575C62.9958 27.4004 62.9375 27.6649 62.9375 27.9326C62.9375 28.2003 62.9958 28.4648 63.1085 28.7077C63.2211 28.9505 63.3853 29.1659 63.5897 29.3388C64.56 30.3654 66.2616 31.3217 66.4022 32.4045C66.5428 33.4873 64.6303 34.542 63.66 35.6107C63.4391 35.7928 63.2611 36.0215 63.139 36.2804C63.0168 36.5393 62.9535 36.8221 62.9535 37.1084C62.9535 37.3947 63.0168 37.6774 63.139 37.9363C63.2611 38.1953 63.4391 38.424 63.66 38.606C64.6162 39.5763 65.5866 40.5326 66.5569 41.4888C66.7375 41.712 66.9657 41.892 67.2248 42.0157C67.4839 42.1394 67.7674 42.2035 68.0545 42.2035C68.3416 42.2035 68.6251 42.1394 68.8842 42.0157C69.1434 41.892 69.3716 41.712 69.5522 41.4888C70.3116 40.7562 71.0343 39.9865 71.7178 39.1826C72.2944 38.5357 72.7303 38.4513 73.335 39.1826C73.9397 39.9138 74.8537 40.7154 75.6131 41.4748C75.7937 41.698 76.0219 41.878 76.2811 42.0016C76.5402 42.1253 76.8237 42.1895 77.1108 42.1895C77.3979 42.1895 77.6814 42.1253 77.9405 42.0016C78.1996 41.878 78.4278 41.698 78.6084 41.4748C79.5928 40.5467 80.5491 39.5623 81.5053 38.592C81.7312 38.4198 81.9153 38.1988 82.0438 37.9455C82.1723 37.6921 82.2419 37.413 82.2473 37.129C82.2527 36.845 82.1938 36.5634 82.0751 36.3054C81.9563 36.0474 81.7808 35.8195 81.5616 35.6388ZM78.1444 38.4513C77.7366 38.9857 77.2866 39.7451 76.4569 38.7607C75.6272 37.7763 74.9381 37.2279 74.1928 36.4545C74.0096 36.1962 73.7671 35.9855 73.4858 35.8402C73.2044 35.6948 72.8923 35.6189 72.5756 35.6189C72.2589 35.6189 71.9468 35.6948 71.6655 35.8402C71.3841 35.9855 71.1417 36.1962 70.9584 36.4545C70.2131 37.2279 69.4397 37.9873 68.6803 38.7467L67.71 39.6467C67.1475 38.9295 66.5709 38.2404 66.0366 37.5092C65.5022 36.7779 66.2616 36.7217 66.5287 36.4404C67.1334 35.7654 67.8084 35.1467 68.4412 34.4998C69.8475 33.0232 69.8475 32.1935 68.4412 30.7592C68.0053 30.3092 67.5553 29.8732 67.1053 29.4373C65.5584 27.8904 65.5866 27.9045 67.2459 26.3998C67.7944 25.9076 68.1178 25.8373 68.6522 26.3998C69.4116 27.2435 70.2412 28.031 71.0569 28.8185C71.2403 29.0373 71.4695 29.2132 71.7282 29.3339C71.987 29.4546 72.269 29.5171 72.5545 29.5171C72.84 29.5171 73.1221 29.4546 73.3808 29.3339C73.6396 29.2132 73.8687 29.0373 74.0522 28.8185C74.6695 28.3137 75.2348 27.7484 75.7397 27.131C76.7944 25.6263 77.6381 25.9217 78.7069 27.131C79.3256 27.8482 79.2131 28.2138 78.6084 28.7623C78.0037 29.3107 77.3006 30.0279 76.6678 30.6748C75.2616 32.081 75.2616 32.9529 76.6678 34.4013C77.3428 35.1045 78.0741 35.8076 78.7209 36.4545C79.8881 37.5513 78.4819 37.8467 78.0881 38.3951L78.1444 38.4513Z" fill="#010202"/>
<path d="M24.425 27.5628C23.1056 27.559 21.8377 28.0747 20.8956 28.9984C19.9534 29.9221 19.4128 31.1796 19.3906 32.4988C19.4187 33.8155 19.9505 35.0714 20.8766 36.0079C21.8026 36.9444 23.0524 37.4903 24.3688 37.5332C25.0225 37.5313 25.6695 37.4007 26.2727 37.1488C26.876 36.897 27.4237 36.5287 27.8847 36.0652C28.3457 35.6016 28.7108 35.0518 28.9593 34.4471C29.2077 33.8424 29.3347 33.1947 29.3328 32.541C29.3499 31.8885 29.2351 31.2393 28.9954 30.6323C28.7557 30.0252 28.396 29.4728 27.9378 29.008C27.4796 28.5432 26.9323 28.1756 26.3287 27.9273C25.7251 27.679 25.0776 27.5551 24.425 27.5628ZM24.5797 34.8753C24.257 34.9118 23.9303 34.8784 23.6217 34.7775C23.313 34.6765 23.0297 34.5104 22.791 34.2903C22.5522 34.0702 22.3636 33.8014 22.2379 33.5019C22.1122 33.2025 22.0524 32.8796 22.0625 32.555C22.0358 31.9306 22.2575 31.3211 22.6792 30.8599C23.1009 30.3986 23.6882 30.1233 24.3125 30.0941C24.9348 30.0909 25.5359 30.3196 25.9987 30.7356C26.4615 31.1516 26.7527 31.725 26.8156 32.3441C26.8362 32.9716 26.6161 33.5833 26.2004 34.0538C25.7847 34.5244 25.2049 34.8183 24.5797 34.8753Z" fill="#030403"/>
<path d="M26.7192 59.1477L26.0583 59.3727L10.4067 64.9977C9.94411 65.1067 9.53186 65.3688 9.23682 65.7415C8.94178 66.1141 8.78125 66.5755 8.78125 67.0508C8.78125 67.5261 8.94178 67.9875 9.23682 68.3601C9.53186 68.7328 9.94411 68.9949 10.4067 69.1039C12.2349 69.7367 14.0208 70.5102 15.8489 71.0305C16.2294 71.129 16.577 71.3267 16.8562 71.6034C17.1353 71.8801 17.3361 72.2259 17.438 72.6055C18.0427 74.4899 18.7036 76.3602 19.4067 78.2305C19.5343 78.6352 19.7867 78.9892 20.1277 79.2418C20.4687 79.4944 20.8808 79.6326 21.3052 79.6367C21.7364 79.6885 22.1724 79.593 22.5425 79.3658C22.9127 79.1387 23.1952 78.7931 23.3442 78.3852C25.313 73.1258 27.338 67.6977 29.2224 62.3117C29.3433 61.9321 29.3691 61.5287 29.2976 61.1367C29.2261 60.7448 29.0594 60.3765 28.8122 60.064C28.5651 59.7516 28.245 59.5046 27.88 59.3449C27.5151 59.1851 27.1165 59.1174 26.7192 59.1477ZM21.6286 75.7414L21.2489 76.0649C20.5036 70.932 17.9583 67.6274 12.4036 67.4727L12.6567 66.9664L26.7192 61.8758C24.9052 66.6852 23.2739 71.2133 21.6286 75.7414Z" fill="#020202"/>
<path d="M8.53516 67.0234C8.6229 64.1153 9.74651 61.3342 11.7035 59.1813C13.6604 57.0284 16.322 55.6453 19.2086 55.2812C19.5816 55.2812 19.9392 55.1331 20.203 54.8694C20.4667 54.6056 20.6148 54.248 20.6148 53.875C20.6148 53.502 20.4667 53.1444 20.203 52.8806C19.9392 52.6169 19.5816 52.4688 19.2086 52.4688C15.565 52.8137 12.1761 54.4884 9.68858 57.173C7.2011 59.8576 5.7893 63.3642 5.72266 67.0234C5.72266 68.8375 8.53516 68.8375 8.53516 67.0234Z" fill="white"/>
<path d="M12.293 11.8594V45.8484C12.293 46.2214 12.4411 46.5791 12.7049 46.8428C12.9686 47.1065 13.3263 47.2547 13.6992 47.2547C14.0722 47.2547 14.4299 47.1065 14.6936 46.8428C14.9573 46.5791 15.1055 46.2214 15.1055 45.8484V11.8594C15.1055 11.4864 14.9573 11.1287 14.6936 10.865C14.4299 10.6013 14.0722 10.4531 13.6992 10.4531C13.3263 10.4531 12.9686 10.6013 12.7049 10.865C12.4411 11.1287 12.293 11.4864 12.293 11.8594Z" fill="white"/>
</svg>
