<svg width="90" height="90" viewBox="0 0 90 90" fill="none" xmlns="http://www.w3.org/2000/svg">
<path d="M66.1789 65.8359L58.2195 67.9594L52.4117 72.6281L50.1758 78.1547V84.6938H81.8164V77.5922L79.0883 72.2484L74.1945 67.9594L69.2867 65.85L66.1789 65.8359Z" fill="#94DB4D"/>
<path d="M23.1047 65.6016L15.1453 67.725L9.3375 72.3937L7.10156 77.9203V84.4594H38.7422V77.3578L36.0141 72.0141L31.1203 67.725L26.2125 65.6156L23.1047 65.6016Z" fill="#00CAFF"/>
<path d="M66.2039 64.8687C71.3065 64.8687 75.443 60.7323 75.443 55.6297C75.443 50.5271 71.3065 46.3906 66.2039 46.3906C61.1013 46.3906 56.9648 50.5271 56.9648 55.6297C56.9648 60.7323 61.1013 64.8687 66.2039 64.8687Z" fill="#C0794D"/>
<path d="M22.9227 65.4234C28.0252 65.4234 32.1617 61.287 32.1617 56.1844C32.1617 51.0818 28.0252 46.9453 22.9227 46.9453C17.8201 46.9453 13.6836 51.0818 13.6836 56.1844C13.6836 61.287 17.8201 65.4234 22.9227 65.4234Z" fill="#884F16"/>
<path d="M44.5523 49.9172L52.793 36.0797H68.3039L71.6508 31.425V6.81562L68.1773 3.90469L21.4758 3.25781L17.918 6.81562V32.6766L20.6461 36.0797H37.8445L44.5523 49.9172Z" fill="#FF526A"/>
<path d="M21.5156 10.3359V18.3516C21.5156 18.7245 21.6638 19.0822 21.9275 19.3459C22.1912 19.6097 22.5489 19.7578 22.9219 19.7578C23.2948 19.7578 23.6525 19.6097 23.9162 19.3459C24.18 19.0822 24.3281 18.7245 24.3281 18.3516V10.3359C24.3281 9.96298 24.18 9.60529 23.9162 9.34157C23.6525 9.07785 23.2948 8.92969 22.9219 8.92969C22.5489 8.92969 22.1912 9.07785 21.9275 9.34157C21.6638 9.60529 21.5156 9.96298 21.5156 10.3359Z" fill="white"/>
<path d="M65.8255 2.28593H23.4974C22.5041 2.20951 21.506 2.34937 20.572 2.69589C19.638 3.0424 18.7902 3.58732 18.0871 4.2931C17.384 4.99887 16.8423 5.84871 16.4993 6.78404C16.1564 7.71937 16.0203 8.71794 16.1005 9.71093C16.1005 16.4797 16.1005 23.2484 16.1005 30.0172C16.1005 34.6859 18.913 37.4984 23.5536 37.5406C26.9708 37.5406 30.5849 37.5406 34.2692 37.5406H34.3677C34.9673 37.5008 35.5638 37.6541 36.07 37.9781C36.5761 38.302 36.9652 38.7795 37.1802 39.3406C38.3333 41.7453 39.5286 44.1219 40.7099 46.4984L41.1599 47.3984C41.7646 48.5938 42.3692 49.8031 42.9599 50.9984C43.5505 52.1938 44.0145 52.4047 44.6052 52.4047C45.1958 52.4047 45.6177 52.1797 46.1521 51.0969C46.8974 49.5781 47.6567 48.0594 48.4161 46.5406C49.5271 44.3187 50.638 42.1109 51.7067 39.875C51.9798 39.1463 52.4833 38.5267 53.1407 38.1105C53.7981 37.6942 54.5735 37.504 55.3489 37.5687C59.1177 37.7094 62.8583 37.6672 66.0364 37.5687C66.9781 37.6011 67.9163 37.4375 68.7915 37.0885C69.6666 36.7394 70.4598 36.2124 71.1208 35.5409C71.7817 34.8694 72.2961 34.0679 72.6312 33.1873C72.9663 32.3067 73.115 31.366 73.0677 30.425C73.0677 22.7469 73.0677 15.8844 73.0677 9.44374C73.104 8.48682 72.9408 7.53281 72.5886 6.64234C72.2363 5.75187 71.7027 4.9444 71.0216 4.27125C70.3405 3.59809 69.5269 3.07397 68.6323 2.73219C67.7378 2.39041 66.7819 2.23844 65.8255 2.28593ZM65.6286 34.6297H64.9958C61.0161 34.6297 56.8958 34.6297 52.8458 34.6297C52.3085 34.583 51.7704 34.711 51.3118 34.9948C50.8532 35.2786 50.4984 35.703 50.3005 36.2047C49.2458 38.4406 48.1208 40.6625 47.038 42.8141L44.5911 47.7219L42.1864 42.8141C41.0333 40.5219 39.9364 38.3422 38.8958 36.1344C38.7054 35.6498 38.362 35.2406 37.9178 34.9691C37.4737 34.6975 36.953 34.5783 36.4349 34.6297C32.3427 34.6297 28.138 34.6297 24.4114 34.6297H23.6661C20.5302 34.6297 19.0536 33.1531 19.0536 29.9891C19.0536 23.2859 19.0536 16.5687 19.0536 9.83749C19.0536 6.70156 20.5724 5.16874 23.6802 5.16874H65.5864C66.2052 5.09102 66.8335 5.15573 67.4234 5.35793C68.0132 5.56013 68.5491 5.89447 68.9901 6.33541C69.431 6.77635 69.7654 7.31224 69.9676 7.90213C70.1698 8.49203 70.2345 9.12033 70.1567 9.73906C70.1567 16.5172 70.1567 23.2906 70.1567 30.0594C70.1427 33.0828 68.6239 34.6156 65.6286 34.6297Z" fill="#010101"/>
<path d="M74.981 66.7703C74.4185 66.4187 73.7716 66.025 73.6591 65.2375C73.6404 64.8987 73.6976 64.56 73.8266 64.2462C73.9555 63.9323 74.153 63.6512 74.4044 63.4234C75.8448 61.8317 76.7637 59.8374 77.0377 57.7082C77.3117 55.5791 76.9277 53.4171 75.9373 51.5125C75.0545 49.7164 73.6875 48.2025 71.9905 47.1416C70.2935 46.0806 68.3339 45.5148 66.3326 45.5078H65.6154C63.4423 45.5954 61.348 46.3456 59.6136 47.6577C57.8792 48.9699 56.5876 50.7811 55.9123 52.8484C55.2171 54.839 55.1128 56.9883 55.6118 59.0368C56.1109 61.0854 57.192 62.9459 58.7248 64.3938L59.6669 65.4062L58.4716 66.0813C51.2716 70.1031 48.0373 76.1219 48.5435 84.475C48.6138 85.6141 49.0919 86.1344 50.0623 86.1344C59.906 86.1344 70.5091 86.1344 82.3216 86.1344C82.5166 86.1626 82.7155 86.1465 82.9034 86.0871C83.0913 86.0277 83.2634 85.9266 83.4067 85.7914C83.55 85.6562 83.6609 85.4903 83.7312 85.3062C83.8014 85.1221 83.8291 84.9245 83.8123 84.7281C84.3748 76.6562 81.5623 70.75 74.981 66.7703ZM58.2185 56.3922C58.2185 54.2738 59.06 52.2421 60.558 50.7442C62.0559 49.2462 64.0876 48.4047 66.206 48.4047C68.3244 48.4047 70.3561 49.2462 71.854 50.7442C73.352 52.2421 74.1935 54.2738 74.1935 56.3922C74.1646 58.5117 73.3117 60.5366 71.8154 62.0381C70.3192 63.5396 68.2973 64.3996 66.1779 64.4359C65.1333 64.4416 64.0979 64.2394 63.1322 63.841C62.1665 63.4427 61.2897 62.8561 60.5529 62.1156C59.8043 61.3636 59.2125 60.4705 58.8118 59.488C58.4111 58.5055 58.2094 57.4532 58.2185 56.3922ZM80.4794 82.5344C79.8326 83.2937 78.8341 83.2937 77.0201 83.2937H62.831C59.7935 83.2937 56.756 83.2937 53.7185 83.2937C53.4025 83.3278 53.0828 83.2954 52.7801 83.1985C52.4774 83.1016 52.1982 82.9425 51.9607 82.7313C51.7615 82.4855 51.615 82.2013 51.5304 81.8965C51.4457 81.5917 51.4246 81.2727 51.4685 80.9594C51.7326 77.5042 53.2 74.2511 55.6154 71.7664C58.0307 69.2817 61.241 67.7227 64.6873 67.3609C72.6044 66.8688 79.256 71.7625 80.6201 79.0187C80.9294 80.7906 81.1123 81.7609 80.4794 82.5344Z" fill="#010101"/>
<path d="M5.30318 83.9512C5.40162 85.8355 5.72506 86.173 7.44068 86.173H38.6876C40.3329 86.173 40.5016 85.5121 40.5297 84.9074C40.761 82.3438 40.571 79.7596 39.9672 77.2574C39.2761 74.8698 38.1053 72.6481 36.5264 70.7283C34.9475 68.8085 32.9937 67.2309 30.7844 66.0918L29.7297 65.5012L30.4329 64.5168C35.0032 58.1605 34.9329 52.5355 30.2219 48.2324C28.243 46.4932 25.7061 45.5212 23.0717 45.4928C20.4373 45.4644 17.88 46.3816 15.8641 48.0777C9.84537 53.2809 12.3626 59.9184 15.4704 64.5871L16.1313 65.5715L15.0907 66.134C11.8678 67.7883 9.21354 70.3691 7.46933 73.5442C5.72512 76.7194 4.97073 80.3438 5.30318 83.9512ZM14.9501 56.3184C14.9942 54.2069 15.8641 52.1969 17.3731 50.7195C18.8821 49.242 20.9101 48.4148 23.0219 48.4152C24.0712 48.4151 25.11 48.6236 26.0779 49.0285C27.0459 49.4334 27.9237 50.0266 28.6604 50.7737C29.3971 51.5209 29.9779 52.407 30.3691 53.3806C30.7603 54.3542 30.954 55.3958 30.9391 56.4449C30.9053 58.5681 30.0303 60.5912 28.5063 62.0699C27.0446 63.5232 25.069 64.3417 23.0079 64.348H22.8954C20.7907 64.2938 18.7885 63.4279 17.3076 61.9313C15.8268 60.4347 14.982 58.4235 14.9501 56.3184ZM22.6422 67.3293H22.8391C26.5548 67.2813 30.1501 68.6455 32.8988 71.1461C35.6474 73.6468 37.3444 77.0975 37.6469 80.8012C37.7013 81.1408 37.6831 81.4882 37.5934 81.8203C37.5037 82.1523 37.3446 82.4616 37.1266 82.7277C36.8869 82.9414 36.6062 83.104 36.3015 83.2056C35.9969 83.3071 35.6747 83.3455 35.3547 83.3184H35.2422C32.3032 83.3184 29.3079 83.3184 26.4251 83.3184H19.5626C16.511 83.3184 13.4594 83.3184 10.3938 83.3184C10.0923 83.3442 9.78874 83.3089 9.50121 83.2147C9.21367 83.1204 8.9481 82.9692 8.72037 82.7699C8.52183 82.5426 8.37299 82.2764 8.28338 81.9882C8.19378 81.7 8.1654 81.3963 8.20006 81.0965C8.43641 77.4066 10.0537 73.941 12.73 71.3898C15.4063 68.8386 18.9453 67.3889 22.6422 67.3293Z" fill="#010101"/>
<path d="M37.7844 21.9656C37.4399 21.5232 36.9344 21.2351 36.3782 21.1641C36.2121 21.1729 36.0495 21.2148 35.8998 21.2872C35.7501 21.3597 35.6163 21.4612 35.5063 21.5859C35.0704 21.9938 34.6063 22.6828 35.6891 23.9484C36.7271 25.2325 38.0349 26.2723 39.5198 26.9941C41.0048 27.7159 42.6304 28.102 44.2813 28.125C46.039 28.1726 47.7842 27.8172 49.3833 27.0859C50.9823 26.3547 52.3927 25.267 53.5063 23.9062C54.0407 23.2734 54.4907 22.3594 53.5766 21.5859C53.0704 21.1359 52.4375 20.8687 51.3969 21.9516C50.5456 22.9534 49.4967 23.769 48.316 24.3473C47.1352 24.9256 45.8479 25.2541 44.5344 25.3125C43.2385 25.2541 41.9691 24.9263 40.8069 24.3501C39.6447 23.7738 38.6153 22.9618 37.7844 21.9656Z" fill="#020202"/>
<path d="M39.7664 12.4609C39.2617 12.4858 38.787 12.7081 38.4445 13.0797C38.0817 13.427 37.8654 13.8999 37.8398 14.4016C37.8549 14.8848 38.0565 15.3434 38.4023 15.6812C38.7852 16.0348 39.2875 16.2307 39.8086 16.2297C40.2999 16.2272 40.7702 16.0299 41.1164 15.6812C41.2865 15.491 41.4166 15.2684 41.4987 15.0268C41.5809 14.7852 41.6134 14.5295 41.5945 14.275C41.5643 13.8014 41.3616 13.3553 41.0248 13.021C40.6879 12.6867 40.2402 12.4875 39.7664 12.4609Z" fill="#070808"/>
<path d="M49.4852 12.4609C48.9766 12.4867 48.4978 12.7084 48.1492 13.0797C47.7855 13.425 47.5731 13.9002 47.5586 14.4016C47.5631 14.6415 47.6151 14.8781 47.7116 15.0978C47.8082 15.3174 47.9474 15.5157 48.1211 15.6812C48.5032 16.036 49.006 16.2321 49.5273 16.2297C49.771 16.2308 50.0124 16.1828 50.2371 16.0886C50.4618 15.9943 50.6652 15.8558 50.8352 15.6812C51.0078 15.4922 51.1404 15.2701 51.225 15.0284C51.3096 14.7868 51.3444 14.5305 51.3273 14.275C51.2909 13.8012 51.0843 13.3566 50.7458 13.0232C50.4072 12.6898 49.9594 12.4901 49.4852 12.4609Z" fill="#070808"/>
<path d="M64.1252 52.6926V52.3691C64.1267 52.1789 64.0834 51.991 63.9986 51.8207C63.9408 51.6477 63.839 51.4926 63.7033 51.3707C63.5842 51.2318 63.4282 51.1294 63.2533 51.0754C63.0886 50.9903 62.904 50.9515 62.7189 50.9629H62.3393C62.1032 51.0253 61.889 51.1518 61.7205 51.3285L61.4955 51.6098C61.3716 51.8282 61.3085 52.0759 61.3127 52.327V52.6504C61.3116 52.8355 61.3471 53.0189 61.4171 53.1903C61.4871 53.3616 61.5902 53.5174 61.7205 53.6488C61.8428 53.7809 61.9982 53.878 62.1705 53.9301C62.3358 54.028 62.5274 54.0722 62.7189 54.0566H63.0846C63.3196 53.9996 63.534 53.8778 63.7033 53.7051L63.9283 53.4238C64.0571 53.2068 64.1251 52.959 64.1252 52.7066V52.6926Z" fill="white"/>
<path d="M18.1281 52.3735V52.6969C18.1125 52.8884 18.1567 53.08 18.2546 53.2453C18.3126 53.4149 18.4088 53.5689 18.5359 53.6953C18.6582 53.8274 18.8135 53.9245 18.9859 53.9766C19.1512 54.0745 19.3428 54.1188 19.5343 54.1032H19.914C20.147 54.041 20.3601 53.9199 20.5328 53.7516L20.7437 53.4703C20.8725 53.2533 20.9405 53.0055 20.9406 52.7531V52.4297C20.9562 52.2382 20.9119 52.0466 20.814 51.8813C20.756 51.7117 20.6598 51.5577 20.5328 51.4313C20.4014 51.3009 20.2455 51.1978 20.0742 51.1278C19.9028 51.0579 19.7194 51.0224 19.5343 51.0235H19.1546C18.9202 51.0897 18.707 51.2157 18.5359 51.3891L18.3249 51.6703C18.1961 51.8874 18.1281 52.1351 18.1281 52.3875V52.3735Z" fill="white"/>
<path d="M55.4911 80.8552C55.5685 80.3464 55.6813 79.8436 55.8286 79.3505C55.8942 79.088 55.9786 78.8208 56.0817 78.5489L56.2083 78.2255V78.113C56.4333 77.6489 56.6583 77.1848 56.9255 76.7067L57.3895 76.0036L57.6005 75.7223L57.727 75.5536C58.0527 75.1551 58.4051 74.7792 58.7817 74.4286C58.9645 74.2458 59.1614 74.077 59.3583 73.9083L59.6817 73.6411C59.527 73.7677 59.6817 73.6411 59.7942 73.6411C60.209 73.3367 60.6462 73.0641 61.102 72.8255L61.7911 72.4739C61.7911 72.4739 62.1849 72.3052 61.9599 72.3895L62.3536 72.2489C62.5319 72.2001 62.6988 72.1166 62.8448 72.0032C62.9908 71.8898 63.113 71.7488 63.2044 71.5881C63.2958 71.4275 63.3547 71.2504 63.3776 71.067C63.4005 70.8836 63.3871 70.6974 63.338 70.5192C63.2892 70.3409 63.2057 70.174 63.0923 70.0281C62.9789 69.8821 62.8379 69.7599 62.6772 69.6684C62.5166 69.577 62.3395 69.5182 62.156 69.4952C61.9726 69.4723 61.7865 69.4858 61.6083 69.5348C59.3339 70.3737 57.3204 71.7965 55.7702 73.6602C54.2199 75.5239 53.1876 77.7629 52.777 80.152C52.728 80.3302 52.7145 80.5164 52.7374 80.6998C52.7603 80.8832 52.8192 81.0603 52.9106 81.221C53.0021 81.3816 53.1243 81.5227 53.2702 81.636C53.4162 81.7494 53.5831 81.8329 53.7614 81.8817C53.9396 81.9308 54.1258 81.9443 54.3092 81.9213C54.4926 81.8984 54.6697 81.8396 54.8303 81.7481C54.991 81.6567 55.132 81.5345 55.2454 81.3885C55.3588 81.2425 55.4423 81.0756 55.4911 80.8973V80.8552Z" fill="white"/>
<path d="M12.3034 80.3633C12.3946 79.9208 12.512 79.4841 12.6549 79.0555C12.7252 78.8305 12.8237 78.5914 12.9081 78.3664V78.268L13.0627 77.9586C13.4524 77.1222 13.9234 76.3262 14.469 75.582L14.5393 75.4836L14.7502 75.2164L15.2002 74.7102C15.5096 74.3867 15.8331 74.0633 16.1706 73.768L16.6909 73.318L16.8315 73.2055L17.1127 73.0086C17.4924 72.7414 17.9002 72.4883 18.3081 72.2492C18.4782 72.1647 18.6294 72.0466 18.7527 71.9021C18.8759 71.7575 18.9686 71.5895 19.0251 71.4081C19.0816 71.2268 19.1008 71.0358 19.0815 70.8469C19.0621 70.6579 19.0048 70.4748 18.9127 70.3086C18.8197 70.1486 18.696 70.0086 18.5487 69.8965C18.4015 69.7845 18.2335 69.7026 18.0545 69.6555C17.8756 69.6085 17.6891 69.5973 17.5057 69.6225C17.3224 69.6477 17.1458 69.7088 16.9862 69.8023C15.1487 70.8539 13.5449 72.2693 12.2731 73.9618C11.0013 75.6544 10.0881 77.5885 9.5893 79.6461C9.54036 79.8243 9.527 80.0104 9.54999 80.1938C9.57297 80.3771 9.63185 80.5542 9.72326 80.7148C9.81467 80.8754 9.93681 81.0165 10.0827 81.1299C10.2286 81.2433 10.3955 81.3268 10.5737 81.3758C10.7519 81.4247 10.938 81.4381 11.1214 81.4151C11.3047 81.3921 11.4818 81.3332 11.6424 81.2418C11.803 81.1504 11.944 81.0283 12.0575 80.8824C12.1709 80.7364 12.2544 80.5696 12.3034 80.3914V80.3633Z" fill="white"/>
</svg>
