<svg width="90" height="90" viewBox="0 0 90 90" fill="none" xmlns="http://www.w3.org/2000/svg">
<path d="M78.8891 3.23438H11.1078C7.44979 3.23438 4.48438 6.19979 4.48438 9.85781V77.6391C4.48438 81.2971 7.44979 84.2625 11.1078 84.2625H78.8891C82.5471 84.2625 85.5125 81.2971 85.5125 77.6391V9.85781C85.5125 6.19979 82.5471 3.23438 78.8891 3.23438Z" fill="#E2D8D0"/>
<path d="M64.8266 53.6094H63.6312C61.6819 53.6094 60.1016 55.1897 60.1016 57.1391V60.0922C60.1016 62.0416 61.6819 63.6219 63.6312 63.6219H64.8266C66.776 63.6219 68.3562 62.0416 68.3562 60.0922V57.1391C68.3562 55.1897 66.776 53.6094 64.8266 53.6094Z" fill="#FFF0D3"/>
<path d="M64.8266 16.8047H63.6312C61.6819 16.8047 60.1016 18.385 60.1016 20.3344V23.2875C60.1016 25.2369 61.6819 26.8172 63.6312 26.8172H64.8266C66.776 26.8172 68.3562 25.2369 68.3562 23.2875V20.3344C68.3562 18.385 66.776 16.8047 64.8266 16.8047Z" fill="#FFF0D3"/>
<path d="M27.1547 53.3516H26.3813C24.3154 53.3516 22.6406 55.0263 22.6406 57.0922V59.6234C22.6406 61.6893 24.3154 63.3641 26.3813 63.3641H27.1547C29.2206 63.3641 30.8953 61.6893 30.8953 59.6234V57.0922C30.8953 55.0263 29.2206 53.3516 27.1547 53.3516Z" fill="#FFF0D3"/>
<path d="M34.4094 21.2641C37.3063 21.2641 39.6547 18.9157 39.6547 16.0188C39.6547 13.1218 37.3063 10.7734 34.4094 10.7734C31.5125 10.7734 29.1641 13.1218 29.1641 16.0188C29.1641 18.9157 31.5125 21.2641 34.4094 21.2641Z" fill="#F05151"/>
<path d="M16.1281 31.5453C19.025 31.5453 21.3734 29.1969 21.3734 26.3C21.3734 23.4031 19.025 21.0547 16.1281 21.0547C13.2312 21.0547 10.8828 23.4031 10.8828 26.3C10.8828 29.1969 13.2312 31.5453 16.1281 31.5453Z" fill="#F05151"/>
<path d="M34.4094 41.8187C37.3063 41.8187 39.6547 39.4703 39.6547 36.5734C39.6547 33.6765 37.3063 31.3281 34.4094 31.3281C31.5125 31.3281 29.1641 33.6765 29.1641 36.5734C29.1641 39.4703 31.5125 41.8187 34.4094 41.8187Z" fill="#F05151"/>
<path d="M54.2947 38.5206C54.2947 38.5206 52.34 31.1097 63.7868 29.6893C70.0447 28.9159 75.6134 34.5409 74.0947 37.93C72.5759 41.319 55.3212 41.5159 54.2947 38.5206Z" fill="#53C4C9"/>
<path d="M16.8766 74.8409C16.8766 74.8409 14.8516 67.5003 26.2985 66.0096C32.5703 65.2362 38.125 70.8612 36.6203 74.2643C35.1157 77.6675 17.8328 77.8503 16.8766 74.8409Z" fill="#FAAA52"/>
<path d="M54.2947 74.8409C54.2947 74.8409 52.34 67.5003 63.7868 66.0096C70.0447 65.2362 75.6134 70.8612 74.0947 74.2643C72.5759 77.6675 55.3212 77.8503 54.2947 74.8409Z" fill="#A2D17D"/>
<path d="M26.8446 46.4766C24.7064 46.4711 22.5882 46.8881 20.6117 47.7038C18.6352 48.5195 16.8393 49.7178 15.3274 51.2297C13.7985 52.7269 12.5843 54.5144 11.756 56.4874C10.9277 58.4604 10.502 60.579 10.504 62.7188C10.4928 67.0315 12.1943 71.1723 15.2346 74.2311C18.2749 77.2899 22.4053 79.0164 26.718 79.0313C30.9529 78.9183 34.977 77.1594 37.9362 74.128C40.8955 71.0966 42.5569 67.0313 42.5679 62.7949C42.5789 58.5586 40.9385 54.4847 37.995 51.438C35.0515 48.3913 31.0366 46.6116 26.8024 46.4766H26.8446ZM17.9149 72.7594C18.0592 71.3601 18.7112 70.0622 19.7477 69.1112C20.7843 68.1602 22.1334 67.622 23.5399 67.5985H26.7883H30.0508C31.4564 67.6251 32.8039 68.1643 33.8398 69.1147C34.8757 70.0651 35.5286 71.3613 35.6758 72.7594C35.7088 72.8908 35.6978 73.0293 35.6444 73.1538C35.5911 73.2782 35.4984 73.3818 35.3805 73.4485C32.8711 75.447 29.7426 76.5064 26.5352 76.4438C23.5257 76.3986 20.6187 75.3437 18.2805 73.4485C18.1544 73.3873 18.0509 73.2875 17.9852 73.1637C17.9195 73.0398 17.8949 72.8982 17.9149 72.7594ZM29.7274 64.9829H29.2352C27.652 65.0673 26.0653 65.0673 24.4821 64.9829C22.59 64.821 20.6987 65.3021 19.1139 66.3484C17.5292 67.3947 16.3437 68.9449 15.7493 70.7485C14.2587 68.7109 13.3616 66.3003 13.1574 63.784C12.9531 61.2676 13.4498 58.7439 14.5923 56.4926C15.7348 54.2413 17.4784 52.3504 19.6299 51.0295C21.7814 49.7087 24.2567 49.0095 26.7813 49.0095C29.3059 49.0095 31.7812 49.7087 33.9327 51.0295C36.0842 52.3504 37.8279 54.2413 38.9703 56.4926C40.1128 58.7439 40.6095 61.2676 40.4053 63.784C40.201 66.3003 39.3039 68.7109 37.8133 70.7485C37.2484 69.0559 36.1613 67.586 34.7085 66.5501C33.2556 65.5141 31.5117 64.9654 29.7274 64.9829Z" fill="#231F20"/>
<path d="M32.4705 57.4989C32.4635 56.1396 31.9729 54.8271 31.0865 53.7965C30.2002 52.7659 28.976 52.0843 27.633 51.8739C26.3216 51.7081 24.993 51.9956 23.8675 52.6887C22.742 53.3819 21.8874 54.4391 21.4455 55.6849C21.0574 56.9058 20.9375 58.1962 21.0939 59.4677C21.1822 60.9345 21.8206 62.314 22.8816 63.3307C23.9426 64.3474 25.3481 64.9264 26.8174 64.9521C27.9582 64.9372 29.0653 64.5632 29.9814 63.8833C30.8403 63.3088 31.5243 62.5088 31.9584 61.5711C32.3925 60.6334 32.56 59.5943 32.4424 58.5677L32.4705 57.4989ZM29.3064 61.0708C28.9502 61.5542 28.4626 61.9251 27.9017 62.1395C27.3408 62.3538 26.7302 62.4027 26.1424 62.2802C25.5167 62.1458 24.9482 61.8208 24.515 61.3498C24.0818 60.8788 23.8053 60.2852 23.7236 59.6505C23.5613 58.6652 23.5899 57.6578 23.808 56.6833C23.9729 56.0119 24.3599 55.4159 24.9062 54.9921C25.4525 54.5683 26.126 54.3417 26.8174 54.3489C26.9905 54.335 27.1645 54.335 27.3377 54.3489C28.0648 54.4797 28.7211 54.8663 29.188 55.4389C29.6548 56.0115 29.9014 56.7323 29.883 57.4708V58.5958C30.0146 59.4642 29.8083 60.35 29.3064 61.0708Z" fill="#231F20"/>
<path d="M64.3086 46.4766C62.1704 46.4711 60.0522 46.8881 58.0757 47.7038C56.0992 48.5195 54.3034 49.7178 52.7915 51.2297C51.2677 52.7292 50.0586 54.5178 49.2352 56.4907C48.4118 58.4636 47.9905 60.581 47.9961 62.7188C47.9906 64.8555 48.406 66.9723 49.2185 68.9484C50.031 70.9245 51.2248 72.7213 52.7318 74.236C54.2387 75.7508 56.0292 76.9539 58.0011 77.7767C59.973 78.5994 62.0876 79.0258 64.2243 79.0313C68.4591 78.9183 72.4832 77.1594 75.4425 74.128C78.4017 71.0966 80.0632 67.0313 80.0742 62.7949C80.0851 58.5586 78.4448 54.4847 75.5013 51.438C72.5578 48.3913 68.5429 46.6116 64.3086 46.4766ZM55.379 72.7594C55.5232 71.3601 56.1753 70.0622 57.2118 69.1112C58.2483 68.1602 59.5975 67.622 61.004 67.5985H64.2665H67.529C68.9346 67.6251 70.282 68.1643 71.3179 69.1147C72.3538 70.0651 73.0068 71.3613 73.154 72.7594C73.1869 72.8908 73.1759 73.0293 73.1225 73.1538C73.0692 73.2782 72.9765 73.3818 72.8587 73.4485C70.3492 75.447 67.2207 76.5064 64.0133 76.4438C60.999 76.4017 58.0865 75.3467 55.7446 73.4485C55.6184 73.3873 55.515 73.2875 55.4493 73.1637C55.3836 73.0398 55.3589 72.8982 55.379 72.7594ZM67.1915 64.9829H66.6993C65.116 65.0673 63.5294 65.0673 61.9461 64.9829C60.0541 64.821 58.1627 65.3021 56.578 66.3484C54.9932 67.3947 53.8078 68.9449 53.2133 70.7485C51.7228 68.7109 50.8256 66.3003 50.6214 63.784C50.4172 61.2676 50.9139 58.7439 52.0563 56.4926C53.1988 54.2413 54.9425 52.3504 57.094 51.0295C59.2455 49.7087 61.7208 49.0095 64.2454 49.0095C66.77 49.0095 69.2453 49.7087 71.3968 51.0295C73.5483 52.3504 75.2919 54.2413 76.4344 56.4926C77.5769 58.7439 78.0735 61.2676 77.8693 63.784C77.6651 66.3003 76.768 68.7109 75.2774 70.7485C74.7124 69.0559 73.6254 67.586 72.1725 66.5501C70.7197 65.5141 68.9758 64.9654 67.1915 64.9829Z" fill="#231F20"/>
<path d="M69.9322 58.1661V57.4911C69.9252 56.1318 69.4347 54.8193 68.5483 53.7887C67.662 52.7581 66.4377 52.0765 65.0947 51.8661C63.7834 51.7002 62.4547 51.9877 61.3292 52.6809C60.2038 53.3741 59.3492 54.4313 58.9072 55.6771C58.5205 56.9178 58.4101 58.2282 58.5838 59.5161C58.6721 60.983 59.3105 62.3625 60.3715 63.3792C61.4325 64.3958 62.838 64.9748 64.3072 65.0005C65.4624 64.9794 66.5807 64.5902 67.4994 63.8896C68.3537 63.3173 69.0348 62.5219 69.4687 61.5897C69.9026 60.6575 70.0726 59.6242 69.9604 58.6021L69.9322 58.1661ZM66.7682 61.0771C66.4119 61.5604 65.9244 61.9313 65.3635 62.1457C64.8026 62.3601 64.1919 62.4089 63.6041 62.2864C62.9785 62.1521 62.4099 61.827 61.9768 61.3561C61.5436 60.8851 61.2671 60.2914 61.1854 59.6568C61.0231 58.6714 61.0517 57.6641 61.2697 56.6896C61.4346 56.0181 61.8216 55.4221 62.3679 54.9984C62.9142 54.5746 63.5878 54.3479 64.2791 54.3552C64.4523 54.3412 64.6263 54.3412 64.7994 54.3552C65.529 54.4863 66.1873 54.875 66.6544 55.4505C67.1216 56.0261 67.3665 56.7502 67.3447 57.4911V58.6021C67.4764 59.4705 67.27 60.3563 66.7682 61.0771Z" fill="#231F20"/>
<path d="M64.3086 9.94536C62.1718 9.94027 60.0548 10.3562 58.0787 11.1693C56.1025 11.9824 54.3059 13.1769 52.7915 14.6844C51.2677 16.1839 50.0586 17.9725 49.2352 19.9454C48.4118 21.9182 47.9905 24.0357 47.9961 26.1735C47.9906 28.3125 48.4069 30.4316 49.2212 32.4096C50.0355 34.3875 51.2318 36.1855 52.7417 37.7006C54.2516 39.2158 56.0454 40.4183 58.0206 41.2394C59.9957 42.0605 62.1134 42.4841 64.2524 42.486C68.5676 42.4972 72.7104 40.7937 75.7696 37.7503C78.8288 34.707 80.5537 30.573 80.5649 26.2579C80.5761 21.9427 78.8726 17.7998 75.8293 14.7407C72.7859 11.6815 68.6519 9.95655 64.3368 9.94536H64.3086ZM55.379 36.2141C55.5232 34.8148 56.1753 33.5169 57.2118 32.5659C58.2483 31.6149 59.5975 31.0767 61.004 31.0532H64.2665H67.529C68.9346 31.0797 70.282 31.6189 71.3179 32.5694C72.3538 33.5198 73.0068 34.816 73.154 36.2141C73.1869 36.3455 73.1759 36.484 73.1225 36.6085C73.0692 36.7329 72.9765 36.8365 72.8587 36.9032C70.3492 38.9017 67.2207 39.9611 64.0133 39.8985C61.0017 39.855 58.0911 38.8056 55.7446 36.9172C55.6173 36.8535 55.5134 36.7513 55.4477 36.625C55.3821 36.4987 55.358 36.3549 55.379 36.2141ZM67.1915 28.4375H66.6993C65.116 28.522 63.5294 28.522 61.9461 28.4375C60.0523 28.2765 58.1596 28.7596 56.5746 29.8086C54.9896 30.8576 53.8052 32.4111 53.2133 34.2172C51.7228 32.1796 50.8256 29.769 50.6214 27.2527C50.4172 24.7364 50.9139 22.2126 52.0563 19.9613C53.1988 17.71 54.9425 15.8191 57.094 14.4983C59.2455 13.1774 61.7208 12.4782 64.2454 12.4782C66.77 12.4782 69.2453 13.1774 71.3968 14.4983C73.5483 15.8191 75.2919 17.71 76.4344 19.9613C77.5769 22.2126 78.0735 24.7364 77.8693 27.2527C77.6651 29.769 76.768 32.1796 75.2774 34.2172C74.7148 32.522 73.6289 31.0491 72.1758 30.0104C70.7227 28.9718 68.9775 28.4211 67.1915 28.4375Z" fill="#231F20"/>
<path d="M69.9322 21.6117V20.9508C69.9224 19.5922 69.4308 18.2812 68.545 17.2512C67.6591 16.2211 66.4365 15.5388 65.0947 15.3258C63.7837 15.1625 62.4562 15.4511 61.3313 16.144C60.2064 16.8368 59.3514 17.8925 58.9072 19.1367C58.5205 20.3774 58.4101 21.6878 58.5838 22.9758C58.6721 24.4426 59.3105 25.8221 60.3715 26.8388C61.4325 27.8555 62.838 28.4345 64.3072 28.4601C65.4615 28.4342 66.5784 28.0455 67.4994 27.3492C68.356 26.7758 69.0385 25.9781 69.4725 25.0432C69.9065 24.1082 70.0753 23.072 69.9604 22.0476L69.9322 21.6117ZM66.7682 24.5226C66.4119 25.006 65.9244 25.3769 65.3635 25.5913C64.8026 25.8057 64.1919 25.8545 63.6041 25.732C62.9785 25.5976 62.4099 25.2726 61.9768 24.8016C61.5436 24.3307 61.2671 23.737 61.1854 23.1023C61.0231 22.117 61.0517 21.1097 61.2697 20.1351C61.4346 19.4637 61.8216 18.8677 62.3679 18.4439C62.9142 18.0202 63.5878 17.7935 64.2791 17.8008H64.7994C65.5277 17.9346 66.1843 18.324 66.6509 18.8989C67.1176 19.4738 67.3636 20.1965 67.3447 20.9367V22.0476C67.4793 22.9161 67.2727 23.803 66.7682 24.5226Z" fill="#231F20"/>
<path d="M29.9948 32.1992C29.948 32.272 29.8859 32.3337 29.8126 32.3798C29.7394 32.4259 29.657 32.4553 29.5711 32.4661C29.4853 32.4768 29.3981 32.4685 29.3158 32.4419C29.2335 32.4152 29.1581 32.3708 29.0948 32.3117L22.7245 28.6977C22.3448 28.4867 22.162 28.318 22.3167 27.8258C22.612 26.8253 22.612 25.7607 22.3167 24.7602C22.2753 24.6839 22.2512 24.5995 22.2462 24.5129C22.2411 24.4263 22.2552 24.3396 22.2874 24.2591C22.3196 24.1785 22.3692 24.1061 22.4326 24.0468C22.496 23.9876 22.5716 23.9431 22.6542 23.9164C24.8057 22.7211 26.9432 21.4977 29.0807 20.2742C29.144 20.2152 29.2194 20.1707 29.3017 20.1441C29.3841 20.1174 29.4712 20.1091 29.5571 20.1199C29.6429 20.1306 29.7254 20.1601 29.7986 20.2062C29.8718 20.2523 29.934 20.3139 29.9807 20.3867C30.9195 21.341 32.1424 21.9652 33.4659 22.1655C34.7895 22.3658 36.1423 22.1314 37.3214 21.4977C38.3559 20.9484 39.2147 20.1186 39.7991 19.1036C40.3835 18.0885 40.6699 16.9292 40.6254 15.7587C40.5809 14.5883 40.2073 13.4541 39.5476 12.4862C38.8878 11.5184 37.9685 10.7562 36.8953 10.2871C35.822 9.81799 34.6383 9.66094 33.4798 9.83399C32.3214 10.007 31.2352 10.5032 30.3459 11.2655C29.4566 12.0278 28.8002 13.0253 28.4521 14.1437C28.1039 15.2621 28.0781 16.4559 28.3776 17.5883C28.4901 18.0242 28.3776 18.1789 28.012 18.3758C25.8464 19.5852 23.6807 20.8086 21.5432 22.0602C21.4819 22.1131 21.4099 22.1521 21.332 22.1747C21.2542 22.1972 21.1724 22.2026 21.0923 22.1906C21.0122 22.1786 20.9356 22.1494 20.8678 22.105C20.8 22.0607 20.7426 22.0022 20.6995 21.9336C19.8387 21.0547 18.7359 20.4517 17.5314 20.2013C16.327 19.9509 15.0752 20.0644 13.9354 20.5273C12.7638 21.013 11.7657 21.8401 11.0709 22.9011C10.3761 23.9621 10.0169 25.2078 10.0401 26.4758C10.0564 26.83 10.0987 27.1825 10.1667 27.5305C10.3652 28.6773 10.8919 29.742 11.6831 30.5956C12.4743 31.4492 13.496 32.055 14.6245 32.3398C15.7101 32.6711 16.8677 32.6856 17.9612 32.3817C19.0548 32.0778 20.0389 31.4681 20.7979 30.6242C20.8314 30.5721 20.8756 30.5278 20.9275 30.4941C20.9794 30.4604 21.0379 30.4382 21.0991 30.4289C21.1603 30.4195 21.2228 30.4234 21.2824 30.4401C21.342 30.4568 21.3974 30.486 21.4448 30.5258C23.6526 31.7914 25.8604 33.057 28.0823 34.2945C28.1556 34.3199 28.2224 34.3608 28.2783 34.4146C28.3341 34.4684 28.3776 34.5336 28.4057 34.6059C28.4338 34.6781 28.4458 34.7556 28.441 34.833C28.4361 34.9103 28.4145 34.9857 28.3776 35.0539C28.132 35.9483 28.1031 36.8883 28.2932 37.7961C28.5173 38.9952 29.0885 40.1022 29.936 40.9796C30.7834 41.8571 31.8698 42.4664 33.0604 42.732C34.2626 43.0192 35.5238 42.932 36.675 42.4821C37.8261 42.0322 38.8122 41.2411 39.5011 40.2148C40.419 38.9408 40.8207 37.3665 40.6254 35.8083C40.4301 34.2502 39.6523 32.8237 38.4483 31.8156C37.2443 30.8076 35.7033 30.2925 34.1351 30.3741C32.5669 30.4557 31.0877 31.1279 29.9948 32.2555V32.1992ZM34.4104 11.9633C35.4821 11.9633 36.5101 12.388 37.2693 13.1445C38.0284 13.901 38.4567 14.9275 38.4604 15.9992C38.4531 17.0748 38.0225 18.1042 37.262 18.8648C36.5014 19.6254 35.472 20.0559 34.3964 20.0633C33.3222 20.0633 32.2921 19.6366 31.5326 18.8771C30.7731 18.1175 30.3464 17.0874 30.3464 16.0133C30.3464 14.9392 30.7731 13.909 31.5326 13.1495C32.2921 12.39 33.3222 11.9633 34.3964 11.9633H34.4104ZM16.312 30.3289C15.5138 30.3345 14.7319 30.1032 14.0651 29.6643C13.3983 29.2255 12.8767 28.5988 12.5661 27.8635C12.2555 27.1281 12.1699 26.3172 12.3202 25.5333C12.4705 24.7493 12.8498 24.0275 13.4103 23.4592C13.9708 22.8908 14.6872 22.5014 15.469 22.3403C16.2508 22.1791 17.0628 22.2533 17.8024 22.5537C18.542 22.854 19.1759 23.3668 19.624 24.0274C20.0721 24.688 20.3142 25.4666 20.3198 26.2648C20.3235 26.7949 20.2228 27.3204 20.0234 27.8115C19.824 28.3026 19.5298 28.7496 19.1576 29.127C18.7855 29.5043 18.3426 29.8047 17.8544 30.011C17.3661 30.2172 16.842 30.3252 16.312 30.3289ZM34.3823 40.6227C33.3082 40.6227 32.278 40.196 31.5185 39.4364C30.759 38.6769 30.3323 37.6468 30.3323 36.5727C30.3323 35.4985 30.759 34.4684 31.5185 33.7089C32.278 32.9494 33.3082 32.5227 34.3823 32.5227C35.4564 32.5227 36.4866 32.9494 37.2461 33.7089C38.0056 34.4684 38.4323 35.4985 38.4323 36.5727C38.4323 37.6468 38.0056 38.6769 37.2461 39.4364C36.4866 40.196 35.4564 40.6227 34.3823 40.6227Z" fill="#010101"/>
<path d="M4.62734 28.9143C4.82463 28.9364 5.02437 28.9166 5.21343 28.856C5.40248 28.7954 5.57656 28.6954 5.72422 28.5627C6.13922 28.0426 6.34037 27.3838 6.28672 26.7205V11.083C6.28672 7.42679 7.80547 5.9221 11.532 5.9221H27.1414C28.5477 5.9221 29.2648 5.38773 29.2789 4.33304C29.2953 4.136 29.27 3.93772 29.2045 3.75114C29.1391 3.56456 29.0351 3.39388 28.8992 3.25023C28.425 2.85292 27.8146 2.65617 27.1977 2.70179H17.4242H10.3227C8.39276 2.73124 6.55147 3.51673 5.19458 4.88939C3.83769 6.26206 3.07355 8.11231 3.06641 10.0424C3.06641 11.8705 3.06641 13.7127 3.06641 15.5408V26.7908C3.06641 28.1268 3.58672 28.8862 4.62734 28.9143Z" fill="#010101"/>
<path d="M83.516 26.9173C83.516 27.8032 83.7973 28.886 85.091 28.9141C85.2904 28.9326 85.4913 28.9082 85.6805 28.8427C85.8696 28.7773 86.0426 28.6722 86.1879 28.5345C86.5827 28.0755 86.7798 27.4789 86.7363 26.8751C86.7363 21.686 86.7363 15.8079 86.7363 10.0001C86.7109 8.071 85.9343 6.22788 84.5714 4.86239C83.2086 3.4969 81.3669 2.71669 79.4379 2.68757C77.6379 2.68757 75.852 2.68757 73.7285 2.68757H62.9285C62.1913 2.6109 61.4525 2.81697 60.8613 3.26414C60.6154 3.56363 60.4945 3.94647 60.5238 4.33289C60.5238 4.79695 60.5238 5.90789 62.8723 5.90789H78.6645C81.9129 5.90789 83.502 7.49695 83.516 10.7454V26.9173Z" fill="#010101"/>
<path d="M10.4329 86.3687H27.1251C28.5314 86.3687 29.2486 85.8344 29.2767 84.7797C29.2929 84.586 29.2688 84.3909 29.2059 84.207C29.143 84.023 29.0426 83.8541 28.9111 83.7109C28.3829 83.2903 27.7133 83.0889 27.0407 83.1484H11.2486C7.92981 83.1484 6.31262 81.5312 6.29856 78.2406V62.0828C6.29856 60.8594 5.70793 60.1562 4.69543 60.1562C3.28918 60.1562 3.09231 61.3797 3.07825 62.0969C3.07825 64.1078 3.07825 66.1047 3.07825 68.1156V73.4594C3.07825 75.2875 3.07825 77.1156 3.07825 78.9578C3.07269 79.9279 3.25872 80.8894 3.62567 81.7874C3.99262 82.6854 4.53326 83.5021 5.21657 84.1906C5.89989 84.8792 6.71243 85.426 7.60758 85.7998C8.50273 86.1736 9.46288 86.3669 10.4329 86.3687Z" fill="#010101"/>
<path d="M83.5156 62.5062V78.2984C83.5156 81.5609 81.9265 83.1359 78.6781 83.1499H62.5202C61.6343 83.1499 60.5656 83.4312 60.5234 84.7109C60.509 84.912 60.5352 85.114 60.6004 85.3049C60.6656 85.4957 60.7685 85.6715 60.9031 85.8218C61.365 86.2113 61.9593 86.4077 62.5624 86.3702H79.0718C80.0863 86.4137 81.0987 86.2465 82.0454 85.8794C82.9921 85.5123 83.8525 84.9532 84.5725 84.2372C85.2924 83.5212 85.8563 82.6638 86.2287 81.7192C86.601 80.7746 86.7737 79.763 86.7359 78.7484V62.5624C86.8244 61.8155 86.6175 61.0636 86.1593 60.4671C86.015 60.3381 85.8455 60.2403 85.6616 60.1798C85.4777 60.1193 85.2833 60.0974 85.0906 60.1156C84.6265 60.1718 83.5156 60.1999 83.5156 62.5062Z" fill="#010101"/>
<path d="M16.8758 67.081C16.0645 65.0768 15.8653 62.877 16.3033 60.7596C16.7413 58.6422 17.7969 56.702 19.3368 55.1841C20.6446 53.9326 18.6477 51.9357 17.354 53.2013C15.3848 55.1622 14.0544 57.6725 13.5375 60.403C13.0205 63.1334 13.341 65.9563 14.4571 68.5013C14.6449 68.8206 14.9512 69.0528 15.3092 69.1476C15.6673 69.2424 16.0484 69.1921 16.3696 69.0076C16.5295 68.9145 16.6696 68.7908 16.7816 68.6436C16.8937 68.4963 16.9756 68.3284 17.0226 68.1494C17.0697 67.9704 17.0809 67.7839 17.0557 67.6006C17.0305 67.4172 16.9694 67.2407 16.8758 67.081Z" fill="white"/>
<path d="M21.4453 73.1242C21.4453 72.9836 21.4453 72.843 21.4453 72.7023V73.082C21.4856 72.8215 21.5564 72.5666 21.6562 72.3227L21.5156 72.6602C21.6255 72.3999 21.7672 72.1543 21.9375 71.9289L21.7266 72.2242C21.8798 72.01 22.0648 71.8204 22.275 71.6617L21.9938 71.8727C22.1963 71.7291 22.4131 71.6065 22.6406 71.507L22.3031 71.6477L22.5 71.5633C22.8527 71.4698 23.1552 71.2429 23.3438 70.9305C23.5295 70.5964 23.5799 70.2037 23.4844 69.8336C23.3842 69.4838 23.1524 69.1864 22.8375 69.0039C22.6755 68.9095 22.4963 68.8484 22.3103 68.8242C22.1243 68.8001 21.9354 68.8133 21.7547 68.8633C21.3313 68.9942 20.9322 69.1937 20.5734 69.4539C20.3547 69.6119 20.1479 69.7858 19.9547 69.9742C19.7619 70.1736 19.5878 70.3901 19.4344 70.6211C18.9177 71.354 18.6379 72.2275 18.6328 73.1242C18.6432 73.4982 18.7938 73.8546 19.0547 74.1227C19.3166 74.3825 19.6701 74.5289 20.0391 74.5305C20.2241 74.5315 20.4076 74.4961 20.5789 74.4261C20.7503 74.3561 20.9061 74.253 21.0375 74.1227C21.1678 73.9913 21.2709 73.8354 21.3409 73.6641C21.4109 73.4928 21.4464 73.3093 21.4453 73.1242Z" fill="white"/>
<path d="M54.5355 67.5003C53.7634 65.7185 53.4515 63.7712 53.6284 61.8374C53.8053 59.9036 54.4654 58.0452 55.548 56.4331C55.7162 56.1117 55.7536 55.7378 55.6525 55.3894C55.5515 55.0411 55.3197 54.7453 55.0057 54.5638C54.6917 54.3822 54.3197 54.3291 53.9674 54.4154C53.6151 54.5017 53.3098 54.7207 53.1152 55.0268C51.7908 57.068 51.0047 59.4113 50.8301 61.8382C50.6555 64.2651 51.0982 66.6968 52.1168 68.9065C52.307 69.2272 52.6169 69.4592 52.9781 69.5515C53.3394 69.6438 53.7226 69.5889 54.0433 69.3987C54.3565 69.2087 54.5831 68.904 54.675 68.5494C54.7669 68.1949 54.7169 67.8185 54.5355 67.5003Z" fill="white"/>
<path d="M58.8953 73.1261V72.8448V73.2245C58.9618 72.74 59.0942 72.2668 59.2891 71.8183L59.1484 72.1558C59.3298 71.7241 59.5661 71.3176 59.8516 70.9464L59.6266 71.2276C59.7897 71.0177 59.9683 70.8203 60.1609 70.637C60.4257 70.3722 60.5745 70.0131 60.5745 69.6386C60.5745 69.2641 60.4257 68.9049 60.1609 68.6401C59.8961 68.3753 59.537 68.2266 59.1625 68.2266C58.788 68.2266 58.4289 68.3753 58.1641 68.6401C57.5867 69.1901 57.1107 69.8375 56.7578 70.5526C56.3706 71.3612 56.1324 72.2329 56.0547 73.1261C56.0547 73.499 56.2028 73.8567 56.4666 74.1204C56.7303 74.3842 57.088 74.5323 57.4609 74.5323C57.646 74.5334 57.8295 74.4979 58.0008 74.4279C58.1721 74.358 58.328 74.2548 58.4594 74.1245C58.7107 73.8514 58.8554 73.497 58.8672 73.1261H58.8953Z" fill="white"/>
<path d="M32.1758 39.5C32.5487 39.5 32.9064 39.3518 33.1702 39.0881C33.4339 38.8244 33.582 38.4667 33.582 38.0938C33.582 37.7208 33.4339 37.3631 33.1702 37.0994C32.9064 36.8357 32.5487 36.6875 32.1758 36.6875C31.8028 36.6875 31.4451 36.8357 31.1814 37.0994C30.9177 37.3631 30.7695 37.7208 30.7695 38.0938C30.7695 38.4667 30.9177 38.8244 31.1814 39.0881C31.4451 39.3518 31.8028 39.5 32.1758 39.5Z" fill="white"/>
<path d="M30.9375 16.875V17.2406C30.9361 17.4264 30.9795 17.6097 31.0641 17.775C31.1181 17.9499 31.2205 18.1059 31.3594 18.225C31.4813 18.3607 31.6364 18.4625 31.8094 18.5203C31.9753 18.6034 32.1583 18.6468 32.3438 18.6469H32.7235C32.9595 18.5845 33.1737 18.458 33.3422 18.2813L33.5672 18C33.6887 17.7857 33.7517 17.5432 33.75 17.2969V16.875C33.7511 16.69 33.7156 16.5065 33.6457 16.3352C33.5757 16.1638 33.4726 16.008 33.3422 15.8766C33.2108 15.7463 33.055 15.6431 32.8837 15.5732C32.7123 15.5032 32.5289 15.4677 32.3438 15.4688H31.9782C31.7437 15.535 31.5305 15.661 31.3594 15.8344L31.1344 16.1156C31.0075 16.3488 30.9398 16.6096 30.9375 16.875Z" fill="white"/>
<path d="M14.3875 28.128H14.5704C14.7619 28.1436 14.9535 28.0994 15.1188 28.0015C15.2884 27.9435 15.4424 27.8473 15.5688 27.7202C15.6991 27.5888 15.8022 27.433 15.8722 27.2616C15.9422 27.0903 15.9777 26.9068 15.9766 26.7218V26.3421C15.905 26.11 15.7797 25.898 15.611 25.7233L15.3297 25.5124C15.1127 25.3836 14.8649 25.3156 14.6125 25.3155H14.4297C14.2427 25.3 14.0556 25.3444 13.8954 25.4421C13.7214 25.4995 13.5627 25.5956 13.4313 25.7233C13.3042 25.8497 13.208 26.0037 13.15 26.1733C13.0653 26.3436 13.0219 26.5315 13.0235 26.7218V27.1015C13.0895 27.3329 13.2101 27.545 13.375 27.7202L13.6704 27.9311C13.8833 28.0575 14.1259 28.1254 14.3735 28.128H14.3875Z" fill="white"/>
<path d="M58.4281 36.5609V36.1952V36.5749C58.4861 36.1783 58.5948 35.7907 58.7516 35.4218L58.6109 35.7593C58.7768 35.3665 58.9944 34.9977 59.2578 34.6624L59.0328 34.9437C59.2852 34.635 59.5679 34.3523 59.8766 34.0999L59.5953 34.3109C59.9207 34.0744 60.2694 33.8718 60.6359 33.7062L60.2984 33.8468L60.6359 33.7202C60.8142 33.6714 60.9811 33.5879 61.1271 33.4745C61.2731 33.3612 61.3953 33.2201 61.4867 33.0595C61.5781 32.8988 61.637 32.7217 61.6599 32.5383C61.6829 32.3549 61.6694 32.1688 61.6203 31.9905C61.5187 31.6331 61.2798 31.3304 60.9556 31.1486C60.6315 30.9667 60.2486 30.9206 59.8906 31.0202C58.7156 31.4187 57.6864 32.1589 56.9348 33.146C56.1831 34.1331 55.7434 35.3222 55.6719 36.5609C55.6719 36.9338 55.82 37.2915 56.0838 37.5552C56.3475 37.819 56.7052 37.9671 57.0781 37.9671C57.4511 37.9671 57.8088 37.819 58.0725 37.5552C58.3362 37.2915 58.4844 36.9338 58.4844 36.5609H58.4281Z" fill="white"/>
<path d="M54.1814 30.5987C53.604 29.1124 53.3638 27.5164 53.4781 25.926C53.5924 24.3355 54.0583 22.7903 54.8423 21.4018C55.0105 21.0804 55.0479 20.7065 54.9468 20.3582C54.8458 20.0099 54.6141 19.714 54.3 19.5325C53.986 19.351 53.614 19.2978 53.2617 19.3841C52.9094 19.4704 52.6041 19.6895 52.4095 19.9956C51.4329 21.7053 50.838 23.6061 50.6656 25.5675C50.4933 27.5289 50.7476 29.5043 51.4111 31.3581C51.4599 31.5364 51.5434 31.7033 51.6568 31.8493C51.7702 31.9952 51.9112 32.1174 52.0719 32.2089C52.2325 32.3003 52.4096 32.3592 52.593 32.3821C52.7764 32.405 52.9626 32.3915 53.1408 32.3425C53.3191 32.2936 53.486 32.2102 53.632 32.0968C53.7779 31.9834 53.9001 31.8423 53.9916 31.6817C54.083 31.521 54.1418 31.3439 54.1648 31.1605C54.1877 30.9771 54.1742 30.791 54.1252 30.6128L54.1814 30.5987Z" fill="white"/>
</svg>
