<svg width="90" height="90" viewBox="0 0 90 90" fill="none" xmlns="http://www.w3.org/2000/svg">
<path d="M81.4219 4.88281H6.87656C5.48636 4.88281 4.35938 6.0098 4.35938 7.4V81.9453C4.35938 83.3355 5.48636 84.4625 6.87656 84.4625H81.4219C82.8121 84.4625 83.9391 83.3355 83.9391 81.9453V7.4C83.9391 6.0098 82.8121 4.88281 81.4219 4.88281Z" fill="#EFDD84"/>
<path d="M69.6086 29.5156H57.0508C55.9635 29.5156 55.082 30.3971 55.082 31.4844V44.0422C55.082 45.1295 55.9635 46.0109 57.0508 46.0109H69.6086C70.6959 46.0109 71.5773 45.1295 71.5773 44.0422V31.4844C71.5773 30.3971 70.6959 29.5156 69.6086 29.5156Z" fill="#FBB05E"/>
<path d="M70.0188 58.7266H57.4609C56.3736 58.7266 55.4922 59.608 55.4922 60.6953V73.2531C55.4922 74.3404 56.3736 75.2219 57.4609 75.2219H70.0188C71.1061 75.2219 71.9875 74.3404 71.9875 73.2531V60.6953C71.9875 59.608 71.1061 58.7266 70.0188 58.7266Z" fill="#FBB05E"/>
<path d="M3.75391 18.4672H83.9383V7.4L81.4211 4.88281H6.90391L4.35859 7.4L3.75391 18.4672Z" fill="#C66060"/>
<path d="M8.07031 23.2344V79.1187H12.2891V78.0781C12.2891 77.5187 12.0668 76.9822 11.6712 76.5866C11.2757 76.191 10.7391 75.9688 10.1797 75.9688C9.62025 75.9688 9.08372 76.191 8.68813 76.5866C8.29255 76.9822 8.07031 77.5187 8.07031 78.0781V79.1187C8.07031 79.6782 8.29255 80.2147 8.68813 80.6103C9.08372 81.0059 9.62025 81.2281 10.1797 81.2281C10.7391 81.2281 11.2757 81.0059 11.6712 80.6103C12.0668 80.2147 12.2891 79.6782 12.2891 79.1187V23.2344C12.2891 22.6749 12.0668 22.1384 11.6712 21.7428C11.2757 21.3472 10.7391 21.125 10.1797 21.125C9.62025 21.125 9.08372 21.3472 8.68813 21.7428C8.29255 22.1384 8.07031 22.6749 8.07031 23.2344Z" fill="white"/>
<path d="M12.2891 14.4297V9.29688C12.2891 8.73743 12.0668 8.20091 11.6712 7.80532C11.2757 7.40974 10.7391 7.1875 10.1797 7.1875C9.62363 7.1983 9.09335 7.424 8.70009 7.81727C8.30682 8.21054 8.08111 8.74082 8.07031 9.29688V14.4297C8.07679 14.9877 8.29845 15.5217 8.68906 15.9203C8.98406 16.2149 9.35975 16.4155 9.76868 16.4968C10.1776 16.578 10.6015 16.5362 10.9867 16.3767C11.3719 16.2172 11.7012 15.9472 11.933 15.6006C12.1648 15.2541 12.2887 14.8466 12.2891 14.4297Z" fill="white"/>
<path d="M85.782 9.33596C85.8542 8.52443 85.7465 7.70697 85.4666 6.94183C85.1867 6.17669 84.7415 5.48269 84.1627 4.90928C83.5839 4.33587 82.8858 3.89716 82.1181 3.6244C81.3503 3.35165 80.5319 3.25156 79.7211 3.33127H8.83203C4.93672 3.33127 2.71484 5.62346 2.71484 9.43439C2.71484 33.0594 2.71484 56.6844 2.71484 80.3094C2.71484 84.1906 4.95078 86.3985 8.84609 86.3985H79.5664C83.5883 86.3985 85.782 84.2188 85.782 80.211V9.33596ZM82.9695 79.9156C82.9695 82.7281 82.1539 83.6 79.3414 83.6H9.02891C6.28672 83.6 5.44297 82.7563 5.44297 80.0281C5.44297 60.5094 5.44297 40.986 5.44297 21.4578C5.44297 20.136 5.86484 19.8828 7.08828 19.8969C19.4633 19.8969 31.8523 19.8969 44.2414 19.8969C56.6305 19.8969 69.0055 19.8969 81.3945 19.8969C82.7023 19.8969 82.9836 20.2766 82.9836 21.5141C82.9742 40.986 82.9695 60.4531 82.9695 79.9156ZM81.4648 17.2391C69.0477 17.2391 56.6164 17.2391 44.1852 17.2391C31.7539 17.2391 19.6461 17.2391 7.38359 17.2391C5.75234 17.2391 5.37266 16.761 5.47109 15.2422C5.61172 13.4141 5.47109 11.5719 5.47109 9.74377C5.47109 6.93127 6.30078 6.11564 9.16953 6.11564H79.2008C82.182 6.12971 82.9695 6.93127 82.9695 9.84221C82.9695 11.7969 82.8852 13.7375 82.9695 15.6781C83.068 16.9438 82.6883 17.2391 81.4648 17.2391Z" fill="#020202"/>
<path d="M53.9579 66.9344C53.9579 65.2047 53.9579 63.475 53.9579 61.7453C53.9065 61.1769 53.9754 60.6041 54.16 60.0641C54.3447 59.5241 54.641 59.029 55.0297 58.6111C55.4184 58.1932 55.8908 57.8619 56.416 57.6387C56.9413 57.4155 57.5076 57.3054 58.0783 57.3156C61.3689 57.2031 64.6595 57.3156 67.922 57.3156C68.7939 57.3156 69.5392 57.6531 69.5392 58.7219C69.5392 59.7906 68.7939 60.1281 67.8095 60.1281C64.7861 60.1281 61.7486 60.1281 58.7251 60.1281C57.3189 60.1281 56.6298 60.6484 56.6439 62.0969C56.6439 65.3875 56.6439 68.6781 56.6439 71.9406C56.6439 73.3469 57.3048 73.9797 58.7251 73.9656C61.9595 73.9656 65.2079 73.9656 68.4423 73.9656C69.947 73.9656 70.6642 73.3469 70.5095 71.8141C70.4744 71.4399 70.4744 71.0632 70.5095 70.6891C70.5095 70.3161 70.6577 69.9584 70.9214 69.6947C71.1851 69.431 71.5428 69.2828 71.9158 69.2828C72.2428 69.2755 72.5621 69.3825 72.8188 69.5853C73.0754 69.788 73.2534 70.0739 73.322 70.3938C73.5818 71.108 73.6628 71.875 73.5578 72.6278C73.4528 73.3805 73.1651 74.0961 72.7198 74.7121C72.2745 75.328 71.6852 75.8255 71.0033 76.1611C70.3214 76.4968 69.5676 76.6603 68.8079 76.6375C65.3486 76.6375 61.9033 76.6375 58.4439 76.6375C57.849 76.6982 57.2481 76.6264 56.6843 76.4272C56.1204 76.2281 55.6077 75.9066 55.1829 75.4858C54.758 75.065 54.4317 74.5554 54.2272 73.9935C54.0227 73.4316 53.9451 72.8314 54.0001 72.2359C53.9439 70.4922 53.9579 68.7063 53.9579 66.9344Z" fill="#020202"/>
<path d="M53.9597 37.9703C53.9597 36.0719 53.9597 34.1734 53.9597 32.3453C53.9634 31.3059 54.3779 30.3101 55.1129 29.5751C55.8479 28.8401 56.8437 28.4256 57.8831 28.4219C61.23 28.4219 64.5769 28.4219 67.9378 28.4219C68.8659 28.4219 69.5409 28.7172 69.5691 29.7578C69.5972 30.7984 68.88 31.1641 67.9659 31.1641H58.8956C57.1097 31.1641 56.7019 31.5859 56.6878 33.3719C56.6878 36.5641 56.6878 39.7563 56.6878 42.9484C56.6878 44.4391 57.2784 45.0859 58.8253 45.0578C62.0737 44.9875 65.3222 45.0578 68.5566 45.0578C69.9628 45.0578 70.6659 44.4672 70.5534 43.0188C70.5037 42.5889 70.5037 42.1548 70.5534 41.725C70.5606 41.3953 70.6948 41.0811 70.9279 40.8479C71.1611 40.6148 71.4753 40.4806 71.805 40.4734C71.9801 40.439 72.1606 40.4425 72.3343 40.4835C72.508 40.5246 72.6709 40.6024 72.8121 40.7116C72.9533 40.8208 73.0695 40.9589 73.1529 41.1168C73.2363 41.2746 73.2849 41.4484 73.2956 41.6266C73.7597 44.9313 72.5925 47.8281 68.6691 47.8422C65.2659 47.8422 61.8628 47.8422 58.4597 47.8422C57.8529 47.8848 57.2441 47.7957 56.675 47.581C56.1059 47.3663 55.5899 47.0311 55.1625 46.5983C54.7351 46.1656 54.4063 45.6455 54.1987 45.0737C53.991 44.502 53.9095 43.8921 53.9597 43.2859C53.9597 41.5563 53.9597 39.8266 53.9597 38.0969V37.9703Z" fill="#020202"/>
<path d="M29.6156 65.6328H46.2937C47.3765 65.6328 48.4031 65.7734 48.389 67.0391C48.375 68.3047 47.2922 68.4453 46.2515 68.4453H13.2187C12.15 68.4453 11.0109 68.4453 11.0812 66.9266C11.0812 65.7875 11.9812 65.6328 12.9375 65.6328H29.6156Z" fill="#080808"/>
<path d="M29.6305 32.4536H13.5992C13.0624 32.4725 12.525 32.4348 11.9961 32.3411C11.8413 32.3128 11.6938 32.2534 11.5625 32.1666C11.4312 32.0798 11.3188 31.9673 11.2321 31.8359C11.1454 31.7046 11.0862 31.557 11.058 31.4022C11.0298 31.2473 11.0332 31.0884 11.068 30.9349C11.0552 30.634 11.1502 30.3385 11.3358 30.1014C11.5213 29.8643 11.7854 29.7011 12.0805 29.6411C12.545 29.5642 13.0168 29.5406 13.4867 29.5708H45.8305C46.2607 29.5285 46.694 29.5285 47.1242 29.5708C47.4455 29.6191 47.7401 29.7772 47.958 30.0182C48.1759 30.2592 48.3037 30.5682 48.3195 30.8927C48.3404 31.1943 48.2526 31.4933 48.072 31.7358C47.8914 31.9783 47.6301 32.1481 47.3352 32.2145C46.8078 32.323 46.2704 32.3749 45.732 32.3692L29.6305 32.4536Z" fill="#080808"/>
<path d="M29.6308 39.3748H13.1074C12.3199 39.3748 11.5183 39.3748 11.1808 38.531C11.0776 38.352 11.0199 38.1505 11.0125 37.9441C11.0052 37.7376 11.0485 37.5325 11.1386 37.3467C11.2288 37.1608 11.3631 36.9998 11.5297 36.8778C11.6964 36.7558 11.8904 36.6764 12.0949 36.6466C12.6239 36.5542 13.1622 36.5258 13.698 36.5623H46.7308C47.6449 36.5623 48.3902 37.0123 48.3902 37.9685C48.3902 38.9248 47.6449 39.3748 46.6324 39.3748H29.6308Z" fill="#080808"/>
<path d="M29.6428 61.4516H13.0912C12.135 61.4516 11.1366 61.4516 11.0803 60.1719C11.0241 58.8922 12.0647 58.7656 13.1053 58.7656H46.4053C47.3897 58.7656 48.4022 58.85 48.4444 60.0453C48.4866 61.2406 47.46 61.4516 46.3912 61.4516C40.7803 61.4375 35.1553 61.4516 29.6428 61.4516Z" fill="#010101"/>
<path d="M77.4133 31.1224C77.4014 31.3604 77.3342 31.5923 77.217 31.7998C77.0999 32.0073 76.9359 32.1846 76.7383 32.3177L64.8695 42.8786C64.7178 43.0688 64.5236 43.2209 64.3027 43.3228C64.0817 43.4246 63.8399 43.4734 63.5967 43.4652C63.3536 43.457 63.1157 43.392 62.902 43.2755C62.6884 43.159 62.505 42.9942 62.3664 42.7942C61.1711 41.5427 59.9336 40.3333 58.6961 39.1239C58.5339 39.0034 58.3997 38.8493 58.3025 38.6722C58.2052 38.4951 58.1473 38.2991 58.1326 38.0976C58.1179 37.8961 58.1469 37.6938 58.2174 37.5045C58.2879 37.3152 58.3984 37.1433 58.5414 37.0005C59.2445 36.2974 59.9476 36.5224 60.6789 37.1692C61.0304 37.5067 61.3679 37.8583 61.7054 38.2099C63.7023 40.1927 63.7023 40.1927 65.8539 38.2099L74.9383 30.1239C75.4445 29.6739 75.9648 29.3364 76.6679 29.7021C76.9322 29.8224 77.149 30.0274 77.2839 30.2845C77.4188 30.5417 77.4644 30.8365 77.4133 31.1224Z" fill="#030303"/>
<path d="M63.6607 72.5081C62.6904 72.5081 58.1904 68.0081 58.1482 67.08C58.1279 66.8109 58.1914 66.5421 58.3298 66.3105C58.4683 66.0788 58.675 65.8957 58.9217 65.7862C59.1739 65.6441 59.4687 65.5972 59.7525 65.654C60.0363 65.7108 60.2904 65.8675 60.4686 66.0956C61.3108 66.8558 62.1089 67.6633 62.8592 68.5144C63.5061 69.2737 63.9279 69.2315 64.6451 68.5144C67.8373 65.5894 71.0857 62.7347 74.3201 59.8659L74.7982 59.43C75.5576 58.7409 76.4295 58.3472 77.1889 59.2612C77.9482 60.1753 77.4561 60.8784 76.6826 61.4972C76.2607 61.8347 75.8811 62.2144 75.4732 62.58L65.292 71.6222C64.7717 72.0159 64.3498 72.5925 63.6607 72.5081Z" fill="#030303"/>
<path d="M22.0093 75.3578H12.939C11.8983 75.3578 11.0546 75.0906 11.0827 73.8672C11.1108 72.6437 11.9405 72.4609 12.8827 72.4609H31.3468C32.3171 72.4609 33.1468 72.8406 33.1608 73.8672C33.1749 74.8937 32.289 75.2734 31.2483 75.2734C28.1265 75.3438 25.089 75.3578 22.0093 75.3578Z" fill="#090A0A"/>
<path d="M22.1915 46.2213H13.1353C12.1228 46.2213 11.0681 46.2213 11.0822 44.815C11.0962 43.4088 12.0806 43.4932 13.0509 43.4932H31.1634C32.1619 43.4932 33.1322 43.6057 33.1462 44.801C33.1603 45.9963 32.1337 46.2072 31.0931 46.2072L22.1915 46.2213Z" fill="#010201"/>
<path d="M74.687 13.0508C73.773 13.0508 72.8589 13.0508 71.8745 13.0508C71.5203 13.0519 71.1786 12.9193 70.9179 12.6794C70.6572 12.4396 70.4966 12.1102 70.4683 11.757C70.4427 11.5625 70.4608 11.3647 70.5212 11.178C70.5816 10.9913 70.6827 10.8204 70.8174 10.6777C70.952 10.535 71.1167 10.424 71.2996 10.3529C71.4825 10.2818 71.6789 10.2522 71.8745 10.2664C73.7449 10.182 75.6292 10.182 77.4995 10.2664C77.8602 10.2845 78.2001 10.4406 78.4488 10.7023C78.6975 10.9641 78.8359 11.3116 78.8355 11.6727C78.8355 12.0456 78.6873 12.4033 78.4236 12.667C78.1599 12.9307 77.8022 13.0789 77.4292 13.0789C76.5011 13.093 75.6011 13.0508 74.687 13.0508Z" fill="#0C0D0D"/>
<path d="M12.4466 11.7107C12.2498 12.5263 11.7857 13.1169 10.8857 13.0185C10.5376 12.9835 10.2151 12.8201 9.98105 12.56C9.74702 12.3 9.61832 11.9621 9.62007 11.6123C9.60764 11.4244 9.6355 11.236 9.70177 11.0597C9.76804 10.8835 9.87121 10.7234 10.0044 10.5903C10.1375 10.4571 10.2976 10.354 10.4738 10.2877C10.6501 10.2214 10.8384 10.1936 11.0263 10.206C11.2208 10.2036 11.4136 10.2415 11.5926 10.3174C11.7716 10.3933 11.933 10.5055 12.0665 10.6469C12.1999 10.7883 12.3026 10.9558 12.3681 11.1389C12.4335 11.322 12.4603 11.5167 12.4466 11.7107Z" fill="#1A1A1A"/>
<path d="M16.5507 10.2266C17.3242 10.3672 17.957 10.7609 17.957 11.6328C17.9708 11.815 17.9463 11.9982 17.885 12.1703C17.8237 12.3425 17.727 12.4999 17.6011 12.6324C17.4752 12.7649 17.323 12.8695 17.1542 12.9396C16.9854 13.0096 16.8038 13.0435 16.6211 13.0391C16.4332 13.0515 16.2448 13.0236 16.0685 12.9574C15.8923 12.8911 15.7322 12.7879 15.5991 12.6548C15.4659 12.5216 15.3628 12.3616 15.2965 12.1853C15.2302 12.0091 15.2024 11.8207 15.2148 11.6328C15.1586 10.8313 15.7211 10.3672 16.5507 10.2266Z" fill="#181818"/>
<path d="M23.4859 11.7413C23.4542 12.0919 23.2921 12.4179 23.0318 12.6548C22.7714 12.8918 22.4316 13.0224 22.0796 13.021C21.8912 13.0358 21.7017 13.0096 21.5244 12.9442C21.3471 12.8787 21.186 12.7756 21.0524 12.642C20.9187 12.5083 20.8156 12.3473 20.7502 12.1699C20.6848 11.9926 20.6585 11.8032 20.6734 11.6148C20.6561 11.4258 20.6806 11.2353 20.7451 11.0568C20.8097 10.8783 20.9127 10.7163 21.0469 10.5821C21.1811 10.4479 21.3432 10.3448 21.5216 10.2803C21.7001 10.2157 21.8906 10.1912 22.0796 10.2085C22.2754 10.2077 22.4693 10.2478 22.6487 10.3263C22.8281 10.4047 22.9892 10.5198 23.1215 10.6641C23.2539 10.8084 23.3547 10.9787 23.4174 11.1642C23.4802 11.3497 23.5035 11.5463 23.4859 11.7413Z" fill="#131313"/>
</svg>
