<svg width="90" height="90" viewBox="0 0 90 90" fill="none" xmlns="http://www.w3.org/2000/svg">
<path d="M85.8791 64.1488V67.2988C84.7963 67.4956 84.5853 68.2691 84.5853 69.2113C84.5853 71.1941 84.5853 73.191 84.5853 75.1738C84.5853 75.9613 84.4447 76.2425 83.5728 75.905C82.8016 75.6849 82.0101 75.5436 81.2103 75.4832C77.7369 75.4832 74.2775 75.4832 70.8041 75.5675C69.9744 75.5675 69.8056 75.23 69.8338 74.4988C69.8299 73.5774 69.9918 72.6628 70.3119 71.7988C70.7404 70.8753 70.8344 69.8316 70.5778 68.8464C70.3213 67.8612 69.7301 66.9959 68.9056 66.3988C68.0478 65.6535 67.1619 64.9925 66.3041 64.1769C65.9379 63.8094 65.4978 63.5241 65.0129 63.3398C64.5279 63.1556 64.0094 63.0766 63.4916 63.1082C62.3947 63.2206 61.8463 62.7566 61.9447 61.6175C61.9518 61.5615 61.9518 61.5048 61.9447 61.4488C61.5963 60.0308 61.7083 58.5387 62.2645 57.1886C62.8208 55.8385 63.7923 54.7005 65.0385 53.9394C66.103 53.1054 67.1042 52.1935 68.0338 51.2113C70.6916 48.7925 70.6213 46.1066 67.8369 43.8003C66.965 43.0691 66.051 42.3941 65.2213 41.6066C64.8838 41.3113 63.815 41.1706 64.6588 40.341C65.151 39.8066 65.4885 39.1597 66.4869 39.7503C68.8916 41.1566 71.4369 42.4081 73.8416 43.8566C75.9869 45.3492 78.5738 46.0727 81.1822 45.9097C84.5291 45.741 84.5291 45.741 84.5291 49.0597C84.5291 53.391 84.5291 57.7222 84.5291 62.0535C84.5853 63.0238 84.6556 63.9378 85.8791 64.1488Z" fill="#D89155"/>
<path d="M85.8794 67.3077C86.8356 67.5327 87.1169 68.1655 87.1028 69.1077C87.1028 73.0171 87.1028 76.9124 87.1028 80.8217C87.1337 82.1359 86.6493 83.4099 85.7533 84.3717C84.8572 85.3334 83.6205 85.9066 82.3075 85.9686C79.7622 86.0952 77.2028 86.0671 74.6575 85.9686C74.3019 85.9847 73.947 85.9238 73.617 85.7902C73.287 85.6566 72.9897 85.4534 72.7455 85.1944C72.5012 84.9355 72.3156 84.6269 72.2015 84.2896C72.0874 83.9524 72.0473 83.5946 72.0841 83.2405C72.0067 81.9948 72.0067 80.7455 72.0841 79.4999C72.2106 78.2061 71.6903 77.9952 70.5372 78.0233C67.0638 78.1077 63.5903 78.0233 60.131 78.0233C57.9679 78.1699 55.8044 77.743 53.8591 76.7858C53.1841 76.4342 52.3825 76.3358 51.7497 75.9421C49.6544 74.6342 47.9528 74.7467 46.5606 76.9967C45.97 77.9671 44.8731 78.0092 43.7481 78.0092C36.3091 78.0092 28.8841 78.0092 21.4591 78.0092C20.6217 78.1163 19.8242 78.4304 19.1388 78.9233C16.8325 80.0624 17.0575 81.8905 17.0435 83.8452C17.0348 84.2005 16.9543 84.5504 16.8066 84.8737C16.659 85.197 16.4473 85.487 16.1844 85.7262C15.9216 85.9654 15.6129 86.1489 15.2772 86.2655C14.9414 86.382 14.5855 86.4294 14.231 86.4045C12.7122 86.4045 11.1935 86.4045 9.67471 86.4045C9.25319 86.4463 8.82769 86.3922 8.42998 86.2465C8.03226 86.1007 7.67261 85.867 7.37786 85.5628C7.08311 85.2586 6.86089 84.8917 6.72777 84.4896C6.59465 84.0875 6.55408 83.6605 6.60909 83.2405V81.9327C6.60909 80.9202 6.73565 80.0624 5.34346 79.6124C3.95127 79.1624 3.67002 77.7983 3.68409 76.3921C3.68409 69.0655 3.68409 61.7389 3.68409 54.4264C3.68409 42.3327 3.68409 30.2249 3.68409 18.1311C3.68409 16.2749 4.14815 14.7983 6.08877 14.2358C6.82002 14.0249 6.60909 13.5046 6.62315 13.0686C6.89034 7.94987 7.03096 7.85143 12.1919 7.85143C12.8388 7.85143 13.4997 7.85143 14.1466 7.85143C14.5531 7.82132 14.9614 7.87996 15.343 8.02327C15.7247 8.16658 16.0706 8.39114 16.3568 8.6814C16.6431 8.97167 16.8628 9.32068 17.0008 9.70429C17.1388 10.0879 17.1917 10.4969 17.156 10.903C17.191 11.4462 17.191 11.9911 17.156 12.5342C17.0575 13.5327 17.156 14.3483 18.3653 14.5592C18.4737 14.5681 18.5745 14.6185 18.6466 14.6999C19.7856 16.7389 21.7263 16.3592 23.47 16.2186C25.9258 15.9942 28.3724 16.7357 30.2903 18.2858C30.4315 18.4447 30.6048 18.572 30.7987 18.6591C30.9926 18.7462 31.2028 18.7913 31.4153 18.7913C31.6279 18.7913 31.8381 18.7462 32.032 18.6591C32.2259 18.572 32.3992 18.4447 32.5403 18.2858C33.3827 17.524 34.3778 16.9506 35.4594 16.6038C36.5409 16.257 37.6839 16.1449 38.8122 16.2749C41.6834 16.4366 44.5614 16.4366 47.4325 16.2749C48.2612 16.1452 49.1098 16.2725 49.864 16.6396C50.6182 17.0066 51.242 17.5958 51.6513 18.328C52.1435 19.1577 52.6778 19.3967 53.5778 18.7499C54.573 18.0686 55.6059 17.4442 56.6716 16.8796C57.1202 16.5639 57.6709 16.4278 58.2149 16.4981C58.759 16.5684 59.2569 16.8399 59.6106 17.2592C59.6783 17.3456 59.7536 17.4256 59.8356 17.4983C60.8622 18.3421 61.495 20.0717 62.7606 20.0717C64.0263 20.0717 65.0247 18.9467 66.0513 18.1733C67.9987 16.6866 70.4306 15.9796 72.8716 16.1905C75.6841 16.3452 78.6231 16.1905 81.506 16.1905C82.2586 16.1361 83.0142 16.2442 83.7213 16.5077C84.4285 16.7711 85.0706 17.1836 85.6042 17.7172C86.1378 18.2508 86.5503 18.893 86.8138 19.6001C87.0772 20.3073 87.1854 21.0628 87.131 21.8155C87.131 35.2124 87.131 48.6092 87.131 62.0061C87.131 62.9764 87.131 63.8905 85.9075 64.1296C84.6841 64.3686 84.5013 63.6655 84.206 62.878C84.0203 62.2009 83.9537 61.4967 84.0091 60.7967C84.0091 56.7889 84.0091 52.7811 84.0091 48.7733C84.0091 46.4671 84.0091 46.453 81.6606 46.3264C78.947 46.5438 76.2388 45.8457 73.9685 44.3436C72.1122 43.1483 70.0731 42.2202 68.1466 41.1233C67.6422 40.8087 67.1103 40.5404 66.5575 40.3217C66.1778 40.1952 65.7841 40.1249 65.5169 40.4905C65.2497 40.8561 65.5169 41.1936 65.8544 41.4327C66.6841 42.2202 67.556 42.9374 68.456 43.6405C69.0662 44.1351 69.5541 44.7638 69.8816 45.4777C70.2092 46.1916 70.3676 46.9715 70.3444 47.7567C70.3213 48.5418 70.1173 49.3111 69.7483 50.0045C69.3793 50.6979 68.8552 51.2968 68.2169 51.7546C66.3466 53.0483 64.9966 54.9608 63.1966 56.3671C62.9731 56.5652 62.7966 56.8106 62.6799 57.0855C62.5631 57.3603 62.509 57.6577 62.5216 57.9561C62.5216 58.828 62.5216 59.6999 62.5216 60.5577C62.4231 61.9639 62.845 62.7374 64.3778 62.7374C65.083 62.8043 65.7482 63.095 66.2763 63.5671C67.4735 64.3972 68.5894 65.339 69.6091 66.3796C70.3015 66.9977 70.7953 67.8071 71.028 68.7056C71.2608 69.6041 71.2221 70.5514 70.9169 71.428C69.82 74.8452 69.9606 74.9999 73.5044 74.9999H81.4638C84.0794 75.2671 84.0794 75.2671 84.0794 72.4967C84.0132 71.3148 84.0461 70.1294 84.1778 68.953C84.2763 68.0671 84.4731 67.0124 85.8794 67.3077Z" fill="#020201"/>
<path d="M37.9674 25.9833C37.2407 26.7645 36.6597 27.6694 36.2517 28.6552C36.0942 28.5497 35.9168 28.4771 35.7305 28.4419C35.5441 28.4067 35.3526 28.4095 35.1673 28.4502C34.9821 28.491 34.807 28.5687 34.6526 28.6789C34.4982 28.789 34.3677 28.9293 34.2689 29.0911C33.4468 29.9926 32.83 31.0617 32.461 32.2245C32.092 33.3874 31.9795 34.6165 32.1314 35.8271C32.4549 37.8521 32.5392 39.9193 32.7221 41.9724C32.7085 42.9815 33.0572 43.9621 33.7048 44.7361C34.3524 45.5102 35.2561 46.0264 36.2517 46.1911C39.0642 47.0208 41.8767 47.9208 44.8158 48.638C46.2221 48.9896 46.6861 49.7208 46.4189 51.0708C46.2947 51.4261 46.2098 51.7939 46.1658 52.1677C46.1658 53.9115 45.2658 53.8974 43.9439 53.574C41.1314 52.7583 38.1924 52.0693 35.3377 51.2677C34.6012 50.9648 33.7796 50.9404 33.0264 51.1992C32.2733 51.4581 31.6402 51.9823 31.2455 52.674C30.7119 53.8802 29.7781 54.8652 28.6019 55.4622C27.4258 56.0593 26.0795 56.2318 24.7908 55.9505C22.9627 55.6833 21.8939 57.4552 20.3752 58.1021C19.9111 57.7786 20.1221 57.3005 20.1221 56.9068C20.1221 44.7005 20.1221 32.5083 20.1221 20.3443C20.1221 18.938 20.6002 18.7974 21.7955 18.7552C24.608 18.6286 27.4205 18.7552 29.7408 20.738C30.2705 21.1853 30.9467 21.4213 31.6397 21.4005C32.3327 21.3797 32.9935 21.1037 33.4955 20.6255L34.9017 19.5849C35.7877 18.924 36.7721 18.2771 37.8267 19.0927C38.2612 19.6446 38.5335 20.3067 38.613 21.0046C38.6924 21.7025 38.576 22.4088 38.2767 23.0443C37.7142 23.9724 36.6314 24.8443 37.9674 25.9833Z" fill="#B56A56"/>
<path d="M17.6943 19.8512V74.5262C17.6943 77.9434 17.6943 77.9434 14.1927 77.7606C11.9708 77.7606 9.74897 77.7606 7.5271 77.7606C6.64116 77.7606 6.21929 77.4091 6.24741 76.5231C6.24741 76.1856 6.24741 75.8622 6.24741 75.5387V18.7825C6.24741 16.5747 6.24741 16.5606 8.52554 16.5747C10.424 16.5747 12.3083 16.5747 14.1505 16.5747C17.6943 16.4341 17.6943 16.4341 17.6943 19.8512Z" fill="#EAD1AD"/>
<path d="M84.6594 41.4982C84.6594 43.1013 84.2094 43.6216 82.6906 43.3685C82.2238 43.314 81.7543 43.2858 81.2844 43.2841C79.5684 43.5824 77.8027 43.2423 76.3203 42.3279C73.3391 40.5841 70.2453 39.0513 67.236 37.3357C65.0281 36.0701 64.1422 37.167 62.2438 39.4732C61.2453 40.6826 61.6672 41.8498 63.2703 43.1716C64.4094 44.0998 65.5485 45.0279 66.6594 45.9841C66.9356 46.1378 67.1672 46.3605 67.3316 46.6304C67.4961 46.9004 67.5877 47.2083 67.5976 47.5242C67.6075 47.8401 67.5354 48.1532 67.3882 48.4329C67.241 48.7126 67.0238 48.9494 66.7578 49.1201C64.8734 50.9201 62.975 52.706 61.0344 54.4498C60.5138 54.8846 60.1025 55.4356 59.8338 56.0585C59.5652 56.6814 59.4465 57.3586 59.4875 58.0357C59.4875 59.2732 59.4875 60.5248 59.4875 61.7763C59.4509 62.2657 59.5152 62.7574 59.6763 63.2209C59.8374 63.6844 60.0919 64.1099 60.4241 64.4711C60.7563 64.8323 61.1591 65.1215 61.6075 65.3207C62.056 65.52 62.5406 65.625 63.0313 65.6295C65.4219 65.8123 66.5328 67.7248 68.0094 69.1451C68.1428 69.2846 68.2335 69.4593 68.2708 69.6487C68.3082 69.838 68.2907 70.0341 68.2203 70.2138C67.6217 71.7178 67.3763 73.3391 67.5031 74.9529C67.5031 75.5998 67.025 75.5576 66.5891 75.5576C63.6078 75.5576 60.5985 75.7685 57.6453 75.5576C55.3531 75.3326 53.3 73.9966 51.1344 73.181C48.1672 72.0841 47.9844 72.0279 45.9594 74.3482C45.5917 74.8018 45.1193 75.1591 44.5827 75.3894C44.0462 75.6197 43.4617 75.716 42.8797 75.6701C35.7781 75.6701 28.6766 75.6701 21.575 75.6701C20.4359 75.6701 20.1688 75.3888 20.1688 74.2638C20.2391 70.4107 20.1688 66.5576 20.1688 62.7185C20.1448 62.3745 20.2129 62.0303 20.3662 61.7213C20.5194 61.4123 20.7522 61.1498 21.0406 60.9607C23.0797 59.3576 25.1609 58.1482 27.9594 58.542C29.7734 58.8091 30.8984 57.5998 31.925 56.1935C34.0344 53.2826 33.0922 53.381 36.9594 54.3795C39.3078 55.0123 41.6703 55.6029 43.9906 56.2076C46.6063 56.8685 47.9703 56.0248 48.5609 53.3951C48.7438 52.6076 48.9125 51.8201 49.0391 51.0185C49.2395 50.0696 49.0562 49.0799 48.5292 48.2657C48.0022 47.4515 47.1744 46.8789 46.2266 46.6732C43.2313 45.7732 40.2359 44.8732 37.1984 44.0998C36.5813 44.0064 36.0208 43.6871 35.6258 43.2037C35.2308 42.7204 35.0295 42.1075 35.0609 41.4841C34.9484 39.1498 34.8359 36.8154 34.5969 34.4529C34.4422 33.0466 35.3281 32.1326 36.0031 31.106C36.4953 30.3466 36.9594 29.6295 36.2422 28.7576C36.1322 28.1632 36.2487 27.5492 36.5689 27.0364C36.889 26.5237 37.3895 26.1494 37.9719 25.9873C40.0391 25.9873 41.7969 22.9076 41.0938 20.4888C40.9531 19.9826 40.7422 19.4904 40.4891 18.7732C43.3016 18.7732 45.9031 18.7732 48.5328 18.7732C49.4469 18.7732 49.7422 19.7576 50.2484 20.3482C51.6547 22.0498 52.2734 22.1904 54.2422 21.0935C55.4235 20.4466 56.6188 19.2795 57.7859 19.3076C58.9531 19.3357 59.7688 20.9529 60.6828 21.9232C60.8697 22.2118 61.1194 22.4544 61.4133 22.6328C61.7073 22.8111 62.0378 22.9206 62.38 22.9531C62.7223 22.9856 63.0675 22.9402 63.3897 22.8202C63.712 22.7003 64.0029 22.509 64.2406 22.2607C68.9235 17.8591 74.6609 18.6185 80.3 18.8154C83.8578 18.5763 84.6313 19.2795 84.6313 22.8373C84.6172 29.067 84.5469 35.2826 84.6594 41.4982Z" fill="#F4E0BE"/>
<path d="M78.7497 78.0938C79.7763 78.0938 80.8028 78.0938 81.8294 78.0938C82.5318 78.0963 83.2064 78.3683 83.7141 78.8536C84.2219 79.3389 84.524 80.0006 84.5583 80.7021C84.5926 81.4037 84.3563 82.0916 83.8983 82.6241C83.4403 83.1566 82.7954 83.4931 82.0966 83.5641C79.8325 83.6766 77.5544 83.5641 75.2763 83.5641C74.6434 83.5641 74.3903 83.2969 74.4325 82.6922C74.4396 82.6362 74.4396 82.5795 74.4325 82.5234C74.1513 78.0938 74.1513 78.0938 78.7497 78.0938Z" fill="#FFF0D3"/>
<path d="M51.5078 36.201L48.0625 39.7728C47.4156 40.4478 46.6563 40.7853 45.9531 40.0541C45.25 39.3228 45.6438 38.6478 46.2485 38.0572C47.3735 36.9182 49.2578 35.7932 49.3422 34.5697C49.4266 33.3463 47.3875 32.3478 46.2906 31.2228C45.6438 30.576 45.2922 29.8166 46.0375 29.1135C46.7828 28.4103 47.4438 28.8182 48.0063 29.4088C49.1594 30.5478 50.2703 32.4322 51.5078 32.5307C52.7453 32.6291 53.7438 30.576 54.8406 29.5353C55.4735 28.8885 56.2469 28.4807 56.9219 29.2541C57.5969 30.0275 57.2031 30.7307 56.5422 31.3494L53.0547 34.6541C54.3203 35.8916 55.4453 36.9885 56.5844 38.0713C57.2453 38.7041 57.6391 39.4775 56.8797 40.1666C56.1203 40.8557 55.4031 40.4478 54.7844 39.7869L51.5078 36.201Z" fill="#030302"/>
<path d="M56.4212 53.4361C56.4212 53.8439 56.2806 54.2658 56.2243 54.6877C56.1259 55.5173 55.704 55.9955 54.8181 55.897C53.9321 55.7986 53.7915 55.208 53.8196 54.4908C53.8196 54.0548 53.8196 53.6189 53.8196 53.197C53.8196 52.2548 54.129 51.5517 55.2259 51.622C56.3228 51.6923 56.4353 52.6064 56.4212 53.4361Z" fill="#11100E"/>
<path d="M55.8545 47.5707C55.8545 48.5973 55.5873 49.2441 54.7013 49.1316C52.8873 48.8926 53.3935 47.2754 53.1545 46.1785C53.0958 46.0057 53.0857 45.8201 53.1252 45.6419C53.1647 45.4637 53.2522 45.2998 53.3783 45.1679C53.5044 45.0359 53.6643 44.9411 53.8405 44.8937C54.0168 44.8463 54.2026 44.848 54.3779 44.8988C56.0232 45.1941 55.4888 46.741 55.8545 47.5707Z" fill="#0B0A08"/>
<path d="M54.5748 59.0637C54.5045 60.3434 52.7889 62.1012 51.9873 61.9746C51.8376 61.9733 51.6898 61.9409 51.5533 61.8796C51.4167 61.8183 51.2944 61.7293 51.1939 61.6183C51.0935 61.5073 51.0172 61.3767 50.9698 61.2347C50.9224 61.0927 50.9049 60.9424 50.9185 60.7934C50.9185 59.9356 52.6623 57.9809 53.4217 58.1074C54.1811 58.234 54.6029 58.5715 54.5748 59.0637Z" fill="#090807"/>
<path d="M47.8985 62.1452C48.0623 62.121 48.2294 62.1323 48.3884 62.1784C48.5474 62.2245 48.6946 62.3043 48.82 62.4124C48.9454 62.5205 49.0461 62.6543 49.1152 62.8047C49.1843 62.9552 49.2202 63.1187 49.2204 63.2843C49.3329 64.0859 47.5751 65.2671 46.2673 65.2671C46.1053 65.2807 45.9422 65.2606 45.7883 65.2082C45.6344 65.1559 45.4929 65.0723 45.3728 64.9627C45.2527 64.8532 45.1564 64.72 45.0902 64.5715C45.0239 64.423 44.989 64.2625 44.9876 64.0999C44.9032 63.1999 46.4923 62.1593 47.8985 62.1452Z" fill="#0E0D0B"/>
<path d="M39.7574 67.3688C39.5946 67.3973 39.4274 67.3881 39.2687 67.3419C39.11 67.2958 38.964 67.2139 38.8418 67.1026C38.7197 66.9913 38.6246 66.8535 38.5639 66.6998C38.5032 66.546 38.4785 66.3805 38.4917 66.2157C38.4917 65.386 39.9824 64.4157 41.3042 64.3735C41.4807 64.339 41.6626 64.3452 41.8363 64.3917C42.0099 64.4382 42.1707 64.5236 42.3063 64.6416C42.4419 64.7596 42.5488 64.907 42.6189 65.0726C42.6889 65.2381 42.7203 65.4175 42.7105 65.597C42.7808 66.3704 41.0089 67.3688 39.7574 67.3688Z" fill="#0C0B09"/>
<path d="M35.27 67.1328C35.5889 67.1378 35.895 67.2592 36.1307 67.4742C36.3664 67.6892 36.5154 67.9829 36.5497 68.3C36.6481 68.9187 34.6793 70.8031 33.9059 70.8172C33.7451 70.8327 33.5828 70.815 33.4291 70.7652C33.2754 70.7155 33.1335 70.6347 33.0123 70.5279C32.891 70.4212 32.7929 70.2907 32.7241 70.1445C32.6553 69.9983 32.6172 69.8396 32.6122 69.6781C32.5278 68.9047 34.384 67.175 35.27 67.1328Z" fill="#151410"/>
<path d="M13.5859 9.72656H9.94375C9.46999 9.72656 9.08594 10.1106 9.08594 10.5844V13.2141C9.08594 13.6878 9.46999 14.0719 9.94375 14.0719H13.5859C14.0597 14.0719 14.4438 13.6878 14.4438 13.2141V10.5844C14.4438 10.1106 14.0597 9.72656 13.5859 9.72656Z" fill="#605A60"/>
<path d="M13.5859 79.6641H9.94375C9.46999 79.6641 9.08594 80.0481 9.08594 80.5219V83.1516C9.08594 83.6253 9.46999 84.0094 9.94375 84.0094H13.5859C14.0597 84.0094 14.4438 83.6253 14.4438 83.1516V80.5219C14.4438 80.0481 14.0597 79.6641 13.5859 79.6641Z" fill="#605A60"/>
<path d="M10.0687 20.9375H10.0547C9.00621 20.9375 8.15625 21.7875 8.15625 22.8359V72.4203C8.15625 73.4688 9.00621 74.3187 10.0547 74.3187H10.0687C11.1172 74.3187 11.9672 73.4688 11.9672 72.4203V22.8359C11.9672 21.7875 11.1172 20.9375 10.0687 20.9375Z" fill="white"/>
<path opacity="0.13" d="M75.9375 76.9741V84.8631C75.9375 84.8631 81.7031 85.6788 83.4469 84.8631C84.2631 84.5535 84.9675 84.0059 85.4689 83.2914C85.9704 82.5768 86.2457 81.7282 86.2594 80.8553C86.0766 79.3506 85.5281 76.6366 84.15 76.9741C82.7719 77.3116 75.9375 76.9741 75.9375 76.9741Z" fill="black"/>
</svg>
