<svg width="90" height="90" viewBox="0 0 90 90" fill="none" xmlns="http://www.w3.org/2000/svg">
<path d="M56.4327 32.2239C56.4327 32.2239 36.0842 37.5958 37.0405 56.988C37.9967 76.3802 58.7811 79.038 63.8717 77.7864C68.9624 76.5349 69.4967 75.5646 73.9124 76.8021L83.6717 79.6146L79.9592 67.4083C79.9592 67.4083 86.1467 51.9396 77.4842 41.1396C74.9992 38.0134 71.7706 35.5596 68.0933 34.0022C64.416 32.4448 60.4071 31.8334 56.4327 32.2239Z" fill="#51CA54"/>
<path d="M42.6797 7.83288C42.6797 7.83288 24.9328 0.12663 15.3 13.9782C5.66719 27.8298 12.4172 38.1657 12.4172 38.1657L7.875 52.9454L22.3172 48.7266C22.3172 48.7266 36.4922 54.0985 46.5328 45.9141C56.5734 37.7298 55.7578 27.1126 54.5063 21.4454C53.2547 15.7782 45.2813 8.73288 42.6797 7.83288Z" fill="#FF526A"/>
<path d="M48.6729 9.93699C48.3969 9.91316 48.119 9.94783 47.8574 10.0387C47.5957 10.1296 47.3562 10.2747 47.1545 10.4645C46.9527 10.6543 46.7933 10.8845 46.6866 11.1402C46.5799 11.3958 46.5284 11.671 46.5354 11.9479C46.5183 12.2129 46.5546 12.4787 46.6421 12.7294C46.7297 12.9801 46.8668 13.2107 47.0451 13.4074C47.2235 13.6042 47.4396 13.7631 47.6805 13.8747C47.9215 13.9863 48.1824 14.0484 48.4479 14.0573H48.6307C48.8874 14.0629 49.1427 14.0179 49.382 13.9248C49.6213 13.8317 49.8399 13.6924 50.0253 13.5148C50.2108 13.3371 50.3594 13.1247 50.4627 12.8897C50.5661 12.6546 50.6221 12.4015 50.6276 12.1448V12.0745C50.6576 11.802 50.6292 11.5262 50.5441 11.2655C50.4591 11.0048 50.3194 10.7653 50.1343 10.563C49.9493 10.3607 49.7232 10.2002 49.4712 10.0922C49.2192 9.98425 48.947 9.93133 48.6729 9.93699Z" fill="black"/>
<path d="M85.3317 79.0719C84.6426 77.0328 83.9254 74.9656 83.3207 72.9125C82.7582 71.1547 82.1957 69.3969 81.6192 67.6531C81.4649 67.2355 81.3966 66.7911 81.4183 66.3465C81.4401 65.9018 81.5514 65.4662 81.7457 65.0656C83.4324 61.2288 84.0907 57.0188 83.6558 52.8502C83.2208 48.6816 81.7076 44.6981 79.2652 41.2921C76.8228 37.886 73.5354 35.1749 69.7267 33.4255C65.918 31.6762 61.7193 30.949 57.5442 31.3156C57.066 31.3156 56.8129 31.3156 56.6582 31.1469C56.5035 30.9781 56.4754 30.725 56.5457 30.3031C56.8 28.4316 56.743 26.531 56.377 24.6781C56.0164 22.147 55.2219 19.697 54.0285 17.4359C53.8828 17.0965 53.6093 16.828 53.2673 16.6885C52.9252 16.5491 52.542 16.5498 52.2004 16.6906C51.4692 16.9859 51.2582 17.6047 51.5395 18.5609C51.5939 18.7649 51.6793 18.9594 51.7926 19.1375C51.8629 19.2641 51.9332 19.3906 51.9895 19.5172C53.8064 23.4726 54.3612 27.8916 53.5785 32.1734C52.9863 35.4167 51.6537 38.4796 49.6845 41.1239C47.7154 43.7681 45.1627 45.9224 42.2251 47.4191C39.2874 48.9158 36.0441 49.7146 32.7474 49.7533C29.4507 49.792 26.1895 49.0695 23.2176 47.6422C22.7668 47.4091 22.2715 47.2747 21.7647 47.2481C21.258 47.2214 20.7513 47.303 20.2785 47.4875C18.0004 48.275 15.7364 48.9922 13.2473 49.7516L10.027 50.7781L11.0676 47.5156C11.8973 44.9984 12.6567 42.6781 13.416 40.3437C13.5855 39.9151 13.657 39.454 13.6254 38.9941C13.5937 38.5343 13.4598 38.0873 13.2332 37.6859C11.4284 34.0784 10.7382 30.0152 11.2504 26.0141C11.6013 22.6378 12.7544 19.3943 14.6136 16.5543C16.4727 13.7142 18.984 11.3598 21.9379 9.68749C24.9279 8.01437 28.274 7.07901 31.6982 6.95917C35.1224 6.83932 38.5258 7.53844 41.6254 8.99843C42.1545 9.33822 42.793 9.46391 43.4114 9.34999C43.7444 9.19169 44.002 8.90888 44.1285 8.56249C44.6207 7.43749 43.8473 6.97343 42.7926 6.4953C38.5754 4.45586 33.8426 3.73075 29.2082 4.41405C25.4678 4.91611 21.8965 6.28495 18.7787 8.41147C15.6609 10.538 13.083 13.3634 11.2504 16.6625C9.43925 19.9167 8.41342 23.549 8.25473 27.2698C8.09603 30.9907 8.80885 34.6972 10.3364 38.0937C10.5142 38.4775 10.6133 38.893 10.6278 39.3157C10.6423 39.7384 10.5719 40.1597 10.4207 40.5547C9.80198 42.425 9.19729 44.2953 8.5926 46.1797L8.43792 46.8266C7.90354 48.5 7.36917 50.1594 6.82073 51.8328C6.5676 52.6062 6.37073 53.2391 6.93323 53.8156C7.49573 54.3922 8.22698 54.2656 9.01448 54.0125L11.7004 53.1547L20.602 50.3422C20.8547 50.2314 21.1276 50.1742 21.4035 50.1742C21.6795 50.1742 21.9524 50.2314 22.2051 50.3422C26.0204 52.1355 30.2365 52.9061 34.4395 52.5781C34.9317 52.5781 35.227 52.5781 35.3957 52.8031C35.5645 53.0281 35.5926 53.3516 35.5082 53.8156C35.2776 55.691 35.3584 57.5916 35.7473 59.4406C36.346 63.046 37.755 66.4686 39.8681 69.4507C41.9811 72.4327 44.7432 74.8964 47.9463 76.6564C51.1495 78.4164 54.7102 79.4267 58.3603 79.6112C62.0104 79.7958 65.6549 79.1498 69.0192 77.7219C69.4875 77.4956 69.9969 77.3664 70.5165 77.3423C71.0361 77.3181 71.5553 77.3994 72.0426 77.5812C74.2364 78.3266 76.4442 78.9875 78.5817 79.7047H78.6801C80.241 80.1969 81.7879 80.6891 83.3207 81.2094C83.6064 81.3078 83.9048 81.3647 84.2067 81.3781C84.3815 81.3804 84.5549 81.3452 84.715 81.2749C84.8751 81.2045 85.0182 81.1007 85.1348 80.9703C85.641 80.3797 85.5848 79.8312 85.3317 79.0719ZM70.4676 74.2344C69.98 74.2444 69.5004 74.3595 69.0614 74.5719C66.0959 76.0474 62.8277 76.8125 59.5155 76.8069C56.2032 76.8012 52.9377 76.0248 49.9773 74.5392C47.0169 73.0535 44.4429 70.8993 42.4588 68.2471C40.4747 65.5948 39.135 62.5172 38.5457 59.2578C38.4051 58.5266 38.3348 57.7531 38.2645 57.0641L38.1942 56.3328C38.0412 55.0181 38.1414 53.6863 38.4895 52.4094C38.7989 51.3547 39.7129 51.1859 40.6129 51.0031C40.9656 50.9531 41.3105 50.8586 41.6395 50.7219C44.9126 49.3735 47.8489 47.3215 50.2403 44.7114C52.6316 42.1013 54.4195 38.997 55.477 35.6187C55.5636 35.176 55.8051 34.7786 56.1581 34.4977C56.5111 34.2168 56.9527 34.0708 57.4035 34.0859C61.2011 33.7088 65.0304 34.3532 68.4954 35.9524C71.9604 37.5517 74.9351 40.0477 77.1118 43.1823C79.2885 46.3169 80.5881 49.9761 80.8762 53.7815C81.1643 57.5868 80.4304 61.4 78.7504 64.8266C78.5507 65.2125 78.435 65.6363 78.4107 66.0701C78.3865 66.5039 78.4543 66.938 78.6098 67.3437C79.3973 69.6781 80.1285 71.9844 80.902 74.375L81.9567 77.7078L78.7504 76.7234C76.2754 75.95 73.9551 75.2187 71.6067 74.4312C71.2429 74.294 70.8563 74.2272 70.4676 74.2344Z" fill="black"/>
<path d="M44.4103 38.3376C44.0306 37.972 43.665 37.5923 43.2994 37.2126C42.9338 36.8329 42.1603 36.0595 41.5556 35.511C40.9509 34.9626 40.965 34.4001 41.3869 33.7391C43.0539 31.2648 43.6849 28.2358 43.1447 25.3016C42.6399 22.429 41.1104 19.8369 38.84 18.0061C36.5696 16.1752 33.7122 15.2299 30.7978 15.3454C29.1041 15.4575 27.4538 15.9298 25.9573 16.7309C24.4608 17.532 23.1526 18.6433 22.1201 19.9906C21.0875 21.3379 20.3545 22.89 19.9701 24.5433C19.5856 26.1967 19.5585 27.913 19.8906 29.5776C20.2228 31.2422 20.9064 32.8168 21.8959 34.1959C22.8854 35.5751 24.1579 36.7272 25.6284 37.5751C27.0989 38.4229 28.7335 38.9471 30.4228 39.1126C32.1121 39.278 33.8173 39.0809 35.4244 38.5345C35.8657 38.349 36.2816 38.108 36.6619 37.8173C37.4494 37.2688 38.2931 36.7485 39.1228 37.1141C40.0179 37.613 40.7949 38.2989 41.4009 39.1251C41.6822 39.4626 41.9775 39.8001 42.2869 40.1095L42.3994 40.222C42.7379 40.6808 43.2427 40.9888 43.8056 41.0798H43.8759C44.2382 41.0421 44.5738 40.8718 44.8181 40.6016C44.9507 40.4904 45.059 40.3531 45.1364 40.1983C45.2138 40.0435 45.2586 39.8745 45.2681 39.7016C45.1643 39.1551 44.8579 38.668 44.4103 38.3376ZM39.6572 31.3063C39.3619 31.911 39.1088 32.2766 38.7431 32.3329C38.3775 32.3891 38.0822 32.136 37.7025 31.686C37.0529 30.9275 36.3578 30.2089 35.6213 29.5345L35.1572 29.0282C35.0254 28.8832 34.8647 28.7673 34.6855 28.6881C34.5063 28.6088 34.3125 28.5678 34.1166 28.5678C33.9206 28.5678 33.7268 28.6088 33.5476 28.6881C33.3684 28.7673 33.2078 28.8832 33.0759 29.0282C32.9423 29.151 32.8367 29.3011 32.7662 29.4683C32.6956 29.6355 32.6619 29.8159 32.6672 29.9973C32.6726 30.1787 32.7169 30.3568 32.7971 30.5196C32.8773 30.6824 32.9916 30.826 33.1322 30.9407C33.9338 31.7563 34.7775 32.5579 35.6353 33.3735L36.8306 34.4985L36.6619 34.6251C35.147 35.7934 33.2875 36.4264 31.3744 36.4251C28.9501 36.412 26.6304 35.4365 24.9254 33.7131C23.2204 31.9896 22.2699 29.6595 22.283 27.2352C22.296 24.811 23.2716 22.4912 24.995 20.7863C26.7184 19.0813 29.0486 18.1308 31.4728 18.1438C32.8486 18.1431 34.2059 18.4608 35.4384 19.072C37.6087 20.1358 39.2701 22.0146 40.0605 24.2986C40.8508 26.5827 40.7058 29.0866 39.6572 31.2641L39.9666 31.4188L39.6572 31.3063Z" fill="black"/>
<path d="M71.7158 62.7484C71.6528 62.538 71.5777 62.3314 71.4908 62.1297C68.4627 55.5672 65.4299 49.0469 62.3924 42.5688C62.3054 42.2563 62.1232 41.9788 61.8712 41.7746C61.6192 41.5705 61.3098 41.4499 60.9861 41.4297C60.2549 41.4297 59.9033 41.8938 59.5799 42.5969C56.5424 49.1594 53.4955 55.675 50.4393 62.1437C49.933 63.2125 50.0877 63.8875 50.9033 64.2812C51.1196 64.3996 51.3601 64.467 51.6065 64.4781C51.7504 64.4834 51.8939 64.4594 52.0283 64.4078C52.26 64.2967 52.4667 64.1397 52.6359 63.9463C52.8051 63.7529 52.9333 63.5272 53.0127 63.2828C53.3502 62.5656 53.6877 61.8766 54.0533 61.0891C54.4189 60.3016 54.9393 59.2188 55.3471 58.2766C55.4458 57.9267 55.6689 57.625 55.9745 57.4282C56.2801 57.2314 56.6471 57.153 57.0065 57.2078C58.9752 57.2078 61.9564 57.2922 64.8814 57.2078C65.3141 57.1647 65.7482 57.2747 66.108 57.5189C66.4678 57.763 66.7305 58.1257 66.8502 58.5438C67.3986 59.7953 68.0033 61.0609 68.5377 62.1859L69.2689 63.6906C69.3883 63.9931 69.6219 64.2364 69.9193 64.368C70.2167 64.4996 70.5539 64.5088 70.858 64.3938C71.2939 64.2813 71.8002 64.0281 71.8143 62.9875L71.7158 62.7484ZM64.8393 54.1703H57.0627L60.9158 45.8453L64.8393 54.1703Z" fill="black"/>
<path d="M15.6669 27.2881C15.7263 25.1703 16.2071 23.0855 17.0812 21.1556C17.9553 19.2257 19.2053 17.4893 20.758 16.0479C22.3107 14.6065 24.1351 13.4889 26.1245 12.7604C28.114 12.032 30.2287 11.7073 32.345 11.8053C34.1591 11.8053 34.1591 9.06306 32.345 8.99275C29.8563 8.88933 27.3718 9.28222 25.0364 10.1485C22.701 11.0148 20.5613 12.3372 18.7421 14.0387C16.9228 15.7402 15.4603 17.7867 14.4399 20.059C13.4194 22.3312 12.8613 24.7839 12.7982 27.274C12.7279 29.0881 15.5404 29.0881 15.6107 27.274L15.6669 27.2881Z" fill="white"/>
<path d="M60.7749 70.5531C58.6632 70.7801 56.5274 70.5836 54.4925 69.9753C52.4577 69.3669 50.5645 68.3589 48.9238 67.0103C47.2831 65.6616 45.9279 63.9993 44.9372 62.1206C43.9466 60.2419 43.3406 58.1845 43.1546 56.0688C42.9999 54.2828 40.1874 54.2547 40.3421 56.0688C40.5277 58.5537 41.2061 60.9767 42.3378 63.1967C43.4695 65.4167 45.0319 67.3892 46.9337 68.9992C48.8356 70.6091 51.0389 71.8244 53.4153 72.574C55.7916 73.3237 58.2935 73.5928 60.7749 73.3656C62.5608 73.1969 62.5749 70.3844 60.7749 70.5531Z" fill="white"/>
<path d="M64.632 73.1937C65.5873 73.1937 66.3617 72.4193 66.3617 71.4641C66.3617 70.5088 65.5873 69.7344 64.632 69.7344C63.6768 69.7344 62.9023 70.5088 62.9023 71.4641C62.9023 72.4193 63.6768 73.1937 64.632 73.1937Z" fill="white"/>
<path d="M36.3937 12.9359C37.349 12.9359 38.1234 12.1615 38.1234 11.2063C38.1234 10.251 37.349 9.47656 36.3937 9.47656C35.4385 9.47656 34.6641 10.251 34.6641 11.2063C34.6641 12.1615 35.4385 12.9359 36.3937 12.9359Z" fill="white"/>
</svg>
