<svg width="70" height="79" viewBox="0 0 70 79" fill="none" xmlns="http://www.w3.org/2000/svg">
<path d="M68.4877 41.0005H60.3247C59.8061 41.0005 59.3858 41.4208 59.3858 41.9395V42.6394H52.1959L42.0923 41.1352C40.2388 40.8564 38.5453 41.2936 37.0606 42.4331L34.6658 44.2589L32.3425 42.4622C30.85 41.3144 29.1481 40.8709 27.2825 41.1437L17.2262 42.6394H10.0363V41.9395C10.0363 41.4209 9.61594 41.0005 9.09734 41.0005H0.938907C0.420313 41.0005 0 41.4208 0 41.9395V60.7722C0 61.2908 0.420313 61.7113 0.938907 61.7113H9.09734C9.61594 61.7113 10.0363 61.2909 10.0363 60.7722V60.068H11.582C12.2508 60.068 12.7947 60.2425 13.345 60.6336L13.5764 60.7983L12.4366 61.938C11.1706 63.2066 11.3786 65.2541 12.9309 66.8064C13.6419 67.5173 14.5647 68.0258 15.4894 68.1411C15.4848 68.3733 15.5069 68.6119 15.5573 68.8547C15.7214 69.6444 16.1766 70.4437 16.8387 71.1059C17.7272 71.9944 18.7705 72.4511 19.7367 72.4511C20.0787 72.4511 20.4102 72.3913 20.7225 72.2756C20.9242 72.9361 21.3241 73.5961 21.9158 74.1872C22.8034 75.0739 23.8461 75.53 24.8116 75.53C25.0977 75.53 25.3767 75.4887 25.6433 75.408C25.8363 76.0978 26.243 76.7903 26.8617 77.4075C27.7484 78.2922 28.7892 78.7469 29.7533 78.7469C30.4922 78.7469 31.1859 78.4797 31.7305 77.9341L34.1295 75.535C34.1527 75.5119 34.1739 75.4878 34.1959 75.4642L37.8786 78.113C38.3673 78.4645 38.9184 78.6336 39.4839 78.6336C40.5881 78.6336 41.747 77.9887 42.603 76.7988C43.11 76.0936 43.4016 75.3489 43.4817 74.6411C44.6894 74.8006 46.0123 74.1527 46.9619 72.8323C47.448 72.1567 47.7359 71.4441 47.8297 70.7628C49.1927 71.0352 50.6108 70.1859 51.488 68.9661C52.2323 67.9313 52.5019 66.8238 52.3134 65.8573C53.1347 65.6084 53.9483 65.0072 54.6008 64.1005C55.335 63.0802 55.6245 62.0016 55.4805 61.0648L56.085 60.6344C56.6286 60.2481 57.1903 60.0683 57.8531 60.0683H59.3856V60.7725C59.3856 61.2911 59.8059 61.7116 60.3245 61.7116H68.4875C69.0061 61.7116 69.4264 61.2912 69.4264 60.7725V41.9398C69.4264 41.4212 69.0061 41.0008 68.4875 41.0008L68.4877 41.0005ZM8.15844 59.8331H1.87781V42.8784H8.15844V59.8331ZM13.7652 63.2653L16.165 60.8656C16.3516 60.6795 16.5767 60.6036 16.8156 60.6036C17.3714 60.6036 18.0009 61.0142 18.3881 61.4023C18.9391 61.9545 19.5348 62.9997 18.9163 63.6169L16.5205 66.017C15.8866 66.6475 14.8209 66.0406 14.2588 65.4786C13.7909 65.0108 13.0861 63.9459 13.7652 63.2653ZM19.4722 70.5488C19.043 70.4597 18.5672 70.1787 18.1667 69.7781C17.7663 69.3775 17.4853 68.9017 17.3959 68.4725C17.2917 67.9716 17.4806 67.7128 17.6319 67.5616L17.8481 67.3453L17.8495 67.3439L22.752 62.4414C22.8728 62.3206 23.0625 62.1756 23.3898 62.1756C23.4719 62.1756 23.5625 62.1848 23.663 62.2056C24.0922 62.2947 24.568 62.5756 24.9684 62.9762C25.3689 63.3769 25.6498 63.8527 25.7392 64.2819C25.8431 64.782 25.6552 65.0406 25.5041 65.192C25.5041 65.192 25.5037 65.1922 25.5037 65.1923L21.3792 69.3127C21.3664 69.3255 21.3563 69.3395 21.3438 69.3523L20.3833 70.3128C20.2322 70.4639 19.9736 70.653 19.4723 70.5486L19.4722 70.5488ZM25.4588 73.3913C24.8419 74.008 23.7956 73.4106 23.2428 72.8586C22.6972 72.3137 22.1098 71.2891 22.6838 70.668L26.8309 66.5208C26.9537 66.398 27.1436 66.2544 27.4678 66.2544C27.5748 66.2544 27.6964 66.2702 27.8352 66.3072C28.6734 66.5319 29.5713 67.4298 29.7959 68.268C29.9456 68.8269 29.7458 69.1089 29.5827 69.2719L28.7783 70.0753C28.76 70.0928 28.7411 70.1091 28.7231 70.1272L26.3217 72.5284C26.3191 72.5311 26.3169 72.5341 26.3142 72.5369L25.4591 73.3911C25.4591 73.3911 25.4589 73.3914 25.4588 73.3916V73.3913ZM32.8023 74.2062L30.4017 76.6067C30.4017 76.6067 30.4013 76.6072 30.4009 76.6073C29.7853 77.2245 28.7402 76.6291 28.1878 76.0778C27.6348 75.5261 27.037 74.483 27.6442 73.8623L30.1053 71.4039C30.2283 71.2956 30.408 71.1884 30.6881 71.1884C30.7955 71.1884 30.9177 71.2042 31.0569 71.2416C31.8961 71.4667 32.7941 72.3647 33.018 73.2027C33.167 73.7606 32.9666 74.0423 32.8023 74.2064V74.2062ZM53.0764 63.0033C52.5272 63.7667 51.6159 64.3614 51.0991 63.9925C51.0988 63.9925 51.0983 63.9919 51.0978 63.9916L42.5242 57.7286C42.1053 57.4225 41.518 57.5142 41.2122 57.933C40.9062 58.3517 40.9978 58.9391 41.4166 59.245L49.9958 65.512C49.9958 65.512 49.997 65.5127 49.9975 65.5131C49.9988 65.5141 50 65.5152 50.0013 65.5161C51.0612 66.2784 50.0789 67.7087 49.9634 67.8694C49.5216 68.4839 48.5573 69.2691 47.8508 68.7614L46.708 67.9406C46.708 67.9406 46.7067 67.9397 46.7061 67.9392L38.3872 61.8606C37.9683 61.5548 37.3808 61.6462 37.0752 62.0655C36.7694 62.4844 36.8609 63.0716 37.2798 63.3773L45.6017 69.4583C45.6017 69.4583 45.6033 69.4591 45.6041 69.4597C45.6053 69.4606 45.6064 69.4617 45.6077 69.4627C45.6077 69.4627 45.608 69.4627 45.6081 69.463L45.6092 69.4637C46.3155 69.9739 45.8936 71.1016 45.4375 71.7358C44.9814 72.3702 44.0461 73.1294 43.3378 72.6195L42.3508 71.91L35.1584 66.6575C34.7395 66.3519 34.1522 66.4433 33.8464 66.8622C33.5405 67.2809 33.632 67.8683 34.0509 68.1742L41.2439 73.4272C41.2439 73.4272 41.2455 73.428 41.2463 73.4286C41.2473 73.4294 41.2483 73.4303 41.2495 73.4313C41.4228 73.5558 41.6506 73.7805 41.6286 74.2908C41.6097 74.7283 41.4094 75.2427 41.0788 75.7022C40.6217 76.3377 39.6844 77.0981 38.9758 76.5886L34.9466 73.6883C34.9588 73.3758 34.9216 73.0505 34.8327 72.7178C34.437 71.2367 33.0877 69.8734 31.6091 69.4478C31.7642 68.9352 31.768 68.3702 31.6103 67.7819C31.2077 66.2791 29.8245 64.8959 28.3217 64.4931C28.0906 64.4312 27.8633 64.3956 27.6409 64.3827C27.632 64.2239 27.6119 64.0628 27.578 63.8997C27.4139 63.11 26.9587 62.3106 26.2966 61.6484C25.6344 60.9862 24.8348 60.5312 24.0453 60.367C23.0447 60.1589 22.1138 60.4241 21.4244 61.1136L20.8139 61.7241C20.5947 61.1528 20.2297 60.5884 19.7181 60.0758C18.1875 58.5419 16.1961 58.2938 14.9292 59.4558L14.4339 59.1031C13.5691 58.4884 12.6364 58.1897 11.5823 58.1897H10.0366V44.517H17.2959C17.3422 44.517 17.3883 44.5136 17.4341 44.5069L27.5569 43.0012C28.9177 42.802 30.1084 43.1125 31.1959 43.9487L33.1222 45.4384L29.2034 48.4342C28.2609 49.1531 27.8311 50.2409 27.9933 51.4978C28.2198 53.2552 29.625 55.0952 31.2617 55.7778C32.4325 56.2661 33.5956 56.1384 34.5375 55.4187L38.97 52.0314C39.782 51.4122 40.8717 51.4148 41.6806 52.037L49.0552 57.7239C49.0634 57.7303 49.0717 57.7364 49.0802 57.7425L53.2473 60.7406C54.0048 61.2866 53.4966 62.4195 53.0767 63.0028L53.0764 63.0033ZM57.8531 58.1898C56.7961 58.1898 55.862 58.4886 54.9964 59.1037L54.5752 59.4036C54.5019 59.3389 54.4261 59.2761 54.3444 59.2172L50.1892 56.2277L42.8261 50.5494C41.3344 49.402 39.327 49.3975 37.8305 50.5386L33.3966 53.927C33.2486 54.0402 32.798 54.3841 31.9839 54.0448C30.9528 53.6148 29.9978 52.3645 29.855 51.2578C29.7423 50.3847 30.1934 50.0408 30.3425 49.927L35.2322 46.1889C35.2359 46.1861 35.2391 46.1827 35.2428 46.1797L38.2011 43.9244C39.268 43.1056 40.4828 42.7916 41.8141 42.992L51.9878 44.5067C52.0336 44.5134 52.0797 44.5169 52.1261 44.5169H59.3855V58.1895H57.853L57.8531 58.1898ZM67.5486 59.8331H61.2636V42.8784H67.5486V59.8331ZM22.6992 16.7908C19.478 16.7908 16.8572 19.4116 16.8572 22.633C16.8572 24.1287 17.4228 25.4944 18.3506 26.5289C14.7939 27.5842 12.5995 29.9011 12.4906 32.8608C12.4902 32.8722 12.49 32.8838 12.49 32.8953V37.2403C12.49 37.7589 12.9103 38.1794 13.4289 38.1794H31.9737C32.4923 38.1794 32.9127 37.7591 32.9127 37.2403V32.8953C32.9127 32.8839 32.9127 32.8723 32.912 32.8608C32.8031 29.9009 30.6072 27.5841 27.0478 26.5288C27.9755 25.4942 28.5411 24.1286 28.5411 22.633C28.5411 22.2058 28.4937 21.7898 28.4062 21.3884H41.0155C40.928 21.7897 40.8806 22.2058 40.8806 22.633C40.8806 24.1287 41.4463 25.4944 42.3741 26.5289C38.8173 27.5842 36.623 29.9011 36.5141 32.8608C36.5136 32.8722 36.5134 32.8838 36.5134 32.8953V37.2403C36.5134 37.7589 36.9338 38.1794 37.4523 38.1794H55.9972C56.5158 38.1794 56.9361 37.7591 56.9361 37.2403V32.8953C56.9361 32.8839 56.9361 32.8723 56.9355 32.8608C56.8266 29.9006 54.6306 27.5834 51.0717 26.5281C51.9991 25.4937 52.5644 24.1283 52.5644 22.633C52.5644 19.4117 49.9438 16.7908 46.7223 16.7908C46.095 16.7908 45.4909 16.8914 44.9241 17.0753V16.1044C44.9241 16.093 44.9241 16.0814 44.9234 16.0698C44.8145 13.1095 42.6188 10.7923 39.0598 9.73719C39.9872 8.70266 40.5527 7.33734 40.5527 5.84203C40.5527 2.62078 37.932 0 34.7106 0C31.4892 0 28.8686 2.62063 28.8686 5.84203C28.8686 7.33781 29.4342 8.70344 30.362 9.73797C26.8053 10.7931 24.6111 13.1098 24.502 16.0698C24.5016 16.0812 24.5014 16.0928 24.5014 16.1044V17.0769C23.9333 16.892 23.3277 16.7909 22.6987 16.7909L22.6992 16.7908ZM22.6992 18.6689C24.885 18.6689 26.6633 20.4472 26.6633 22.633C26.6633 24.8188 24.885 26.5969 22.6992 26.5969C20.5134 26.5969 18.7352 24.8188 18.7352 22.633C18.7352 20.4472 20.5134 18.6689 22.6992 18.6689ZM31.0348 32.9134V36.3013H14.368V32.9134C14.4862 30.002 17.4945 28.4738 20.3709 27.9897C21.0848 28.3011 21.8719 28.475 22.6991 28.475C23.5262 28.475 24.3134 28.3011 25.0273 27.9897C27.9059 28.4741 30.9166 30.0023 31.0348 32.9134ZM55.0584 32.9134V36.3013H38.3916V32.9134C38.5098 30.002 41.5181 28.4738 44.3945 27.9895C45.1084 28.3011 45.8955 28.4748 46.7228 28.4748C47.5502 28.4748 48.338 28.3008 49.052 27.9891C51.9295 28.473 54.9402 30.0016 55.0584 32.9134ZM50.6869 22.633C50.6869 24.8188 48.9086 26.5969 46.7228 26.5969C44.537 26.5969 42.7586 24.8188 42.7586 22.633C42.7586 20.4472 44.5369 18.6689 46.7228 18.6689C48.9087 18.6689 50.6869 20.4472 50.6869 22.633ZM34.7111 1.87813C36.8969 1.87813 38.6753 3.65625 38.6753 5.84203C38.6753 8.02781 36.897 9.80609 34.7111 9.80609C32.5252 9.80609 30.747 8.02781 30.747 5.84203C30.747 3.65625 32.5253 1.87813 34.7111 1.87813ZM26.3798 16.1225C26.4981 13.2111 29.5064 11.6828 32.383 11.1987C33.0967 11.5103 33.8839 11.6841 34.7111 11.6841C35.5383 11.6841 36.3263 11.51 37.0403 11.1983C39.9178 11.6822 42.9284 13.2106 43.0467 16.1225V18.0969C42.555 18.4963 42.13 18.9739 41.7892 19.5103H27.6331C27.2934 18.9753 26.8698 18.4989 26.38 18.1003V16.1225H26.3798ZM45.7972 8.87609C45.7972 8.3575 46.2175 7.93703 46.7361 7.93703H55.4039C60.7011 7.93703 65.0106 12.2486 65.0106 17.5483V33.23L65.6486 31.9425C65.8789 31.4778 66.4425 31.2881 66.9069 31.518C67.3716 31.7483 67.5616 32.3116 67.3314 32.7763L64.9223 37.6386C64.8886 37.7105 64.8459 37.7775 64.7959 37.838C64.765 37.8755 64.7314 37.9103 64.6953 37.9422C64.532 38.0873 64.3177 38.1764 64.0827 38.1791C64.0819 38.1791 64.0811 38.1791 64.0805 38.1791C64.0794 38.1791 64.0784 38.1795 64.0773 38.1791C64.0762 38.1791 64.0753 38.1791 64.0745 38.1791H64.0689C64.068 38.1794 64.067 38.1791 64.0661 38.1791C64.0653 38.1791 64.0641 38.1791 64.0628 38.1791C64.062 38.1791 64.0611 38.1791 64.0605 38.1791C63.8306 38.1764 63.6206 38.0913 63.4588 37.9517C63.4166 37.9155 63.3775 37.8753 63.342 37.8316C63.2941 37.7725 63.2531 37.7075 63.2206 37.6378L60.8159 32.7756C60.5861 32.3108 60.7766 31.7477 61.2414 31.5177C61.7064 31.2877 62.2695 31.4783 62.4994 31.9431L63.1327 33.2234V17.5483C63.1327 13.2842 59.6655 9.81516 55.4038 9.81516H46.7359C46.2173 9.81516 45.797 9.39484 45.797 8.87609H45.7972ZM2.09469 32.7756C1.86484 32.3108 2.05531 31.7477 2.52016 31.5177C2.985 31.2877 3.54828 31.4783 3.77813 31.9431L4.41141 33.2234V17.5483C4.41141 12.2486 8.72297 7.93703 14.0227 7.93703H22.6905C23.2091 7.93703 23.6294 8.35734 23.6294 8.87609C23.6294 9.39484 23.2091 9.81516 22.6905 9.81516H14.0227C9.75844 9.81516 6.28937 13.2842 6.28937 17.5483V33.2302L6.92734 31.9425C7.15766 31.4778 7.72125 31.2881 8.18563 31.518C8.65031 31.7483 8.84031 32.3116 8.61016 32.7763L6.20094 37.6387C6.16859 37.7073 6.12828 37.7717 6.08109 37.8302L6.08063 37.8306C6.08063 37.8306 6.08047 37.8311 6.08031 37.8313C6.04563 37.8739 6.0075 37.9134 5.96641 37.9492C5.80406 38.0903 5.59281 38.1766 5.36156 38.1792C5.36078 38.1792 5.36 38.1792 5.35922 38.1792C5.35813 38.1792 5.35719 38.1797 5.35609 38.1792C5.35516 38.1792 5.35422 38.1792 5.35328 38.1792H5.34766C5.34656 38.1795 5.34594 38.1792 5.34484 38.1792C5.34391 38.1792 5.34281 38.1792 5.34156 38.1792C5.34078 38.1792 5.33984 38.1792 5.33922 38.1792C5.10734 38.1766 4.89578 38.09 4.73344 37.9481C4.69422 37.9139 4.65766 37.8764 4.62422 37.8356C4.62406 37.8353 4.62375 37.835 4.62344 37.8347C4.57453 37.7748 4.53266 37.7088 4.49953 37.638L2.09484 32.7758L2.09469 32.7756Z" fill="#0182FC"/>
</svg>
