<svg width="90" height="90" viewBox="0 0 90 90" fill="none" xmlns="http://www.w3.org/2000/svg">
<path d="M38.8711 84.1203L37.9852 76.1328L31.1367 81.0969L38.632 84.7391L38.8711 84.1203Z" fill="#FBB316"/>
<path d="M64.0242 1.60156H48.5555C47.2585 1.60156 46.207 2.65299 46.207 3.95V19.4188C46.207 20.7158 47.2585 21.7672 48.5555 21.7672H64.0242C65.3212 21.7672 66.3727 20.7158 66.3727 19.4188V3.95C66.3727 2.65299 65.3212 1.60156 64.0242 1.60156Z" fill="#4AC7FF"/>
<path d="M23.3602 22.4141H7.89141C6.5944 22.4141 5.54297 23.4655 5.54297 24.7625V40.2313C5.54297 41.5283 6.5944 42.5797 7.89141 42.5797H23.3602C24.6572 42.5797 25.7086 41.5283 25.7086 40.2313V24.7625C25.7086 23.4655 24.6572 22.4141 23.3602 22.4141Z" fill="#FFE266"/>
<path d="M64.0242 63.5781H48.5555C47.2585 63.5781 46.207 64.6296 46.207 65.9266V81.3953C46.207 82.6923 47.2585 83.7437 48.5555 83.7437H64.0242C65.3212 83.7437 66.3727 82.6923 66.3727 81.3953V65.9266C66.3727 64.6296 65.3212 63.5781 64.0242 63.5781Z" fill="#FBB316"/>
<path d="M64.0242 43.0078H48.5555C47.2585 43.0078 46.207 44.0592 46.207 45.3563V60.825C46.207 62.122 47.2585 63.1734 48.5555 63.1734H64.0242C65.3212 63.1734 66.3727 62.122 66.3727 60.825V45.3563C66.3727 44.0592 65.3212 43.0078 64.0242 43.0078Z" fill="#F37123"/>
<path d="M64.2117 22.4766H48.743C47.446 22.4766 46.3945 23.528 46.3945 24.825V40.2938C46.3945 41.5908 47.446 42.6422 48.743 42.6422H64.2117C65.5087 42.6422 66.5602 41.5908 66.5602 40.2938V24.825C66.5602 23.528 65.5087 22.4766 64.2117 22.4766Z" fill="#83A0FF"/>
<path d="M84.6961 22.4141H69.2273C67.9303 22.4141 66.8789 23.4655 66.8789 24.7625V40.2313C66.8789 41.5283 67.9303 42.5797 69.2273 42.5797H84.6961C85.9931 42.5797 87.0445 41.5283 87.0445 40.2313V24.7625C87.0445 23.4655 85.9931 22.4141 84.6961 22.4141Z" fill="#46E25D"/>
<path d="M43.7195 22.4141H28.2508C26.9538 22.4141 25.9023 23.4655 25.9023 24.7625V40.2313C25.9023 41.5283 26.9538 42.5797 28.2508 42.5797H43.7195C45.0165 42.5797 46.068 41.5283 46.068 40.2313V24.7625C46.068 23.4655 45.0165 22.4141 43.7195 22.4141Z" fill="#FBB316"/>
<path d="M22.9921 55.4638C22.9921 55.4638 19.153 48.9247 17.5217 47.9825C15.8905 47.0403 10.4905 48.7419 11.0389 52.3841C11.5874 56.0263 15.8202 60.6247 15.8202 60.6247L22.9921 55.4638Z" fill="#A2D17D"/>
<path d="M37.643 75.8953L23.2992 55.9688L17.0273 60.75L30.4148 80.7469L37.643 75.8953Z" fill="#EFDA86"/>
<path d="M9.96935 53.9014C10.2673 54.7868 10.6989 55.6214 11.249 56.3764C17.1178 64.6264 22.9678 72.8811 28.799 81.1404C29.2955 81.8935 30.0055 82.4811 30.8381 82.8279C33.1725 83.7701 35.4647 84.8248 37.785 85.7951C39.3459 86.4561 40.0631 85.9217 39.9506 84.2061C39.7819 81.7029 39.6131 79.1998 39.4584 76.6967C39.4063 75.8473 39.1083 75.0313 38.6006 74.3483C32.624 65.9811 26.7178 57.5717 20.7412 49.2186C17.9287 45.2529 13.8506 45.4358 10.6444 49.2186C10.1522 49.8819 9.83282 50.6572 9.71499 51.4747C9.59715 52.2921 9.68457 53.1261 9.96935 53.9014ZM33.1022 80.9014C34.4381 79.9592 35.6334 79.1154 36.9834 78.1873C37.0959 79.7764 37.2084 81.2108 37.3209 82.8561C35.8661 82.3148 34.4556 81.6613 33.1022 80.9014ZM18.0412 61.5795C17.9147 61.2701 18.1678 61.0733 18.4631 60.8623C19.8694 59.8498 21.2756 58.8514 22.6819 57.8108C23.1881 57.4451 23.4553 57.4733 23.849 58.0217C27.8053 63.6467 31.7756 69.2389 35.76 74.7983C36.1678 75.3748 36.1537 75.6561 35.5209 76.0639C34.2621 76.8775 33.0594 77.7748 31.9209 78.7498C31.035 79.4951 30.585 79.4529 29.8819 78.4545C26.4084 73.4342 22.8506 68.4701 19.3069 63.492C18.899 62.8451 18.5053 62.2545 18.0412 61.5795ZM12.5006 53.5358C11.9381 51.3561 12.5006 50.3998 14.5959 49.1904C15.2077 48.8767 15.9131 48.7979 16.579 48.9689C17.2449 49.1399 17.8251 49.5489 18.21 50.1186C19.3772 51.5248 20.4037 53.0998 21.5006 54.5904C21.8803 55.0967 21.8522 55.4061 21.2756 55.7858C19.8694 56.7561 18.4631 57.8108 16.9725 58.8233C16.7053 59.0061 16.4803 59.4139 16.1428 58.8936C14.8041 57.1956 13.587 55.4052 12.5006 53.5358Z" fill="#020202"/>
<path d="M18.0401 32.0391C18.3772 30.8894 18.6172 29.7133 18.7573 28.5234C18.7573 26.9906 19.5307 27.1172 20.6557 27.3281C21.3869 27.4969 21.4854 27.7078 21.3307 28.425C20.712 31.2375 20.1401 34.0781 19.6151 36.9469C19.4885 37.6781 19.3198 38.0437 18.5182 37.9453C17.7166 37.8469 17.0276 38.1703 16.8026 36.975C16.4446 35.4689 15.9985 33.9851 15.4666 32.5312C14.9885 34.1766 14.4963 35.4141 14.2713 36.75C14.0463 38.0859 13.4276 38.0156 12.4432 38.0297C11.4588 38.0437 11.4026 37.2844 11.276 36.6234C10.7416 33.9937 10.2495 31.3641 9.67289 28.7484C9.43383 27.6797 9.88383 27.525 10.7838 27.3422C11.6838 27.1594 12.0354 27.3422 12.1901 28.2281C12.3008 29.4752 12.5995 30.6984 13.076 31.8562L14.0604 28.5937C14.2713 27.8625 14.4401 27.1875 15.537 27.3C16.6338 27.4125 16.9432 27.5953 17.0557 28.5516C17.3227 29.7304 17.6513 30.8945 18.0401 32.0391Z" fill="#020202"/>
<path d="M56.5039 85.0045C55.393 85.2576 55.0977 84.8217 55.0977 83.8092C55.0977 82.7967 55.407 82.5295 56.4055 82.5014C57.4039 82.4732 57.8117 82.881 57.8117 83.9076C57.8117 84.9342 57.3758 85.2717 56.5039 85.0045Z" fill="#222222"/>
<path d="M88.4401 25.1285C88.4887 24.5912 88.4196 24.0497 88.2376 23.5419C88.0555 23.034 87.765 22.5719 87.3862 22.1877C87.0074 21.8035 86.5494 21.5065 86.0441 21.3174C85.5388 21.1283 84.9984 21.0516 84.4605 21.0926C80.6073 21.0926 76.7636 21.0926 72.9292 21.0926C71.2778 20.9782 69.619 21.0348 67.9792 21.2613C67.9792 15.5098 67.9792 9.75821 67.9792 4.02071C67.9552 3.53468 67.8321 3.05868 67.6176 2.62192C67.403 2.18516 67.1015 1.79685 66.7314 1.48082C66.3614 1.16478 65.9307 0.927685 65.4658 0.78408C65.0008 0.640474 64.5114 0.593386 64.0276 0.645705C59.0214 0.645705 54.0292 0.645705 49.023 0.645705C48.4755 0.608531 47.9264 0.690921 47.414 0.887157C46.9015 1.08339 46.4379 1.38878 46.0552 1.78212C45.6726 2.17547 45.3801 2.64735 45.1981 3.16504C45.016 3.68273 44.9488 4.23382 45.0011 4.78008C45.0011 7.95821 45.0011 11.1504 45.0011 14.3285C44.9039 16.6737 44.965 19.0228 45.1839 21.3598C44.453 21.106 43.6755 21.0148 42.9058 21.0926H30.2495C28.8331 20.8592 27.3793 21.1015 26.1151 21.7816C26.0161 21.8746 25.8854 21.9263 25.7495 21.9263C25.6137 21.9263 25.483 21.8746 25.3839 21.7816C24.2786 21.1439 22.9893 20.9009 21.7276 21.0926C17.8183 21.0926 13.923 21.2191 10.0276 21.0926C5.44327 20.9098 3.6714 22.077 4.0089 27.2801C4.0089 28.1098 4.0089 28.6863 5.17608 28.6863C6.34327 28.6863 6.58233 28.2926 6.58233 27.2801C6.58233 26.6754 6.58233 26.0707 6.58233 25.466C6.58233 24.2285 7.03233 23.6801 8.32608 23.6941C13.1636 23.6941 17.9964 23.6941 22.8245 23.6941C24.1042 23.6941 24.5683 24.1863 24.5542 25.466C24.5542 30.2473 24.5542 35.0238 24.5542 39.7957C24.5542 41.202 24.0761 41.652 22.7261 41.6379C18.0011 41.6379 13.2761 41.5676 8.55108 41.6379C7.00421 41.6379 6.52608 41.0332 6.56827 39.5848C6.56827 37.2223 6.56827 34.8598 6.56827 32.5535C6.56827 31.6816 6.56827 31.0207 5.33077 31.0348C4.09327 31.0488 4.02296 31.4988 4.05108 32.441C4.05108 35.0145 4.05108 37.602 4.05108 40.1754C4.0195 40.6911 4.09593 41.2078 4.27547 41.6923C4.45501 42.1768 4.73371 42.6185 5.09374 42.9891C5.45378 43.3598 5.88721 43.6511 6.36632 43.8446C6.84542 44.0382 7.35965 44.1295 7.87608 44.1129C12.9948 44.1129 18.1136 44.3098 23.2042 44.0426C24.8856 43.9441 26.5713 43.9441 28.2526 44.0426C33.8776 44.3238 39.5026 44.141 45.198 44.141C44.9353 44.9335 44.8678 45.7777 45.0011 46.602C45.4651 52.1285 43.9745 57.7676 45.8308 63.2238C45.8308 63.3785 45.7323 63.6176 45.6198 63.8004C45.1139 64.7737 44.8991 65.8722 45.0011 66.9645C45.0011 70.8176 45.1276 74.6707 45.0011 78.5098C44.762 84.5004 46.4073 85.3301 51.7933 85.0488H51.948C52.6511 85.1473 52.8761 84.8941 52.9183 84.1488C52.9183 83.0379 52.8058 82.3348 51.512 82.5457C50.8652 82.6441 50.1902 82.5457 49.5292 82.5457C48.123 82.6441 47.6167 82.0113 47.6448 80.591C47.6448 75.866 47.6448 71.141 47.6448 66.416C47.6448 65.0941 48.0808 64.5457 49.4589 64.5598C54.1839 64.5598 58.9089 64.5598 63.6339 64.5598C65.1948 64.5598 65.6167 65.1504 65.6027 66.5988C65.6027 70.6207 65.6027 74.6285 65.6027 78.6363C65.6027 82.6441 66.1651 82.5879 61.7214 82.5316C60.7511 82.5316 60.3152 82.6441 60.2448 83.8395C60.1745 85.0348 60.9339 85.0488 61.7776 85.0348C62.6214 85.0207 63.5355 85.0348 64.4073 85.0348C64.8921 85.0581 65.3764 84.9813 65.8301 84.809C66.2837 84.6368 66.697 84.3728 67.0441 84.0337C67.3912 83.6945 67.6646 83.2874 67.8473 82.8378C68.0299 82.3883 68.1179 81.9058 68.1058 81.4207C67.7823 75.4441 69.1464 69.3973 67.3323 63.491C67.3042 63.3898 67.3042 63.2828 67.3323 63.1816C68.9777 57.6551 67.5011 52.0301 67.9792 46.4051C68.0927 45.6417 68.0302 44.8625 67.7964 44.127C73.4214 44.127 79.0464 44.127 84.6714 44.127C85.1823 44.1306 85.6884 44.0278 86.1575 43.8254C86.6265 43.6229 87.0484 43.3251 87.3962 42.9508C87.744 42.5765 88.0102 42.134 88.1778 41.6514C88.3454 41.1688 88.4108 40.6565 88.3698 40.1473C88.4542 35.1551 88.4542 30.1348 88.4401 25.1285ZM43.187 41.5816C38.3495 41.5816 33.5261 41.5816 28.6886 41.5816C27.4933 41.5816 27.0292 41.1035 27.0292 39.9223C27.0292 35.0426 27.0292 30.1488 27.0292 25.2691C27.0292 24.0457 27.5636 23.6379 28.7308 23.6379C33.5542 23.6379 38.3917 23.6379 43.2151 23.6379C44.4808 23.6379 45.0011 24.0879 44.973 25.3816C44.9026 27.7441 44.973 30.1066 44.973 32.4129C44.973 34.7191 44.973 37.2504 44.973 39.6691C45.0011 41.0191 44.5792 41.5957 43.187 41.5816ZM49.2198 3.13477C54.0573 3.13477 58.8808 3.13477 63.7183 3.13477C64.9839 3.13477 65.4761 3.65508 65.448 4.92071C65.448 7.33946 65.448 9.7582 65.448 12.1629C65.448 14.5676 65.448 16.8879 65.448 19.1941C65.448 20.502 65.0401 21.0785 63.648 21.0645C58.8667 21.0645 54.0995 21.0645 49.3183 21.0645C47.912 21.0645 47.4901 20.5301 47.5042 19.2082C47.5042 14.427 47.5042 9.65039 47.5042 4.87852C47.4901 3.66914 47.9542 3.12071 49.2198 3.13477ZM47.5183 32.4551C47.5183 30.0504 47.5183 27.6316 47.5183 25.2129C47.5183 24.0738 47.9823 23.6379 49.0933 23.652H63.9151C65.0683 23.652 65.448 24.1863 65.448 25.2691C65.448 30.1488 65.448 35.1129 65.448 39.9223C65.448 41.1176 64.9839 41.5816 63.7745 41.5816C58.8948 41.5816 53.9308 41.5816 49.1214 41.5816C47.898 41.5816 47.4901 41.0332 47.5042 39.866C47.5605 37.4051 47.5183 34.9301 47.5183 32.4551ZM65.448 45.9832C65.448 48.402 65.448 50.8207 65.448 53.2254C65.448 55.6301 65.448 57.9504 65.448 60.2566C65.448 61.5363 64.9698 62.0145 63.6902 62.0004C58.8667 62.0004 54.0292 62.0004 49.2058 62.0004C47.898 62.0004 47.4901 61.452 47.5042 60.2145C47.5042 55.4332 47.5042 50.666 47.5042 45.8848C47.5042 44.4785 47.9823 44.0426 49.3323 44.0566C54.1136 44.1129 58.8901 44.1129 63.662 44.0566C65.0683 44.0988 65.4761 44.6895 65.448 45.9832ZM84.0105 41.5957C81.648 41.5113 79.2855 41.5957 76.9792 41.5957C74.673 41.5957 72.2542 41.5957 69.948 41.5957C68.6402 41.5957 68.0636 41.1879 68.0777 39.7957C68.1339 35.0238 68.1339 30.2473 68.0777 25.466C68.0777 24.0598 68.598 23.6379 69.9339 23.652C74.7011 23.652 79.4823 23.652 84.2636 23.652C85.6698 23.652 86.0777 24.2426 86.0777 25.5223C86.0777 30.2098 86.0777 34.9348 86.0777 39.6973C85.9792 41.0895 85.4308 41.6379 84.0105 41.5957Z" fill="#020202"/>
<path d="M61.7509 8.08401C60.6821 8.29494 60.4993 7.77463 60.429 6.81838C60.3446 5.53869 61.0196 5.62307 61.8774 5.62307C63.0306 5.51057 63.0165 6.10119 63.0587 7.02932C63.1571 7.98557 62.679 8.25276 61.7509 8.08401Z" fill="#252626"/>
<path d="M61.875 13.0336C60.9187 13.1883 60.4688 12.907 60.4688 11.8242C60.4688 10.7414 60.8484 10.5023 61.875 10.418C62.9016 10.3336 63.1547 10.6992 63.1406 11.6977C63.1266 12.6961 62.8734 13.2586 61.875 13.0336Z" fill="#252626"/>
<path d="M59.6543 35.9172C59.4012 35.6359 59.2324 35.2844 58.9793 35.0031C58.2902 34.2438 58.0512 33.7375 58.9793 32.8234C59.4018 32.4087 59.7018 31.8855 59.8463 31.3113C59.9908 30.7371 59.9742 30.1342 59.7983 29.5689C59.6225 29.0035 59.2942 28.4976 58.8495 28.1067C58.4048 27.7158 57.861 27.4551 57.2777 27.3531C56.1897 27.2302 55.0961 27.1645 54.0012 27.1562C53.1152 27.1563 52.8762 27.4797 52.8902 28.3094C52.8902 30.9953 52.8902 33.6953 52.8902 36.3813C52.8902 37.2672 52.7074 38.0547 54.1559 38.0547C55.6043 38.0547 55.4777 37.3797 55.4215 36.4516C55.4215 35.9313 55.4215 35.3969 55.4215 34.4406C56.3215 35.6641 56.9965 36.4656 57.5449 37.3516C58.0934 38.2375 58.459 38.575 59.5137 37.8156C60.5684 37.0562 60.259 36.5641 59.6543 35.9172ZM56.2512 31.5719C55.5762 31.6984 55.3934 31.3328 55.4637 30.7563C55.534 30.1797 55.1543 29.5469 55.9981 29.6453C56.8418 29.7438 57.4043 29.7578 57.4043 30.5312C57.4043 31.3047 56.8559 31.4594 56.2512 31.5719Z" fill="#050505"/>
<path d="M79.4109 28.4448C77.6531 26.7151 75.3891 27.4464 73.3078 27.3761C72.7594 27.3761 72.9563 27.9527 72.9563 28.2902C72.9563 29.6964 72.9563 31.1027 72.9563 32.5089V35.1526C72.9563 37.8667 72.9563 37.8667 75.7688 37.8526C78.5813 37.8386 80.1281 36.8261 80.7609 34.5198C81.127 33.4824 81.1945 32.363 80.9558 31.289C80.7172 30.2151 80.1819 29.2296 79.4109 28.4448ZM77.2453 35.1526C76.0781 35.7433 75.4734 35.3214 75.4453 33.9714C75.4453 33.4792 75.4453 32.987 75.4453 32.4948C75.4453 32.0027 75.4453 31.5105 75.4453 31.0042C75.4453 29.7105 75.9656 29.4011 77.175 29.9073C77.6528 30.1347 78.0463 30.5075 78.2989 30.9724C78.5516 31.4373 78.6504 31.9703 78.5813 32.4948C78.649 33.0206 78.558 33.5545 78.3199 34.0281C78.0819 34.5018 77.7076 34.8934 77.2453 35.1526Z" fill="#040404"/>
<path d="M36 27.2094C34.6199 27.2683 33.3152 27.8552 32.3555 28.8488C31.3959 29.8425 30.8547 31.1668 30.8439 32.5482C30.8331 33.9295 31.3534 35.2622 32.2973 36.2708C33.2413 37.2793 34.5366 37.8866 35.9156 37.9672C36.6229 37.9727 37.3244 37.8389 37.98 37.5734C38.6355 37.3078 39.2324 36.9157 39.7364 36.4195C40.2405 35.9233 40.6419 35.3327 40.9176 34.6813C41.1934 34.03 41.3382 33.3307 41.3438 32.6234C41.3493 31.9161 41.2155 31.2147 40.9499 30.5591C40.6844 29.9035 40.2923 29.3067 39.7961 28.8026C39.2999 28.2986 38.7092 27.8972 38.0579 27.6214C37.4066 27.3457 36.7073 27.2009 36 27.1953V27.2094ZM35.8453 35.5625C35.2676 35.5322 34.7115 35.3328 34.2461 34.9892C33.7807 34.6456 33.4265 34.1729 33.2274 33.6298C33.0283 33.0866 32.9931 32.4969 33.1262 31.9339C33.2593 31.3709 33.5549 30.8595 33.9762 30.463C34.3974 30.0665 34.9259 29.8025 35.4959 29.7037C36.0659 29.6049 36.6523 29.6757 37.1825 29.9073C37.7126 30.1389 38.163 30.5212 38.4778 31.0065C38.7926 31.4919 38.9579 32.059 38.9531 32.6375C38.9167 33.4333 38.5719 34.1836 37.9918 34.7296C37.4117 35.2756 36.6419 35.5743 35.8453 35.5625Z" fill="#020303"/>
<path d="M19.9828 62.4111L30.5296 77.5283C31.0359 78.2595 32.2593 77.5282 31.739 76.8111L21.1921 61.6939C20.6718 60.9626 19.4624 61.6939 19.9828 62.4111Z" fill="white"/>
<path d="M13.3864 53.1299L16.4661 57.6581C16.56 57.8177 16.7131 57.9338 16.8922 57.9812C17.0712 58.0286 17.2617 58.0035 17.4223 57.9112C17.582 57.8173 17.6981 57.6642 17.7455 57.4851C17.7929 57.3061 17.7677 57.1155 17.6755 56.9549L14.5958 52.469C14.5506 52.3886 14.4898 52.318 14.4169 52.2615C14.3439 52.205 14.2604 52.1637 14.1712 52.1401C14.082 52.1165 13.989 52.1111 13.8977 52.1241C13.8064 52.1371 13.7186 52.1683 13.6395 52.2159C13.4799 52.3098 13.3638 52.4629 13.3164 52.642C13.269 52.821 13.2942 53.0115 13.3864 53.1721V53.1299Z" fill="white"/>
<path d="M49.2188 46.8047V59.2641C49.2188 59.637 49.3669 59.9947 49.6306 60.2584C49.8944 60.5222 50.252 60.6703 50.625 60.6703C50.998 60.6703 51.3556 60.5222 51.6194 60.2584C51.8831 59.9947 52.0312 59.637 52.0312 59.2641V46.8047C52.0312 46.4317 51.8831 46.074 51.6194 45.8103C51.3556 45.5466 50.998 45.3984 50.625 45.3984C50.252 45.3984 49.8944 45.5466 49.6306 45.8103C49.3669 46.074 49.2188 46.4317 49.2188 46.8047Z" fill="white"/>
<path d="M49.457 66.9531V79.75C49.457 80.123 49.6052 80.4806 49.8689 80.7444C50.1326 81.0081 50.4903 81.1562 50.8633 81.1562C51.2362 81.1562 51.5939 81.0081 51.8577 80.7444C52.1214 80.4806 52.2695 80.123 52.2695 79.75V66.9531C52.2695 66.5802 52.1214 66.2225 51.8577 65.9588C51.5939 65.695 51.2362 65.5469 50.8633 65.5469C50.4903 65.5469 50.1326 65.695 49.8689 65.9588C49.6052 66.2225 49.457 66.5802 49.457 66.9531Z" fill="white"/>
<path d="M48.2031 26.0962V28.0227C48.2021 28.2078 48.2376 28.3913 48.3075 28.5626C48.3775 28.7339 48.4806 28.8898 48.611 29.0212C48.7374 29.1482 48.8914 29.2445 49.061 29.3024C49.2289 29.3935 49.4185 29.4372 49.6094 29.429C49.9783 29.4274 50.3318 29.281 50.5938 29.0212C50.8547 28.7531 51.0053 28.3967 51.0156 28.0227V26.0962C51.0149 25.9101 50.9772 25.726 50.9048 25.5547C50.8324 25.3833 50.7266 25.228 50.5938 25.0977C50.4674 24.9707 50.3134 24.8744 50.1438 24.8165C49.9828 24.7205 49.7963 24.6763 49.6094 24.6899C49.4243 24.6888 49.2409 24.7243 49.0695 24.7943C48.8982 24.8643 48.7424 24.9674 48.611 25.0977C48.354 25.3672 48.2083 25.7238 48.2031 26.0962Z" fill="white"/>
<path d="M48.4023 5.62692C48.5007 7.16284 48.5007 8.70349 48.4023 10.2394C48.4023 10.6124 48.5505 10.9701 48.8142 11.2338C49.078 11.4975 49.4356 11.6457 49.8086 11.6457C50.1816 11.6457 50.5392 11.4975 50.803 11.2338C51.0667 10.9701 51.2148 10.6124 51.2148 10.2394C51.3132 8.70349 51.3132 7.16284 51.2148 5.62692C51.2022 5.26031 51.0574 4.91065 50.807 4.64254C50.6112 4.44507 50.3612 4.31011 50.0886 4.25473C49.8161 4.19934 49.5332 4.22602 49.2758 4.33138C49.0184 4.43675 48.7981 4.61607 48.6426 4.84667C48.4871 5.07727 48.4035 5.3488 48.4023 5.62692Z" fill="white"/>
<path d="M68.668 25.75V28.5625C68.6783 28.9365 68.8289 29.2929 69.0898 29.5609C69.2873 29.7544 69.5373 29.8855 69.8088 29.9377C70.0803 29.9898 70.3611 29.9608 70.6162 29.8543C70.8713 29.7478 71.0893 29.5684 71.243 29.3387C71.3967 29.1089 71.4793 28.8389 71.4805 28.5625V25.75C71.4752 25.3791 71.3235 25.0253 71.0586 24.7656C70.799 24.5007 70.4451 24.349 70.0742 24.3438C69.7013 24.3438 69.3436 24.4919 69.0798 24.7556C68.8161 25.0194 68.668 25.377 68.668 25.75Z" fill="white"/>
<path d="M27.7735 25.6875V28.4297C27.7735 28.8027 27.9216 29.1604 28.1853 29.4241C28.4491 29.6878 28.8068 29.836 29.1797 29.836C29.3648 29.837 29.5482 29.8016 29.7196 29.7316C29.8909 29.6616 30.0467 29.5585 30.1781 29.4281C30.4351 29.1587 30.5808 28.802 30.586 28.4297V25.6875C30.587 25.5025 30.5516 25.319 30.4816 25.1477C30.4116 24.9763 30.3085 24.8205 30.1781 24.6891C29.9087 24.4321 29.552 24.2865 29.1797 24.2813C28.9946 24.2802 28.8112 24.3157 28.6398 24.3857C28.4685 24.4556 28.3127 24.5588 28.1813 24.6891C28.0509 24.8205 27.9478 24.9763 27.8778 25.1477C27.8079 25.319 27.7724 25.5025 27.7735 25.6875Z" fill="white"/>
<path d="M7.03128 25.407V26.7148C7.03021 26.8999 7.06569 27.0833 7.13567 27.2547C7.20565 27.426 7.30876 27.5818 7.4391 27.7132C7.56551 27.8403 7.71949 27.9365 7.8891 27.9945C8.0544 28.0924 8.24603 28.1367 8.43753 28.1211H8.80316C9.03822 28.064 9.25258 27.9422 9.42191 27.7695L9.64691 27.4742C9.78324 27.2449 9.85152 26.9815 9.84378 26.7148V25.407C9.84698 25.2211 9.80346 25.0374 9.71722 24.8726C9.66349 24.6937 9.56128 24.533 9.42191 24.4086C9.29794 24.2785 9.14317 24.1817 8.97191 24.1273C8.80858 24.0374 8.62385 23.9936 8.43753 24.0007H8.05785C7.82279 24.0578 7.60843 24.1796 7.4391 24.3523L7.2141 24.6476C7.09262 24.8619 7.02958 25.1044 7.03128 25.3508V25.407Z" fill="white"/>
</svg>
